<svg viewBox="0 0 170 408" fill="none" xmlns="http://www.w3.org/2000/svg">
<path d="M56.8939 140.446C52.6594 136.593 50.6538 139.12 47.2196 145.434C51.3745 148.45 53.4952 150.85 56.7264 157.074L56.8939 166.719C58.7318 168.596 59.6118 169.612 59.5654 171.042C58.6055 178.688 58.6115 183.425 62.2369 189.334C62.024 203.003 61.5292 208.17 59.5654 210.286C58.4262 212.384 57.5172 214.175 56.7264 215.94C55.4018 218.896 54.4088 221.78 53.2206 225.917C51.1608 231.599 52.0698 234.457 54.2224 237.557C81.7228 240.527 96.0496 239.549 118.338 229.908C118.041 229.165 117.638 228.986 116.669 228.91C117.34 215.988 116.885 209.077 114.665 197.316L113.329 175.268C117.124 167.387 115.761 158.702 110.992 152.32V143.106C112.875 142.02 113.012 140.841 113.329 138.783C113.104 138.535 112.881 138.293 112.661 138.055C107.195 132.128 103.481 128.959 96.6324 123.817C94.5201 123.93 93.671 124.64 92.6252 126.81C90.1351 126.809 89.834 127.505 89.3103 128.716L89.2858 128.773C87.8775 127.941 87.0879 128.072 85.6795 128.773C85.7616 128.897 85.8505 129.019 85.9465 129.138C88.1951 134.21 85.9235 137.26 74.9265 143.106C62.0323 142.678 62.701 140.474 61.569 137.12C59.637 136.978 58.6281 137.887 56.8939 140.446Z" fill="#D9D9D9"/>
<path d="M61.569 137.12C62.701 140.474 62.0323 142.678 74.9265 143.106C85.9235 137.26 88.1951 134.21 85.9465 129.138C85.8505 129.019 85.7616 128.897 85.6795 128.773C84.3488 126.748 84.8155 123.928 85.6795 119.034C82.8068 128.092 78.837 130.525 64.9085 125.812C64.6679 125.926 64.3148 125.805 63.9066 125.523C65.3148 127.879 66.354 129.736 67.112 131.799C66.2963 135.22 65.2239 136.525 61.569 137.12Z" fill="#C0A26C"/>
<path d="M96.6855 123.766L96.6324 123.817C103.481 128.959 107.195 132.128 112.661 138.055C118.927 131.988 121.47 119.778 126.687 104.195C128.095 100.607 129.728 90.4685 129.358 88.5645C132.713 83.0533 133.211 76.4229 134.367 65.2844C137.665 56.1163 138.575 49.3003 139.376 35.6855C138.302 33.3781 139.978 32.9124 141.714 31.6947C148.286 28.9859 152.558 25.6973 161.082 17.0615C161.784 15.7668 161.841 15.204 159.746 15.2563C160.609 14.5241 161.426 13.7309 162.418 12.7381C163.403 11.1272 163.29 10.5856 161.75 10.2793C162.373 9.73538 163.028 9.12493 163.754 8.41466C164.58 6.02059 164.152 5.51068 162.418 5.50478L163.42 4.7565C164.375 1.66758 163.989 0.657796 160.414 1.09821C150.43 6.7704 144.713 11.1914 135.376 20.3872C134.937 20.8199 134.49 21.2632 134.033 21.7177C129.091 26.9312 128.127 31.1172 127.021 39.0114L126.019 50.984C121.578 62.0351 120.144 70.312 117.67 85.2389C114.211 88.5622 112.827 93.165 110.324 101.202C106.967 113.934 103.263 117.476 96.6855 123.766Z" fill="#C0A26C"/>
<path d="M60.2333 120.491C59.8601 119.697 59.5001 118.921 59.1538 118.163C59.275 121.848 59.0609 123.33 55.5583 119.494L52.5528 115.835C52.4394 128.318 51.2163 135.719 47.2196 145.434C50.6538 139.12 52.6594 136.593 56.8939 140.446C58.6281 137.887 59.637 136.978 61.569 137.12C65.2239 136.525 66.2963 135.22 67.112 131.799C66.354 129.736 65.3148 127.879 63.9066 125.523C62.6428 124.65 60.8509 122.235 60.2333 120.491Z" fill="#0E0A04"/>
<path d="M54.7619 107.188C51.5252 96.8891 53.3845 91.1884 62.9048 86.9015C72.3011 86.1842 77.8168 85.1881 81.6054 97.8764C82.6398 99.3522 83.5099 100.701 84.208 102.102C84.8427 103.376 85.3351 104.694 85.6795 106.191C87.1828 102.729 86.8089 99.8102 83.6089 92.5553C75.9283 80.2503 68.6986 81.8215 60.9013 81.913C50.0327 86.7152 45.2404 90.3353 49.8813 106.191L50.2246 107.521C50.7085 106.435 52.2561 106.503 54.7619 107.188Z" fill="#0E0A04"/>
<path d="M59.1538 118.163C57.2526 114.002 55.7633 110.375 54.7619 107.188C52.2561 106.503 50.7085 106.435 50.2246 107.521C49.6986 108.701 50.4294 111.244 52.5528 115.835L55.5583 119.494C59.0609 123.33 59.275 121.848 59.1538 118.163Z" fill="#C0A26C"/>
<path d="M59.5654 171.042C57.6146 185.719 61.8535 200.876 59.2315 208.623C56.6094 216.37 56.7264 215.94 56.7264 215.94C57.5172 214.175 58.4262 212.384 59.5654 210.286C61.5292 208.17 62.024 203.003 62.2369 189.334C58.6115 183.425 58.6055 178.688 59.5654 171.042Z" fill="#0E0A04"/>
<path d="M118.338 229.908C96.0496 239.549 81.7228 240.527 54.2224 237.557C54.8321 243.408 54.2909 247.645 52.8726 250.86C52.9191 255.734 53.6019 260.828 55.0671 266.823C59.0735 273.627 61.6284 281.822 63.5726 292.431C66.6752 304.896 67.0804 311.782 62.9047 323.693C61.6065 336.056 62.1479 342.736 64.9084 354.289L65.5762 366.262C65.7248 366.607 65.907 366.941 66.1191 367.26C68.7423 371.203 75.9214 372.839 80.1499 365.153C80.19 365.08 80.2299 365.006 80.2695 364.932C79.0308 358.384 79.3497 354.216 81.9391 345.809C83.2657 338.442 83.5973 334.248 83.6088 326.686L87.6161 317.706C87.7819 313.93 88.3935 310.683 90.6215 302.408C91.0882 286.485 91.5784 277.332 92.6251 260.837C98.9291 266.525 104.432 272.012 110.4 278.463C113.004 281.492 115.619 284.522 118.338 287.65C124.009 292.722 128.885 298.392 133.699 305.069C129.686 319.379 128.718 327.441 132.364 341.984C133.145 349.607 133.136 353.797 131.362 360.941C139.265 368.38 143.526 371.454 149.061 363.601C147.552 351.357 148.362 343.165 153.402 325.688C154.07 319.702 153.402 309.725 158.745 302.408C158.622 293.875 157.179 290.424 153.402 285.447L135.87 257.677C127.362 247.011 123.741 240.909 118.338 229.908Z" fill="#071021"/>
<path d="M68.0708 387.879C67.5503 383.563 67.0037 380.399 66.1191 376.904L63.9065 377.902C63.5203 380.685 63.6104 381.995 63.9065 384.221C65.7755 385.416 66.5345 388.054 66.834 392.868C67.04 394.982 67.1479 397.492 67.2459 400.517C71.7539 402.342 73.7759 403.505 76.5962 405.838C81.1598 407.491 83.7202 407.28 88.284 405.838C92.4437 403.827 91.9025 401.385 91.2894 397.191C90.7019 395.836 90.1723 395.516 88.9518 395.861L89.9536 399.852C89.44 403.206 86.787 403.787 80.2695 403.842C74.3716 401.854 72.2764 399.806 68.9156 395.861C68.1984 393.769 67.9673 391.092 68.0708 387.879Z" fill="#D9D9D9"/>
<path d="M167.761 396.858C167.971 399.802 167.232 400.77 163.42 400.517C156.206 400.057 152.525 398.36 146.723 392.202C143.713 387.128 141.548 384.524 135.035 381.228C130.358 377.876 128.245 375.586 126.019 370.253C125.797 367.994 125.679 366.73 127.689 365.597L127.53 365.554C125.114 364.897 123.712 364.515 122.012 366.927C120.696 371.516 120.771 374.155 125.351 379.232C127.786 381.243 129.851 382.929 131.802 384.553C138.442 387.39 141.422 390.261 143.384 394.863C146.824 399.068 149.142 401.169 156.407 402.845C162.05 404.296 165.099 404.869 168.763 402.18C169.337 398.598 168.817 397.901 167.761 396.858Z" fill="#D9D9D9"/>
<path d="M144.385 373.246C137.943 377.07 135.197 372.525 130.36 363.934L127.689 365.597C125.679 366.73 125.797 367.994 126.019 370.253C128.245 375.586 130.358 377.876 135.035 381.228C141.548 384.524 143.713 387.128 146.723 392.202C152.525 398.36 156.206 400.057 163.42 400.517C167.232 400.77 167.971 399.802 167.761 396.858L159.079 386.881C154.754 381.559 153.38 377.366 152.066 368.59C151.597 365.984 150.815 365.822 149.394 365.597C149.622 368.786 148.433 370.453 144.385 373.246Z" fill="#3C4241"/>
<path d="M149.061 363.601C143.526 371.454 139.265 368.38 131.362 360.941L130.36 363.934C135.197 372.525 137.943 377.07 144.385 373.246C148.433 370.453 149.622 368.786 149.394 365.597L149.061 363.601Z" fill="#D9D9D9"/>
<path d="M66.1191 367.26L66.141 367.299C67.2541 369.293 67.8849 370.424 66.1191 371.25C66.1188 372.823 66.1361 373.699 67.2459 374.909L71.2532 374.244L72.5889 372.248L79.2677 370.585L81.6052 371.916L80.1499 365.153C75.9214 372.839 68.7423 371.203 66.1191 367.26Z" fill="#D9D9D9"/>
<path d="M67.2459 374.909L66.1191 376.904C67.0037 380.399 67.5503 383.563 68.0708 387.879C67.9673 391.092 68.1984 393.769 68.9156 395.861C72.2764 399.806 74.3716 401.854 80.2695 403.842C86.787 403.787 89.44 403.206 89.9536 399.852L88.9518 395.861C88.7873 393.499 88.1322 392.315 86.9482 390.207C84.0133 388.06 83.5339 383.889 83.9428 373.246L81.6052 371.916L79.2677 370.585L72.5889 372.248L71.2532 374.244L67.2459 374.909Z" fill="#3C4241"/>
<path d="M47.2196 145.434C46.524 147.125 45.7445 148.886 44.8722 150.756C41.1988 164.377 41.8392 177.629 42.2006 199.644C38.2899 207.294 37.5973 212.448 36.8576 221.926C36.4736 233.396 35.5879 239.747 32.1825 250.86C30.3308 253.201 30.126 255.024 30.5128 257.844C27.8384 263.463 25.7245 266.094 20.8286 269.816C13.2615 273.162 9.47713 276.198 2.79639 281.789C-0.543344 284.782 1.12621 286.112 4.91396 283.983C2.7848 285.865 3.94976 286.484 7.80529 285.78C18.7388 281.925 24.0286 278.63 32.5165 271.479C31.0181 276.087 31.1092 279.405 31.8486 285.78C32.5609 287.304 33.188 287.207 34.5201 286.112C35.4072 279.22 36.4341 275.682 39.5292 270.149V256.181C44.8692 243.231 47.8595 235.35 53.2206 225.917C54.4088 221.78 55.4018 218.896 56.7264 215.94C56.7264 215.94 56.6094 216.37 59.2315 208.623C61.8535 200.876 57.6146 185.719 59.5654 171.042C59.6118 169.612 58.7318 168.596 56.8939 166.719L56.7264 157.074C53.4952 150.85 51.3745 148.45 47.2196 145.434Z" fill="#C0A26C"/>
<path d="M62.9048 86.9015C53.3845 91.1884 51.5252 96.8891 54.7619 107.188L56.0996 107.521C55.7589 103.892 64.3925 100.261 69.4571 103.1C70.4175 102.295 70.9276 102.185 71.7947 102.434C72.9763 99.0733 74.0969 97.537 79.1413 97.1132C79.4084 97.1132 80.8953 97.622 81.6054 97.8764C77.8168 85.1881 72.3011 86.1842 62.9048 86.9015Z" fill="#C0A26C"/>
<path d="M54.7619 107.188C55.7633 110.375 57.2526 114.002 59.1538 118.163C59.5001 118.921 59.8601 119.697 60.2333 120.491C60.8509 122.235 62.6428 124.65 63.9066 125.523C64.3148 125.805 64.6679 125.926 64.9085 125.812C78.837 130.525 82.8068 128.092 85.6795 119.034C85.7695 118.75 85.8584 118.46 85.9465 118.163C86.4619 112.786 86.3582 109.14 85.6795 106.191C85.3351 104.694 84.8427 103.376 84.208 102.102C83.1654 104.735 82.1071 105.244 80.3076 106.111L80.1431 106.191C75.5237 107.749 74.2139 105.882 71.9746 102.691L71.7947 102.434C70.9276 102.185 70.4175 102.295 69.4571 103.1C69.8947 107.053 69.6103 109.08 65.4499 110.936C60.7892 112.336 58.7661 111.523 56.0996 107.521L54.7619 107.188Z" fill="#C0A26C"/>
<path d="M79.1413 97.1132C74.0969 97.537 72.9763 99.0733 71.7947 102.434L71.9746 102.691C74.2139 105.882 75.5237 107.749 80.1431 106.191L80.3076 106.111C82.1071 105.244 83.1654 104.735 84.208 102.102C83.5099 100.701 82.6398 99.3522 81.6054 97.8764C80.8953 97.622 79.4084 97.1132 79.1413 97.1132Z" fill="#AA8E5D"/>
<path d="M69.4571 103.1C64.3925 100.261 55.7589 103.892 56.0996 107.521C58.7661 111.523 60.7892 112.336 65.4499 110.936C69.6103 109.08 69.8947 107.053 69.4571 103.1Z" fill="#AA8E5D"/>
<path d="M62.9048 86.9015L62.8667 86.4029L62.7794 86.4096L62.6995 86.4456L62.9048 86.9015ZM60.2333 120.491L60.7046 120.324L60.6964 120.301L60.6858 120.279L60.2333 120.491ZM59.1538 118.163L59.6086 117.955L59.1538 118.163ZM55.5583 119.494L55.1719 119.811L55.1802 119.821L55.189 119.831L55.5583 119.494ZM85.9465 118.163L86.4259 118.306L86.4397 118.259L86.4443 118.211L85.9465 118.163ZM64.9085 125.812L65.0688 125.339L64.8772 125.274L64.6945 125.361L64.9085 125.812ZM60.9013 81.913L60.8954 81.413L60.7929 81.4142L60.6992 81.4556L60.9013 81.913ZM49.8813 106.191L50.3655 106.066L50.3635 106.058L50.3612 106.05L49.8813 106.191ZM83.6089 92.5553L84.0664 92.3535L84.052 92.3208L84.033 92.2905L83.6089 92.5553ZM85.6795 106.191L85.1923 106.303L85.6795 106.191ZM44.8722 150.756L44.4147 150.554L44.3994 150.589L44.3894 150.625L44.8722 150.756ZM56.8939 140.446L56.5574 140.816L56.9842 141.204L57.3078 140.726L56.8939 140.446ZM74.9265 143.106L74.9099 143.606L75.0434 143.611L75.1612 143.548L74.9265 143.106ZM85.9465 129.138L86.4036 128.936L86.377 128.876L86.3357 128.824L85.9465 129.138ZM85.6795 119.034L85.2029 118.883L85.6795 119.034ZM63.9066 125.523L64.1909 125.112L63.9066 125.523ZM85.6795 128.773L85.2617 129.047L85.6795 128.773ZM89.2858 128.773L89.0316 129.203L89.5195 129.491L89.7446 128.971L89.2858 128.773ZM92.6252 126.81L92.625 127.31L92.9392 127.311L93.0756 127.027L92.6252 126.81ZM113.329 138.783L113.823 138.859L113.86 138.623L113.699 138.446L113.329 138.783ZM110.992 143.106L110.742 142.673L110.492 142.818V143.106H110.992ZM110.992 152.32H110.492V152.486L110.591 152.619L110.992 152.32ZM113.329 175.268L112.879 175.051L112.822 175.168L112.83 175.298L113.329 175.268ZM114.665 197.316L114.166 197.346L114.168 197.377L114.174 197.408L114.665 197.316ZM116.669 228.91L116.169 228.884L116.144 229.37L116.63 229.408L116.669 228.91ZM53.2206 225.917L53.6907 226.087L53.6965 226.071L53.7012 226.055L53.2206 225.917ZM59.5654 210.286L59.1989 209.946L59.1561 209.992L59.126 210.047L59.5654 210.286ZM59.5654 171.042L60.0615 171.105L60.0644 171.082L60.0652 171.059L59.5654 171.042ZM56.7264 215.94L56.2702 215.735L56.7264 215.94ZM62.2369 189.334L62.7369 189.342L62.7391 189.196L62.6631 189.072L62.2369 189.334ZM39.5292 256.181L39.0669 255.99L39.0292 256.082V256.181H39.5292ZM39.5292 270.149L39.9656 270.393L40.0292 270.279V270.149H39.5292ZM34.5201 286.112L34.8375 286.499L34.9907 286.373L35.016 286.176L34.5201 286.112ZM31.8486 285.78L31.352 285.837L31.3613 285.918L31.3956 285.991L31.8486 285.78ZM32.5165 271.479L32.992 271.634L33.5335 269.968L32.1944 271.097L32.5165 271.479ZM7.80529 285.78L7.89512 286.272L7.93414 286.264L7.97155 286.251L7.80529 285.78ZM6.46954 282.786L6.75487 283.197L6.76913 283.187L6.78267 283.176L6.46954 282.786ZM2.79639 281.789L2.47549 281.405L2.46899 281.411L2.46268 281.416L2.79639 281.789ZM4.91396 283.983L5.24514 284.357L4.91396 283.983ZM20.8286 269.816L21.0308 270.273L21.0845 270.25L21.1312 270.214L20.8286 269.816ZM30.5128 257.844L30.9643 258.059L31.0285 257.924L31.0082 257.776L30.5128 257.844ZM32.1825 250.86L32.5746 251.17L32.633 251.096L32.6606 251.006L32.1825 250.86ZM36.8576 221.926L36.3591 221.887L36.3583 221.898L36.3579 221.909L36.8576 221.926ZM42.2006 199.644L42.6458 199.871L42.7026 199.76L42.7005 199.635L42.2006 199.644ZM56.7264 157.074L57.2264 157.066L57.2243 156.948L57.1702 156.844L56.7264 157.074ZM56.8939 166.719L56.394 166.728L56.3975 166.927L56.5367 167.069L56.8939 166.719ZM110.324 101.202L109.846 101.054L109.843 101.064L109.84 101.075L110.324 101.202ZM117.67 85.2389L118.017 85.5994L118.137 85.4844L118.164 85.3206L117.67 85.2389ZM126.019 50.984L126.483 51.1704L126.511 51.1006L126.517 51.0257L126.019 50.984ZM127.021 39.0114L126.525 38.942L126.524 38.9558L126.522 38.9697L127.021 39.0114ZM134.033 21.7177L133.68 21.3635L133.675 21.3685L133.67 21.3737L134.033 21.7177ZM160.414 1.09821L160.353 0.601967L160.254 0.614173L160.167 0.663472L160.414 1.09821ZM163.42 4.7565L163.719 5.1571L163.849 5.05968L163.898 4.90417L163.42 4.7565ZM162.418 5.50478L162.119 5.10418L162.09 5.12537L162.065 5.15033L162.418 5.50478ZM163.754 8.41466L164.103 8.77209L164.188 8.68947L164.226 8.57777L163.754 8.41466ZM161.75 10.2793L161.421 9.90277L161.75 10.2793ZM162.418 12.7381L162.772 13.0915L162.814 13.0496L162.845 12.999L162.418 12.7381ZM161.082 17.0615L161.438 17.4128L161.488 17.3623L161.522 17.2999L161.082 17.0615ZM141.714 31.6947L141.523 31.2324L141.472 31.2535L141.427 31.2854L141.714 31.6947ZM139.376 35.6855L139.875 35.7149L139.883 35.5889L139.83 35.4744L139.376 35.6855ZM134.367 65.2844L133.897 65.1152L133.876 65.1724L133.87 65.2328L134.367 65.2844ZM129.358 88.5645L128.931 88.3045L128.831 88.4698L128.867 88.6597L129.358 88.5645ZM126.687 104.195L126.221 104.013L126.217 104.025L126.213 104.037L126.687 104.195ZM145.721 14.401L145.44 13.9873L145.415 14.0043L145.392 14.0243L145.721 14.401ZM150.396 18.0592L150.533 18.5402L150.684 18.4971L150.784 18.3753L150.396 18.0592ZM148.059 18.7244L147.922 18.2435L147.673 18.3144L147.587 18.5589L148.059 18.7244ZM63.5726 292.431L63.0808 292.521L63.0836 292.536L63.0874 292.552L63.5726 292.431ZM52.8726 250.86L52.4152 250.658L52.3716 250.756L52.3726 250.864L52.8726 250.86ZM55.0671 266.823L54.5814 266.942L54.5989 267.013L54.6363 267.077L55.0671 266.823ZM62.9047 323.693L62.4329 323.527L62.4136 323.582L62.4075 323.64L62.9047 323.693ZM64.9084 354.289L65.4076 354.261L65.4051 354.217L65.3947 354.173L64.9084 354.289ZM65.5762 366.262L65.077 366.29L65.0819 366.378L65.117 366.46L65.5762 366.262ZM80.2695 364.932L80.7112 365.166L80.7934 365.011L80.7607 364.839L80.2695 364.932ZM83.6088 326.686L83.1522 326.482L83.109 326.579L83.1088 326.685L83.6088 326.686ZM81.9391 345.809L82.417 345.956L82.4259 345.927L82.4312 345.897L81.9391 345.809ZM87.6161 317.706L88.0727 317.91L88.1114 317.823L88.1156 317.728L87.6161 317.706ZM90.6215 302.408L91.1043 302.538L91.1196 302.481L91.1213 302.423L90.6215 302.408ZM92.6251 260.837L92.9601 260.465L92.1917 259.772L92.1261 260.805L92.6251 260.837ZM133.699 305.069L134.181 305.204L134.246 304.972L134.105 304.776L133.699 305.069ZM110.4 278.463L110.779 278.137L110.773 278.13L110.767 278.123L110.4 278.463ZM118.338 287.65L117.961 287.978L117.982 288.002L118.005 288.023L118.338 287.65ZM132.364 341.984L132.861 341.933L132.857 341.897L132.849 341.863L132.364 341.984ZM153.402 325.688L153.882 325.827L153.894 325.786L153.899 325.744L153.402 325.688ZM158.745 302.408L159.148 302.703L159.247 302.568L159.245 302.401L158.745 302.408ZM153.402 285.447L152.979 285.714L152.99 285.732L153.003 285.749L153.402 285.447ZM135.87 257.677L136.293 257.41L136.278 257.387L136.261 257.365L135.87 257.677ZM66.1191 371.25L65.907 370.798L65.6191 370.932L65.6191 371.25L66.1191 371.25ZM68.9156 395.861L68.4426 396.023L68.4734 396.113L68.535 396.185L68.9156 395.861ZM68.0708 387.879L68.5705 387.895L68.5717 387.857L68.5672 387.819L68.0708 387.879ZM80.2695 403.842L80.1097 404.316L80.1895 404.343L80.2737 404.342L80.2695 403.842ZM89.9536 399.852L90.4479 399.927L90.4631 399.828L90.4386 399.73L89.9536 399.852ZM88.9518 395.861L88.453 395.896L88.4561 395.94L88.4669 395.983L88.9518 395.861ZM91.2894 397.191L91.7841 397.119L91.7745 397.053L91.7481 396.992L91.2894 397.191ZM88.284 405.838L88.4346 406.315L88.4691 406.304L88.5016 406.288L88.284 405.838ZM76.5962 405.838L76.2775 406.223L76.3443 406.279L76.4259 406.308L76.5962 405.838ZM67.2459 400.517L66.7462 400.533L66.7567 400.858L67.0583 400.98L67.2459 400.517ZM63.9065 384.221L63.4109 384.287L63.4415 384.517L63.6372 384.642L63.9065 384.221ZM66.834 392.868L66.3349 392.899L66.3355 392.907L66.3363 392.916L66.834 392.868ZM63.9065 377.902L63.701 377.446L63.4492 377.56L63.4113 377.833L63.9065 377.902ZM71.2532 374.244L71.335 374.737L71.5484 374.701L71.6687 374.522L71.2532 374.244ZM72.5889 372.248L72.4681 371.763L72.2808 371.81L72.1734 371.97L72.5889 372.248ZM79.2677 370.585L79.515 370.151L79.341 370.052L79.1469 370.1L79.2677 370.585ZM83.9428 373.246L84.4424 373.265L84.4541 372.962L84.1901 372.811L83.9428 373.246ZM86.9482 390.207L87.3842 389.962L87.331 389.868L87.2434 389.804L86.9482 390.207ZM144.385 373.246L144.641 373.676L144.655 373.667L144.669 373.657L144.385 373.246ZM152.066 368.59L152.56 368.516L152.559 368.509L152.558 368.501L152.066 368.59ZM159.079 386.881L158.691 387.197L158.696 387.203L158.701 387.21L159.079 386.881ZM163.42 400.517L163.453 400.018L163.452 400.018L163.42 400.517ZM146.723 392.202L146.293 392.458L146.321 392.505L146.359 392.545L146.723 392.202ZM135.035 381.228L134.744 381.634L134.775 381.656L134.809 381.674L135.035 381.228ZM126.019 370.253L125.521 370.302L125.529 370.376L125.557 370.445L126.019 370.253ZM127.689 365.597L127.934 366.032L127.944 366.027L127.953 366.021L127.689 365.597ZM122.012 366.927L121.603 366.639L121.554 366.708L121.531 366.789L122.012 366.927ZM125.351 379.232L124.98 379.567L125.004 379.594L125.033 379.618L125.351 379.232ZM143.384 394.863L142.924 395.059L142.952 395.125L142.997 395.18L143.384 394.863ZM131.802 384.553L131.482 384.938L131.538 384.984L131.605 385.013L131.802 384.553ZM156.407 402.845L156.532 402.36L156.52 402.358L156.407 402.845ZM168.763 402.18L169.059 402.583L169.224 402.461L169.257 402.259L168.763 402.18ZM89.3103 128.716L89.7692 128.914L89.3103 128.716ZM96.6855 123.766L96.3399 123.405V123.405L96.6855 123.766ZM66.141 367.299L66.5776 367.055L66.141 367.299ZM79.1413 97.1132V96.6132H79.1203L79.0994 96.615L79.1413 97.1132ZM80.1431 106.191L80.3029 106.664L80.3323 106.655L80.3603 106.641L80.1431 106.191ZM84.208 102.102L84.6555 101.879L84.208 102.102ZM80.3076 106.111L80.0906 105.661L80.0906 105.661L80.3076 106.111ZM62.6995 86.4456C57.8826 88.6146 54.9006 91.1869 53.5828 94.6107C52.271 98.019 52.6557 102.154 54.2849 107.338L55.2389 107.038C53.6314 101.923 53.3274 98.0584 54.5161 94.9699C55.6989 91.8968 58.4066 89.4753 63.1101 87.3574L62.6995 86.4456ZM54.2849 107.338C55.2954 110.554 56.7944 114.202 58.699 118.371L59.6086 117.955C57.7109 113.802 56.2313 110.196 55.2389 107.038L54.2849 107.338ZM58.699 118.371C59.0462 119.131 59.4069 119.908 59.7808 120.704L60.6858 120.279C60.3133 119.486 59.9541 118.712 59.6086 117.955L58.699 118.371ZM58.6541 118.18C58.6844 119.103 58.6923 119.856 58.638 120.417C58.6109 120.697 58.5703 120.906 58.5199 121.053C58.468 121.205 58.422 121.244 58.418 121.247C58.4176 121.247 58.4186 121.246 58.4208 121.245C58.423 121.244 58.4242 121.244 58.4233 121.244C58.4217 121.244 58.4042 121.247 58.3637 121.24C58.275 121.222 58.1234 121.162 57.8935 121.007C57.4352 120.699 56.7985 120.11 55.9275 119.156L55.189 119.831C56.0693 120.795 56.7728 121.459 57.336 121.837C57.6169 122.026 57.8963 122.167 58.1705 122.221C58.4619 122.278 58.7589 122.238 59.0119 122.051C59.2461 121.878 59.3815 121.624 59.466 121.377C59.5521 121.125 59.6027 120.83 59.6334 120.513C59.6946 119.88 59.6838 119.066 59.6535 118.147L58.6541 118.18ZM55.9446 119.176L52.9391 115.518L52.1664 116.153L55.1719 119.811L55.9446 119.176ZM62.9429 87.4C65.3066 87.2196 67.3848 87.0255 69.257 87.0294C71.1236 87.0333 72.739 87.2355 74.1675 87.8241C76.9857 88.9854 79.2477 91.7279 81.1263 98.0194L82.0845 97.7333C80.1745 91.3366 77.7844 88.233 74.5485 86.8995C72.9499 86.2408 71.1878 86.0335 69.2591 86.0294C67.336 86.0254 65.2011 86.2247 62.8667 86.4029L62.9429 87.4ZM60.6992 81.4556C55.2848 83.848 51.2098 86.009 49.1403 89.6603C47.0584 93.3335 47.0729 98.3759 49.4015 106.331L50.3612 106.05C48.0488 98.1501 48.1391 93.4548 50.0102 90.1534C51.8937 86.8304 55.6492 84.7802 61.1033 82.3703L60.6992 81.4556ZM60.9071 82.4129C64.8721 82.3664 68.5084 81.9594 72.1539 83.064C75.7508 84.1538 79.3902 86.7407 83.1847 92.82L84.033 92.2905C80.1471 86.0648 76.3313 83.2849 72.4439 82.1069C68.6051 80.9438 64.7278 81.3681 60.8954 81.413L60.9071 82.4129ZM85.1923 106.303C85.8534 109.176 85.9621 112.76 85.4488 118.116L86.4443 118.211C86.9617 112.811 86.863 109.105 86.1668 106.079L85.1923 106.303ZM83.1514 92.757C84.749 96.379 85.6182 98.8702 85.9133 100.868C86.204 102.837 85.9388 104.338 85.2209 105.992L86.1382 106.39C86.9236 104.581 87.223 102.892 86.9026 100.722C86.5865 98.582 85.6688 95.9865 84.0664 92.3535L83.1514 92.757ZM52.0528 115.831C51.9398 128.267 50.7237 135.602 46.7572 145.244L47.682 145.625C51.7088 135.836 52.9389 128.368 53.0527 115.84L52.0528 115.831ZM46.7572 145.244C46.0651 146.926 45.2888 148.68 44.4191 150.544L45.3253 150.967C46.2002 149.092 46.9829 147.324 47.682 145.625L46.7572 145.244ZM45.3297 150.957L47.677 145.636L46.7621 145.233L44.4147 150.554L45.3297 150.957ZM47.6588 145.673C48.5164 144.096 49.2748 142.775 49.9956 141.734C50.7198 140.688 51.3799 139.965 52.0272 139.548C52.6523 139.146 53.2674 139.027 53.9592 139.198C54.6794 139.375 55.5251 139.876 56.5574 140.816L57.2304 140.076C56.1455 139.089 55.1526 138.462 54.1984 138.227C53.2158 137.985 52.3209 138.17 51.4861 138.707C50.6734 139.23 49.9234 140.081 49.1734 141.165C48.4199 142.253 47.6398 143.615 46.7803 145.195L47.6588 145.673ZM57.3078 140.726C58.1749 139.447 58.8201 138.645 59.456 138.171C60.0579 137.722 60.6701 137.555 61.5323 137.619L61.6058 136.621C60.5359 136.543 59.6777 136.759 58.8585 137.369C58.0735 137.954 57.3471 138.886 56.48 140.165L57.3078 140.726ZM61.0953 137.28C61.621 138.837 61.7905 140.484 63.5657 141.63C64.4375 142.193 65.6711 142.629 67.47 142.954C69.2723 143.279 71.6753 143.499 74.9099 143.606L74.9431 142.607C71.7306 142.5 69.3819 142.283 67.6477 141.97C65.9101 141.656 64.8225 141.251 64.1081 140.79C62.7112 139.888 62.649 138.756 62.0428 136.96L61.0953 137.28ZM75.1612 143.548C80.6516 140.629 84.0621 138.362 85.7976 136.139C86.6789 135.011 87.1427 133.878 87.2187 132.67C87.2942 131.47 86.9844 130.246 86.4036 128.936L85.4895 129.341C86.0329 130.567 86.2824 131.625 86.2207 132.607C86.1595 133.58 85.7897 134.525 85.0095 135.524C83.4222 137.556 80.1983 139.737 74.6918 142.665L75.1612 143.548ZM85.4672 118.021C85.3799 118.315 85.2919 118.602 85.2029 118.883L86.1561 119.185C86.2471 118.898 86.337 118.605 86.4259 118.306L85.4672 118.021ZM85.2029 118.883C83.7736 123.39 82.1247 126.054 79.2655 127.119C76.354 128.203 72.0342 127.696 65.0688 125.339L64.7483 126.286C71.7114 128.642 76.3407 129.275 79.6144 128.056C82.9404 126.818 84.7127 123.737 86.1561 119.185L85.2029 118.883ZM64.6945 125.361C64.7278 125.345 64.7186 125.369 64.6154 125.338C64.5142 125.307 64.3719 125.237 64.1909 125.112L63.6223 125.934C63.8495 126.091 64.0878 126.223 64.3253 126.295C64.5609 126.366 64.8486 126.394 65.1226 126.264L64.6945 125.361ZM64.1909 125.112C63.6256 124.721 62.9003 123.95 62.2307 123.038C61.5641 122.129 60.9913 121.134 60.7046 120.324L59.762 120.658C60.0928 121.592 60.7248 122.676 61.4245 123.629C62.1212 124.578 62.9238 125.452 63.6223 125.934L64.1909 125.112ZM63.4774 125.78C64.8842 128.133 65.902 129.956 66.6427 131.971L67.5813 131.626C66.8059 129.517 65.7455 127.625 64.3358 125.267L63.4774 125.78ZM66.6427 131.971C67.3403 133.869 67.7984 135.956 68.0842 138.832L69.0793 138.733C68.7875 135.797 68.3152 133.623 67.5813 131.626L66.6427 131.971ZM66.6257 131.683C66.2222 133.375 65.7757 134.44 65.0514 135.166C64.3338 135.885 63.2759 136.335 61.4887 136.627L61.6494 137.614C63.517 137.309 64.8227 136.81 65.759 135.872C66.6885 134.941 67.1861 133.644 67.5984 131.915L66.6257 131.683ZM54.8939 106.706C53.6343 106.361 52.5569 106.154 51.7132 106.191C50.8516 106.229 50.1174 106.533 49.7679 107.318L50.6813 107.725C50.8157 107.423 51.0972 107.219 51.7568 107.19C52.4344 107.16 53.3837 107.33 54.6299 107.671L54.8939 106.706ZM49.7679 107.318C49.4266 108.083 49.5294 109.17 49.9139 110.535C50.3072 111.931 51.0341 113.743 52.0989 116.045L53.0066 115.625C51.948 113.336 51.2479 111.582 50.8764 110.263C50.4962 108.914 50.4966 108.139 50.6813 107.725L49.7679 107.318ZM49.3972 106.316L49.7404 107.646L50.7087 107.396L50.3655 106.066L49.3972 106.316ZM85.1871 118.947C84.7571 121.383 84.4167 123.349 84.3568 124.961C84.2966 126.583 84.5161 127.913 85.2617 129.047L86.0973 128.498C85.5123 127.608 85.2997 126.516 85.3562 124.998C85.4129 123.47 85.7379 121.579 86.1719 119.121L85.1871 118.947ZM85.2617 129.047C85.3528 129.186 85.4513 129.321 85.5574 129.452L86.3357 128.824C86.2496 128.718 86.1703 128.609 86.0973 128.498L85.2617 129.047ZM85.9021 129.22C86.5956 128.876 87.0628 128.711 87.4976 128.698C87.9172 128.685 88.3716 128.814 89.0316 129.203L89.54 128.342C88.7916 127.9 88.1471 127.678 87.4678 127.698C86.8035 127.718 86.1718 127.969 85.4569 128.325L85.9021 129.22ZM93.0756 127.027C93.5908 125.958 94.0227 125.328 94.532 124.94C95.0272 124.562 95.6536 124.37 96.6592 124.316L96.6057 123.318C95.4989 123.377 94.6446 123.597 93.9257 124.145C93.221 124.682 92.7054 125.492 92.1748 126.593L93.0756 127.027ZM112.835 138.707C112.673 139.763 112.567 140.492 112.292 141.104C112.034 141.679 111.611 142.172 110.742 142.673L111.242 143.54C112.257 142.954 112.844 142.315 113.204 141.514C113.548 140.75 113.669 139.861 113.823 138.859L112.835 138.707ZM110.492 143.106V152.32H111.492V143.106H110.492ZM110.591 152.619C115.259 158.864 116.586 167.351 112.879 175.051L113.78 175.485C117.662 167.422 116.264 158.539 111.392 152.021L110.591 152.619ZM112.83 175.298L114.166 197.346L115.164 197.285L113.828 175.237L112.83 175.298ZM114.174 197.408C116.386 209.128 116.838 215.999 116.169 228.884L117.168 228.936C117.841 215.977 117.385 209.025 115.156 197.223L114.174 197.408ZM116.63 229.408C117.108 229.446 117.353 229.505 117.509 229.593C117.636 229.666 117.751 229.785 117.874 230.093L118.803 229.722C118.629 229.287 118.393 228.946 118.003 228.724C117.64 228.518 117.2 228.45 116.708 228.411L116.63 229.408ZM118.14 229.449C107.029 234.255 97.9238 236.893 88.1801 237.964C78.4292 239.037 68.0152 238.544 54.2761 237.06L54.1687 238.054C67.9301 239.54 78.4296 240.043 88.2894 238.958C98.1564 237.873 107.359 235.201 118.537 230.367L118.14 229.449ZM52.7505 225.746C51.7044 228.632 51.3932 230.852 51.6461 232.77C51.8996 234.694 52.7129 236.26 53.8117 237.842L54.6331 237.272C53.5793 235.754 52.8618 234.341 52.6376 232.64C52.4127 230.934 52.677 228.883 53.6907 226.087L52.7505 225.746ZM59.0698 170.977C58.0864 178.374 58.6641 185.885 59.1515 192.468C59.3959 195.768 59.6173 198.828 59.6155 201.546C59.6137 204.268 59.3872 206.603 58.7579 208.463L59.7051 208.783C60.3867 206.769 60.6137 204.305 60.6155 201.547C60.6173 198.785 60.3926 195.686 60.1488 192.394C59.66 185.793 59.0936 178.386 60.0611 171.108L59.0698 170.977ZM59.126 210.047C57.9832 212.152 57.0679 213.955 56.2702 215.735L57.1827 216.144C57.9666 214.395 58.8692 212.616 60.0048 210.524L59.126 210.047ZM56.2702 215.735C54.9324 218.721 53.9319 221.629 52.74 225.779L53.7012 226.055C54.8857 221.931 55.8711 219.071 57.1827 216.144L56.2702 215.735ZM58.7579 208.463C57.4469 212.336 56.8211 214.164 56.5233 215.023C56.3739 215.453 56.3083 215.637 56.2805 215.712C56.2736 215.73 56.2701 215.739 56.2688 215.742C56.2622 215.759 56.2731 215.729 56.2928 215.694C56.2945 215.691 56.3208 215.643 56.3687 215.594C56.3827 215.58 56.4676 215.49 56.6146 215.456C56.7044 215.436 56.82 215.436 56.9362 215.49C57.0474 215.542 57.1143 215.622 57.1507 215.68C57.2136 215.782 57.2217 215.878 57.2235 215.897C57.2267 215.932 57.2256 215.959 57.2248 215.972C57.2233 215.999 57.2197 216.02 57.2186 216.027C57.2157 216.044 57.2126 216.056 57.2119 216.059C57.2113 216.062 57.2107 216.064 57.2102 216.066C57.21 216.067 57.2098 216.068 57.2096 216.068C57.2094 216.069 57.2094 216.069 57.2093 216.07C57.2092 216.07 57.2091 216.07 57.2091 216.07C57.209 216.07 57.209 216.071 56.7264 215.94C56.2439 215.809 56.2438 215.809 56.2438 215.809C56.2437 215.809 56.2437 215.809 56.2436 215.81C56.2435 215.81 56.2434 215.81 56.2433 215.811C56.243 215.812 56.2428 215.813 56.2425 215.814C56.242 215.816 56.2413 215.819 56.2405 215.822C56.2395 215.826 56.236 215.84 56.233 215.858C56.2317 215.865 56.2281 215.887 56.2265 215.915C56.2257 215.928 56.2246 215.956 56.2279 215.99C56.2297 216.01 56.2378 216.106 56.3007 216.207C56.3372 216.266 56.4041 216.346 56.5153 216.397C56.6315 216.451 56.7472 216.452 56.837 216.431C56.9841 216.398 57.0691 216.308 57.0832 216.294C57.1314 216.244 57.158 216.196 57.1603 216.192C57.1819 216.154 57.1966 216.115 57.1971 216.114C57.2028 216.1 57.2097 216.082 57.2178 216.06C57.25 215.974 57.319 215.78 57.4681 215.35C57.7673 214.488 58.394 212.657 59.7051 208.783L58.7579 208.463ZM59.0693 170.98C58.5887 174.808 58.3429 177.955 58.685 180.897C59.0288 183.853 59.963 186.584 61.8107 189.595L62.6631 189.072C60.8854 186.175 60.004 183.582 59.6783 180.782C59.3511 177.967 59.5823 174.922 60.0615 171.105L59.0693 170.98ZM61.737 189.326C61.6305 196.163 61.4535 200.847 61.0614 204.082C60.6665 207.339 60.0632 209.014 59.1989 209.946L59.9319 210.626C61.0314 209.441 61.6574 207.475 62.0541 204.202C62.4535 200.908 62.6304 196.174 62.7369 189.342L61.737 189.326ZM52.7859 225.67C47.4052 235.138 44.4008 243.056 39.0669 255.99L39.9914 256.371C45.3376 243.407 48.3137 235.563 53.6553 226.164L52.7859 225.67ZM39.0292 256.181V270.149H40.0292V256.181H39.0292ZM39.0928 269.905C35.9606 275.505 34.9177 279.106 34.0242 286.048L35.016 286.176C35.8967 279.334 36.9076 275.86 39.9656 270.393L39.0928 269.905ZM34.2028 285.726C33.8772 285.993 33.6176 286.18 33.4029 286.297C33.1865 286.414 33.0596 286.434 32.9875 286.429C32.886 286.422 32.6596 286.334 32.3016 285.568L31.3956 285.991C31.75 286.75 32.1933 287.375 32.9164 287.427C33.2566 287.451 33.5808 287.337 33.8789 287.176C34.1787 287.014 34.497 286.778 34.8375 286.499L34.2028 285.726ZM32.3453 285.722C31.6081 279.367 31.5277 276.137 32.992 271.634L32.041 271.324C30.5084 276.038 30.6103 279.444 31.352 285.837L32.3453 285.722ZM32.1944 271.097C23.7468 278.214 18.5088 281.475 7.63903 285.308L7.97155 286.251C18.9687 282.374 24.3104 279.046 32.8387 271.861L32.1944 271.097ZM7.71547 285.288C6.76521 285.461 5.99876 285.55 5.41817 285.561C4.81105 285.572 4.49519 285.495 4.37119 285.422C4.32734 285.395 4.34832 285.394 4.35839 285.431C4.36588 285.458 4.34847 285.441 4.3868 285.349C4.47067 285.148 4.72297 284.819 5.24514 284.357L4.58278 283.608C4.04037 284.088 3.63985 284.542 3.46381 284.964C3.37219 285.184 3.32305 285.439 3.39468 285.698C3.46889 285.966 3.64988 286.156 3.85955 286.281C4.24258 286.509 4.8078 286.572 5.43694 286.561C6.09261 286.548 6.91761 286.45 7.89512 286.272L7.71547 285.288ZM5.24514 284.357C5.6267 284.02 6.12726 283.633 6.75487 283.197L6.18421 282.376C5.5362 282.826 5.00239 283.237 4.58278 283.608L5.24514 284.357ZM2.46268 281.416C1.6068 282.184 1.03213 282.878 0.737665 283.472C0.45665 284.039 0.350306 284.715 0.841745 285.173C1.06247 285.378 1.34981 285.476 1.63991 285.51C1.93199 285.545 2.26165 285.52 2.61396 285.449C3.31884 285.308 4.18378 284.967 5.15899 284.419L4.66893 283.547C3.75026 284.063 2.9861 284.355 2.417 284.469C2.13232 284.526 1.91377 284.536 1.75772 284.517C1.59968 284.498 1.53896 284.456 1.52299 284.441C1.51821 284.436 1.50049 284.424 1.50001 284.356C1.49943 284.275 1.52715 284.131 1.63365 283.916C1.84707 283.485 2.31611 282.891 3.13009 282.161L2.46268 281.416ZM3.11728 282.172C9.78973 276.588 13.5302 273.59 21.0308 270.273L20.6264 269.359C12.9928 272.734 9.16453 275.807 2.47549 281.405L3.11728 282.172ZM6.78267 283.176C11.5255 279.366 14.1638 277.406 19.0267 275.262L18.6234 274.347C13.639 276.544 10.9192 278.571 6.15641 282.397L6.78267 283.176ZM30.0613 257.629C28.7328 260.42 27.5552 262.444 26.1148 264.227C24.6747 266.01 22.9565 267.57 20.526 269.418L21.1312 270.214C23.5967 268.34 25.3833 266.724 26.8927 264.855C28.4018 262.987 29.6184 260.886 30.9643 258.059L30.0613 257.629ZM31.0082 257.776C30.8177 256.387 30.7807 255.294 30.9972 254.276C31.212 253.267 31.6847 252.295 32.5746 251.17L31.7903 250.549C30.8285 251.765 30.273 252.875 30.0192 254.068C29.7671 255.253 29.8211 256.48 30.0174 257.912L31.0082 257.776ZM32.6606 251.006C36.0806 239.845 36.972 233.45 37.3573 221.943L36.3579 221.909C35.9751 233.342 35.0952 239.648 31.7044 250.713L32.6606 251.006ZM37.3561 221.965C38.0942 212.507 38.7806 207.433 42.6458 199.871L41.7554 199.416C37.7991 207.156 37.1004 212.389 36.3591 221.887L37.3561 221.965ZM42.7005 199.635C42.3386 177.587 41.7045 164.422 45.355 150.886L44.3894 150.625C40.6931 164.332 41.3398 177.672 41.7007 199.652L42.7005 199.635ZM46.9259 145.839C48.9832 147.332 50.5167 148.658 51.9343 150.37C53.3553 152.086 54.6744 154.207 56.2827 157.305L57.1702 156.844C55.5473 153.718 54.1904 151.526 52.7045 149.732C51.2152 147.934 49.6109 146.552 47.5132 145.03L46.9259 145.839ZM56.2265 157.083L56.394 166.728L57.3938 166.71L57.2264 157.066L56.2265 157.083ZM56.5367 167.069C57.4614 168.013 58.1065 168.703 58.5199 169.325C58.92 169.927 59.0848 170.437 59.0657 171.026L60.0652 171.059C60.0924 170.217 59.8404 169.505 59.3526 168.771C58.8781 168.058 58.1643 167.302 57.2512 166.369L56.5367 167.069ZM110.801 101.351C113.32 93.265 114.671 88.8134 118.017 85.5994L117.324 84.8783C113.751 88.3109 112.335 93.065 109.846 101.054L110.801 101.351ZM118.164 85.3206C120.638 70.3917 122.064 62.1649 126.483 51.1704L125.555 50.7975C121.091 61.9054 119.65 70.2322 117.177 85.1571L118.164 85.3206ZM126.517 51.0257L127.519 39.0531L126.522 38.9697L125.521 50.9423L126.517 51.0257ZM127.516 39.0808C128.069 35.1323 128.581 32.1617 129.557 29.5334C130.528 26.9203 131.965 24.6267 134.396 22.0616L133.67 21.3737C131.16 24.0222 129.644 26.4284 128.62 29.1852C127.602 31.9269 127.079 34.9963 126.525 38.942L127.516 39.0808ZM160.476 1.59446C161.354 1.48626 161.994 1.47331 162.45 1.54377C162.901 1.61361 163.107 1.7543 163.211 1.89774C163.322 2.05004 163.395 2.31005 163.357 2.77951C163.32 3.24561 163.178 3.8456 162.942 4.60884L163.898 4.90417C164.139 4.12295 164.307 3.43837 164.354 2.86014C164.401 2.28527 164.333 1.74119 164.02 1.30998C163.7 0.869901 163.199 0.647671 162.603 0.555512C162.011 0.463981 161.262 0.489956 160.353 0.601967L160.476 1.59446ZM163.121 4.35591L162.119 5.10418L162.717 5.90537L163.719 5.1571L163.121 4.35591ZM162.065 5.15033C159.157 8.04401 157.356 9.37081 153.829 11.3018L154.31 12.1789C157.917 10.2037 159.794 8.82077 162.771 5.85922L162.065 5.15033ZM162.416 6.00477C162.836 6.0062 163.126 6.03925 163.323 6.10184C163.506 6.1597 163.568 6.22896 163.602 6.29331C163.645 6.37782 163.685 6.54829 163.641 6.88764C163.599 7.22214 163.483 7.66539 163.281 8.25155L164.226 8.57777C164.437 7.96689 164.578 7.44862 164.633 7.014C164.688 6.58423 164.667 6.17796 164.49 5.835C164.303 5.47188 163.986 5.26292 163.626 5.1487C163.281 5.03921 162.868 5.0063 162.42 5.00478L162.416 6.00477ZM163.404 8.05723C162.683 8.76267 162.035 9.36645 161.421 9.90277L162.079 10.6559C162.71 10.1043 163.372 9.48719 164.103 8.77209L163.404 8.05723ZM161.421 9.90277C159.531 11.5536 157.945 12.5806 155.493 13.9656L155.985 14.8363C158.469 13.4328 160.119 12.3679 162.079 10.6559L161.421 9.90277ZM161.653 10.7697C162.021 10.8429 162.255 10.9219 162.398 11.0021C162.527 11.0747 162.542 11.1246 162.547 11.1455C162.559 11.1898 162.565 11.3036 162.477 11.5447C162.39 11.7806 162.232 12.0836 161.991 12.4772L162.845 12.999C163.096 12.5871 163.294 12.2183 163.415 11.8901C163.534 11.567 163.601 11.2242 163.515 10.8935C163.422 10.5394 163.182 10.2957 162.887 10.1303C162.607 9.97243 162.249 9.86884 161.848 9.78894L161.653 10.7697ZM162.064 12.3847C161.074 13.376 160.269 14.1569 159.423 14.8751L160.07 15.6376C160.95 14.8913 161.778 14.0858 162.772 13.0915L162.064 12.3847ZM159.423 14.8751C158.344 15.7907 157.187 16.6124 155.483 17.6299L155.996 18.4885C157.736 17.4493 158.94 16.5963 160.07 15.6376L159.423 14.8751ZM161.522 17.2999C161.699 16.9737 161.855 16.6577 161.943 16.3717C162.027 16.094 162.079 15.7414 161.903 15.4162C161.724 15.0841 161.388 14.9268 161.052 14.8476C160.711 14.7671 160.271 14.7431 159.734 14.7565L159.759 15.7562C160.269 15.7434 160.608 15.7701 160.823 15.8209C161.044 15.873 161.043 15.9275 161.023 15.8914C161.007 15.8622 161.044 15.8898 160.986 16.0801C160.931 16.2621 160.817 16.502 160.643 16.8232L161.522 17.2999ZM160.726 16.7103C152.218 25.3299 148.003 28.5619 141.523 31.2324L141.904 32.157C148.569 29.4099 152.898 26.0647 161.438 17.4128L160.726 16.7103ZM141.427 31.2854C141 31.5847 140.6 31.8226 140.192 32.0888C139.803 32.3425 139.417 32.6165 139.12 32.9468C138.812 33.2886 138.59 33.6999 138.546 34.2171C138.503 34.7215 138.633 35.2735 138.923 35.8967L139.83 35.4744C139.582 34.9439 139.519 34.5724 139.542 34.3025C139.564 34.0453 139.669 33.8314 139.863 33.6161C140.067 33.3893 140.358 33.1744 140.739 32.9262C141.1 32.6904 141.56 32.4135 142.001 32.104L141.427 31.2854ZM138.877 35.6562C138.077 49.2546 137.17 56.0143 133.897 65.1152L134.838 65.4537C138.16 56.2183 139.073 49.346 139.875 35.7149L138.877 35.6562ZM133.87 65.2328C132.708 76.4252 132.212 82.9134 128.931 88.3045L129.785 88.8244C133.213 83.1931 133.714 76.4207 134.865 65.3361L133.87 65.2328ZM128.867 88.6597C128.903 88.8413 128.919 89.1622 128.907 89.6227C128.896 90.0734 128.858 90.6271 128.797 91.2573C128.675 92.5172 128.464 94.0633 128.196 95.6658C127.658 98.8852 126.905 102.271 126.221 104.013L127.152 104.378C127.877 102.531 128.644 99.0533 129.182 95.8305C129.453 94.2119 129.668 92.6422 129.792 91.3535C129.855 90.7094 129.895 90.1306 129.907 89.6484C129.919 89.1761 129.906 88.7637 129.849 88.4692L128.867 88.6597ZM96.3322 124.217C103.163 129.346 106.854 132.495 112.294 138.394L113.029 137.716C107.537 131.761 103.798 128.572 96.9327 123.417L96.3322 124.217ZM112.294 138.394C112.513 138.631 112.735 138.873 112.96 139.12L113.699 138.446C113.472 138.198 113.249 137.955 113.029 137.716L112.294 138.394ZM126.213 104.037C123.589 111.874 121.67 118.76 119.597 124.524C117.53 130.273 115.359 134.747 112.314 137.695L113.009 138.414C116.23 135.296 118.463 130.632 120.538 124.863C122.607 119.109 124.568 112.1 127.161 104.354L126.213 104.037ZM134.386 22.0719C134.842 21.618 135.288 21.1754 135.727 20.7435L135.025 20.031C134.585 20.4644 134.137 20.9084 133.68 21.3635L134.386 22.0719ZM135.727 20.7435C145.037 11.5735 150.72 7.18055 160.661 1.53296L160.167 0.663472C150.14 6.36024 144.388 10.8092 135.025 20.031L135.727 20.7435ZM135.523 20.8653C137.349 20.306 138.828 19.7993 140.432 18.9173C142.034 18.0368 143.741 16.7933 146.05 14.7776L145.392 14.0243C143.111 16.0158 141.465 17.2086 139.951 18.041C138.439 18.872 137.04 19.3549 135.23 19.9092L135.523 20.8653ZM146.002 14.8146C147.817 13.5821 149.247 12.888 150.293 12.602C151.375 12.3064 151.877 12.4855 152.072 12.7002C152.273 12.9217 152.383 13.4346 152.058 14.3781C151.744 15.2852 151.073 16.4392 150.009 17.7432L150.784 18.3753C151.89 17.0187 152.638 15.7616 153.003 14.7045C153.355 13.6836 153.404 12.6792 152.812 12.0277C152.214 11.3694 151.191 11.3199 150.03 11.6374C148.833 11.9646 147.299 12.7255 145.44 13.9873L146.002 14.8146ZM150.259 17.5783L147.922 18.2435L148.196 19.2053L150.533 18.5402L150.259 17.5783ZM147.587 18.5589C146.599 21.3772 145.764 23.4107 144.437 24.9752C143.125 26.5212 141.296 27.6503 138.233 28.5546L138.516 29.5136C141.698 28.5742 143.723 27.3627 145.199 25.622C146.66 23.8997 147.545 21.7002 148.531 18.8899L147.587 18.5589ZM53.7251 237.609C54.3296 243.41 53.7861 247.551 52.4152 250.658L53.3301 251.061C54.7958 247.74 55.3347 243.407 54.7197 237.505L53.7251 237.609ZM52.3726 250.864C52.4196 255.784 53.109 260.917 54.5814 266.942L55.5528 266.704C54.0949 260.739 53.4187 255.684 53.3726 250.855L52.3726 250.864ZM54.6363 267.077C58.6006 273.81 61.1416 281.939 63.0808 292.521L64.0644 292.341C62.1151 281.704 59.5465 273.445 55.498 266.569L54.6363 267.077ZM63.0874 292.552C64.6358 298.772 65.5004 303.562 65.468 308.266C65.4357 312.964 64.5084 317.607 62.4329 323.527L63.3766 323.858C65.4768 317.868 66.4347 313.112 66.468 308.273C66.5013 303.441 65.612 298.554 64.0578 292.31L63.0874 292.552ZM62.4075 323.64C61.1031 336.062 61.649 342.799 64.422 354.405L65.3947 354.173C62.6469 342.672 62.1099 336.049 63.402 323.745L62.4075 323.64ZM64.4091 354.317L65.077 366.29L66.0755 366.234L65.4076 354.261L64.4091 354.317ZM80.7607 364.839C80.147 361.595 79.9233 358.963 80.1669 356.11C80.4111 353.25 81.1265 350.146 82.417 345.956L81.4613 345.662C80.1623 349.879 79.4236 353.062 79.1706 356.025C78.917 358.995 79.1532 361.721 79.7782 365.025L80.7607 364.839ZM82.4312 345.897C83.7635 338.499 84.0972 334.275 84.1088 326.687L83.1088 326.685C83.0973 334.221 82.7679 338.385 81.4471 345.72L82.4312 345.897ZM84.0654 326.89L88.0727 317.91L87.1595 317.503L83.1522 326.482L84.0654 326.89ZM88.1156 317.728C88.2788 314.01 88.8778 310.807 91.1043 302.538L90.1387 302.278C87.9093 310.558 87.2849 313.85 87.1166 317.684L88.1156 317.728ZM92.1261 260.805C91.0791 277.304 90.5886 286.463 90.1217 302.393L91.1213 302.423C91.5877 286.507 92.0776 277.36 93.1241 260.868L92.1261 260.805ZM92.2902 261.208C98.5817 266.885 104.074 272.361 110.033 278.802L110.767 278.123C104.79 271.663 99.2765 266.165 92.9601 260.465L92.2902 261.208ZM110.021 278.789C112.625 281.819 115.241 284.849 117.961 287.978L118.716 287.322C115.997 284.195 113.383 281.166 110.779 278.137L110.021 278.789ZM118.005 288.023C123.643 293.065 128.495 298.706 133.294 305.361L134.105 304.776C129.275 298.078 124.376 292.379 118.672 287.277L118.005 288.023ZM133.218 304.934C131.208 312.099 129.951 317.735 129.66 323.413C129.369 329.098 130.047 334.801 131.879 342.106L132.849 341.863C131.034 334.624 130.374 329.024 130.659 323.465C130.944 317.899 132.177 312.349 134.181 305.204L133.218 304.934ZM131.866 342.035C132.644 349.62 132.633 353.749 130.877 360.82L131.847 361.061C133.639 353.845 133.646 349.593 132.861 341.933L131.866 342.035ZM131.019 361.305C132.995 363.165 134.761 364.768 136.381 365.998C137.998 367.224 139.507 368.106 140.973 368.489C142.461 368.878 143.89 368.748 145.309 367.985C146.707 367.233 148.065 365.883 149.469 363.889L148.652 363.313C147.289 365.247 146.039 366.457 144.835 367.104C143.651 367.741 142.483 367.85 141.226 367.522C139.947 367.188 138.563 366.397 136.986 365.201C135.411 364.007 133.68 362.436 131.705 360.577L131.019 361.305ZM149.557 363.54C148.059 351.383 148.854 343.262 153.882 325.827L152.921 325.55C147.869 343.069 147.045 351.331 148.564 363.662L149.557 363.54ZM153.899 325.744C154.067 324.231 154.152 322.465 154.266 320.584C154.381 318.696 154.526 316.675 154.815 314.617C155.394 310.497 156.546 306.267 159.148 302.703L158.341 302.113C155.6 305.866 154.415 310.283 153.825 314.477C153.53 316.576 153.383 318.63 153.268 320.524C153.152 322.426 153.07 324.153 152.905 325.633L153.899 325.744ZM159.245 302.401C159.183 298.111 158.789 295.057 157.918 292.436C157.045 289.811 155.704 287.654 153.8 285.145L153.003 285.749C154.877 288.217 156.146 290.274 156.969 292.752C157.795 295.234 158.184 298.173 158.245 302.415L159.245 302.401ZM153.824 285.18L136.293 257.41L135.447 257.944L152.979 285.714L153.824 285.18ZM136.261 257.365C127.778 246.731 124.176 240.66 118.787 229.687L117.89 230.128C123.306 241.157 126.946 247.291 135.479 257.989L136.261 257.365ZM65.117 366.46C65.2779 366.834 65.4748 367.194 65.7028 367.537L66.5354 366.983C66.3393 366.688 66.1716 366.381 66.0355 366.064L65.117 366.46ZM65.6191 371.25C65.6189 372.023 65.6204 372.7 65.7814 373.338C65.9484 374 66.2777 374.593 66.8774 375.247L67.6144 374.571C67.1043 374.015 66.87 373.565 66.751 373.093C66.626 372.598 66.6189 372.05 66.6191 371.251L65.6191 371.25ZM66.8105 374.663L65.6837 376.658L66.5545 377.15L67.6813 375.155L66.8105 374.663ZM65.6344 377.027C66.5124 380.496 67.0557 383.638 67.5744 387.939L68.5672 387.819C68.045 383.488 67.4951 380.303 66.6038 376.781L65.6344 377.027ZM67.571 387.863C67.4668 391.1 67.6965 393.847 68.4426 396.023L69.3886 395.699C68.7003 393.691 68.4678 391.085 68.5705 387.895L67.571 387.863ZM68.535 396.185C70.2172 398.16 71.6123 399.696 73.3422 400.986C75.0775 402.281 77.1272 403.311 80.1097 404.316L80.4292 403.369C77.5139 402.386 75.567 401.398 73.94 400.185C72.3077 398.968 70.9747 397.507 69.2962 395.537L68.535 396.185ZM80.2737 404.342C83.5197 404.315 85.8998 404.16 87.5368 403.553C88.3708 403.244 89.0379 402.809 89.5303 402.196C90.022 401.583 90.31 400.828 90.4479 399.927L89.4594 399.776C89.3404 400.553 89.1042 401.129 88.7503 401.57C88.3972 402.01 87.8974 402.353 87.1893 402.616C85.742 403.152 83.5368 403.315 80.2652 403.343L80.2737 404.342ZM90.4386 399.73L89.4368 395.739L88.4669 395.983L89.4687 399.973L90.4386 399.73ZM89.0878 396.342C89.6564 396.181 89.9276 396.218 90.1086 396.322C90.3157 396.441 90.5417 396.723 90.8306 397.39L91.7481 396.992C91.4496 396.303 91.117 395.748 90.6074 395.455C90.0715 395.147 89.4677 395.195 88.8159 395.38L89.0878 396.342ZM90.7946 397.263C90.9495 398.323 91.0949 399.24 91.1652 400.071C91.2353 400.899 91.2267 401.603 91.0884 402.225C90.8237 403.416 90.0571 404.425 88.0663 405.388L88.5016 406.288C90.6705 405.239 91.7132 404.023 92.0646 402.442C92.2344 401.678 92.2355 400.859 92.1616 399.987C92.088 399.117 91.9359 398.157 91.7841 397.119L90.7946 397.263ZM88.1333 405.361C85.866 406.078 84.1403 406.473 82.4326 406.499C80.7311 406.524 79.0124 406.181 76.7664 405.368L76.4259 406.308C78.7435 407.148 80.5869 407.526 82.4474 407.499C84.3019 407.471 86.1382 407.04 88.4346 406.315L88.1333 405.361ZM76.9149 405.453C74.0456 403.079 71.9759 401.892 67.4335 400.053L67.0583 400.98C71.5319 402.791 73.5062 403.931 76.2775 406.223L76.9149 405.453ZM67.7457 400.501C67.6476 397.476 67.5394 394.951 67.3316 392.819L66.3363 392.916C66.5406 395.012 66.6481 397.508 66.7462 400.533L67.7457 400.501ZM67.333 392.837C67.1825 390.418 66.9149 388.504 66.4341 387.032C65.9504 385.551 65.2378 384.479 64.1759 383.8L63.6372 384.642C64.4443 385.158 65.0457 386.002 65.4835 387.343C65.9243 388.692 66.186 390.504 66.3349 392.899L67.333 392.837ZM64.4022 384.155C64.1106 381.964 64.0231 380.7 64.4018 377.971L63.4113 377.833C63.0176 380.67 63.1101 382.027 63.4109 384.287L64.4022 384.155ZM64.1121 378.358L66.3246 377.36L65.9135 376.448L63.701 377.446L64.1121 378.358ZM67.3278 375.402L71.335 374.737L71.1713 373.75L67.164 374.415L67.3278 375.402ZM71.6687 374.522L73.0044 372.526L72.1734 371.97L70.8377 373.965L71.6687 374.522ZM72.7097 372.733L79.3885 371.071L79.1469 370.1L72.4681 371.763L72.7097 372.733ZM83.4431 373.227C83.2388 378.545 83.2533 382.296 83.6982 384.994C84.1466 387.712 85.0438 389.433 86.653 390.611L87.2434 389.804C85.9177 388.834 85.1078 387.395 84.6849 384.831C84.2586 382.246 84.2378 378.59 84.4424 373.265L83.4431 373.227ZM86.5123 390.452C87.6916 392.552 88.2967 393.653 88.453 395.896L89.4506 395.826C89.2778 393.346 88.5728 392.079 87.3842 389.962L86.5123 390.452ZM130.888 360.782L129.886 363.775L130.834 364.093L131.836 361.099L130.888 360.782ZM129.924 364.179C131.132 366.324 132.219 368.235 133.269 369.826C134.317 371.415 135.347 372.718 136.452 373.631C137.567 374.552 138.771 375.087 140.147 375.112C141.512 375.137 142.984 374.659 144.641 373.676L144.13 372.816C142.566 373.744 141.279 374.133 140.165 374.112C139.064 374.092 138.071 373.671 137.089 372.86C136.098 372.041 135.132 370.836 134.104 369.276C133.077 367.718 132.006 365.839 130.796 363.689L129.924 364.179ZM144.669 373.657C146.7 372.257 148.078 371.097 148.91 369.847C149.761 368.568 150.013 367.235 149.893 365.561L148.896 365.632C149.004 367.147 148.775 368.243 148.077 369.293C147.359 370.373 146.119 371.442 144.101 372.834L144.669 373.657ZM149.888 365.514L149.554 363.519L148.567 363.684L148.901 365.679L149.888 365.514ZM149.316 366.091C150.054 366.208 150.447 366.293 150.75 366.57C151.054 366.847 151.344 367.397 151.574 368.678L152.558 368.501C152.32 367.176 151.984 366.343 151.425 365.831C150.864 365.319 150.155 365.211 149.473 365.103L149.316 366.091ZM151.571 368.664C152.23 373.06 152.908 376.345 153.975 379.205C155.046 382.076 156.501 384.502 158.691 387.197L159.467 386.566C157.332 383.939 155.938 381.606 154.912 378.856C153.882 376.096 153.216 372.895 152.56 368.516L151.571 368.664ZM158.701 387.21L167.384 397.187L168.138 396.53L159.456 386.553L158.701 387.21ZM167.262 396.894C167.368 398.375 167.203 399.116 166.762 399.517C166.539 399.72 166.198 399.882 165.653 399.973C165.106 400.065 164.389 400.08 163.453 400.018L163.387 401.016C164.356 401.08 165.161 401.07 165.819 400.959C166.478 400.848 167.023 400.631 167.436 400.256C168.265 399.501 168.364 398.286 168.26 396.823L167.262 396.894ZM163.452 400.018C159.878 399.79 157.227 399.259 154.763 398.048C152.293 396.834 149.971 394.92 147.087 391.86L146.359 392.545C149.278 395.643 151.697 397.656 154.322 398.945C156.951 400.237 159.748 400.784 163.388 401.016L163.452 400.018ZM147.153 391.947C145.642 389.4 144.321 387.435 142.542 385.691C140.762 383.946 138.544 382.444 135.261 380.782L134.809 381.674C138.039 383.308 140.16 384.756 141.842 386.405C143.527 388.056 144.794 389.93 146.293 392.458L147.153 391.947ZM135.326 380.821C133 379.155 131.342 377.773 129.991 376.162C128.642 374.555 127.581 372.697 126.48 370.06L125.557 370.445C126.683 373.141 127.791 375.096 129.225 376.805C130.656 378.51 132.393 379.95 134.744 381.634L135.326 380.821ZM126.516 370.204C126.403 369.044 126.334 368.264 126.5 367.629C126.651 367.054 127.013 366.552 127.934 366.032L127.443 365.161C126.354 365.775 125.77 366.471 125.533 367.376C125.312 368.221 125.413 369.203 125.521 370.302L126.516 370.204ZM127.953 366.021L130.624 364.358L130.096 363.509L127.424 365.172L127.953 366.021ZM121.531 366.789C120.868 369.102 120.527 371.011 120.983 373.008C121.438 374.999 122.668 377.005 124.98 379.567L125.722 378.897C123.454 376.383 122.357 374.53 121.958 372.785C121.561 371.045 121.84 369.341 122.492 367.065L121.531 366.789ZM125.033 379.618C127.471 381.631 129.532 383.314 131.482 384.938L132.122 384.169C130.17 382.544 128.101 380.855 125.669 378.847L125.033 379.618ZM131.605 385.013C134.897 386.419 137.247 387.82 139.012 389.417C140.77 391.008 141.966 392.813 142.924 395.059L143.844 394.667C142.84 392.311 141.565 390.379 139.683 388.675C137.806 386.977 135.347 385.524 131.998 384.094L131.605 385.013ZM142.997 395.18C144.723 397.289 146.202 398.916 148.186 400.22C150.172 401.525 152.631 402.487 156.295 403.332L156.52 402.358C152.919 401.527 150.586 400.6 148.736 399.384C146.885 398.168 145.484 396.641 143.771 394.546L142.997 395.18ZM156.283 403.329C159.093 404.052 161.329 404.577 163.33 404.565C165.367 404.553 167.146 403.986 169.059 402.583L168.467 401.777C166.716 403.062 165.139 403.554 163.324 403.565C161.474 403.576 159.364 403.089 156.532 402.361L156.283 403.329ZM167.41 397.214C167.926 397.724 168.234 398.078 168.388 398.69C168.552 399.337 168.554 400.321 168.269 402.1L169.257 402.259C169.545 400.457 169.575 399.301 169.358 398.444C169.132 397.552 168.652 397.036 168.112 396.503L167.41 397.214ZM92.6254 126.31C91.3541 126.31 90.5225 126.482 89.9383 126.903C89.3549 127.323 89.1015 127.939 88.8514 128.517L89.7692 128.914C90.0428 128.282 90.2019 127.945 90.5224 127.715C90.8422 127.484 91.4062 127.31 92.625 127.31L92.6254 126.31ZM88.8515 128.517L88.8269 128.574L89.7447 128.971L89.7692 128.915L88.8515 128.517ZM89.7446 128.971C89.7529 128.952 89.7611 128.933 89.7692 128.914L88.8514 128.517C88.8433 128.536 88.8352 128.555 88.827 128.574L89.7446 128.971ZM96.3399 123.405L96.2869 123.456L96.978 124.179L97.0311 124.128L96.3399 123.405ZM109.84 101.075C108.171 107.408 106.424 111.42 104.296 114.623C102.164 117.832 99.6356 120.253 96.3399 123.405L97.0311 124.128C100.313 120.989 102.926 118.494 105.129 115.176C107.337 111.853 109.12 107.728 110.807 101.33L109.84 101.075ZM96.978 124.179C96.9957 124.162 97.0134 124.145 97.0311 124.128L96.3399 123.405C96.3223 123.422 96.3046 123.439 96.2869 123.456L96.978 124.179ZM127.82 365.114L127.661 365.071L127.399 366.036L127.557 366.079L127.82 365.114ZM127.661 365.071C126.487 364.752 125.421 364.453 124.432 364.594C123.382 364.745 122.499 365.367 121.603 366.639L122.42 367.215C123.224 366.075 123.893 365.682 124.573 365.584C125.314 365.478 126.157 365.698 127.399 366.036L127.661 365.071ZM127.82 365.114C127.766 365.1 127.714 365.085 127.661 365.071L127.399 366.036C127.451 366.05 127.504 366.065 127.558 366.079L127.82 365.114ZM65.7028 367.537C67.1063 369.646 69.7158 371.13 72.5436 371.067C75.4025 371.004 78.4029 369.366 80.588 365.394L79.7118 364.912C77.6684 368.626 74.965 370.013 72.5214 370.068C70.0467 370.122 67.7551 368.816 66.5354 366.983L65.7028 367.537ZM80.588 365.394C80.6293 365.319 80.6704 365.243 80.7112 365.166L79.8278 364.697C79.7893 364.77 79.7507 364.841 79.7118 364.912L80.588 365.394ZM79.0203 371.02L81.3579 372.35L81.8525 371.481L79.515 370.151L79.0203 371.02ZM81.3579 372.35L83.6955 373.68L84.1901 372.811L81.8525 371.481L81.3579 372.35ZM79.6611 365.258L81.1164 372.021L82.094 371.81L80.6387 365.048L79.6611 365.258ZM65.6825 367.503L65.7044 367.543L66.5776 367.055L66.5557 367.016L65.6825 367.503ZM65.7044 367.543C65.9852 368.046 66.2239 368.474 66.4031 368.854C66.5837 369.238 66.6847 369.534 66.7132 369.772C66.7397 369.993 66.7022 370.148 66.6101 370.284C66.5082 370.434 66.3052 370.611 65.907 370.798L66.3311 371.703C66.8159 371.476 67.1962 371.202 67.4379 370.845C67.6893 370.474 67.7557 370.067 67.7061 369.653C67.6584 369.255 67.5034 368.844 67.3078 368.428C67.1109 368.01 66.8533 367.549 66.5776 367.055L65.7044 367.543ZM65.6825 367.503C65.6897 367.516 65.6972 367.53 65.7044 367.543L66.5776 367.055C66.5702 367.042 66.5631 367.029 66.5557 367.016L65.6825 367.503ZM56.5974 107.474C56.5324 106.782 56.8912 106.015 57.6769 105.261C58.4555 104.514 59.596 103.841 60.9233 103.355C63.5938 102.377 66.8536 102.214 69.2127 103.536L69.7015 102.663C66.996 101.147 63.4066 101.38 60.5794 102.416C59.1579 102.936 57.8873 103.673 56.9846 104.539C56.0891 105.398 55.4965 106.446 55.6018 107.568L56.5974 107.474ZM68.9601 103.155C69.1795 105.137 69.1967 106.507 68.7193 107.605C68.2546 108.673 67.2753 109.574 65.2461 110.48L65.6536 111.393C67.7849 110.442 69.028 109.402 69.6362 108.004C70.2317 106.635 70.1723 105.016 69.9541 103.045L68.9601 103.155ZM65.2461 110.48C65.1405 110.527 65.0321 110.574 64.9209 110.621L65.3109 111.542C65.4277 111.492 65.5419 111.443 65.6536 111.393L65.2461 110.48ZM65.306 110.457C63.0049 111.149 61.4659 111.256 60.2011 110.786C58.9336 110.315 57.8351 109.224 56.5157 107.244L55.6835 107.798C57.0305 109.82 58.2769 111.137 59.8527 111.723C61.4313 112.31 63.2342 112.124 65.5937 111.415L65.306 110.457ZM69.7783 103.483C70.2422 103.094 70.5424 102.922 70.7921 102.854C71.0247 102.791 71.2677 102.803 71.6565 102.915L71.9328 101.954C71.4545 101.816 71.009 101.759 70.5296 101.889C70.0674 102.015 69.6324 102.3 69.136 102.716L69.7783 103.483ZM72.2664 102.6C72.8542 100.928 73.3928 99.8233 74.3341 99.0609C75.2754 98.2985 76.6946 97.8205 79.1831 97.6115L79.0994 96.615C76.5436 96.8297 74.8803 97.3317 73.7048 98.2838C72.5293 99.2357 71.9168 100.58 71.323 102.269L72.2664 102.6ZM79.1413 97.6132C79.1175 97.6132 79.1249 97.6106 79.1905 97.6246C79.2449 97.6362 79.3174 97.6543 79.4067 97.6788C79.5846 97.7277 79.8099 97.7968 80.054 97.8754C80.5412 98.0322 81.0851 98.2211 81.4367 98.3471L81.774 97.4056C81.4156 97.2773 80.861 97.0846 80.3605 96.9235C80.1107 96.8431 79.8698 96.769 79.6716 96.7146C79.5728 96.6874 79.4798 96.6638 79.3989 96.6466C79.3293 96.6317 79.2319 96.6132 79.1413 96.6132V97.6132ZM81.1959 98.1634C82.225 99.6315 83.0787 100.956 83.7604 102.325L84.6555 101.879C83.9411 100.445 83.0546 99.0728 82.0148 97.5894L81.1959 98.1634ZM83.7604 102.325C84.3789 103.566 84.8573 104.847 85.1923 106.303L86.1668 106.079C85.8129 104.541 85.3065 103.186 84.6555 101.879L83.7604 102.325ZM56.2203 107.036L54.8826 106.703L54.6412 107.674L55.9789 108.006L56.2203 107.036ZM83.7431 101.918C83.2392 103.19 82.7504 103.902 82.2048 104.399C81.6484 104.906 81.0033 105.221 80.0906 105.661L80.5247 106.562C81.4114 106.135 82.1952 105.761 82.8784 105.138C83.5725 104.506 84.1341 103.646 84.6728 102.286L83.7431 101.918ZM80.0906 105.661C80.0364 105.687 79.9814 105.714 79.9257 105.74L80.3605 106.641C80.4158 106.614 80.4705 106.588 80.5247 106.562L80.0906 105.661ZM79.9833 105.717C77.7417 106.473 76.4235 106.359 75.4127 105.787C74.3471 105.184 73.5258 104.031 72.384 102.404L71.5653 102.978C72.6628 104.542 73.616 105.919 74.92 106.657C76.2788 107.426 77.9252 107.467 80.3029 106.664L79.9833 105.717ZM72.384 102.404C72.3246 102.319 72.2646 102.233 72.2037 102.147L71.3856 102.722C71.4462 102.808 71.506 102.893 71.5653 102.978L72.384 102.404ZM80.0905 105.661L79.9259 105.74L80.3603 106.641L80.5248 106.562L80.0905 105.661ZM72.3839 102.403L72.2039 102.147L71.3854 102.722L71.5654 102.978L72.3839 102.403ZM77.0262 175.05C87.1443 170.023 92.2261 166.657 100.175 159.68L99.5156 158.928C91.6362 165.844 86.6277 169.163 76.5812 174.155L77.0262 175.05Z" fill="black"/>
</svg>
