<svg viewBox="0 0 151 169" fill="none" xmlns="http://www.w3.org/2000/svg">
<path d="M50.5726 110.642C46.8169 112.226 45.0381 111.187 41.9923 108.59C45.6774 107.35 47.5583 106.362 50.424 103.802L50.5726 99.8348C52.2026 99.0629 52.9831 98.6448 52.9419 98.0565C52.0906 94.9118 52.0959 92.963 55.3113 90.5326C55.1225 84.91 54.6836 82.7849 52.9419 81.9144C51.9316 81.0513 51.1254 80.3148 50.424 79.5889C49.2492 78.3729 48.3685 77.1867 47.3147 75.485C45.4878 73.1478 46.2941 71.9722 48.2032 70.6971C72.5935 69.4752 85.2999 69.8778 105.068 73.8434C104.804 74.1489 104.447 74.2226 103.587 74.2538C104.182 79.5689 103.779 82.4118 101.81 87.2495L100.625 96.3185C103.991 99.5602 102.783 103.132 98.5522 105.757V109.547C100.223 109.994 100.344 110.479 100.625 111.326C100.425 111.428 100.228 111.527 100.033 111.625C95.1852 114.063 91.8906 115.366 85.8169 117.482C83.9434 117.435 83.1904 117.143 82.2628 116.25C80.0543 116.251 79.7873 115.965 79.3229 115.467L79.3011 115.443C78.052 115.785 77.3517 115.731 76.1027 115.443C76.1755 115.392 76.2543 115.342 76.3395 115.293C78.3337 113.207 76.319 111.952 66.5658 109.547C55.1298 109.723 55.7229 110.63 54.719 112.01C53.0054 112.068 52.1106 111.694 50.5726 110.642Z" fill="#D9D9D9"/>
<path d="M54.719 112.01C55.7229 110.63 55.1298 109.723 66.5658 109.547C76.319 111.952 78.3337 113.207 76.3395 115.293C76.2543 115.342 76.1755 115.392 76.1027 115.443C74.9225 116.276 75.3364 117.436 76.1027 119.449C73.5548 115.723 70.034 114.722 57.6808 116.661C57.4673 116.614 57.1542 116.664 56.7922 116.78C58.0411 115.811 58.9627 115.047 59.6351 114.198C58.9116 112.791 57.9605 112.255 54.719 112.01Z" fill="#C0A26C"/>
<path d="M85.8639 117.502L85.8169 117.482C91.8906 115.366 95.1852 114.063 100.033 111.625C105.59 114.121 107.845 119.143 112.472 125.553C113.721 127.029 115.169 131.199 114.842 131.982C117.817 134.249 118.258 136.976 119.284 141.558C122.209 145.329 123.016 148.133 123.727 153.733C122.773 154.682 124.261 154.873 125.8 155.374C131.629 156.489 135.418 157.841 142.978 161.393C143.6 161.926 143.651 162.157 141.793 162.136C142.558 162.437 143.282 162.763 144.162 163.172C145.036 163.834 144.935 164.057 143.57 164.183C144.122 164.407 144.703 164.658 145.347 164.95C146.08 165.935 145.7 166.145 144.162 166.147L145.051 166.455C145.898 167.725 145.555 168.141 142.385 167.96C133.53 165.626 128.46 163.808 120.179 160.025C119.789 159.847 119.392 159.665 118.988 159.478C114.605 157.334 113.75 155.612 112.768 152.365L111.88 147.44C107.941 142.894 106.669 139.49 104.476 133.35C101.407 131.983 100.18 130.09 97.9598 126.784C94.983 121.547 91.6978 120.09 85.8639 117.502Z" fill="#C0A26C"/>
<path d="M53.5343 118.85C53.2033 119.176 52.884 119.495 52.5769 119.807C52.6844 118.292 52.4945 117.682 49.388 119.26L46.7224 120.765C46.6218 115.63 45.537 112.586 41.9923 108.59C45.0381 111.187 46.8169 112.226 50.5726 110.642C52.1106 111.694 53.0054 112.068 54.719 112.01C57.9605 112.255 58.9116 112.791 59.6351 114.198C58.9627 115.047 58.0411 115.811 56.7922 116.78C55.6713 117.139 54.082 118.132 53.5343 118.85Z" fill="#0E0A04"/>
<path d="M48.6817 124.322C45.811 128.558 47.46 130.903 55.9037 132.666C64.2373 132.961 69.1292 133.371 72.4893 128.152C73.4068 127.545 74.1785 126.99 74.7975 126.414C75.3605 125.89 75.7972 125.348 76.1027 124.732C77.4359 126.156 77.1043 127.356 74.2662 130.341C67.4543 135.402 61.0422 134.756 54.1267 134.718C44.4874 132.743 40.237 131.254 44.3531 124.732L44.6575 124.185C45.0867 124.631 46.4593 124.604 48.6817 124.322Z" fill="#0E0A04"/>
<path d="M52.5769 119.807C50.8907 121.519 49.5699 123.011 48.6817 124.322C46.4593 124.604 45.0867 124.631 44.6575 124.185C44.191 123.699 44.8392 122.653 46.7224 120.765L49.388 119.26C52.4945 117.682 52.6844 118.292 52.5769 119.807Z" fill="#C0A26C"/>
<path d="M52.9419 98.0565C51.2118 92.0197 54.9713 85.7851 52.6458 82.5984C50.3203 79.4117 50.424 79.5889 50.424 79.5889C51.1254 80.3148 51.9316 81.0513 52.9419 81.9144C54.6836 82.7849 55.1225 84.91 55.3113 90.5326C52.0959 92.963 52.0906 94.9118 52.9419 98.0565Z" fill="#0E0A04"/>
<path d="M105.068 73.8434C85.2999 69.8778 72.5935 69.4752 48.2032 70.6971C48.744 68.2902 48.264 66.5474 47.0061 65.2252C47.0473 63.2203 47.6529 61.1248 48.9524 58.659C52.5057 55.8602 54.7716 52.4896 56.4959 48.1257C59.2476 42.9985 59.607 40.1659 55.9036 35.2668C54.7522 30.1815 55.2324 27.4339 57.6806 22.6815L58.273 17.7568C58.4047 17.6148 58.5664 17.4775 58.7544 17.3464C61.081 15.7244 67.4482 15.0513 71.1984 18.2129C71.234 18.2429 71.2694 18.2733 71.3045 18.304C70.2059 20.9971 70.4887 22.7117 72.7853 26.1698C73.9618 29.1998 74.2559 30.9251 74.2662 34.0356L77.8202 37.7291C77.9672 39.2823 78.5097 40.6181 80.4857 44.0218C80.8996 50.5715 81.3344 54.3363 82.2628 61.1214C87.8538 58.7815 92.7341 56.5245 98.0272 53.8711C100.337 52.625 102.656 51.3787 105.068 50.0923C110.098 48.0059 114.422 45.6739 118.692 42.9274C115.132 37.0411 114.274 33.7251 117.507 27.743C118.2 24.6076 118.192 22.884 116.619 19.9455C123.628 16.8856 127.407 15.621 132.316 18.8512C130.978 23.8877 131.696 27.2572 136.166 34.446C136.758 36.9083 136.166 41.0123 140.905 44.0218C140.796 47.5316 139.516 48.9511 136.166 50.9984L120.617 62.4209C113.071 66.8082 109.859 69.3184 105.068 73.8434Z" fill="#071021"/>
<path d="M60.4854 8.86501C60.0238 10.6403 59.539 11.9416 58.7544 13.3793L56.7921 12.9689C56.4496 11.8241 56.5294 11.2853 56.7921 10.3698C58.4497 9.87811 59.1229 8.79299 59.3885 6.81306C59.5712 5.94355 59.6669 4.91081 59.7538 3.66673C63.752 2.91602 65.5453 2.4376 68.0466 1.47798C72.0941 0.79799 74.365 0.884844 78.4126 1.47798C82.1018 2.30521 81.6219 3.30955 81.0781 5.0347C80.557 5.59218 80.0873 5.72372 79.0049 5.58189L79.8934 3.94033C79.4378 2.56049 77.0849 2.32146 71.3045 2.29876C66.0736 3.11658 64.2153 3.95896 61.2347 5.58189C60.5986 6.44219 60.3936 7.54332 60.4854 8.86501Z" fill="#D9D9D9"/>
<path d="M148.901 5.1715C149.088 3.96078 148.432 3.56241 145.051 3.66673C138.653 3.85571 135.389 4.55388 130.242 7.08665C127.573 9.17412 125.653 10.2449 119.876 11.6009C115.728 12.9794 113.854 13.9216 111.88 16.1152C111.683 17.0445 111.578 17.5642 113.361 18.0304L113.22 18.0481C111.078 18.3184 109.834 18.4754 108.326 17.4832C107.159 15.5958 107.226 14.5099 111.287 12.4217C113.447 11.5948 115.278 10.9011 117.009 10.233C122.898 9.06629 125.541 7.88515 127.281 5.99228C130.332 4.26283 132.388 3.39862 138.831 2.70915C143.836 2.11225 146.541 1.87667 149.79 2.98275C150.299 4.45589 149.838 4.74259 148.901 5.1715Z" fill="#D9D9D9"/>
<path d="M128.169 14.8841C122.455 13.3111 120.02 15.1806 115.73 18.7144L113.361 18.0304C111.578 17.5642 111.683 17.0445 111.88 16.1152C113.854 13.9216 115.728 12.9794 119.876 11.6009C125.653 10.2449 127.573 9.17412 130.242 7.08665C135.389 4.55388 138.653 3.85571 145.051 3.66673C148.432 3.56241 149.088 3.96078 148.901 5.1715L141.201 9.2754C137.365 11.4647 136.147 13.1895 134.981 16.7992C134.566 17.8711 133.872 17.9377 132.612 18.0304C132.814 16.7185 131.759 16.0328 128.169 14.8841Z" fill="#3C4241"/>
<path d="M132.316 18.8512C127.407 15.621 123.628 16.8856 116.619 19.9455L115.73 18.7144C120.02 15.1806 122.455 13.3111 128.169 14.8841C131.759 16.0328 132.814 16.7185 132.612 18.0304L132.316 18.8512Z" fill="#D9D9D9"/>
<path d="M58.7544 17.3464L58.7738 17.3303C59.7611 16.5099 60.3205 16.045 58.7544 15.7048C58.7542 15.0581 58.7695 14.6978 59.7538 14.2001L63.3079 14.4737L64.4925 15.2945L70.416 15.9784L72.4891 15.4313L71.1984 18.2129C67.4482 15.0513 61.081 15.7244 58.7544 17.3464Z" fill="#D9D9D9"/>
<path d="M59.7538 14.2001L58.7544 13.3793C59.539 11.9416 60.0238 10.6403 60.4854 8.86501C60.3936 7.54332 60.5986 6.44219 61.2347 5.58189C64.2153 3.95896 66.0736 3.11658 71.3045 2.29876C77.0849 2.32146 79.4378 2.56049 79.8934 3.94033L79.0049 5.58189C78.8589 6.55325 78.278 7.04026 77.2279 7.90743C74.6249 8.79072 74.1997 10.506 74.5623 14.8841L72.4891 15.4313L70.416 15.9784L64.4925 15.2945L63.3079 14.4737L59.7538 14.2001Z" fill="#3C4241"/>
<path d="M41.9923 108.59C41.3755 107.894 40.6841 107.17 39.9105 106.401C36.6525 100.798 37.2205 95.3471 37.541 86.2919C34.0725 83.145 33.4583 81.0251 32.8023 77.1265C32.4617 72.4085 31.6762 69.7964 28.6559 65.2252C27.0136 64.2623 26.832 63.5122 27.175 62.3525C24.8031 60.0413 22.9283 58.9589 18.5861 57.4278C11.8748 56.0515 8.51841 54.8029 2.59322 52.5031C-0.368799 51.272 1.11193 50.7248 4.47131 51.6007C2.58295 50.8264 3.61616 50.572 7.03565 50.8616C16.7326 52.4473 21.4242 53.8024 28.9521 56.7438C27.6232 54.8483 27.704 53.4835 28.3598 50.8616C28.9916 50.2345 29.5477 50.2747 30.7292 50.7248C31.5159 53.5599 32.4266 55.0149 35.1717 57.291V63.0365C39.9078 68.3629 42.5599 71.6047 47.3147 75.485C48.3685 77.1867 49.2492 78.3729 50.424 79.5889C50.424 79.5889 50.3203 79.4117 52.6458 82.5984C54.9713 85.7851 51.2118 92.0197 52.9419 98.0565C52.9831 98.6448 52.2026 99.0629 50.5726 99.8348L50.424 103.802C47.5583 106.362 45.6774 107.35 41.9923 108.59Z" fill="#C0A26C"/>
<path d="M55.9037 132.666C47.46 130.903 45.811 128.558 48.6817 124.322L49.8681 124.185C49.5659 125.677 57.2231 127.171 61.7149 126.003C62.5667 126.334 63.0191 126.38 63.7881 126.277C64.8361 127.66 65.83 128.291 70.3039 128.466C70.5408 128.466 71.8595 128.256 72.4893 128.152C69.1292 133.371 64.2373 132.961 55.9037 132.666Z" fill="#C0A26C"/>
<path d="M48.6817 124.322C49.5699 123.011 50.8907 121.519 52.5769 119.807C52.884 119.495 53.2033 119.176 53.5343 118.85C54.082 118.132 55.6713 117.139 56.7922 116.78C57.1542 116.664 57.4673 116.614 57.6808 116.661C70.034 114.722 73.5548 115.723 76.1027 119.449C76.1825 119.566 76.2614 119.685 76.3395 119.807C76.7966 122.019 76.7046 123.519 76.1027 124.732C75.7972 125.348 75.3605 125.89 74.7975 126.414C73.8729 125.331 72.9343 125.121 71.3383 124.765L71.1924 124.732C67.0955 124.091 65.9338 124.859 63.9478 126.172L63.7881 126.277C63.0191 126.38 62.5667 126.334 61.7149 126.003C62.103 124.377 61.8508 123.544 58.1609 122.78C54.0273 122.204 52.233 122.538 49.8681 124.185L48.6817 124.322Z" fill="#C0A26C"/>
<path d="M70.3039 128.466C65.83 128.291 64.8361 127.66 63.7881 126.277L63.9478 126.172C65.9338 124.859 67.0955 124.091 71.1924 124.732L71.3383 124.765C72.9343 125.121 73.8729 125.331 74.7975 126.414C74.1785 126.99 73.4068 127.545 72.4893 128.152C71.8595 128.256 70.5408 128.466 70.3039 128.466Z" fill="#AA8E5D"/>
<path d="M61.7149 126.003C57.2231 127.171 49.5659 125.677 49.8681 124.185C52.233 122.538 54.0273 122.204 58.1609 122.78C61.8508 123.544 62.103 124.377 61.7149 126.003Z" fill="#AA8E5D"/>
<path d="M55.9037 132.666L55.886 133.166L55.8433 133.164L55.8014 133.156L55.9037 132.666ZM53.5343 118.85L53.9317 119.153L53.9104 119.181L53.8855 119.206L53.5343 118.85ZM52.5769 119.807L52.9331 120.158L52.9331 120.158L52.5769 119.807ZM49.388 119.26L49.1422 118.825L49.1517 118.819L49.1615 118.814L49.388 119.26ZM76.3395 119.807L76.7606 119.538L76.8104 119.616L76.8292 119.706L76.3395 119.807ZM57.6808 116.661L57.7583 117.155L57.6654 117.169L57.5735 117.149L57.6808 116.661ZM54.1267 134.718L54.124 135.218L54.0747 135.218L54.0263 135.208L54.1267 134.718ZM44.3531 124.732L44.7901 124.975L44.7833 124.987L44.7759 124.999L44.3531 124.732ZM74.2662 130.341L74.6285 130.685L74.5989 130.716L74.5644 130.742L74.2662 130.341ZM76.1027 124.732L75.6548 124.51L75.6548 124.51L76.1027 124.732ZM39.9105 106.401L39.5482 106.746L39.5077 106.703L39.4782 106.652L39.9105 106.401ZM50.5726 110.642L50.3782 110.181L50.6297 110.075L50.8549 110.229L50.5726 110.642ZM66.5658 109.547L66.5581 109.047L66.6227 109.046L66.6855 109.062L66.5658 109.547ZM76.3395 115.293L76.7009 115.638L76.6511 115.69L76.5887 115.726L76.3395 115.293ZM76.1027 119.449L75.6899 119.731L76.1027 119.449ZM56.7922 116.78L56.9448 117.256L56.9448 117.256L56.7922 116.78ZM76.1027 115.443L75.8144 115.035L76.1027 115.443ZM79.3011 115.443L79.1691 114.961L79.4604 114.881L79.6666 115.102L79.3011 115.443ZM82.2628 116.25L82.2627 115.75L82.4643 115.75L82.6095 115.89L82.2628 116.25ZM100.625 111.326L101.1 111.168L101.235 111.576L100.852 111.771L100.625 111.326ZM98.5522 109.547L98.423 110.03L98.0522 109.931V109.547H98.5522ZM98.5522 105.757H98.0522V105.479L98.2886 105.333L98.5522 105.757ZM100.625 96.3185L100.279 96.6786L100.097 96.5037L100.13 96.2537L100.625 96.3185ZM101.81 87.2495L101.314 87.1847L101.323 87.1208L101.347 87.061L101.81 87.2495ZM103.587 74.2538L103.09 74.3095L103.03 73.7737L103.569 73.7541L103.587 74.2538ZM47.3147 75.485L47.7086 75.1771L47.7254 75.1986L47.7398 75.2217L47.3147 75.485ZM52.9419 81.9144L52.7184 82.3617L52.6637 82.3343L52.6172 82.2946L52.9419 81.9144ZM52.9419 98.0565L53.4246 97.9258L53.4373 97.9729L53.4407 98.0216L52.9419 98.0565ZM50.424 79.5889L50.0645 79.9363L50.0645 79.9363L50.424 79.5889ZM55.3113 90.5326L55.811 90.5158L55.8197 90.7751L55.6128 90.9315L55.3113 90.5326ZM35.1717 63.0365L34.7981 63.3687L34.6717 63.2266V63.0365H35.1717ZM35.1717 57.291L35.4909 56.9061L35.6717 57.0561V57.291H35.1717ZM30.7292 50.7248L30.9072 50.2575L31.1434 50.3475L31.211 50.5911L30.7292 50.7248ZM28.3598 50.8616L27.8747 50.7402L27.9086 50.6049L28.0076 50.5067L28.3598 50.8616ZM28.9521 56.7438L29.3615 56.4568L30.3116 57.8118L28.7702 57.2095L28.9521 56.7438ZM7.03565 50.8616L7.07784 50.3634L7.09718 50.365L7.11634 50.3681L7.03565 50.8616ZM5.85096 52.0927L6.00434 51.6168L6.01501 51.6203L6.02552 51.6242L5.85096 52.0927ZM2.59322 52.5031L2.41226 52.9694L2.40132 52.9648L2.59322 52.5031ZM4.47131 51.6007L4.661 51.1381L4.661 51.1381L4.47131 51.6007ZM18.5861 57.4278L18.6866 56.938L18.7201 56.9449L18.7524 56.9563L18.5861 57.4278ZM27.175 62.3525L27.524 61.9944L27.7401 62.205L27.6545 62.4943L27.175 62.3525ZM28.6559 65.2252L28.9088 64.7939L29.009 64.8527L29.0731 64.9496L28.6559 65.2252ZM32.8023 77.1265L32.3092 77.2095L32.3053 77.1862L32.3036 77.1626L32.8023 77.1265ZM37.541 86.2919L37.877 85.9216L38.0489 86.0776L38.0407 86.3096L37.541 86.2919ZM50.424 103.802L50.9237 103.821L50.9157 104.033L50.7572 104.175L50.424 103.802ZM50.5726 99.8348L50.0729 99.8161L50.0843 99.5128L50.3586 99.3829L50.5726 99.8348ZM97.9598 126.784L97.5447 127.063L97.5343 127.047L97.5251 127.031L97.9598 126.784ZM104.476 133.35L104.679 132.893L104.874 132.98L104.946 133.182L104.476 133.35ZM111.88 147.44L112.258 147.113L112.347 147.216L112.372 147.351L111.88 147.44ZM112.768 152.365L112.29 152.509L112.281 152.482L112.276 152.454L112.768 152.365ZM118.988 159.478L118.778 159.932L118.768 159.927L118.988 159.478ZM142.385 167.96L142.357 168.459L142.307 168.456L142.258 168.443L142.385 167.96ZM145.051 166.455L145.215 165.982L145.374 166.037L145.467 166.178L145.051 166.455ZM144.162 166.147L143.999 166.62L143.975 166.611L143.953 166.601L144.162 166.147ZM145.347 164.95L145.554 164.495L145.671 164.548L145.748 164.652L145.347 164.95ZM143.57 164.183L143.382 164.647L143.57 164.183ZM144.162 163.172L144.373 162.718L144.422 162.741L144.465 162.773L144.162 163.172ZM142.978 161.393L143.19 160.941L143.251 160.97L143.303 161.013L142.978 161.393ZM125.8 155.374L125.706 155.865L125.675 155.86L125.645 155.85L125.8 155.374ZM123.727 153.733L124.223 153.67L124.254 153.914L124.079 154.087L123.727 153.733ZM119.284 141.558L118.889 141.864L118.821 141.776L118.796 141.667L119.284 141.558ZM114.842 131.982L114.538 132.38L114.231 132.146L114.38 131.789L114.842 131.982ZM112.472 125.553L112.09 125.876L112.078 125.861L112.067 125.845L112.472 125.553ZM129.354 162.488L129.204 162.965L129.185 162.959L129.166 162.951L129.354 162.488ZM133.5 160.983L133.566 160.487L133.662 160.5L133.747 160.548L133.5 160.983ZM131.427 160.709L131.362 161.205L131.154 161.178L131.028 161.011L131.427 160.709ZM56.4959 48.1257L56.0309 47.9419L56.0416 47.9149L56.0554 47.8892L56.4959 48.1257ZM47.0061 65.2252L46.6438 65.5699L46.5019 65.4207L46.5062 65.2149L47.0061 65.2252ZM48.9524 58.659L48.5101 58.4259L48.5596 58.332L48.643 58.2663L48.9524 58.659ZM55.9036 35.2668L55.5047 35.5683L55.4397 35.4823L55.4159 35.3772L55.9036 35.2668ZM57.6806 22.6815L58.177 22.7412L58.1663 22.8305L58.1251 22.9105L57.6806 22.6815ZM58.273 17.7568L57.7765 17.6971L57.7959 17.5358L57.9064 17.4167L58.273 17.7568ZM71.3045 18.304L71.6336 17.9276L71.9022 18.1624L71.7674 18.4928L71.3045 18.304ZM74.2662 34.0356L73.9059 34.3823L73.7668 34.2378L73.7662 34.0373L74.2662 34.0356ZM72.7853 26.1698L73.2018 25.8932L73.2318 25.9383L73.2514 25.9888L72.7853 26.1698ZM77.8202 37.7291L78.1805 37.3824L78.3015 37.5082L78.318 37.682L77.8202 37.7291ZM80.4857 44.0218L80.9182 43.7707L80.9773 43.8726L80.9848 43.9902L80.4857 44.0218ZM82.2628 61.1214L82.4558 61.5826L81.8556 61.8338L81.7674 61.1892L82.2628 61.1214ZM118.692 42.9274L119.12 42.6687L119.371 43.0848L118.962 43.3479L118.692 42.9274ZM98.0272 53.8711L98.2646 54.3112L98.258 54.3148L98.2513 54.3181L98.0272 53.8711ZM105.068 50.0923L104.833 49.6511L104.854 49.6397L104.876 49.6304L105.068 50.0923ZM117.507 27.743L117.995 27.8509L117.98 27.9192L117.947 27.9807L117.507 27.743ZM136.166 34.446L136.59 34.182L136.633 34.2506L136.652 34.3291L136.166 34.446ZM140.905 44.0218L141.173 43.5997L141.413 43.7525L141.404 44.0373L140.905 44.0218ZM136.166 50.9984L135.87 50.5955L135.887 50.5829L135.905 50.5718L136.166 50.9984ZM120.617 62.4209L120.913 62.8239L120.891 62.8397L120.868 62.8532L120.617 62.4209ZM58.7544 15.7048L58.6483 16.1935L58.2546 16.1079L58.2544 15.705L58.7544 15.7048ZM61.2347 5.58189L60.8326 5.28463L60.8984 5.19567L60.9956 5.14276L61.2347 5.58189ZM60.4854 8.86501L60.9842 8.83037L60.9899 8.91181L60.9693 8.99083L60.4854 8.86501ZM71.3045 2.29876L71.2272 1.80477L71.2666 1.79861L71.3064 1.79877L71.3045 2.29876ZM79.8934 3.94033L80.3682 3.78357L80.4359 3.98852L80.3331 4.17833L79.8934 3.94033ZM79.0049 5.58189L78.5104 5.50759L78.5235 5.42094L78.5652 5.34388L79.0049 5.58189ZM81.0781 5.0347L81.555 5.18502L81.5208 5.29323L81.4434 5.37612L81.0781 5.0347ZM78.4126 1.47798L78.4851 0.983267L78.5036 0.98599L78.522 0.990098L78.4126 1.47798ZM68.0466 1.47798L67.8675 1.01116L67.9143 0.993201L67.9637 0.984894L68.0466 1.47798ZM59.7538 3.66673L59.255 3.63188L59.282 3.24659L59.6615 3.17532L59.7538 3.66673ZM56.7921 10.3698L56.3115 10.2319L56.3871 9.96837L56.6499 9.89042L56.7921 10.3698ZM59.3885 6.81306L58.8929 6.74658L58.8954 6.72828L58.8992 6.71021L59.3885 6.81306ZM56.7921 12.9689L56.6898 13.4583L56.3984 13.3974L56.3131 13.1122L56.7921 12.9689ZM63.3079 14.4737L63.3462 13.9752L63.4813 13.9855L63.5926 14.0627L63.3079 14.4737ZM64.4925 15.2945L64.4352 15.7912L64.3108 15.7768L64.2078 15.7055L64.4925 15.2945ZM70.416 15.9784L70.5436 16.4619L70.4523 16.486L70.3586 16.4751L70.416 15.9784ZM74.5623 14.8841L75.0606 14.8428L75.0952 15.2605L74.6899 15.3675L74.5623 14.8841ZM77.2279 7.90743L77.5462 8.29297L77.4755 8.35142L77.3885 8.38091L77.2279 7.90743ZM128.169 14.8841L128.302 14.402L128.312 14.4047L128.322 14.4078L128.169 14.8841ZM134.981 16.7992L135.457 16.9529L135.452 16.9666L135.447 16.98L134.981 16.7992ZM141.201 9.2754L140.953 8.84117L140.959 8.83757L140.966 8.83415L141.201 9.2754ZM145.051 3.66673L145.066 4.16649L145.066 4.16651L145.051 3.66673ZM130.242 7.08665L129.934 6.69276L129.975 6.66089L130.022 6.63804L130.242 7.08665ZM119.876 11.6009L119.719 11.1265L119.74 11.1193L119.762 11.1142L119.876 11.6009ZM111.88 16.1152L111.391 16.0117L111.418 15.8805L111.508 15.7808L111.88 16.1152ZM113.361 18.0304L113.487 17.5465L113.499 17.55L113.361 18.0304ZM108.326 17.4832L108.051 17.9009L107.959 17.8401L107.9 17.7461L108.326 17.4832ZM111.287 12.4217L111.059 11.977L111.083 11.9646L111.109 11.9548L111.287 12.4217ZM127.281 5.99228L126.913 5.65397L126.966 5.59608L127.034 5.5573L127.281 5.99228ZM117.009 10.233L116.829 9.76653L116.869 9.75093L116.912 9.74251L117.009 10.233ZM138.831 2.70915L138.891 3.20567L138.885 3.20632L138.831 2.70915ZM149.79 2.98275L149.951 2.50942L150.182 2.58824L150.262 2.81941L149.79 2.98275ZM79.3229 115.467L79.6885 115.126L79.6885 115.126L79.3229 115.467ZM85.8639 117.502L85.6612 117.96L85.6612 117.96L85.8639 117.502ZM58.7738 17.3303L59.0934 17.7148L59.0934 17.7148L58.7738 17.3303ZM70.3039 128.466V128.966H70.2941L70.2844 128.965L70.3039 128.466ZM71.1924 124.732L71.2697 124.238L71.2857 124.24L71.3015 124.244L71.1924 124.732ZM74.7975 126.414L75.1382 126.78L75.1382 126.78L74.7975 126.414ZM71.3383 124.765L71.2293 125.253L71.2293 125.253L71.3383 124.765ZM55.8014 133.156C53.6757 132.712 51.9562 132.227 50.619 131.676C49.2875 131.128 48.2941 130.499 47.665 129.741C47.0187 128.962 46.7804 128.075 46.9164 127.096C47.0488 126.143 47.5315 125.128 48.2678 124.041L49.0956 124.602C48.3965 125.634 48.0089 126.5 47.9069 127.233C47.8086 127.941 47.9721 128.545 48.4346 129.102C48.9144 129.68 49.737 130.232 50.9997 130.752C52.2568 131.269 53.9098 131.739 56.0059 132.177L55.8014 133.156ZM48.2678 124.041C49.182 122.692 50.5286 121.174 52.2207 119.456L52.9331 120.158C51.2529 121.864 49.9577 123.33 49.0956 124.602L48.2678 124.041ZM52.2207 119.456C52.5297 119.143 52.8507 118.822 53.1831 118.494L53.8855 119.206C53.556 119.531 53.2384 119.848 52.9331 120.158L52.2207 119.456ZM52.0781 119.772C52.1053 119.389 52.1066 119.131 52.0714 118.962C52.0551 118.885 52.0365 118.855 52.0319 118.849C52.0303 118.847 52.0308 118.848 52.0331 118.849C52.0353 118.851 52.0341 118.849 52.0258 118.847C51.9734 118.829 51.7937 118.809 51.3606 118.944C50.9476 119.073 50.3825 119.316 49.6144 119.706L49.1615 118.814C49.9467 118.415 50.5703 118.143 51.0632 117.989C51.5361 117.842 51.9796 117.774 52.3496 117.9C52.7865 118.05 52.9778 118.411 53.0503 118.758C53.1175 119.081 53.1022 119.468 53.0756 119.843L52.0781 119.772ZM49.6338 119.695L46.9682 121.2L46.4766 120.329L49.1422 118.825L49.6338 119.695ZM55.9214 132.166C60.1186 132.315 63.3528 132.485 65.9677 131.986C68.5301 131.496 70.4694 130.366 72.0689 127.881L72.9097 128.423C71.1491 131.157 68.9624 132.431 66.1554 132.968C63.4009 133.494 60.0224 133.312 55.886 133.166L55.9214 132.166ZM54.0263 135.208C51.6158 134.714 49.522 134.246 47.8073 133.719C46.1006 133.195 44.7184 132.597 43.765 131.817C42.7864 131.016 42.2539 130.016 42.2884 128.752C42.3218 127.531 42.8844 126.122 43.9303 124.465L44.7759 124.999C43.7638 126.602 43.3141 127.826 43.288 128.78C43.2631 129.691 43.6238 130.409 44.3983 131.043C45.1978 131.697 46.4283 132.25 48.101 132.764C49.7657 133.275 51.818 133.735 54.2271 134.228L54.0263 135.208ZM54.1294 134.218C61.0934 134.256 67.316 134.882 73.968 129.939L74.5644 130.742C67.5926 135.922 60.991 135.255 54.124 135.218L54.1294 134.218ZM75.6548 124.51C76.1855 123.44 76.2966 122.07 75.8498 119.908L76.8292 119.706C77.2966 121.968 77.2236 123.597 76.5506 124.954L75.6548 124.51ZM73.9039 129.996C75.3293 128.497 76.0406 127.527 76.2723 126.799C76.3808 126.459 76.3777 126.187 76.3 125.938C76.2188 125.678 76.0432 125.4 75.7377 125.074L76.4677 124.39C76.8288 124.776 77.1117 125.182 77.2546 125.641C77.401 126.11 77.3876 126.593 77.2251 127.103C76.9148 128.078 76.0413 129.2 74.6285 130.685L73.9039 129.996ZM46.2225 120.775C46.1728 118.24 45.8808 116.258 45.1818 114.429C44.4832 112.6 43.3653 110.891 41.6183 108.922L42.3664 108.258C44.164 110.285 45.3609 112.096 46.116 114.072C46.8708 116.048 47.1714 118.155 47.2223 120.755L46.2225 120.775ZM41.6183 108.922C41.01 108.236 40.3261 107.519 39.558 106.756L40.263 106.046C41.0421 106.821 41.741 107.553 42.3664 108.258L41.6183 108.922ZM40.2728 106.056L42.3546 108.245L41.6301 108.934L39.5482 106.746L40.2728 106.056ZM42.3168 108.209C43.8449 109.512 44.978 110.352 46.1593 110.705C47.3062 111.047 48.5656 110.946 50.3782 110.181L50.767 111.102C48.824 111.922 47.3162 112.094 45.8733 111.663C44.4648 111.243 43.1856 110.264 41.6679 108.97L42.3168 108.209ZM50.8549 110.229C51.614 110.749 52.1778 111.074 52.7433 111.27C53.3001 111.462 53.8877 111.538 54.7019 111.51L54.7361 112.509C53.8367 112.54 53.1202 112.458 52.4167 112.215C51.7218 111.975 51.0692 111.587 50.2902 111.054L50.8549 110.229ZM54.3147 111.716C54.4299 111.557 54.5161 111.415 54.628 111.243C54.7348 111.078 54.8578 110.899 55.0207 110.726C55.36 110.364 55.8222 110.077 56.587 109.848C58.0713 109.404 60.8527 109.135 66.5581 109.047L66.5735 110.047C60.8429 110.136 58.2029 110.408 56.8738 110.806C56.2318 110.998 55.9393 111.208 55.7501 111.41C55.6487 111.518 55.564 111.638 55.4664 111.788C55.3739 111.93 55.259 112.117 55.1232 112.304L54.3147 111.716ZM66.6855 109.062C71.5437 110.26 74.5637 111.19 76.1132 112.11C76.8809 112.566 77.4276 113.1 77.5207 113.786C77.6139 114.473 77.2224 115.093 76.7009 115.638L75.9781 114.947C76.4538 114.45 76.5582 114.13 76.5298 113.92C76.5012 113.71 76.3086 113.389 75.6026 112.97C74.205 112.14 71.3411 111.24 66.4461 110.033L66.6855 109.062ZM75.9184 120.077C75.8428 119.959 75.7667 119.844 75.6899 119.731L76.5154 119.167C76.5983 119.288 76.6799 119.412 76.7606 119.538L75.9184 120.077ZM75.6899 119.731C75.0779 118.836 74.423 118.127 73.6092 117.585C72.7962 117.043 71.7997 116.651 70.4837 116.423C67.8293 115.965 63.9328 116.186 57.7583 117.155L57.6033 116.167C63.782 115.197 67.8226 114.949 70.6538 115.438C72.0806 115.684 73.2142 116.12 74.1639 116.753C75.1129 117.385 75.8535 118.199 76.5154 119.167L75.6899 119.731ZM57.5735 117.149C57.4979 117.133 57.2941 117.144 56.9448 117.256L56.6396 116.304C57.0143 116.184 57.4367 116.095 57.7881 116.173L57.5735 117.149ZM56.9448 117.256C56.4363 117.419 55.7976 117.735 55.2154 118.103C54.6237 118.477 54.1505 118.867 53.9317 119.153L53.1369 118.546C53.4658 118.116 54.0611 117.65 54.6812 117.258C55.3107 116.86 56.0271 116.5 56.6396 116.304L56.9448 117.256ZM56.4856 116.385C57.7377 115.413 58.6133 114.683 59.2432 113.888L60.0269 114.509C59.3122 115.411 58.3445 116.208 57.0987 117.175L56.4856 116.385ZM59.2432 113.888C59.8256 113.153 60.208 112.349 60.4496 111.221L61.4275 111.43C61.1569 112.693 60.7142 113.642 60.0269 114.509L59.2432 113.888ZM59.1904 114.427C58.8654 113.795 58.5184 113.404 57.9106 113.122C57.2647 112.822 56.2944 112.63 54.6813 112.508L54.7566 111.511C56.385 111.634 57.5111 111.833 58.3319 112.215C59.1909 112.614 59.6812 113.195 60.0797 113.97L59.1904 114.427ZM48.7446 124.818C47.6292 124.959 46.7002 125.041 45.987 125.026C45.6304 125.019 45.308 124.988 45.0338 124.919C44.7646 124.852 44.4959 124.738 44.297 124.531L45.018 123.838C45.0337 123.855 45.0975 123.905 45.2758 123.949C45.4492 123.992 45.6893 124.02 46.0073 124.026C46.6433 124.039 47.5118 123.966 48.6187 123.826L48.7446 124.818ZM44.297 124.531C44.0594 124.284 43.9822 123.969 44.0224 123.649C44.0597 123.352 44.1963 123.046 44.3815 122.741C44.7537 122.129 45.4233 121.36 46.3683 120.412L47.0764 121.118C46.1383 122.059 45.5422 122.757 45.2361 123.261C45.0822 123.514 45.0265 123.679 45.0146 123.773C45.0093 123.816 45.0143 123.833 45.0146 123.834C45.0149 123.835 45.0148 123.835 45.0143 123.834C45.014 123.833 45.0147 123.835 45.018 123.838L44.297 124.531ZM43.9161 124.489L44.2205 123.942L45.0945 124.428L44.7901 124.975L43.9161 124.489ZM75.6354 119.627C75.2616 118.645 74.933 117.776 74.8743 117.043C74.8437 116.661 74.8825 116.286 75.0407 115.933C75.1996 115.578 75.4616 115.284 75.8144 115.035L76.3909 115.852C76.1537 116.019 76.0248 116.182 75.9534 116.342C75.8812 116.503 75.85 116.7 75.8711 116.964C75.9159 117.522 76.1774 118.24 76.57 119.271L75.6354 119.627ZM75.8144 115.035C75.901 114.974 75.993 114.915 76.0903 114.859L76.5887 115.726C76.5156 115.768 76.4499 115.81 76.3909 115.852L75.8144 115.035ZM76.215 114.956C76.8297 115.098 77.2756 115.174 77.7088 115.18C78.1367 115.186 78.5759 115.123 79.1691 114.961L79.4332 115.926C78.7772 116.105 78.2417 116.187 77.695 116.18C77.1535 116.172 76.6248 116.077 75.9903 115.93L76.215 114.956ZM82.6095 115.89C83.0406 116.305 83.4015 116.553 83.8518 116.712C84.3156 116.876 84.9097 116.959 85.8293 116.982L85.8044 117.981C84.8505 117.958 84.1314 117.871 83.5184 117.655C82.892 117.433 82.4126 117.088 81.9161 116.611L82.6095 115.89ZM100.151 111.483C100 111.03 99.9302 110.82 99.7509 110.635C99.5724 110.451 99.2318 110.247 98.423 110.03L98.6814 109.064C99.5432 109.295 100.099 109.557 100.469 109.939C100.838 110.32 100.969 110.775 101.1 111.168L100.151 111.483ZM98.0522 109.547V105.757H99.0522V109.547H98.0522ZM98.2886 105.333C100.35 104.053 101.587 102.595 101.952 101.147C102.308 99.7377 101.868 98.2094 100.279 96.6786L100.972 95.9584C102.748 97.6693 103.387 99.548 102.922 101.392C102.467 103.196 100.985 104.837 98.8158 106.182L98.2886 105.333ZM100.13 96.2537L101.314 87.1847L102.306 87.3143L101.121 96.3833L100.13 96.2537ZM101.347 87.061C102.323 84.6624 102.9 82.7852 103.165 80.8625C103.43 78.9395 103.385 76.9454 103.09 74.3095L104.084 74.1982C104.384 76.8773 104.436 78.9622 104.156 80.9988C103.875 83.0358 103.266 84.9988 102.273 87.438L101.347 87.061ZM103.569 73.7541C104.457 73.7219 104.587 73.6357 104.689 73.5167L105.446 74.1701C105.022 74.6621 104.437 74.7233 103.605 74.7535L103.569 73.7541ZM104.97 74.3337C85.2559 70.3789 72.594 69.9758 48.2282 71.1965L48.1782 70.1977C72.593 68.9746 85.3439 69.3767 105.166 73.3532L104.97 74.3337ZM46.9208 75.7929C45.9738 74.5815 45.5991 73.5341 45.877 72.5561C46.1432 71.6194 46.97 70.9195 47.9255 70.2813L48.4809 71.1129C47.5273 71.7498 46.9964 72.2752 46.8389 72.8294C46.6932 73.3423 46.8287 74.0513 47.7086 75.1771L46.9208 75.7929ZM52.4613 98.1942C51.5606 95.0514 52.0936 91.8719 52.5234 89.1798C52.7413 87.8147 52.9314 86.5893 52.9298 85.5099C52.9283 84.4357 52.7357 83.5698 52.2419 82.8932L53.0497 82.3037C53.7186 83.2204 53.9281 84.3288 53.9298 85.5085C53.9315 86.683 53.7258 87.9911 53.5109 89.3375C53.0748 92.0686 52.5932 95.0247 53.4226 97.9187L52.4613 98.1942ZM52.6172 82.2946C51.6005 81.4261 50.7812 80.6781 50.0645 79.9363L50.7836 79.2415C51.4696 79.9515 52.2626 80.6765 53.2667 81.5343L52.6172 82.2946ZM50.0645 79.9363C48.8583 78.6879 47.9565 77.471 46.8896 75.7482L47.7398 75.2217C48.7805 76.9023 49.6401 78.0579 50.7836 79.2415L50.0645 79.9363ZM52.2419 82.8932C51.0792 81.2999 50.5253 80.5496 50.2624 80.1981C50.1298 80.0207 50.0747 79.9495 50.0541 79.9238C50.0491 79.9176 50.0488 79.9174 50.0514 79.9204C50.0526 79.9218 50.0568 79.9266 50.063 79.9331C50.0658 79.9361 50.0835 79.9551 50.1097 79.9762C50.1195 79.9842 50.1558 80.0136 50.2096 80.039C50.2361 80.0516 50.2933 80.0761 50.3709 80.0843C50.4531 80.093 50.5919 80.0855 50.723 79.9875C50.8523 79.8907 50.898 79.7625 50.9134 79.6866C50.9282 79.6133 50.923 79.5539 50.9196 79.5258C50.9125 79.4686 50.8968 79.4261 50.8924 79.4142C50.8809 79.3831 50.8687 79.3601 50.8662 79.3555C50.8637 79.3508 50.8616 79.3469 50.8599 79.3439C50.8591 79.3424 50.8583 79.341 50.8575 79.3397C50.8572 79.3391 50.8568 79.3385 50.8565 79.3379C50.8563 79.3376 50.8561 79.3372 50.856 79.337C50.8557 79.3366 50.8555 79.3362 50.424 79.5889C49.9926 79.8416 49.9923 79.8411 49.9921 79.8407C49.992 79.8406 49.9918 79.8401 49.9916 79.8399C49.9912 79.8393 49.9909 79.8386 49.9905 79.838C49.9898 79.8367 49.9889 79.8352 49.988 79.8336C49.9863 79.8305 49.984 79.8264 49.9814 79.8215C49.9787 79.8163 49.9662 79.7928 49.9545 79.7611C49.95 79.749 49.9343 79.7063 49.9272 79.6489C49.9237 79.6206 49.9185 79.5612 49.9333 79.4879C49.9487 79.4119 49.9945 79.2836 50.1238 79.1868C50.2549 79.0887 50.3938 79.0812 50.4761 79.0899C50.5538 79.0981 50.6111 79.1227 50.6377 79.1353C50.6917 79.1609 50.7284 79.1905 50.7386 79.1988C50.7656 79.2206 50.7846 79.2408 50.7893 79.2457C50.7972 79.2542 50.8038 79.2616 50.8082 79.2667C50.817 79.2769 50.8259 79.2878 50.8342 79.2982C50.8668 79.3388 50.9312 79.4226 51.0633 79.5992C51.3299 79.9558 51.8868 80.7102 53.0497 82.3037L52.2419 82.8932ZM52.4593 98.1871C52.0313 96.6062 51.7861 95.2236 52.1166 93.9051C52.4519 92.5677 53.3538 91.3854 55.0098 90.1338L55.6128 90.9315C54.0534 92.1102 53.345 93.1175 53.0866 94.1483C52.8235 95.1979 53.0012 96.362 53.4246 97.9258L52.4593 98.1871ZM54.8116 90.5494C54.717 87.7338 54.5602 85.8497 54.2252 84.5679C53.8973 83.3136 53.4198 82.7122 52.7184 82.3617L53.1655 81.4672C54.2058 81.9871 54.8185 82.8835 55.1927 84.315C55.5597 85.719 55.7168 87.7088 55.811 90.5158L54.8116 90.5494ZM46.9986 75.8724C42.2052 71.9607 39.5223 68.6818 34.7981 63.3687L35.5454 62.7042C40.2933 68.044 42.9145 71.2488 47.6308 75.0976L46.9986 75.8724ZM34.6717 63.0365V57.291H35.6717V63.0365H34.6717ZM34.8526 57.6759C33.4628 56.5235 32.5076 55.555 31.8002 54.4951C31.0904 53.4316 30.6483 52.3034 30.2474 50.8585L31.211 50.5911C31.5967 51.9812 32.0034 52.9981 32.632 53.9399C33.2629 54.8853 34.1356 55.7823 35.4909 56.9061L34.8526 57.6759ZM30.5512 51.192C29.9612 50.9673 29.6105 50.8805 29.3548 50.889C29.1454 50.8959 28.9622 50.9681 28.712 51.2164L28.0076 50.5067C28.3891 50.128 28.7999 49.9067 29.3218 49.8895C29.7975 49.8738 30.3156 50.0322 30.9072 50.2575L30.5512 51.192ZM28.8449 50.9829C28.5177 52.291 28.3526 53.2201 28.4104 54.0399C28.4666 54.8361 28.7369 55.5658 29.3615 56.4568L28.5427 57.0309C27.8384 56.0263 27.4846 55.1259 27.4129 54.1103C27.3429 53.1184 27.5461 52.0541 27.8747 50.7402L28.8449 50.9829ZM28.7702 57.2095C21.276 54.2813 16.6184 52.9352 6.95495 51.355L7.11634 50.3681C16.8468 51.9593 21.5724 53.3235 29.1341 56.2781L28.7702 57.2095ZM6.99345 51.3598C6.14524 51.2879 5.45326 51.2506 4.92247 51.246C4.37498 51.2412 4.04697 51.2725 3.89614 51.3141C3.86283 51.3233 3.85772 51.328 3.8688 51.3218C3.87687 51.3174 3.93339 51.2854 3.98048 51.2066C4.03716 51.1117 4.04959 50.9999 4.02489 50.9036C4.00468 50.8248 3.96732 50.7847 3.96631 50.7835C3.96265 50.7795 3.97133 50.7897 4.00393 50.813C4.03501 50.8351 4.07958 50.8632 4.14074 50.897C4.26362 50.9649 4.43489 51.0453 4.661 51.1381L4.28162 52.0633C4.03564 51.9624 3.82611 51.8656 3.65741 51.7725C3.49846 51.6847 3.33752 51.5799 3.22263 51.4521C3.16398 51.3868 3.09078 51.2867 3.05624 51.152C3.01721 50.9999 3.03682 50.8363 3.12194 50.6938C3.19747 50.5674 3.3037 50.4919 3.38246 50.4481C3.46423 50.4026 3.55081 50.3721 3.62993 50.3502C3.92879 50.2677 4.38222 50.2412 4.93118 50.246C5.49683 50.2509 6.2163 50.2904 7.07784 50.3634L6.99345 51.3598ZM4.661 51.1381C5.00011 51.2771 5.44561 51.4368 6.00434 51.6168L5.69759 52.5686C5.12496 52.3841 4.65307 52.2156 4.28162 52.0633L4.661 51.1381ZM2.40132 52.9648C1.65502 52.6546 1.11892 52.3615 0.823037 52.0846C0.69044 51.9606 0.495436 51.7392 0.500079 51.4379C0.505767 51.0687 0.786308 50.8792 0.963612 50.8027C1.14814 50.723 1.37098 50.6896 1.59231 50.6774C1.82264 50.6648 2.09157 50.6733 2.39047 50.7012C2.98887 50.7569 3.73867 50.8929 4.59746 51.1169L4.34516 52.0845C3.52426 51.8705 2.8292 51.7464 2.2977 51.6969C2.03166 51.6721 1.81437 51.6667 1.64725 51.6759C1.47113 51.6856 1.38527 51.7099 1.35987 51.7208C1.32725 51.7349 1.49664 51.6689 1.49996 51.4533C1.50224 51.3056 1.41365 51.2678 1.50628 51.3545C1.66085 51.4991 2.05042 51.736 2.78513 52.0414L2.40132 52.9648ZM2.77414 52.037C8.68919 54.3328 12.0155 55.57 18.6866 56.938L18.4857 57.9176C11.7341 56.5331 8.34763 55.2729 2.41231 52.9693L2.77414 52.037ZM6.02552 51.6242C10.2302 53.1907 12.5789 54.0008 16.9092 54.886L16.7089 55.8657C12.3058 54.9657 9.90221 54.1356 5.67641 52.5613L6.02552 51.6242ZM26.8261 62.7106C24.5216 60.4652 22.7176 59.4148 18.4198 57.8994L18.7524 56.9563C23.1389 58.503 25.0845 59.6174 27.524 61.9944L26.8261 62.7106ZM27.6545 62.4943C27.496 63.03 27.4923 63.3641 27.6254 63.6541C27.7679 63.9647 28.1139 64.3278 28.9088 64.7939L28.403 65.6566C27.5555 65.1597 26.9896 64.6662 26.7165 64.0712C26.434 63.4554 26.511 62.8346 26.6956 62.2107L27.6545 62.4943ZM29.0731 64.9496C30.5958 67.2542 31.5719 69.0899 32.2074 70.9599C32.8432 72.831 33.1292 74.7109 33.301 77.0905L32.3036 77.1626C32.1348 74.8242 31.8577 73.039 31.2606 71.2817C30.663 69.5233 29.7363 67.7674 28.2387 65.5009L29.0731 64.9496ZM33.2954 77.0436C33.6229 78.9901 33.9319 80.4342 34.5687 81.7768C35.2015 83.1109 36.1744 84.3769 37.877 85.9216L37.205 86.6622C35.4392 85.0601 34.3707 83.6926 33.6652 82.2054C32.9638 80.7266 32.6377 79.1615 32.3092 77.2095L33.2954 77.0436ZM38.0407 86.3096C37.7179 95.4282 37.1745 100.701 40.3427 106.15L39.4782 106.652C36.1306 100.895 36.723 95.2659 37.0413 86.2742L38.0407 86.3096ZM41.8329 108.116C45.4648 106.894 47.2836 105.937 50.0909 103.429L50.7572 104.175C47.833 106.787 45.89 107.806 42.1518 109.064L41.8329 108.116ZM49.9244 103.783L50.0729 99.8161L51.0722 99.8535L50.9237 103.821L49.9244 103.783ZM50.3586 99.3829C51.1839 98.9921 51.7453 98.7126 52.0979 98.4666C52.4617 98.213 52.4442 98.1055 52.4432 98.0913L53.4407 98.0216C53.4809 98.5957 53.0936 98.9915 52.6699 99.2869C52.2351 99.5901 51.5912 99.9056 50.7866 100.287L50.3586 99.3829ZM98.3748 126.505C100.604 129.825 101.76 131.593 104.679 132.893L104.272 133.807C101.054 132.373 99.7558 130.355 97.5447 127.063L98.3748 126.505ZM104.946 133.182C107.138 139.315 108.384 142.642 112.258 147.113L111.502 147.768C107.498 143.146 106.201 139.665 104.005 133.518L104.946 133.182ZM112.372 147.351L113.26 152.276L112.276 152.454L111.388 147.529L112.372 147.351ZM113.247 152.22C113.735 153.836 114.173 154.998 114.993 156.022C115.812 157.046 117.048 157.972 119.208 159.029L118.768 159.927C116.545 158.839 115.162 157.833 114.212 156.647C113.264 155.463 112.783 154.14 112.29 152.509L113.247 152.22ZM142.414 167.46C143.199 167.505 143.79 167.512 144.223 167.481C144.675 167.448 144.88 167.379 144.955 167.33C144.98 167.314 144.965 167.317 144.954 167.346C144.943 167.372 144.952 167.377 144.945 167.337C144.927 167.234 144.843 167.045 144.635 166.732L145.467 166.178C145.682 166.5 145.873 166.84 145.93 167.166C145.96 167.34 145.957 167.536 145.878 167.728C145.797 167.924 145.657 168.069 145.494 168.173C145.193 168.365 144.771 168.444 144.294 168.478C143.797 168.514 143.157 168.504 142.357 168.459L142.414 167.46ZM144.887 166.927L143.999 166.62L144.326 165.675L145.215 165.982L144.887 166.927ZM143.953 166.601C141.376 165.412 139.774 164.864 136.635 164.067L136.881 163.098C140.069 163.907 141.73 164.474 144.372 165.693L143.953 166.601ZM144.162 165.647C144.54 165.646 144.823 165.633 145.027 165.603C145.251 165.57 145.291 165.528 145.272 165.545C145.25 165.565 145.223 165.603 145.212 165.652C145.203 165.693 145.212 165.71 145.205 165.685C145.188 165.62 145.121 165.485 144.946 165.249L145.748 164.652C145.939 164.908 146.1 165.168 146.17 165.42C146.206 165.553 146.224 165.708 146.188 165.87C146.15 166.04 146.061 166.181 145.941 166.289C145.726 166.482 145.429 166.554 145.172 166.592C144.895 166.633 144.554 166.646 144.163 166.647L144.162 165.647ZM145.14 165.405C144.501 165.115 143.927 164.867 143.382 164.647L143.758 163.72C144.318 163.947 144.905 164.2 145.554 164.495L145.14 165.405ZM143.382 164.647C141.704 163.967 140.292 163.543 138.112 162.971L138.366 162.004C140.564 162.58 142.022 163.016 143.758 163.72L143.382 164.647ZM143.524 163.685C143.859 163.654 144.088 163.62 144.235 163.581C144.309 163.562 144.342 163.547 144.351 163.542C144.362 163.536 144.312 163.559 144.27 163.634C144.248 163.673 144.233 163.719 144.228 163.768C144.223 163.815 144.229 163.853 144.236 163.879C144.248 163.924 144.263 163.933 144.239 163.902C144.217 163.875 144.177 163.833 144.111 163.773C144.046 163.715 143.963 163.648 143.86 163.57L144.465 162.773C144.687 162.942 144.888 163.112 145.022 163.281C145.138 163.426 145.346 163.76 145.142 164.124C145.057 164.275 144.929 164.367 144.825 164.423C144.72 164.48 144.602 164.519 144.488 164.549C144.259 164.609 143.963 164.649 143.616 164.681L143.524 163.685ZM143.952 163.625C143.074 163.218 142.361 162.897 141.61 162.601L141.976 161.671C142.756 161.978 143.491 162.309 144.373 162.718L143.952 163.625ZM141.61 162.601C140.651 162.224 139.622 161.885 138.106 161.465L138.372 160.501C139.911 160.927 140.976 161.277 141.976 161.671L141.61 162.601ZM143.303 161.013C143.454 161.143 143.627 161.299 143.734 161.462C143.789 161.545 143.863 161.684 143.866 161.859C143.87 162.066 143.775 162.237 143.641 162.352C143.527 162.45 143.393 162.501 143.285 162.532C143.172 162.564 143.042 162.586 142.904 162.601C142.627 162.631 142.258 162.641 141.787 162.636L141.799 161.636C142.257 161.641 142.579 161.631 142.795 161.607C142.903 161.595 142.972 161.581 143.012 161.57C143.058 161.557 143.033 161.556 142.99 161.593C142.927 161.647 142.864 161.749 142.866 161.877C142.868 161.974 142.907 162.025 142.899 162.012C142.88 161.983 142.813 161.91 142.653 161.773L143.303 161.013ZM142.765 161.846C135.227 158.304 131.479 156.969 125.706 155.865L125.894 154.883C131.778 156.008 135.609 157.378 143.19 160.941L142.765 161.846ZM125.645 155.85C125.266 155.726 124.905 155.627 124.548 155.519C124.208 155.416 123.867 155.304 123.6 155.166C123.358 155.042 123.015 154.817 122.94 154.41C122.863 153.992 123.112 153.639 123.374 153.378L124.079 154.087C123.865 154.301 123.942 154.328 123.924 154.228C123.907 154.14 123.854 154.172 124.057 154.277C124.235 154.368 124.495 154.458 124.837 154.561C125.162 154.66 125.564 154.772 125.955 154.899L125.645 155.85ZM123.231 153.796C122.876 151.004 122.502 148.946 121.864 147.125C121.229 145.313 120.325 143.716 118.889 141.864L119.679 141.251C121.167 143.17 122.13 144.861 122.807 146.794C123.482 148.718 123.866 150.862 124.223 153.67L123.231 153.796ZM118.796 141.667C117.759 137.033 117.341 134.515 114.538 132.38L115.145 131.584C118.293 133.983 118.758 136.919 119.772 141.449L118.796 141.667ZM114.38 131.789C114.376 131.8 114.396 131.745 114.386 131.569C114.377 131.411 114.347 131.205 114.296 130.957C114.193 130.462 114.011 129.844 113.778 129.197C113.305 127.884 112.655 126.543 112.09 125.876L112.854 125.23C113.539 126.039 114.237 127.521 114.719 128.858C114.963 129.535 115.16 130.199 115.275 130.753C115.332 131.029 115.372 131.288 115.384 131.514C115.396 131.722 115.389 131.968 115.303 132.175L114.38 131.789ZM85.6524 117.009C91.7141 114.898 94.9868 113.603 99.8084 111.179L100.258 112.072C95.3837 114.523 92.0671 115.834 85.9813 117.954L85.6524 117.009ZM99.8084 111.179C100.003 111.081 100.199 110.982 100.399 110.88L100.852 111.771C100.651 111.874 100.453 111.974 100.258 112.072L99.8084 111.179ZM112.067 125.845C110.904 124.235 109.89 122.711 108.943 121.302C107.994 119.89 107.113 118.597 106.206 117.427C104.398 115.096 102.506 113.284 99.8282 112.081L100.238 111.169C103.118 112.462 105.131 114.409 106.997 116.815C107.927 118.014 108.825 119.334 109.773 120.744C110.724 122.158 111.727 123.666 112.878 125.26L112.067 125.845ZM119.198 159.024C119.602 159.211 119.998 159.393 120.387 159.571L119.971 160.48C119.581 160.302 119.183 160.119 118.778 159.932L119.198 159.024ZM120.387 159.571C128.642 163.341 133.685 165.15 142.513 167.476L142.258 168.443C133.375 166.103 128.278 164.275 119.971 160.48L120.387 159.571ZM120.249 159.53C123.506 159.993 125.425 160.358 129.542 162.024L129.166 162.951C125.141 161.321 123.303 160.974 120.109 160.52L120.249 159.53ZM129.504 162.011C131.116 162.518 132.399 162.809 133.355 162.93C133.833 162.991 134.219 163.008 134.517 162.991C134.823 162.975 135 162.925 135.087 162.88C135.159 162.844 135.106 162.849 135.1 162.918C135.098 162.946 135.113 162.891 134.992 162.729C134.755 162.411 134.202 161.957 133.253 161.418L133.747 160.548C134.724 161.103 135.429 161.641 135.794 162.131C135.974 162.373 136.125 162.676 136.096 163.006C136.064 163.377 135.822 163.628 135.542 163.771C135.276 163.906 134.94 163.97 134.572 163.99C134.195 164.01 133.746 163.988 133.229 163.922C132.195 163.791 130.85 163.483 129.204 162.965L129.504 162.011ZM133.435 161.479L131.362 161.205L131.492 160.214L133.566 160.487L133.435 161.479ZM131.028 161.011C130.165 159.869 129.454 159.068 128.313 158.444C127.157 157.812 125.52 157.341 122.77 156.964L122.906 155.973C125.695 156.355 127.476 156.847 128.793 157.567C130.124 158.294 130.939 159.234 131.826 160.408L131.028 161.011ZM47.7154 70.5875C48.2266 68.3118 47.7659 66.7494 46.6438 65.5699L47.3683 64.8806C48.762 66.3455 49.2613 68.2686 48.6911 70.8067L47.7154 70.5875ZM46.5062 65.2149C46.5495 63.1108 47.1859 60.9386 48.5101 58.4259L49.3947 58.8922C48.12 61.311 47.5452 63.3298 47.506 65.2355L46.5062 65.2149ZM48.643 58.2663C52.1137 55.5325 54.3323 52.2409 56.0309 47.9419L56.961 48.3094C55.2109 52.7384 52.8977 56.1879 49.2618 59.0518L48.643 58.2663ZM56.0554 47.8892C57.4254 45.3366 58.1476 43.4434 58.1205 41.6181C58.0936 39.8092 57.3274 37.9794 55.5047 35.5683L56.3025 34.9653C58.1833 37.4533 59.089 39.4893 59.1204 41.6033C59.1515 43.7009 58.3182 45.7876 56.9365 48.3621L56.0554 47.8892ZM55.4159 35.3772C54.8327 32.8011 54.6532 30.7763 54.9476 28.7765C55.2414 26.7804 56.0018 24.8486 57.2361 22.4525L58.1251 22.9105C56.9112 25.2668 56.2074 27.0849 55.9369 28.9221C55.667 30.7556 55.8231 32.6472 56.3913 35.1564L55.4159 35.3772ZM57.1842 22.6218L57.7765 17.6971L58.7694 17.8165L58.177 22.7412L57.1842 22.6218ZM71.7674 18.4928C71.2396 19.7868 71.0662 20.7879 71.2634 21.8595C71.4649 22.9539 72.0625 24.1777 73.2018 25.8932L72.3688 26.4464C71.2115 24.7039 70.5194 23.3412 70.28 22.0406C70.0363 20.7171 70.2708 19.5143 70.8415 18.1151L71.7674 18.4928ZM73.2514 25.9888C74.4511 29.0785 74.7557 30.8647 74.7662 34.034L73.7662 34.0373C73.7561 30.9855 73.4726 29.3212 72.3192 26.3508L73.2514 25.9888ZM74.6265 33.6889L78.1805 37.3824L77.4599 38.0758L73.9059 34.3823L74.6265 33.6889ZM78.318 37.682C78.4537 39.1156 78.9423 40.3673 80.9182 43.7707L80.0533 44.2728C78.0772 40.8689 77.4808 39.449 77.3224 37.7762L78.318 37.682ZM81.7674 61.1892C80.8379 54.3964 80.4016 50.6189 79.9867 44.0533L80.9848 43.9902C81.3976 50.5241 81.8308 54.2762 82.7582 61.0536L81.7674 61.1892ZM82.0697 60.6601C87.6496 58.3249 92.5196 56.0728 97.8032 53.4242L98.2513 54.3181C92.9486 56.9763 88.0579 59.2381 82.4558 61.5826L82.0697 60.6601ZM97.7898 53.4311C100.1 52.1847 102.42 50.9381 104.833 49.6511L105.303 50.5334C102.892 51.8194 100.574 53.0653 98.2646 54.3112L97.7898 53.4311ZM104.876 49.6304C109.876 47.5565 114.174 45.2388 118.421 42.5069L118.962 43.3479C114.67 46.1089 110.319 48.4553 105.26 50.5541L104.876 49.6304ZM118.264 43.1861C116.48 40.2358 115.323 37.855 115.055 35.426C114.784 32.9759 115.423 30.5469 117.067 27.5052L117.947 27.9807C116.358 30.9212 115.809 33.1412 116.049 35.3162C116.292 37.5124 117.344 39.7328 119.12 42.6687L118.264 43.1861ZM117.019 27.6351C117.362 26.0809 117.519 24.9279 117.415 23.8173C117.311 22.7143 116.945 21.6141 116.178 20.1816L117.059 19.7095C117.866 21.2155 118.29 22.4463 118.411 23.7236C118.53 24.9932 118.345 26.2697 117.995 27.8509L117.019 27.6351ZM116.419 19.4873C119.912 17.9621 122.676 16.8483 125.195 16.5432C127.756 16.233 130.046 16.7588 132.59 18.4335L132.041 19.2688C129.677 17.7134 127.623 17.2565 125.315 17.5359C122.965 17.8206 120.334 18.869 116.819 20.4038L116.419 19.4873ZM132.799 18.9795C132.145 21.441 132.002 23.4554 132.549 25.7244C133.101 28.0146 134.362 30.5988 136.59 34.182L135.741 34.71C133.499 31.1044 132.167 28.4094 131.577 25.9586C130.981 23.4865 131.148 21.2979 131.832 18.7228L132.799 18.9795ZM136.652 34.3291C137.29 36.9805 136.659 40.733 141.173 43.5997L140.636 44.4439C135.673 41.2915 136.227 36.8362 135.68 34.5629L136.652 34.3291ZM141.404 44.0373C141.348 45.8545 140.985 47.1942 140.157 48.3499C139.342 49.4866 138.109 50.3967 136.427 51.4251L135.905 50.5718C137.572 49.5528 138.655 48.7295 139.344 47.7673C140.021 46.8238 140.352 45.6989 140.405 44.0063L141.404 44.0373ZM136.462 51.4014L120.913 62.8239L120.321 62.018L135.87 50.5955L136.462 51.4014ZM120.868 62.8532C113.354 67.2222 110.173 69.7096 105.411 74.2069L104.725 73.4799C109.546 68.9272 112.788 66.3943 120.366 61.9887L120.868 62.8532ZM57.9064 17.4167C58.067 17.2437 58.2571 17.0836 58.4685 16.9362L59.0404 17.7566C58.8756 17.8714 58.7425 17.9859 58.6395 18.0969L57.9064 17.4167ZM58.2544 15.705C58.2543 15.4029 58.2484 15.0204 58.4457 14.6576C58.646 14.2895 59.0071 14.0174 59.5282 13.7539L59.9794 14.6463C59.5162 14.8805 59.3775 15.0374 59.3241 15.1355C59.2678 15.2391 59.2543 15.3601 59.2544 15.7047L58.2544 15.705ZM59.4365 14.5865L58.4371 13.7657L59.0718 12.9929L60.0712 13.8137L59.4365 14.5865ZM58.3155 13.1398C59.0766 11.7452 59.5479 10.4837 60.0015 8.73919L60.9693 8.99083C60.4997 10.7969 60.0015 12.138 59.1933 13.6188L58.3155 13.1398ZM59.9866 8.89965C59.8903 7.51308 60.0993 6.2764 60.8326 5.28463L61.6367 5.87914C61.0978 6.60798 60.8969 7.57356 60.9842 8.83037L59.9866 8.89965ZM60.9956 5.14276C62.4919 4.32805 63.731 3.6955 65.2623 3.16587C66.7919 2.63684 68.5961 2.21613 71.2272 1.80477L71.3817 2.79276C68.782 3.19921 67.0416 3.6086 65.5892 4.11094C64.1385 4.61269 62.9581 5.2128 61.4738 6.02101L60.9956 5.14276ZM71.3064 1.79877C74.1894 1.81009 76.2648 1.87453 77.6805 2.11785C79.0658 2.35594 80.0442 2.80239 80.3682 3.78357L79.4186 4.09708C79.287 3.69843 78.8612 3.33545 77.5111 3.10339C76.1913 2.87656 74.2 2.81014 71.3025 2.79876L71.3064 1.79877ZM80.3331 4.17833L79.4446 5.81989L78.5652 5.34388L79.4537 3.70232L80.3331 4.17833ZM79.0699 5.08612C79.5927 5.15463 79.9018 5.14652 80.1231 5.08745C80.3238 5.03387 80.4943 4.927 80.7128 4.69328L81.4434 5.37612C81.1408 5.69988 80.8159 5.93752 80.381 6.05362C79.9665 6.16423 79.4996 6.15098 78.9399 6.07765L79.0699 5.08612ZM80.6012 4.88438C80.7439 4.43161 80.8614 4.08764 80.9179 3.77772C80.9724 3.47942 80.9543 3.28689 80.8818 3.13569C80.8092 2.98412 80.6431 2.7939 80.2347 2.58547C79.8236 2.37571 79.2085 2.16887 78.3032 1.96587L78.522 0.990098C79.4613 1.20071 80.1696 1.42963 80.6892 1.69474C81.2114 1.96119 81.5831 2.28499 81.7836 2.70355C81.9844 3.12249 81.9749 3.55621 81.9017 3.95727C81.8306 4.34671 81.6841 4.77521 81.555 5.18502L80.6012 4.88438ZM78.3401 1.9727C74.3318 1.38532 72.1147 1.30154 68.1294 1.97107L67.9637 0.984894C72.0736 0.294436 74.3981 0.384364 78.4851 0.983267L78.3401 1.9727ZM68.2257 1.94481C65.6864 2.919 63.8613 3.40423 59.8461 4.15814L59.6615 3.17532C63.6427 2.4278 65.4042 1.9562 67.8675 1.01116L68.2257 1.94481ZM60.2526 3.70159C60.1657 4.9455 60.0684 6.00917 59.8778 6.91591L58.8992 6.71021C59.0741 5.87794 59.1681 4.87613 59.255 3.63188L60.2526 3.70159ZM59.884 6.87953C59.7465 7.90466 59.4964 8.76254 59.0211 9.43744C58.5355 10.1268 57.849 10.5778 56.9343 10.8491L56.6499 9.89042C57.3929 9.67005 57.8717 9.33267 58.2035 8.86159C58.5455 8.37603 58.7648 7.70139 58.8929 6.74658L59.884 6.87953ZM57.2727 10.5077C57.1437 10.9573 57.0733 11.2703 57.065 11.5961C57.0568 11.9183 57.1091 12.2841 57.2711 12.8256L56.3131 13.1122C56.1326 12.5089 56.0536 12.0329 56.0653 11.5706C56.077 11.1119 56.1778 10.6977 56.3115 10.2319L57.2727 10.5077ZM56.8945 12.4795L58.8568 12.8899L58.6521 13.8687L56.6898 13.4583L56.8945 12.4795ZM59.7922 13.7016L63.3462 13.9752L63.2695 14.9722L59.7154 14.6986L59.7922 13.7016ZM63.5926 14.0627L64.7773 14.8835L64.2078 15.7055L63.0231 14.8847L63.5926 14.0627ZM64.5499 14.7978L70.4733 15.4817L70.3586 16.4751L64.4352 15.7912L64.5499 14.7978ZM74.064 14.9253C73.8832 12.7415 73.8853 11.1175 74.3119 9.91771C74.7623 8.65106 75.6615 7.91097 77.0672 7.43395L77.3885 8.38091C76.1913 8.78718 75.5764 9.34639 75.2541 10.2527C74.9081 11.2259 74.8789 12.6486 75.0606 14.8428L74.064 14.9253ZM76.9095 7.5219C77.9886 6.63076 78.3975 6.25941 78.5104 5.50759L79.4993 5.65619C79.3204 6.84709 78.5673 7.44977 77.5462 8.29297L76.9095 7.5219ZM116.213 20.2381L115.325 19.007L116.135 18.4218L117.024 19.6529L116.213 20.2381ZM115.412 18.3285C117.543 16.5735 119.287 15.1643 121.237 14.4173C123.22 13.6572 125.371 13.5952 128.302 14.402L128.036 15.3661C125.254 14.6 123.33 14.6863 121.595 15.3511C119.825 16.029 118.207 17.3215 116.048 19.1003L115.412 18.3285ZM128.322 14.4078C130.109 14.9797 131.341 15.4576 132.098 15.9859C132.487 16.2565 132.784 16.5623 132.959 16.9326C133.138 17.3093 133.168 17.7035 133.106 18.1065L132.118 17.9543C132.157 17.7013 132.13 17.5179 132.056 17.3612C131.979 17.198 131.825 17.0146 131.527 16.8062C130.91 16.3765 129.82 15.9371 128.017 15.3603L128.322 14.4078ZM133.082 18.2001L132.786 19.0209L131.845 18.6815L132.141 17.8607L133.082 18.2001ZM132.575 17.5317C133.231 17.4835 133.627 17.4449 133.918 17.3216C134.154 17.2216 134.346 17.0531 134.515 16.6185L135.447 16.98C135.2 17.6172 134.838 18.0179 134.308 18.2424C133.833 18.4435 133.253 18.4846 132.648 18.529L132.575 17.5317ZM134.505 16.6456C135.096 14.8167 135.715 13.4165 136.7 12.1913C137.685 10.9667 139.008 9.95125 140.953 8.84117L141.449 9.70963C139.558 10.7888 138.354 11.7304 137.479 12.818C136.605 13.9049 136.032 15.172 135.457 16.9529L134.505 16.6456ZM140.966 8.83415L148.666 4.73025L149.136 5.61274L141.436 9.71665L140.966 8.83415ZM148.407 5.09534C148.448 4.82876 148.428 4.68708 148.394 4.6075C148.369 4.54904 148.314 4.46866 148.119 4.38658C147.911 4.2985 147.58 4.2261 147.066 4.18607C146.558 4.14651 145.904 4.14065 145.066 4.16649L145.035 3.16697C145.888 3.14065 146.584 3.14547 147.144 3.18909C147.698 3.23226 148.154 3.31556 148.508 3.46537C148.877 3.62118 149.162 3.86089 149.313 4.21437C149.456 4.54674 149.447 4.90887 149.395 5.24765L148.407 5.09534ZM145.066 4.16651C138.726 4.35379 135.534 5.03969 130.463 7.53526L130.022 6.63804C135.243 4.06808 138.581 3.35763 145.036 3.16695L145.066 4.16651ZM130.55 7.48054C129.2 8.53658 128.017 9.35227 126.431 10.0732C124.852 10.791 122.892 11.4066 119.991 12.0877L119.762 11.1142C122.637 10.4393 124.525 9.84139 126.017 9.16289C127.503 8.48761 128.615 7.72419 129.934 6.69276L130.55 7.48054ZM120.034 12.0754C115.913 13.445 114.138 14.3533 112.251 16.4497L111.508 15.7808C113.57 13.4899 115.544 12.5138 119.719 11.1265L120.034 12.0754ZM112.369 16.2188C112.318 16.4615 112.284 16.6272 112.277 16.7668C112.27 16.8946 112.289 16.9576 112.313 17.0005C112.373 17.1058 112.594 17.3132 113.487 17.5467L113.234 18.5141C112.344 18.2814 111.727 17.9958 111.443 17.4925C111.295 17.231 111.265 16.9606 111.278 16.7151C111.29 16.4814 111.344 16.2336 111.391 16.0117L112.369 16.2188ZM113.499 17.55L115.869 18.234L115.591 19.1948L113.222 18.5108L113.499 17.55ZM107.9 17.7461C107.312 16.7941 106.891 15.8339 107.397 14.8068C107.635 14.325 108.055 13.8783 108.645 13.43C109.237 12.9798 110.032 12.5051 111.059 11.977L111.516 12.8664C110.512 13.3825 109.776 13.8265 109.25 14.2262C108.721 14.6278 108.436 14.9621 108.294 15.2487C108.043 15.7585 108.173 16.2849 108.751 17.2203L107.9 17.7461ZM111.109 11.9548C113.271 11.1269 115.099 10.4344 116.829 9.76653L117.189 10.6994C115.458 11.3677 113.623 12.0627 111.466 12.8887L111.109 11.9548ZM116.912 9.74251C122.788 8.57823 125.29 7.42007 126.913 5.65397L127.649 6.33058C125.793 8.35023 123.007 9.55436 117.106 10.7234L116.912 9.74251ZM127.034 5.5573C128.573 4.68508 129.886 4.01639 131.638 3.48244C133.383 2.95069 135.543 2.55813 138.778 2.21199L138.885 3.20632C135.676 3.54965 133.587 3.93392 131.93 4.439C130.28 4.94189 129.039 5.57002 127.527 6.42725L127.034 5.5573ZM138.772 2.21267C143.767 1.617 146.58 1.36186 149.951 2.50942L149.628 3.45607C146.501 2.39148 143.906 2.6075 138.891 3.20564L138.772 2.21267ZM148.693 4.7169C149.196 4.48647 149.373 4.36723 149.449 4.22936C149.509 4.11866 149.564 3.86124 149.317 3.14609L150.262 2.81941C150.524 3.5774 150.604 4.1999 150.327 4.70806C150.064 5.18905 149.543 5.42762 149.109 5.62609L148.693 4.7169ZM82.2629 116.75C81.1533 116.751 80.464 116.681 79.9806 116.52C79.4528 116.344 79.1976 116.065 78.9572 115.808L79.6885 115.126C79.9126 115.366 80.0231 115.48 80.2971 115.571C80.6154 115.677 81.1639 115.751 82.2627 115.75L82.2629 116.75ZM78.9573 115.808L78.9355 115.784L79.6667 115.102L79.6884 115.125L78.9573 115.808ZM79.6666 115.102C79.674 115.11 79.6813 115.118 79.6885 115.126L78.9572 115.808C78.95 115.8 78.9429 115.792 78.9356 115.785L79.6666 115.102ZM85.6612 117.96L85.6141 117.939L86.0196 117.025L86.0667 117.045L85.6612 117.96ZM97.5251 127.031C96.0704 124.472 94.5538 122.856 92.6971 121.56C90.8219 120.25 88.5906 119.259 85.6612 117.96L86.0667 117.045C88.9712 118.334 91.2995 119.364 93.2695 120.74C95.258 122.128 96.8724 123.859 98.3945 126.537L97.5251 127.031ZM86.0196 117.025C86.0353 117.031 86.051 117.038 86.0667 117.045L85.6612 117.96C85.6455 117.953 85.6299 117.946 85.6141 117.939L86.0196 117.025ZM113.423 18.5265L113.283 18.5442L113.158 17.552L113.298 17.5343L113.423 18.5265ZM113.283 18.5442C111.161 18.8119 109.733 19.0077 108.051 17.9009L108.601 17.0655C109.934 17.943 110.995 17.8249 113.158 17.552L113.283 18.5442ZM113.423 18.5265C113.376 18.5324 113.329 18.5383 113.283 18.5442L113.158 17.552C113.204 17.5462 113.251 17.5403 113.298 17.5343L113.423 18.5265ZM58.4685 16.9362C59.7473 16.0447 62.0365 15.4611 64.4477 15.4859C66.8712 15.5108 69.528 16.1508 71.5207 17.8306L70.8761 18.5952C69.1185 17.1135 66.7167 16.5092 64.4374 16.4858C62.1457 16.4622 60.088 17.0262 59.0404 17.7566L58.4685 16.9362ZM71.5207 17.8306C71.5586 17.8626 71.5962 17.8949 71.6336 17.9276L70.9754 18.6804C70.9425 18.6517 70.9094 18.6233 70.8761 18.5952L71.5207 17.8306ZM70.2884 15.495L72.3615 14.9478L72.6167 15.9147L70.5436 16.4619L70.2884 15.495ZM72.3615 14.9478L74.4347 14.4006L74.6899 15.3675L72.6167 15.9147L72.3615 14.9478ZM70.7449 18.0025L72.0356 15.2208L72.9427 15.6417L71.652 18.4234L70.7449 18.0025ZM58.4349 16.9618L58.4543 16.9457L59.0934 17.7149L59.074 17.731L58.4349 16.9618ZM58.4543 16.9457C58.7066 16.736 58.9082 16.568 59.0567 16.4218C59.1297 16.3499 59.1791 16.2936 59.2105 16.2505C59.2436 16.2051 59.2423 16.1941 59.2375 16.2124C59.23 16.2414 59.2265 16.2985 59.2535 16.3582C59.2764 16.4089 59.3021 16.4184 59.2747 16.3996C59.2068 16.3532 59.0291 16.2762 58.6483 16.1935L58.8605 15.2162C59.2628 15.3036 59.6025 15.4122 59.8393 15.5743C59.9642 15.6597 60.0892 15.7792 60.1647 15.9464C60.2444 16.1226 60.247 16.3029 60.2057 16.4625C60.1344 16.7387 59.9267 16.9685 59.7584 17.1343C59.5732 17.3166 59.3347 17.5143 59.0934 17.7148L58.4543 16.9457ZM58.4348 16.9619C58.4412 16.9566 58.4481 16.9509 58.4543 16.9457L59.0934 17.7148C59.0867 17.7204 59.0806 17.7255 59.074 17.731L58.4348 16.9619ZM50.3582 124.284C50.3692 124.229 50.3207 124.252 50.4522 124.378C50.5812 124.502 50.8133 124.65 51.1633 124.806C51.8558 125.114 52.8797 125.395 54.0775 125.599C56.4771 126.006 59.4369 126.079 61.5892 125.519L61.8407 126.487C59.5012 127.095 56.3864 127.005 53.9101 126.585C52.6698 126.374 51.5554 126.075 50.7568 125.72C50.3612 125.544 50.0095 125.339 49.7601 125.1C49.5132 124.863 49.2914 124.513 49.3781 124.085L50.3582 124.284ZM61.2286 125.887C61.4194 125.088 61.3875 124.714 61.1025 124.41C60.9355 124.232 60.6461 124.04 60.1445 123.842C59.6457 123.646 58.9691 123.458 58.0596 123.27L58.2622 122.29C59.1976 122.484 59.9363 122.686 60.5104 122.912C61.0818 123.136 61.523 123.397 61.8318 123.726C62.4984 124.437 62.3985 125.293 62.2013 126.119L61.2286 125.887ZM58.0596 123.27C57.9649 123.25 57.8679 123.23 57.7683 123.211L57.9611 122.23C58.0638 122.25 58.1641 122.27 58.2622 122.29L58.0596 123.27ZM58.0919 123.275C56.0405 122.989 54.6199 122.938 53.4362 123.142C52.2678 123.343 51.2958 123.8 50.1538 124.595L49.5825 123.774C50.8054 122.923 51.913 122.39 53.2663 122.156C54.6044 121.926 56.1477 121.995 58.2299 122.285L58.0919 123.275ZM61.8961 125.537C62.3026 125.695 62.5861 125.774 62.8451 125.807C63.1019 125.839 63.3603 125.83 63.722 125.781L63.8542 126.773C63.4469 126.827 63.0946 126.846 62.7199 126.799C62.3476 126.752 61.979 126.642 61.5338 126.469L61.8961 125.537ZM64.1866 125.975C64.6761 126.621 65.1162 127.048 65.9371 127.356C66.7959 127.679 68.0942 127.879 70.3233 127.966L70.2844 128.965C68.0396 128.878 66.6041 128.675 65.5855 128.293C64.529 127.896 63.9482 127.316 63.3897 126.579L64.1866 125.975ZM70.3039 127.966C70.3026 127.966 70.309 127.966 70.3265 127.965C70.3428 127.963 70.3641 127.962 70.3908 127.959C70.4443 127.954 70.5126 127.946 70.5935 127.935C70.7552 127.915 70.9579 127.886 71.1754 127.854C71.61 127.789 72.0943 127.711 72.4073 127.659L72.5712 128.645C72.2546 128.698 71.7646 128.777 71.3231 128.843C71.1026 128.875 70.8919 128.905 70.7199 128.927C70.5619 128.948 70.4012 128.966 70.3039 128.966V127.966ZM72.2134 127.735C73.1256 127.131 73.869 126.595 74.4568 126.048L75.1382 126.78C74.4879 127.385 73.688 127.958 72.7652 128.569L72.2134 127.735ZM74.4568 126.048C74.9881 125.553 75.3828 125.058 75.6548 124.51L76.5506 124.954C76.2117 125.637 75.7328 126.226 75.1382 126.78L74.4568 126.048ZM49.9254 124.681L48.739 124.818L48.6244 123.825L49.8108 123.688L49.9254 124.681ZM74.4173 126.738C73.6138 125.797 72.8373 125.612 71.2293 125.253L71.4474 124.277C73.0312 124.63 74.132 124.864 75.1778 126.089L74.4173 126.738ZM71.2293 125.253C71.1812 125.242 71.1325 125.231 71.0831 125.22L71.3016 124.244C71.3508 124.255 71.3993 124.266 71.4474 124.277L71.2293 125.253ZM71.1151 125.226C69.0991 124.91 67.8619 124.951 66.9055 125.203C65.9467 125.454 65.2258 125.926 64.2235 126.589L63.672 125.754C64.6557 125.104 65.5087 124.536 66.6515 124.235C67.7967 123.935 69.1887 123.912 71.2697 124.238L71.1151 125.226ZM64.2235 126.589C64.1709 126.623 64.1175 126.659 64.0635 126.694L63.5127 125.86C63.5664 125.824 63.6194 125.789 63.672 125.754L64.2235 126.589ZM71.2292 125.252L71.0833 125.22L71.3015 124.244L71.4475 124.277L71.2292 125.252ZM64.2234 126.589L64.0637 126.694L63.5125 125.86L63.6722 125.754L64.2234 126.589ZM68.343 96.1049C77.3056 98.1703 81.8064 99.5526 88.8549 102.422L88.4779 103.348C81.4881 100.503 77.0398 99.1352 68.1184 97.0793L68.343 96.1049Z" fill="black"/>
</svg>
