<svg viewBox="0 0 190 290" fill="none" xmlns="http://www.w3.org/2000/svg">
<path fill-rule="evenodd" clip-rule="evenodd" d="M87.4103 11.2884C78.2043 15.9656 75.799 19.9275 78.5296 30.4086C78.5526 31.0038 78.5802 31.5647 78.624 32.1083C78.7709 33.9323 79.1003 35.5612 80.0493 37.6319C80.7889 39.2458 81.9049 41.1282 83.6042 43.5804C84.959 44.8411 86.2232 45.9396 87.4103 46.8692C94.6158 52.5109 98.9845 51.9263 103.573 43.5804C104.239 42.3693 104.91 40.9947 105.594 39.452C105.735 39.1357 105.876 38.8122 106.017 38.4817C106.277 35.2992 106.389 32.8377 106.329 30.8338C106.223 27.3706 105.601 25.2742 104.326 23.1854C102.751 11.6739 98.7192 9.52056 87.4103 11.2884ZM80.0493 30.8338C78.624 26.5931 86.7059 22.2762 91.2163 28.2844C91.9455 26.7452 92.6374 26.6828 94.1766 27.4346C95.0223 21.0613 101.451 20.1178 103.573 24.0355C104.306 27.4346 102.725 29.4326 100.837 29.985C98.8959 30.5527 95.3072 29.985 94.1766 27.4346C92.6374 26.6828 91.9455 26.7452 91.2163 28.2844C91.2163 31.0749 90.1174 33.3769 86.0915 33.9936C82.0656 34.6103 80.7621 32.7259 80.0493 30.8338Z" fill="#C0A26C"/>
<path d="M78.5296 30.4086C75.799 19.9275 78.2043 15.9656 87.4103 11.2884C98.7192 9.52056 102.751 11.6739 104.326 23.1854C105.601 25.2742 106.223 27.3706 106.329 30.8338C108.424 28.6425 108.584 25.6607 106.863 16.8122C101.216 -1.25442 94.7824 0.274339 83.6042 1.94093C74.3321 7.93769 69.5478 11.612 77.2608 30.4086L77.7015 32.1083C77.9539 32.0651 78.2624 32.0729 78.624 32.1083C78.5802 31.5647 78.5526 31.0038 78.5296 30.4086Z" fill="#0E0A04"/>
<path d="M87.4103 46.8692C86.7283 49.2094 83.808 51.286 82.6222 50.962C98.4667 59.6776 100.033 55.1599 106.017 51.2286C105.201 50.5923 104.663 49.9105 104.306 49.1042C103.703 47.7436 103.616 46.0287 103.573 43.5804C98.9845 51.9263 94.6158 52.5109 87.4103 46.8692Z" fill="#C0A26C"/>
<path d="M119.973 46.5548C123.794 52.2553 126.621 54.9745 126.316 63.5505C138.967 58.6283 146.312 56.4588 159.725 53.3531C161.845 51.0683 163.311 50.3953 166.491 50.3789C174.494 46.8995 178.604 44.6041 180.446 35.5076C175.594 36.1787 173.683 35.2794 171.566 31.6836C166.839 32.7155 164.506 34.7297 160.57 39.3316C159.668 40.9103 155.33 42.5741 152.958 41.881C143.848 46.0613 135.932 46.6516 119.973 46.5548Z" fill="#C0A26C"/>
<path d="M171.566 31.6836C173.683 35.2794 175.594 36.1787 180.446 35.5076C181.22 32.5116 182.718 31.0962 185.944 28.7093C191.383 16.8721 189.136 13.2704 182.561 8.31447C172.913 6.50058 171.243 11.2714 171.566 24.8853C172.488 28.3051 172.799 30.0522 171.566 31.6836Z" fill="#C0A26C"/>
<path d="M73.032 80.9712C78.9057 60.7582 77.7169 56.1698 67.9573 59.3016C57.3038 67.9721 51.3746 73.5051 40.8922 84.7952C31.2648 89.271 25.7835 95.5375 15.9416 109.439C14.1177 109.255 13.2109 109.604 11.7126 110.714C11.4776 110.491 11.0491 110.607 10.5616 110.961C9.4677 111.755 8.07667 113.75 7.90661 115.812C9.26208 118.469 10.2001 119.013 12.2615 117.937C12.2181 118.208 12.1764 118.491 12.1355 118.787C12.9185 120.946 13.6404 121.674 16.3644 120.486L16.9278 120.336C16.6311 120.913 16.304 121.521 15.9416 122.186C16.7378 125.786 17.5723 126.631 20.1705 124.735C20.4143 123.788 20.6355 122.953 20.8621 122.186C20.7421 123.906 21.1522 124.708 22.2848 126.01C25.5275 126.829 26.6017 126.303 26.5137 124.31C23.4529 119.945 23.3582 117.875 24.7087 114.538C32.3863 109.989 43.9873 100.347 43.8524 99.6664C44.685 95.8264 47.1639 94.6549 50.1958 93.7179C60.4053 89.8107 65.3147 86.9444 73.032 80.9712Z" fill="#C0A26C"/>
<path d="M8.10519 114.723C8.56289 113.077 9.66259 111.614 10.5616 110.961C8.59258 110.535 6.27253 110.414 3.67769 109.864L1.56323 112.413C0.319664 113.821 1.24651 114.957 3.2548 114.113C4.91682 112.981 6.07311 112.743 8.10519 114.723Z" fill="#D9D9D9"/>
<path d="M81.4898 49.954C79.9544 48.5974 78.9976 49.2321 77.2608 50.8038C72.024 52.3982 69.181 53.3919 67.9573 59.3016C77.7169 56.1698 78.9057 60.7582 73.032 80.9712C75.4032 90.7175 77.2413 95.7325 82.3356 103.066C85.6228 108.791 85.0849 113.862 82.3356 124.31C83.1977 132.109 83.5828 136.481 82.3356 144.28C104.203 148.217 114.95 148.027 129.277 140.031C127.994 139.489 127.833 138.509 128.008 136.207C129.277 128.966 126.948 126.807 126.948 118.79C124.183 108.306 123.598 102.37 124.202 88.6192C126.963 84.25 126.965 81.198 124.382 75.0227C123.703 67.5783 123.965 64.7357 126.316 63.5505C126.621 54.9745 123.794 52.2553 119.973 46.5548C113.958 45.5461 110.467 44.8808 110.669 49.1042C109.183 47.6458 107.927 47.4929 106.44 49.1042H106.017H104.306C104.663 49.9105 105.201 50.5923 106.017 51.2286C100.033 55.1599 98.4667 59.6776 82.6222 50.962C82.51 50.9314 82.4134 50.8792 82.3356 50.8038C82.0922 50.5676 81.6308 50.2372 81.4898 49.954Z" fill="#D9D9D9"/>
<path d="M80.0493 30.8338C78.624 26.5931 86.7059 22.2762 91.2163 28.2844C91.2163 31.0749 90.1174 33.3769 86.0915 33.9936C82.0656 34.6103 80.7621 32.7259 80.0493 30.8338Z" fill="#AA8E5D"/>
<path d="M94.1766 27.4346C95.0223 21.0613 101.451 20.1178 103.573 24.0355C104.306 27.4346 102.725 29.4326 100.837 29.985C98.8959 30.5527 95.3072 29.985 94.1766 27.4346Z" fill="#AA8E5D"/>
<path d="M83.6042 43.5804C81.9049 41.1282 80.7889 39.2458 80.0493 37.6319C79.2402 38.7664 78.6951 39.0269 78.028 37.6319L77.2608 50.8038C78.9976 49.2321 79.9544 48.5974 81.4898 49.954C81.6308 50.2372 82.0922 50.5676 82.3356 50.8038C82.4317 50.857 82.5272 50.9097 82.6222 50.962C83.808 51.286 86.7283 49.2094 87.4103 46.8692C86.2232 45.9396 84.959 44.8411 83.6042 43.5804Z" fill="#0E0A04"/>
<path d="M103.573 43.5804C103.616 46.0287 103.703 47.7436 104.306 49.1042H106.017C106.711 45.3226 106.425 43.2122 105.594 39.452C104.91 40.9947 104.239 42.3693 103.573 43.5804Z" fill="#0E0A04"/>
<path d="M80.0493 37.6319C79.1003 35.5612 78.7709 33.9323 78.624 32.1083C78.2624 32.0729 77.9539 32.0651 77.7015 32.1083C76.8079 32.2612 76.6173 33.0521 77.2608 35.5075C77.5429 36.4438 77.793 37.1406 78.028 37.6319C78.6951 39.0269 79.2402 38.7664 80.0493 37.6319Z" fill="#D9D9D9"/>
<path d="M92.485 251.389C94.7096 257.381 96.0502 259.843 99.2513 256.452L101.789 255.602L103.057 250.928C99.232 250.169 97.5638 249.148 95.4452 246.254C96.311 248.342 96.6151 249.467 95.0223 250.928C94.131 250.477 93.6023 250.819 92.485 251.389Z" fill="#D9D9D9"/>
<path d="M126.899 267.074C125.666 270.355 122.423 271.249 112.361 269.199C106.165 264.724 102.58 263.508 95.8681 263.675C90.9181 261.355 89.017 259.796 90.3705 255.602C88.2877 256.081 87.5111 257.124 86.5644 259.851C88.0122 264.321 89.4051 266.109 93.3306 267.499C102.22 267.278 105.932 269.081 111.515 273.873H120.396C129.071 273.266 128.312 270.615 126.742 265.8C126.857 266.19 126.909 266.614 126.899 267.074Z" fill="#D9D9D9"/>
<path d="M178.332 276.422L173.68 282.37C171.831 284.15 170.59 284.731 166.914 282.795C166.121 281.954 165.447 281.749 162.685 283.22C158.846 283.997 157.205 283.625 154.65 282.37C153.996 282.221 153.426 281.77 152.958 281.175C151.39 283.059 151.216 284.147 152.958 286.194C156.169 288.575 157.921 290.019 163.108 287.894C164.665 286.018 165.589 285.818 167.337 287.469C169.517 289.331 170.848 290.103 175.372 286.194C175.71 286.194 183.97 277.98 188.058 273.873C187.875 270.388 187.213 269.569 185.305 269.624C185.075 270.843 182.79 272.983 178.332 276.422Z" fill="#D9D9D9"/>
<path d="M156.764 270.048C155.964 274.308 154.569 275.278 151.69 276.422C151.261 277.274 151.786 279.681 152.958 281.175C153.426 281.77 153.996 282.221 154.65 282.37C157.205 283.625 158.846 283.997 162.685 283.22C165.447 281.749 166.121 281.954 166.914 282.795C170.59 284.731 171.831 284.15 173.68 282.37L178.332 276.422C182.79 272.983 185.075 270.843 185.305 269.624C185.533 268.413 183.734 268.111 180.023 268.349C176.883 269.142 175.341 269.006 173.257 267.074C168.221 267.49 165.915 266.551 163.531 263.675C158.777 263.386 156.909 264.736 156.764 270.048Z" fill="#3C4241"/>
<path d="M158.879 261.126C158.313 266.623 154.806 268.06 145.314 268.316L145.4 268.464C147.113 271.367 148.125 273.084 151.267 272.598C150.481 274.328 150.514 275.182 151.69 276.422C154.569 275.278 155.964 274.308 156.764 270.048C156.909 264.736 158.777 263.386 163.531 263.675C161.298 263.221 160.067 262.554 158.879 261.126Z" fill="#D9D9D9"/>
<path d="M129.277 140.031C114.95 148.027 104.203 148.217 82.3356 144.28C83.2646 153.63 85.7993 160.301 91.7697 166.375C95.5882 172.127 100.747 178.051 108.132 185.495C110.393 187.702 112.334 189.657 114.052 191.534C115.27 195.636 114.819 202.859 114.052 202.915L106.863 213.113C100.149 223.664 100.586 226.742 101.365 232.227L101.366 232.233C99.5856 238.392 98.1795 241.321 95.4452 246.254C97.5638 249.148 99.232 250.169 103.057 250.928L107.286 248.379C108.996 245.73 110.347 242.74 111.33 239.031C113.421 235.205 115.942 231.91 119.282 228.834C120.89 226.123 122.243 223.646 123.346 221.186C124.452 219.903 125.628 218.639 126.899 217.362C127.283 220.428 127.346 223.82 127.162 228.409C129.606 235.725 131.86 241.399 136.043 249.385C139.533 253.443 142.109 258.039 144.078 263.675L143.655 268.349C144.227 268.341 144.78 268.331 145.314 268.316C154.806 268.06 158.313 266.623 158.879 261.126C154.945 255.656 153.309 252.584 150.421 247.104C146.217 235.485 145.056 228.399 144.078 215.237C145.18 199.072 143.731 193.722 139.003 188.044L135.406 181.246C136.097 162.706 133.996 154.281 129.277 140.031Z" fill="#071021"/>
<path d="M110.669 250.928C109.81 248.234 109.006 247.905 107.286 248.379L103.057 250.928L101.789 255.602L99.2513 256.452C96.0502 259.843 94.7096 257.381 92.485 251.389L90.3705 255.602C89.017 259.796 90.9181 261.355 95.8681 263.675C102.58 263.508 106.165 264.724 112.361 269.199C122.423 271.249 125.666 270.355 126.899 267.074C126.909 266.614 126.857 266.19 126.742 265.8C126.204 263.982 124.287 262.915 120.819 262.492C119.772 261.497 118.812 260.451 117.858 259.309C115.558 257.77 112.911 256.336 109.401 254.752V251.389C109.785 251.224 110.206 251.072 110.669 250.928Z" fill="#3C4241"/>
<path d="M87.4103 11.2884L87.3331 10.7944L87.2547 10.8067L87.1839 10.8427L87.4103 11.2884ZM78.5296 30.4086L79.0292 30.3893L79.0272 30.3351L79.0135 30.2826L78.5296 30.4086ZM104.326 23.1854L103.83 23.2532L103.845 23.3567L103.899 23.4459L104.326 23.1854ZM106.017 38.4817L106.477 38.6787L106.509 38.6037L106.516 38.5224L106.017 38.4817ZM83.6042 43.5804L83.1932 43.8652L83.224 43.9097L83.2636 43.9465L83.6042 43.5804ZM77.2608 35.5075L76.7772 35.6342L76.7794 35.643L76.7821 35.6517L77.2608 35.5075ZM80.0493 37.6319L80.5038 37.4236L80.0493 37.6319ZM83.6042 1.94093L83.5305 1.4464L83.4235 1.46235L83.3326 1.52109L83.6042 1.94093ZM106.863 16.8122L107.354 16.7167L107.349 16.6895L107.341 16.663L106.863 16.8122ZM77.2608 30.4086L77.7448 30.2831L77.7363 30.2502L77.7234 30.2188L77.2608 30.4086ZM77.7015 32.1083L77.7858 32.6012L77.7015 32.1083ZM78.028 37.6319L78.4791 37.4162L78.028 37.6319ZM77.2608 50.8038L77.4064 51.2821L77.5134 51.2495L77.5963 51.1745L77.2608 50.8038ZM81.4898 49.954L81.9374 49.7312L81.894 49.6439L81.8209 49.5793L81.4898 49.954ZM103.573 43.5804L103.135 43.3395L103.573 43.5804ZM106.017 51.2286L106.292 51.6465L106.875 51.2633L106.325 50.8342L106.017 51.2286ZM80.0493 30.8338L79.5753 30.9931L79.5782 31.0016L79.5814 31.01L80.0493 30.8338ZM103.573 24.0355L104.062 23.9302L104.047 23.8602L104.013 23.7973L103.573 24.0355ZM82.3356 103.066L82.7692 102.817L82.7585 102.798L82.7462 102.78L82.3356 103.066ZM124.202 88.6192L123.779 88.3521L123.708 88.4645L123.702 88.5973L124.202 88.6192ZM124.382 75.0227L123.92 75.2156L124.382 75.0227ZM126.948 118.79H127.448V118.725L127.431 118.663L126.948 118.79ZM128.008 136.207L127.515 136.121L127.511 136.145L127.509 136.169L128.008 136.207ZM129.277 140.031L129.751 139.874L129.68 139.659L129.471 139.571L129.277 140.031ZM82.3356 144.28L81.8419 144.201L81.8316 144.265L81.838 144.33L82.3356 144.28ZM82.3356 124.31L81.852 124.183L81.8284 124.273L81.8386 124.365L82.3356 124.31ZM108.132 185.495L107.777 185.847L107.783 185.853L108.132 185.495ZM91.7697 166.375L92.1863 166.098L92.1598 166.058L92.1263 166.024L91.7697 166.375ZM127.162 228.409L126.662 228.389L126.659 228.481L126.688 228.567L127.162 228.409ZM144.078 263.675L144.576 263.72L144.585 263.612L144.55 263.51L144.078 263.675ZM136.043 249.385L135.6 249.617L135.626 249.667L135.664 249.711L136.043 249.385ZM143.655 268.349L143.157 268.304L143.107 268.856L143.661 268.849L143.655 268.349ZM144.078 215.237L143.579 215.203L143.576 215.239L143.579 215.274L144.078 215.237ZM150.421 247.104L149.951 247.274L149.963 247.307L149.979 247.337L150.421 247.104ZM139.003 188.044L138.561 188.278L138.585 188.324L138.619 188.364L139.003 188.044ZM135.406 181.246L134.964 181.48L135.406 181.246ZM126.899 217.362L127.395 217.3L126.899 217.362ZM123.346 221.186L122.967 220.859L122.919 220.915L122.889 220.981L123.346 221.186ZM119.282 228.834L119.62 229.202L119.674 229.152L119.712 229.089L119.282 228.834ZM111.33 239.031L110.891 238.791L110.862 238.845L110.846 238.903L111.33 239.031ZM110.669 250.928L110.817 251.406L111.299 251.257L111.146 250.776L110.669 250.928ZM109.401 254.752H108.901V255.075L109.195 255.208L109.401 254.752ZM126.899 267.074L127.367 267.25L127.397 267.17L127.398 267.085L126.899 267.074ZM117.858 259.309L118.242 258.989L118.196 258.933L118.136 258.893L117.858 259.309ZM120.819 262.492L120.474 262.854L120.594 262.968L120.758 262.988L120.819 262.492ZM112.361 269.199L112.068 269.604L112.155 269.667L112.261 269.689L112.361 269.199ZM95.8681 263.675L95.656 264.128L95.7627 264.178L95.8805 264.175L95.8681 263.675ZM92.485 251.389L92.2578 250.944L92.1117 251.018L92.0381 251.165L92.485 251.389ZM99.2513 256.452L99.0925 255.978L98.9737 256.018L98.8877 256.109L99.2513 256.452ZM101.789 255.602L101.947 256.076L102.201 255.991L102.271 255.733L101.789 255.602ZM95.4452 246.254L95.0079 246.012L94.891 246.223L94.9834 246.446L95.4452 246.254ZM95.0223 250.928L94.7965 251.374L95.1053 251.531L95.3603 251.297L95.0223 250.928ZM101.366 232.233L101.846 232.372L101.876 232.269L101.861 232.163L101.366 232.233ZM106.863 213.113L106.455 212.825L106.448 212.834L106.441 212.844L106.863 213.113ZM114.052 202.915L114.016 202.417L113.78 202.434L113.644 202.627L114.052 202.915ZM50.1958 93.7179L50.3434 94.1956L50.3591 94.1908L50.3745 94.1849L50.1958 93.7179ZM40.8922 84.7952L41.103 85.2486L41.1919 85.2073L41.2586 85.1354L40.8922 84.7952ZM15.9416 109.439L15.8913 109.936L16.1813 109.966L16.3496 109.728L15.9416 109.439ZM43.8524 99.6664L43.3638 99.5605L43.3418 99.6619L43.362 99.7637L43.8524 99.6664ZM15.9416 122.186L15.5025 121.947L15.4129 122.111L15.4534 122.294L15.9416 122.186ZM20.1705 124.735L20.4652 125.139L20.61 125.033L20.6547 124.86L20.1705 124.735ZM12.1355 118.787L11.6402 118.718L11.6233 118.841L11.6655 118.957L12.1355 118.787ZM16.3644 120.486L16.236 120.003L16.1994 120.013L16.1646 120.028L16.3644 120.486ZM16.9278 120.336L17.3725 120.565L16.9278 120.336ZM11.7126 110.714L11.3687 111.077L11.6732 111.365L12.0102 111.115L11.7126 110.714ZM7.90661 115.812L7.4083 115.771L7.39662 115.913L7.46124 116.04L7.90661 115.812ZM12.2615 117.937L12.7552 118.016L12.2615 117.937ZM10.5616 110.961L10.8554 111.365H10.8554L10.5616 110.961ZM3.67769 109.864L3.78131 109.375L3.48573 109.312L3.29284 109.545L3.67769 109.864ZM1.56323 112.413L1.93798 112.744L1.94312 112.738L1.94809 112.732L1.56323 112.413ZM3.2548 114.113L3.4486 114.574L3.49484 114.554L3.5363 114.526L3.2548 114.113ZM8.10519 114.723L7.75624 115.081L8.36073 115.67L8.5869 114.857L8.10519 114.723ZM110.669 49.1042L110.319 49.4611L111.23 50.3546L111.169 49.0803L110.669 49.1042ZM106.44 49.1042V49.6042H106.659L106.808 49.4432L106.44 49.1042ZM152.958 41.881L153.099 41.4011L152.919 41.3487L152.75 41.4266L152.958 41.881ZM159.725 53.3531L159.837 53.8402L159.987 53.8056L160.091 53.6933L159.725 53.3531ZM160.57 39.3316L160.19 39.0067L160.16 39.0426L160.136 39.0836L160.57 39.3316ZM166.491 50.3789L166.493 50.8789L166.596 50.8783L166.69 50.8374L166.491 50.3789ZM24.7087 114.538L24.4538 114.108L24.7087 114.538ZM26.5137 124.31L27.0132 124.288L27.0068 124.143L26.9231 124.023L26.5137 124.31ZM22.2848 126.01L21.9076 126.338L22.0105 126.456L22.1623 126.495L22.2848 126.01ZM171.566 24.8853L171.066 24.8971L171.067 24.9573L171.083 25.0155L171.566 24.8853ZM182.561 8.31447L182.862 7.91519L182.768 7.84471L182.653 7.82307L182.561 8.31447ZM185.944 28.7093L186.241 29.1113L186.345 29.0349L186.398 28.9181L185.944 28.7093ZM126.742 265.8L126.262 265.941L126.742 265.8ZM120.396 273.873V274.373H120.413L120.431 274.371L120.396 273.873ZM111.515 273.873L111.189 274.252L111.33 274.373H111.515V273.873ZM93.3306 267.499L93.1637 267.97L93.2507 268.001L93.3431 267.999L93.3306 267.499ZM86.5644 259.851L86.092 259.687L86.037 259.846L86.0887 260.005L86.5644 259.851ZM145.314 268.316L145.3 267.817L145.314 268.316ZM151.267 272.598L151.722 272.805L152.105 271.962L151.19 272.104L151.267 272.598ZM156.764 270.048L157.256 270.141L157.263 270.102L157.264 270.062L156.764 270.048ZM163.531 263.675L163.916 263.356L163.803 263.22L163.63 263.185L163.531 263.675ZM173.257 267.074L173.597 266.708L173.436 266.558L173.216 266.576L173.257 267.074ZM180.023 268.349L179.991 267.85L179.946 267.853L179.901 267.864L180.023 268.349ZM178.332 276.422L178.027 276.026L177.977 276.064L177.938 276.114L178.332 276.422ZM173.68 282.37L174.027 282.731L174.052 282.706L174.074 282.678L173.68 282.37ZM166.914 282.795L166.55 283.138L166.607 283.199L166.681 283.238L166.914 282.795ZM162.685 283.22L162.784 283.71L162.855 283.696L162.92 283.662L162.685 283.22ZM154.65 282.37L154.87 281.922L154.818 281.896L154.761 281.883L154.65 282.37ZM152.958 286.194L152.578 286.518L152.615 286.562L152.661 286.596L152.958 286.194ZM163.108 287.894L163.297 288.357L163.413 288.309L163.492 288.213L163.108 287.894ZM167.337 287.469L166.993 287.833L167.002 287.841L167.012 287.849L167.337 287.469ZM175.372 286.194V285.694H175.186L175.045 285.816L175.372 286.194ZM188.058 273.873L188.413 274.225L188.569 274.068L188.558 273.846L188.058 273.873ZM100.837 29.985L100.696 29.5051L100.837 29.985ZM87.1839 10.8427C82.5673 13.1881 79.5321 15.4101 78.0445 18.4524C76.5526 21.5037 76.6724 25.263 78.0458 30.5347L79.0135 30.2826C77.6563 25.073 77.6133 21.6109 78.9429 18.8917C80.2768 16.1635 83.0473 14.0659 87.6368 11.7342L87.1839 10.8427ZM87.4876 11.7824C93.1449 10.898 96.7982 11.0346 99.24 12.6724C101.665 14.2986 103.045 17.5131 103.83 23.2532L104.821 23.1177C104.032 17.3462 102.609 13.7282 99.797 11.8419C97.0019 9.96712 92.9847 9.91094 87.3331 10.7944L87.4876 11.7824ZM78.03 30.4279C78.053 31.0258 78.081 31.5947 78.1256 32.1485L79.1223 32.0682C79.0794 31.5347 79.0521 30.9817 79.0292 30.3893L78.03 30.4279ZM78.1256 32.1485C78.2764 34.0205 78.6175 35.7079 79.5947 37.8402L80.5038 37.4236C79.5831 35.4145 79.2654 33.8441 79.1223 32.0682L78.1256 32.1485ZM79.5947 37.8402C80.3515 39.4917 81.4856 41.401 83.1932 43.8652L84.0152 43.2957C82.3241 40.8553 81.2262 39 80.5038 37.4236L79.5947 37.8402ZM83.6779 2.43547C86.4872 2.01663 88.9514 1.61439 91.1811 1.52041C93.4026 1.42678 95.3448 1.64266 97.1029 2.43268C100.605 4.0065 103.57 7.95178 106.386 16.9614L107.341 16.663C104.509 7.60599 101.434 3.28234 97.5128 1.52054C95.5593 0.642746 93.4442 0.424141 91.139 0.5213C88.8422 0.618109 86.3103 1.03194 83.5305 1.4464L83.6779 2.43547ZM83.3326 1.52109C78.7267 4.50001 75.0473 7.00363 73.5906 11.2112C72.1348 15.4163 72.9366 21.1877 76.7982 30.5984L77.7234 30.2188C73.872 20.8329 73.2095 15.3688 74.5356 11.5384C75.8608 7.71051 79.2096 5.37862 83.8757 2.36078L83.3326 1.52109ZM78.6728 31.6107C78.2994 31.5741 77.9371 31.5608 77.6172 31.6155L77.7858 32.6012C77.9707 32.5695 78.2253 32.5716 78.5751 32.6059L78.6728 31.6107ZM77.6172 31.6155C77.3272 31.6651 77.0397 31.7761 76.8109 32.0058C76.5816 32.2361 76.4606 32.536 76.4103 32.87C76.3145 33.5061 76.4558 34.4081 76.7772 35.6342L77.7445 35.3807C77.4223 34.1514 77.3372 33.4303 77.3991 33.019C77.4277 32.8292 77.4818 32.7493 77.5194 32.7115C77.5576 32.6732 77.629 32.628 77.7858 32.6012L77.6172 31.6155ZM76.7768 30.5341L77.2175 32.2338L78.1855 31.9828L77.7448 30.2831L76.7768 30.5341ZM103.899 23.4459C105.12 25.4461 105.726 27.4536 105.829 30.849L106.828 30.8186C106.721 27.2875 106.082 25.1023 104.753 22.9249L103.899 23.4459ZM105.829 30.849C105.889 32.8249 105.778 35.2647 105.519 38.4411L106.516 38.5224C106.776 35.3338 106.89 32.8505 106.828 30.8186L105.829 30.849ZM106.373 16.9076C107.233 21.3322 107.612 24.2382 107.527 26.299C107.444 28.3254 106.916 29.4956 105.967 30.4883L106.69 31.1793C107.836 29.9807 108.436 28.5643 108.526 26.3399C108.616 24.1499 108.214 21.1407 107.354 16.7167L106.373 16.9076ZM76.7821 35.6517C77.0664 36.5954 77.3252 37.3213 77.5769 37.8476L78.4791 37.4162C78.2608 36.9599 78.0195 36.2922 77.7396 35.3632L76.7821 35.6517ZM77.5769 37.8476C77.7534 38.2166 77.9427 38.5232 78.162 38.7375C78.3923 38.9627 78.6873 39.1133 79.0359 39.0779C79.3548 39.0455 79.6184 38.8653 79.8255 38.6737C80.0384 38.4768 80.2475 38.2151 80.4564 37.9223L79.6422 37.3416C79.4465 37.616 79.2841 37.8123 79.1464 37.9397C79.0789 38.0021 79.0261 38.0397 78.9875 38.0611C78.9499 38.0819 78.9337 38.0832 78.9349 38.083C78.9627 38.0802 78.9458 38.1053 78.861 38.0224C78.7651 37.9287 78.6362 37.7448 78.4791 37.4162L77.5769 37.8476ZM77.5289 37.6029L76.7617 50.7747L77.76 50.8328L78.5272 37.661L77.5289 37.6029ZM77.5963 51.1745C78.4843 50.3709 79.0721 49.9093 79.5884 49.7615C79.8222 49.6946 80.0388 49.6945 80.2728 49.7696C80.5174 49.848 80.8056 50.0167 81.1587 50.3287L81.8209 49.5793C81.4063 49.213 80.9992 48.9523 80.5782 48.8173C80.1467 48.6789 79.7277 48.6814 79.3132 48.8001C78.5332 49.0234 77.7741 49.6649 76.9253 50.433L77.5963 51.1745ZM81.0422 50.1767C81.16 50.4136 81.3799 50.6238 81.5392 50.7677C81.7425 50.9512 81.8669 51.0457 81.9874 51.1626L82.6838 50.4449C82.5609 50.3257 82.3329 50.137 82.2094 50.0254C82.0419 49.8742 81.9605 49.7776 81.9374 49.7312L81.0422 50.1767ZM87.7186 46.4755C86.5457 45.5572 85.2926 44.4686 83.9448 43.2144L83.2636 43.9465C84.6254 45.2137 85.9006 46.3221 87.1021 47.2628L87.7186 46.4755ZM103.135 43.3395C100.853 47.4904 98.7109 49.5392 96.3804 49.9788C94.0439 50.4196 91.3065 49.2847 87.7186 46.4755L87.1021 47.2628C90.7197 50.0953 93.7694 51.489 96.5658 50.9615C99.3682 50.4328 101.705 48.0163 104.012 43.8213L103.135 43.3395ZM80.5232 30.6745C80.2262 29.7909 80.4142 28.8889 80.9697 28.086C81.5297 27.2768 82.4559 26.5859 83.5749 26.1867C85.795 25.3948 88.7052 25.7723 90.8165 28.5846L91.6162 27.9842C89.217 24.7884 85.831 24.3202 83.2389 25.2449C81.9518 25.704 80.8428 26.5119 80.1474 27.517C79.4474 28.5285 79.1596 29.7563 79.5753 30.9931L80.5232 30.6745ZM91.6682 28.4985C92.0218 27.7519 92.2907 27.5412 92.5138 27.4855C92.775 27.4202 93.1796 27.5041 93.9571 27.8839L94.396 26.9854C93.6344 26.6133 92.9234 26.3525 92.2715 26.5153C91.5816 26.6876 91.14 27.2777 90.7645 28.0704L91.6682 28.4985ZM94.6722 27.5004C95.0721 24.4867 96.7684 22.8411 98.5286 22.3581C100.304 21.871 102.193 22.5379 103.134 24.2737L104.013 23.7973C102.831 21.6153 100.445 20.7952 98.2639 21.3937C96.0677 21.9964 94.1268 24.0092 93.6809 27.3689L94.6722 27.5004ZM77.1152 50.3254C74.5184 51.1161 72.4016 51.786 70.7963 53.0405C69.1565 54.3218 68.0951 56.1699 67.4677 59.2002L68.4469 59.403C69.0431 56.5236 70.0151 54.92 71.412 53.8284C72.8433 52.7099 74.7665 52.0858 77.4064 51.2821L77.1152 50.3254ZM68.11 59.7777C70.5375 58.9988 72.3323 58.7369 73.5863 59.0122C74.1978 59.1464 74.6715 59.4065 75.0363 59.7946C75.4046 60.1864 75.6896 60.7384 75.8708 61.4981C76.2375 63.0352 76.1567 65.3213 75.5969 68.5317C75.0396 71.7283 74.0185 75.7843 72.5518 80.8316L73.5121 81.1107C74.9823 76.0515 76.0153 71.9542 76.5821 68.7034C77.1464 65.4665 77.2598 63.0113 76.8435 61.2661C76.6333 60.3847 76.2825 59.6603 75.7649 59.1097C75.2438 58.5553 74.5814 58.2068 73.8008 58.0354C72.2706 57.6995 70.2569 58.0386 67.8045 58.8255L68.11 59.7777ZM72.5461 81.0894C74.9262 90.8719 76.7839 95.9504 81.9249 103.351L82.7462 102.78C77.6987 95.5145 75.8802 90.5631 73.5178 80.853L72.5461 81.0894ZM81.195 94.1218C82.6123 95.1562 84.7277 95.3971 86.9869 95.1233C89.2662 94.8471 91.7883 94.0365 94.1102 92.849C96.4308 91.662 98.5803 90.0837 100.094 88.2508C101.609 86.4178 102.516 84.2917 102.255 82.0387L101.262 82.154C101.482 84.0502 100.729 85.9129 99.3235 87.6139C97.9181 89.3151 95.8891 90.8159 93.6548 91.9587C91.4217 93.1008 89.0124 93.8705 86.8666 94.1306C84.7007 94.393 82.8972 94.1261 81.7846 93.3141L81.195 94.1218ZM85.7845 97.0421C86.0663 97.3297 86.6356 97.765 87.3386 98.2487C88.0534 98.7407 88.9396 99.3052 89.8805 99.8539C91.7394 100.938 93.8887 102.007 95.3528 102.282L95.5377 101.3C94.2627 101.06 92.2483 100.077 90.3843 98.9901C89.4637 98.4532 88.5986 97.9019 87.9055 97.4249C87.2004 96.9398 86.7052 96.5529 86.4988 96.3423L85.7845 97.0421ZM84.9659 99.1924C89.1118 102.833 91.4994 104.588 95.7441 105.674L95.9921 104.706C91.9824 103.679 89.7407 102.054 85.6257 98.4409L84.9659 99.1924ZM123.742 74.7942C123.803 74.9364 123.862 75.0768 123.92 75.2156L124.843 74.8297C124.784 74.6885 124.723 74.5457 124.662 74.4013L123.742 74.7942ZM123.92 75.2156C125.205 78.2863 125.817 80.5162 125.796 82.4928C125.774 84.4504 125.13 86.215 123.779 88.3521L124.625 88.8863C126.035 86.6543 126.772 84.7083 126.796 82.5037C126.82 80.3181 126.142 77.9344 124.843 74.8297L123.92 75.2156ZM126.091 63.1041C125.429 63.4379 124.9 63.8975 124.503 64.5305C124.111 65.1562 123.862 65.9269 123.718 66.8635C123.433 68.7217 123.545 71.3517 123.884 75.0681L124.879 74.9772C124.539 71.2492 124.443 68.7357 124.707 67.0153C124.838 66.1625 125.053 65.5351 125.35 65.0619C125.642 64.5959 126.028 64.2557 126.541 63.997L126.091 63.1041ZM123.702 88.5973C123.096 102.388 123.684 108.376 126.464 118.918L127.431 118.663C124.682 108.237 124.099 102.352 124.701 88.6412L123.702 88.5973ZM126.448 118.79C126.448 122.851 127.04 125.443 127.461 127.875C127.879 130.287 128.137 132.576 127.515 136.121L128.5 136.294C129.148 132.597 128.876 130.186 128.446 127.704C128.02 125.242 127.448 122.746 127.448 118.79H126.448ZM127.509 136.169C127.422 137.313 127.408 138.221 127.616 138.921C127.725 139.286 127.895 139.603 128.149 139.872C128.401 140.139 128.715 140.337 129.082 140.492L129.471 139.571C129.197 139.455 129.01 139.327 128.876 139.185C128.745 139.046 128.645 138.873 128.575 138.636C128.426 138.136 128.419 137.403 128.506 136.245L127.509 136.169ZM129.033 139.595C121.922 143.564 115.722 145.584 108.595 146.132C101.451 146.681 93.3503 145.755 82.4242 143.788L82.247 144.772C93.1879 146.742 101.394 147.689 108.672 147.129C115.967 146.568 122.305 144.495 129.52 140.468L129.033 139.595ZM81.902 103.315C85.0794 108.849 84.6009 113.736 81.852 124.183L82.8191 124.437C85.5689 113.987 86.1661 108.734 82.7692 102.817L81.902 103.315ZM81.8386 124.365C82.6992 132.151 83.0784 136.469 81.8419 144.201L82.8293 144.359C84.0873 136.493 83.6962 132.068 82.8326 124.255L81.8386 124.365ZM81.838 144.33C82.7751 153.761 85.3425 160.55 91.4132 166.725L92.1263 166.024C86.2561 160.053 83.7541 153.5 82.8331 144.231L81.838 144.33ZM91.3532 166.651C95.198 172.443 100.383 178.394 107.777 185.847L108.487 185.143C101.111 177.708 95.9783 171.81 92.1863 166.098L91.3532 166.651ZM126.688 228.567C129.139 235.905 131.403 241.603 135.6 249.617L136.486 249.153C132.317 241.194 130.074 235.546 127.636 228.251L126.688 228.567ZM135.664 249.711C139.108 253.716 141.655 258.255 143.606 263.84L144.55 263.51C142.563 257.822 139.958 253.17 136.422 249.059L135.664 249.711ZM143.58 263.63L143.157 268.304L144.153 268.394L144.576 263.72L143.58 263.63ZM143.661 268.849C149.024 268.779 152.781 268.429 155.276 267.319C156.542 266.756 157.5 265.99 158.177 264.959C158.851 263.932 159.222 262.679 159.376 261.177L158.382 261.075C158.237 262.475 157.899 263.559 157.341 264.41C156.787 265.255 155.992 265.906 154.87 266.405C152.589 267.42 149.033 267.779 143.648 267.849L143.661 268.849ZM143.579 215.274C144.56 228.467 145.727 235.6 149.951 247.274L150.891 246.934C146.707 235.37 145.553 228.331 144.576 215.2L143.579 215.274ZM149.979 247.337C152.87 252.823 154.518 255.92 158.473 261.418L159.285 260.834C155.371 255.393 153.748 252.344 150.863 246.871L149.979 247.337ZM144.577 215.271C145.128 207.18 145.046 201.746 144.217 197.61C143.383 193.447 141.795 190.616 139.387 187.724L138.619 188.364C140.94 191.151 142.44 193.834 143.237 197.806C144.039 201.805 144.13 207.129 143.579 215.203L144.577 215.271ZM139.445 187.81L135.848 181.012L134.964 181.48L138.561 188.278L139.445 187.81ZM135.848 181.012L121.684 154.244L120.8 154.711L134.964 181.48L135.848 181.012ZM128.802 140.188C133.508 154.398 135.594 162.761 134.906 181.227L135.905 181.264C136.599 162.65 134.484 154.165 129.751 139.874L128.802 140.188ZM124.151 208.174C125.293 211.555 126.014 214.323 126.402 217.424L127.395 217.3C126.995 214.111 126.254 211.275 125.098 207.854L124.151 208.174ZM126.402 217.424C126.782 220.452 126.846 223.813 126.662 228.389L127.662 228.429C127.846 223.827 127.784 220.405 127.395 217.3L126.402 217.424ZM126.544 217.009C125.265 218.294 124.082 219.566 122.967 220.859L123.724 221.512C124.823 220.239 125.99 218.984 127.253 217.715L126.544 217.009ZM122.889 220.981C121.798 223.417 120.455 225.876 118.852 228.579L119.712 229.089C121.325 226.37 122.689 223.875 123.802 221.39L122.889 220.981ZM118.943 228.466C115.562 231.581 113.008 234.92 110.891 238.791L111.768 239.271C113.835 235.491 116.323 232.24 119.62 229.202L118.943 228.466ZM110.846 238.903C109.876 242.564 108.546 245.505 106.866 248.108L107.706 248.65C109.446 245.955 110.817 242.916 111.813 239.159L110.846 238.903ZM107.419 248.861C108.258 248.63 108.691 248.653 109.017 248.878C109.388 249.132 109.764 249.733 110.193 251.08L111.146 250.776C110.716 249.429 110.261 248.519 109.584 248.054C108.864 247.559 108.035 247.654 107.154 247.897L107.419 248.861ZM110.521 250.451C110.045 250.599 109.607 250.756 109.203 250.93L109.598 251.848C109.963 251.691 110.367 251.546 110.817 251.406L110.521 250.451ZM109.203 250.93C107.947 251.47 107.033 252.163 106.321 253.183C105.621 254.188 105.139 255.479 104.689 257.173L105.655 257.43C106.097 255.768 106.543 254.613 107.141 253.755C107.728 252.914 108.482 252.329 109.598 251.848L109.203 250.93ZM108.901 251.389V254.752H109.901V251.389H108.901ZM109.195 255.208C112.688 256.784 115.309 258.205 117.58 259.725L118.136 258.893C115.807 257.335 113.134 255.888 109.606 254.297L109.195 255.208ZM117.475 259.63C118.438 260.783 119.411 261.844 120.474 262.854L121.163 262.129C120.133 261.151 119.186 260.119 118.242 258.989L117.475 259.63ZM126.431 266.898C126.146 267.656 125.758 268.245 125.208 268.69C124.656 269.136 123.907 269.465 122.857 269.643C120.734 270.003 117.488 269.733 112.461 268.709L112.261 269.689C117.296 270.715 120.703 271.023 123.025 270.629C124.197 270.43 125.119 270.048 125.836 269.468C126.556 268.886 127.035 268.133 127.367 267.25L126.431 266.898ZM112.654 268.793C109.539 266.544 107.047 265.088 104.467 264.222C101.883 263.355 99.245 263.091 95.8557 263.175L95.8805 264.175C99.203 264.092 101.714 264.353 104.149 265.17C106.589 265.989 108.987 267.379 112.068 269.604L112.654 268.793ZM96.0803 263.222C93.59 262.055 91.9917 261.13 91.152 260.037C90.364 259.011 90.1983 257.764 90.8464 255.756L89.8947 255.449C89.1893 257.635 89.2974 259.264 90.359 260.646C91.3691 261.961 93.1962 262.975 95.656 264.128L96.0803 263.222ZM90.8174 255.826L92.9319 251.613L92.0381 251.165L89.9237 255.378L90.8174 255.826ZM92.0163 251.563C92.5728 253.062 93.0804 254.358 93.5796 255.401C94.0744 256.434 94.5834 257.269 95.1618 257.806C95.7658 258.366 96.4708 258.621 97.2775 258.419C98.0302 258.231 98.7959 257.663 99.6149 256.795L98.8877 256.109C98.1061 256.937 97.5039 257.332 97.0353 257.449C96.6209 257.552 96.2515 257.453 95.8421 257.073C95.4071 256.669 94.9639 255.976 94.4816 254.969C94.0037 253.971 93.5095 252.712 92.9537 251.215L92.0163 251.563ZM99.41 256.926L101.947 256.076L101.63 255.128L99.0925 255.978L99.41 256.926ZM102.271 255.733L103.54 251.059L102.575 250.797L101.306 255.471L102.271 255.733ZM103.155 250.438C101.266 250.063 99.9596 249.633 98.8727 248.966C97.7894 248.301 96.8878 247.378 95.8487 245.959L95.0418 246.55C96.1212 248.024 97.113 249.059 98.3497 249.818C99.5829 250.575 101.023 251.034 102.96 251.419L103.155 250.438ZM94.9834 246.446C95.423 247.506 95.6682 248.213 95.6558 248.816C95.6447 249.363 95.416 249.889 94.6844 250.56L95.3603 251.297C96.2215 250.507 96.6371 249.74 96.6556 248.837C96.673 247.99 96.3332 247.091 95.9071 246.063L94.9834 246.446ZM95.2482 250.482C94.7 250.205 94.22 250.159 93.7118 250.292C93.2609 250.41 92.7821 250.676 92.2578 250.944L92.7122 251.834C93.3052 251.532 93.6494 251.342 93.965 251.259C94.2233 251.192 94.4533 251.201 94.7965 251.374L95.2482 250.482ZM95.8826 246.497C98.6301 241.54 100.053 238.575 101.846 232.372L100.885 232.094C99.1182 238.208 97.7289 241.103 95.0079 246.012L95.8826 246.497ZM107.272 213.401L114.461 203.204L113.644 202.627L106.455 212.825L107.272 213.401ZM107.783 185.853C110.041 188.057 111.975 190.005 113.684 191.872L114.421 191.197C112.694 189.31 110.745 187.347 108.481 185.137L107.783 185.853ZM113.684 191.872C118.11 196.706 121.039 201.004 124.171 207.799L125.079 207.38C121.905 200.493 118.918 196.108 114.421 191.197L113.684 191.872ZM114.089 203.414C114.34 203.396 114.501 203.238 114.584 203.134C114.673 203.022 114.737 202.889 114.787 202.762C114.889 202.505 114.972 202.163 115.039 201.776C115.176 200.994 115.268 199.932 115.296 198.754C115.353 196.406 115.162 193.515 114.532 191.392L113.573 191.676C114.16 193.655 114.352 196.427 114.296 198.73C114.269 199.878 114.18 200.887 114.054 201.604C113.991 201.966 113.922 202.23 113.857 202.395C113.842 202.434 113.828 202.464 113.817 202.485C113.805 202.506 113.799 202.514 113.8 202.513C113.8 202.513 113.815 202.494 113.847 202.473C113.882 202.45 113.939 202.422 114.016 202.417L114.089 203.414ZM72.7259 80.5758C65.0471 86.5192 60.1805 89.3613 50.0171 93.251L50.3745 94.1849C60.63 90.26 65.5822 87.3696 73.338 81.3666L72.7259 80.5758ZM67.6416 58.9138C56.9692 67.5998 51.0232 73.1488 40.5258 84.455L41.2586 85.1354C51.7261 73.8614 57.6383 68.3445 68.2729 59.6894L67.6416 58.9138ZM40.6814 84.3418C30.925 88.8776 25.3794 95.2429 15.5335 109.15L16.3496 109.728C26.1876 95.832 31.6045 89.6645 41.103 85.2486L40.6814 84.3418ZM50.0482 93.2402C48.523 93.7116 47.0668 94.2609 45.8853 95.2144C44.686 96.1823 43.802 97.539 43.3638 99.5605L44.3411 99.7724C44.7353 97.9539 45.5071 96.8047 46.5134 95.9926C47.5375 95.1661 48.8367 94.6613 50.3434 94.1956L50.0482 93.2402ZM15.4534 122.294C15.6542 123.202 15.8632 123.964 16.1111 124.561C16.3557 125.15 16.6637 125.643 17.1018 125.937C17.5692 126.25 18.1025 126.285 18.6638 126.124C19.2044 125.968 19.8002 125.624 20.4652 125.139L19.8757 124.331C19.2417 124.794 18.7588 125.056 18.3874 125.163C18.0365 125.263 17.8243 125.217 17.6587 125.106C17.4639 124.976 17.2517 124.701 17.0346 124.178C16.821 123.663 16.627 122.97 16.4298 122.078L15.4534 122.294ZM11.6655 118.957C11.8643 119.506 12.0705 119.996 12.3193 120.395C12.5708 120.798 12.8822 121.135 13.302 121.34C14.1403 121.752 15.1953 121.541 16.5643 120.945L16.1646 120.028C14.8096 120.619 14.1415 120.638 13.7422 120.443C13.5431 120.345 13.357 120.169 13.1678 119.866C12.9759 119.558 12.7982 119.147 12.6056 118.616L11.6655 118.957ZM18.8323 113.176C18.3109 116.124 17.6314 117.876 16.4832 120.108L17.3725 120.565C18.5597 118.257 19.2757 116.41 19.817 113.35L18.8323 113.176ZM16.4832 120.108C16.1893 120.679 15.8645 121.282 15.5025 121.947L16.3806 122.425C16.7435 121.759 17.0729 121.148 17.3725 120.565L16.4832 120.108ZM16.4929 120.969L17.0563 120.82L16.7994 119.853L16.236 120.003L16.4929 120.969ZM12.0565 110.351C11.8319 110.138 11.5492 110.081 11.2927 110.105C11.0474 110.129 10.8053 110.226 10.5847 110.351C10.1409 110.602 9.66729 111.03 9.23151 111.554C8.36004 112.602 7.54189 114.151 7.4083 115.771L8.40492 115.853C8.51718 114.492 9.2208 113.131 10.0003 112.194C10.3899 111.725 10.7741 111.393 11.077 111.221C11.2298 111.135 11.3332 111.106 11.3878 111.101C11.4312 111.097 11.4027 111.109 11.3687 111.077L12.0565 110.351ZM14.2365 110.894C12.8269 113.414 12.2123 115.075 11.7678 117.858L12.7552 118.016C13.1794 115.36 13.7508 113.811 15.1092 111.383L14.2365 110.894ZM11.7678 117.858C11.7238 118.133 11.6815 118.42 11.6402 118.718L12.6308 118.855C12.6712 118.562 12.7125 118.283 12.7552 118.016L11.7678 117.858ZM7.46124 116.04C8.13476 117.36 8.77035 118.305 9.59424 118.721C10.4799 119.167 11.4242 118.938 12.4929 118.38L12.0301 117.494C11.0375 118.012 10.482 118.048 10.0445 117.828C9.54511 117.576 9.03393 116.922 8.35198 115.585L7.46124 116.04ZM10.6672 110.472C9.65844 110.254 8.56321 110.114 7.41994 109.963C6.26948 109.811 5.0579 109.645 3.78131 109.375L3.57407 110.353C4.89232 110.632 6.13818 110.802 7.28871 110.954C8.44642 111.108 9.49571 111.242 10.4559 111.45L10.6672 110.472ZM3.29284 109.545L1.17838 112.094L1.94809 112.732L4.06254 110.183L3.29284 109.545ZM1.18849 112.082C0.839603 112.477 0.608455 112.891 0.529675 113.296C0.448858 113.712 0.530427 114.131 0.822224 114.447C1.10462 114.753 1.51647 114.889 1.95442 114.901C2.39458 114.914 2.90103 114.804 3.4486 114.574L3.061 113.652C2.60442 113.844 2.24191 113.909 1.98231 113.902C1.72051 113.894 1.60182 113.817 1.55691 113.768C1.52141 113.73 1.47892 113.654 1.51131 113.487C1.54574 113.31 1.66508 113.053 1.93798 112.744L1.18849 112.082ZM3.5363 114.526C4.3535 113.969 4.9373 113.714 5.51031 113.75C6.08086 113.785 6.76881 114.119 7.75624 115.081L8.45413 114.365C7.40948 113.347 6.50325 112.809 5.57213 112.752C4.64347 112.694 3.81812 113.124 2.9733 113.7L3.5363 114.526ZM12.0102 111.115C12.7452 110.571 13.2934 110.246 13.8557 110.068C14.4112 109.892 15.0201 109.849 15.8913 109.936L15.9918 108.942C15.0392 108.845 14.2828 108.884 13.5543 109.114C12.8327 109.343 12.1783 109.747 11.415 110.312L12.0102 111.115ZM119.558 46.8332C121.497 49.7262 123.114 51.7679 124.239 54.1852C125.346 56.5662 125.967 59.3092 125.817 63.5328L126.816 63.5683C126.971 59.2158 126.33 56.3113 125.145 53.7635C123.977 51.2521 122.27 49.0839 120.388 46.2764L119.558 46.8332ZM120.056 46.0617C118.557 45.8105 117.197 45.5772 116.012 45.4371C114.831 45.2976 113.784 45.2451 112.917 45.3728C112.043 45.5014 111.294 45.8224 110.794 46.4793C110.3 47.1273 110.116 48.0147 110.17 49.1281L111.169 49.0803C111.121 48.082 111.297 47.4687 111.59 47.0852C111.875 46.7105 112.337 46.469 113.062 46.3621C113.795 46.2543 114.735 46.2933 115.894 46.4302C117.049 46.5667 118.381 46.7948 119.89 47.0479L120.056 46.0617ZM111.019 48.7473C110.247 47.9892 109.445 47.4777 108.569 47.4533C107.675 47.4284 106.861 47.9112 106.073 48.7651L106.808 49.4432C107.507 48.6859 108.063 48.4396 108.541 48.4529C109.036 48.4667 109.605 48.7608 110.319 49.4611L111.019 48.7473ZM103.073 43.5892C103.116 46.0151 103.198 47.8369 103.849 49.3066L104.763 48.9018C104.209 47.6503 104.116 46.0424 104.073 43.5717L103.073 43.5892ZM103.849 49.3066C104.243 50.1961 104.836 50.9417 105.71 51.6231L106.325 50.8342C105.566 50.243 105.083 49.6248 104.763 48.9018L103.849 49.3066ZM105.558 38.2848C105.417 38.6135 105.277 38.9349 105.137 39.2492L106.052 39.6548C106.193 39.3364 106.335 39.011 106.477 38.6787L105.558 38.2848ZM105.137 39.2492C104.457 40.7824 103.793 42.1437 103.135 43.3395L104.012 43.8213C104.686 42.5949 105.363 41.2071 106.052 39.6548L105.137 39.2492ZM106.44 48.6042H106.017V49.6042H106.44V48.6042ZM106.017 48.6042H104.306V49.6042H106.017V48.6042ZM105.106 39.5599C105.929 43.2859 106.203 45.3232 105.526 49.0139L106.509 49.1944C107.22 45.3219 106.921 43.1386 106.083 39.3441L105.106 39.5599ZM119.97 47.0548C135.934 47.1516 143.948 46.5655 153.167 42.3354L152.75 41.4266C143.748 45.557 135.93 46.1516 119.976 46.0548L119.97 47.0548ZM126.498 64.0165C139.124 59.104 146.445 56.9412 159.837 53.8402L159.612 52.866C146.179 55.9763 138.811 58.1526 126.135 63.0846L126.498 64.0165ZM152.818 42.3609C154.153 42.751 155.951 42.4696 157.482 41.9298C158.259 41.6558 158.996 41.3055 159.605 40.9139C160.203 40.5291 160.721 40.0763 161.005 39.5797L160.136 39.0836C159.969 39.3763 159.607 39.7235 159.063 40.073C158.531 40.4157 157.866 40.734 157.149 40.9867C155.693 41.5001 154.136 41.7041 153.099 41.4011L152.818 42.3609ZM160.091 53.6933C161.131 52.5724 161.974 51.8887 162.913 51.4725C163.852 51.0564 164.935 50.8869 166.493 50.8789L166.488 49.8789C164.867 49.8873 163.627 50.0625 162.508 50.5582C161.39 51.0538 160.438 51.849 159.358 53.013L160.091 53.6933ZM166.69 50.8374C170.683 49.1018 173.792 47.6276 176.123 45.4121C178.477 43.1758 180.001 40.2233 180.936 35.6069L179.956 35.4083C179.049 39.8885 177.597 42.6319 175.435 44.6872C173.25 46.7634 170.303 48.1766 166.292 49.9203L166.69 50.8374ZM160.95 39.6566C162.915 37.3592 164.45 35.7443 166.065 34.5737C167.667 33.4123 169.366 32.6756 171.672 32.1721L171.459 31.1951C169.039 31.7234 167.208 32.5098 165.478 33.764C163.761 35.009 162.161 36.7022 160.19 39.0067L160.95 39.6566ZM171.135 31.9373C172.213 33.769 173.288 35.0008 174.78 35.6538C176.259 36.3014 178.065 36.3417 180.515 36.0029L180.378 35.0123C177.975 35.3447 176.399 35.2709 175.181 34.7377C173.975 34.2098 173.035 33.194 171.996 31.4299L171.135 31.9373ZM43.362 99.7637C43.3454 99.6801 43.3574 99.6158 43.3638 99.5889C43.3709 99.5594 43.3791 99.5424 43.3796 99.5413C43.3802 99.54 43.371 99.5584 43.3398 99.6013C43.279 99.6848 43.1745 99.8074 43.0202 99.9706C42.7144 100.294 42.2538 100.734 41.6631 101.266C40.4842 102.328 38.815 103.732 36.8985 105.261C33.0624 108.319 28.2635 111.851 24.4538 114.108L24.9635 114.968C28.8314 112.676 33.6718 109.112 37.5219 106.042C39.4485 104.506 41.1341 103.088 42.3324 102.009C42.9303 101.47 43.4139 101.01 43.7467 100.658C43.9117 100.483 44.0501 100.325 44.1482 100.19C44.1964 100.124 44.2456 100.049 44.2827 99.9708C44.3085 99.9164 44.3805 99.7589 44.3429 99.5692L43.362 99.7637ZM24.4538 114.108C24.2079 114.253 23.9664 114.393 23.7297 114.528L24.2233 115.397C24.4658 115.26 24.7127 115.116 24.9635 114.968L24.4538 114.108ZM24.2452 114.35C23.5554 116.055 23.2049 117.507 23.4633 119.118C23.719 120.711 24.5607 122.396 26.1043 124.597L26.9231 124.023C25.4059 121.859 24.6699 120.326 24.4507 118.959C24.2341 117.609 24.5115 116.358 25.1721 114.725L24.2452 114.35ZM26.0142 124.332C26.0345 124.793 25.9839 125.113 25.8882 125.331C25.8008 125.53 25.6682 125.664 25.4548 125.753C25.2227 125.851 24.8738 125.903 24.3572 125.871C23.8447 125.839 23.2027 125.726 22.4073 125.525L22.1623 126.495C22.9883 126.703 23.6965 126.832 24.2948 126.869C24.8889 126.906 25.411 126.856 25.8418 126.676C26.2912 126.487 26.6133 126.167 26.8039 125.733C26.9863 125.317 27.0369 124.824 27.0132 124.288L26.0142 124.332ZM23.132 115.968C21.7388 118.154 21.0355 119.833 20.3826 122.044L21.3417 122.327C21.9714 120.195 22.6383 118.603 23.9752 116.506L23.132 115.968ZM20.3826 122.044C20.1533 122.82 19.9304 123.662 19.6863 124.611L20.6547 124.86C20.8982 123.913 21.1176 123.086 21.3417 122.327L20.3826 122.044ZM22.662 125.682C22.1044 125.041 21.7653 124.567 21.5686 124.071C21.3758 123.584 21.3042 123.034 21.3609 122.221L20.3634 122.151C20.3001 123.058 20.3735 123.769 20.6389 124.439C20.9004 125.099 21.3326 125.677 21.9076 126.338L22.662 125.682ZM171.964 31.9852C172.66 31.0653 172.916 30.1036 172.874 28.9369C172.832 27.8027 172.507 26.4569 172.048 24.7551L171.083 25.0155C171.546 26.7335 171.838 27.9711 171.874 28.9733C171.91 29.9429 171.705 30.6704 171.167 31.382L171.964 31.9852ZM172.065 24.8734C171.985 21.4768 172.03 18.6528 172.288 16.3534C172.546 14.0489 173.015 12.3146 173.754 11.0696C174.481 9.84574 175.477 9.07729 176.857 8.70687C178.261 8.33003 180.088 8.35841 182.468 8.80586L182.653 7.82307C180.209 7.36358 178.21 7.30811 176.598 7.74107C174.961 8.18047 173.751 9.1155 172.894 10.5593C172.05 11.982 171.559 13.8797 171.294 16.2419C171.028 18.6093 170.985 21.4869 171.066 24.8971L172.065 24.8734ZM182.26 8.71374C185.543 11.1885 187.611 13.2347 188.271 16.0456C188.934 18.872 188.202 22.5984 185.49 28.5005L186.398 28.9181C189.126 22.9831 189.989 18.99 189.245 15.8172C188.496 12.629 186.153 10.3963 182.862 7.91519L182.26 8.71374ZM185.647 28.3074C184.033 29.501 182.81 30.4811 181.895 31.5558C180.967 32.6454 180.366 33.8181 179.962 35.3827L180.93 35.6326C181.3 34.2011 181.835 33.1681 182.656 32.2042C183.489 31.2255 184.628 30.3045 186.241 29.1113L185.647 28.3074ZM86.9303 46.7293C86.6275 47.7682 85.8072 48.7924 84.8928 49.5243C84.4398 49.8868 83.9828 50.1619 83.5844 50.3259C83.1669 50.4977 82.8895 50.5167 82.754 50.4797L82.4905 51.4443C82.9479 51.5693 83.4802 51.4502 83.965 51.2506C84.469 51.0432 85.007 50.7137 85.5176 50.305C86.5303 49.4946 87.5111 48.3104 87.8904 47.0091L86.9303 46.7293ZM82.3813 51.4001C90.312 55.7626 94.7987 56.8932 98.1013 56.3308C99.76 56.0483 101.08 55.3453 102.346 54.4846C102.976 54.0567 103.601 53.5833 104.243 53.104C104.889 52.622 105.557 52.1291 106.292 51.6465L105.743 50.8107C104.981 51.311 104.292 51.8193 103.645 52.3027C102.994 52.7889 102.391 53.2454 101.784 53.6576C100.578 54.4773 99.3948 55.0961 97.9334 55.345C94.9956 55.8453 90.7769 54.877 82.8632 50.5239L82.3813 51.4001ZM82.8632 50.5239C82.7686 50.4719 82.6735 50.4194 82.5779 50.3664L82.0932 51.2411C82.1898 51.2946 82.2858 51.3476 82.3813 51.4001L82.8632 50.5239ZM81.9874 51.1626C82.1336 51.3045 82.3082 51.3945 82.4905 51.4443L82.754 50.4797C82.7119 50.4682 82.6931 50.454 82.6838 50.4449L81.9874 51.1626ZM106.441 212.844C103.075 218.134 101.468 221.6 100.816 224.459C100.161 227.333 100.481 229.559 100.87 232.298L101.86 232.157C101.47 229.411 101.182 227.355 101.791 224.681C102.405 221.992 103.937 218.642 107.285 213.381L106.441 212.844ZM100.87 232.298L100.871 232.303L101.861 232.163L101.86 232.157L100.87 232.298ZM101.861 232.163C101.861 232.162 101.86 232.161 101.86 232.16C101.86 232.159 101.86 232.158 101.86 232.157L100.87 232.298C100.873 232.321 100.867 232.28 100.871 232.303L101.861 232.163ZM12.0565 110.351C11.7752 110.084 11.414 110.066 11.1198 110.134C10.831 110.2 10.5394 110.359 10.2677 110.556L10.8554 111.365C11.0712 111.209 11.2376 111.133 11.3437 111.108C11.4444 111.085 11.4151 111.12 11.3687 111.077L12.0565 110.351ZM10.2677 110.556C9.65304 111.003 8.98898 111.757 8.45722 112.657C7.92369 113.559 7.50106 114.646 7.4083 115.771L8.40492 115.853C8.48222 114.916 8.84014 113.974 9.31811 113.165C9.79784 112.354 10.3762 111.713 10.8554 111.365L10.2677 110.556ZM8.5869 114.857C9.01614 113.313 10.0531 111.948 10.8554 111.365L10.2677 110.556C9.27207 111.279 8.10964 112.841 7.62347 114.589L8.5869 114.857ZM120.758 262.988C124.203 263.409 125.818 264.44 126.262 265.941L127.221 265.658C126.59 263.524 124.371 262.422 120.879 261.995L120.758 262.988ZM126.262 265.941C126.361 266.275 126.408 266.647 126.399 267.063L127.398 267.085C127.409 266.581 127.353 266.104 127.221 265.658L126.262 265.941ZM126.266 265.955C126.661 267.167 126.99 268.199 127.139 269.09C127.288 269.979 127.243 270.653 126.967 271.183C126.695 271.705 126.151 272.179 125.097 272.563C124.037 272.948 122.512 273.223 120.361 273.374L120.431 274.371C122.617 274.218 124.25 273.935 125.439 273.502C126.633 273.068 127.427 272.465 127.854 271.645C128.276 270.835 128.289 269.906 128.125 268.925C127.962 267.946 127.607 266.84 127.217 265.645L126.266 265.955ZM120.396 273.373H111.515V274.373H120.396V273.373ZM111.841 273.493C109.034 271.084 106.657 269.39 103.838 268.338C101.018 267.285 97.7961 266.888 93.3182 266.999L93.3431 267.999C97.7542 267.889 100.834 268.283 103.488 269.274C106.143 270.266 108.413 271.869 111.189 274.252L111.841 273.493ZM93.4976 267.028C91.5821 266.349 90.3399 265.594 89.3966 264.503C88.444 263.401 87.7585 261.915 87.04 259.697L86.0887 260.005C86.8181 262.257 87.553 263.9 88.6402 265.157C89.7367 266.425 91.1536 267.258 93.1637 267.97L93.4976 267.028ZM87.0367 260.015C87.5077 258.658 87.9135 257.795 88.4194 257.211C88.9048 256.65 89.5141 256.312 90.4825 256.089L90.2585 255.115C89.1442 255.371 88.3237 255.794 87.6635 256.556C87.0237 257.295 86.5678 258.316 86.092 259.687L87.0367 260.015ZM150.812 272.391C150.412 273.27 150.174 274.019 150.245 274.742C150.317 275.486 150.705 276.11 151.327 276.766L152.052 276.078C151.499 275.494 151.282 275.07 151.24 274.645C151.197 274.199 151.336 273.655 151.722 272.805L150.812 272.391ZM151.874 276.887C153.321 276.312 154.489 275.748 155.382 274.734C156.277 273.718 156.848 272.308 157.256 270.141L156.273 269.956C155.88 272.049 155.354 273.253 154.631 274.073C153.907 274.895 152.937 275.388 151.505 275.957L151.874 276.887ZM157.264 270.062C157.336 267.432 157.837 265.953 158.753 265.134C159.671 264.312 161.142 264.031 163.5 264.174L163.561 263.176C161.166 263.03 159.326 263.279 158.086 264.388C156.843 265.5 156.338 267.352 156.265 270.035L157.264 270.062ZM163.146 263.994C164.373 265.475 165.615 266.497 167.23 267.079C168.832 267.657 170.75 267.783 173.298 267.573L173.216 266.576C170.728 266.781 168.975 266.645 167.569 266.138C166.175 265.636 165.072 264.751 163.916 263.356L163.146 263.994ZM172.917 267.441C174.002 268.446 174.994 269.028 176.16 269.226C177.307 269.421 178.563 269.234 180.146 268.834L179.901 267.864C178.344 268.257 177.258 268.398 176.328 268.24C175.418 268.086 174.596 267.634 173.597 266.708L172.917 267.441ZM177.938 276.114L173.286 282.062L174.074 282.678L178.726 276.73L177.938 276.114ZM173.333 282.01C172.416 282.893 171.746 283.376 170.92 283.48C170.078 283.586 168.965 283.31 167.147 282.353L166.681 283.238C168.538 284.216 169.884 284.618 171.044 284.472C172.22 284.325 173.095 283.628 174.027 282.731L173.333 282.01ZM167.278 282.452C167.066 282.228 166.83 282.01 166.54 281.857C166.238 281.699 165.905 281.624 165.515 281.641C164.778 281.674 163.83 282.044 162.45 282.779L162.92 283.662C164.303 282.925 165.072 282.662 165.56 282.64C165.784 282.63 165.94 282.672 166.074 282.742C166.219 282.819 166.365 282.942 166.55 283.138L167.278 282.452ZM162.586 282.73C160.692 283.113 159.382 283.204 158.249 283.061C157.119 282.918 156.128 282.539 154.87 281.922L154.43 282.819C155.727 283.456 156.834 283.89 158.123 284.053C159.409 284.215 160.839 284.104 162.784 283.71L162.586 282.73ZM151.243 276.197C151.083 276.517 151.034 276.922 151.042 277.324C151.051 277.738 151.12 278.204 151.239 278.679C151.476 279.626 151.926 280.669 152.565 281.483L153.352 280.866C152.818 280.186 152.42 279.279 152.209 278.436C152.104 278.017 152.049 277.628 152.042 277.304C152.036 276.969 152.083 276.754 152.136 276.646L151.243 276.197ZM152.565 281.483C153.073 282.13 153.733 282.674 154.539 282.858L154.761 281.883C154.259 281.768 153.779 281.41 153.352 280.866L152.565 281.483ZM152.574 280.855C151.783 281.805 151.244 282.663 151.217 283.609C151.19 284.566 151.687 285.472 152.578 286.518L153.339 285.87C152.487 284.869 152.201 284.208 152.217 283.637C152.233 283.057 152.565 282.429 153.343 281.495L152.574 280.855ZM152.661 286.596C154.238 287.766 155.563 288.794 157.164 289.217C158.799 289.649 160.652 289.441 163.297 288.357L162.918 287.431C160.377 288.473 158.761 288.605 157.42 288.25C156.045 287.887 154.889 287.004 153.256 285.793L152.661 286.596ZM163.492 288.213C164.276 287.27 164.784 286.907 165.211 286.855C165.612 286.807 166.129 287.016 166.993 287.833L167.68 287.106C166.797 286.271 165.978 285.755 165.091 285.862C164.23 285.967 163.497 286.642 162.723 287.575L163.492 288.213ZM167.012 287.849C168.086 288.767 169.107 289.57 170.502 289.495C171.857 289.422 173.435 288.528 175.699 286.573L175.045 285.816C172.784 287.769 171.434 288.444 170.448 288.497C169.502 288.547 168.767 288.034 167.661 287.089L167.012 287.849ZM175.372 286.694C175.483 286.694 175.567 286.658 175.593 286.647C175.631 286.63 175.663 286.612 175.687 286.598C175.734 286.569 175.783 286.533 175.828 286.499C175.922 286.427 176.039 286.329 176.175 286.21C176.449 285.971 176.82 285.629 177.265 285.211C178.154 284.373 179.349 283.215 180.659 281.931C183.279 279.362 186.368 276.28 188.413 274.225L187.704 273.52C185.661 275.573 182.575 278.652 179.959 281.217C178.65 282.5 177.461 283.652 176.579 284.483C176.137 284.899 175.776 285.231 175.517 285.457C175.387 285.571 175.288 285.653 175.221 285.704C175.187 285.73 175.17 285.741 175.166 285.744C175.163 285.745 175.174 285.739 175.194 285.73C175.201 285.727 175.271 285.694 175.372 285.694V286.694ZM180.055 268.848C181.91 268.729 183.224 268.751 184.032 268.931C184.439 269.022 184.648 269.138 184.744 269.233C184.808 269.298 184.844 269.371 184.813 269.531L185.796 269.716C185.88 269.271 185.776 268.852 185.451 268.527C185.157 268.232 184.727 268.061 184.25 267.955C183.288 267.741 181.847 267.731 179.991 267.85L180.055 268.848ZM184.813 269.531C184.777 269.726 184.643 270.016 184.344 270.419C184.05 270.814 183.625 271.282 183.057 271.831C181.92 272.928 180.252 274.309 178.027 276.026L178.637 276.818C180.87 275.096 182.574 273.687 183.751 272.55C184.34 271.982 184.808 271.471 185.147 271.015C185.48 270.566 185.718 270.131 185.796 269.716L184.813 269.531ZM188.558 273.846C188.466 272.112 188.256 270.903 187.743 270.141C187.175 269.299 186.315 269.095 185.291 269.124L185.319 270.123C186.202 270.098 186.628 270.276 186.914 270.7C187.254 271.206 187.467 272.148 187.559 273.899L188.558 273.846ZM158.495 261.445C159.121 262.198 159.773 262.767 160.573 263.204C161.368 263.639 162.287 263.933 163.431 264.165L163.63 263.185C162.541 262.964 161.728 262.697 161.053 262.327C160.382 261.96 159.825 261.481 159.263 260.806L158.495 261.445ZM158.382 261.075C158.245 262.401 157.935 263.443 157.429 264.272C156.926 265.095 156.212 265.738 155.218 266.24C153.195 267.262 150.051 267.688 145.3 267.817L145.327 268.816C150.068 268.688 153.424 268.268 155.669 267.133C156.809 266.557 157.671 265.794 158.282 264.793C158.889 263.798 159.23 262.599 159.376 261.177L158.382 261.075ZM144.883 268.57L144.97 268.718L145.831 268.21L145.744 268.062L144.883 268.57ZM144.97 268.718C145.81 270.143 146.536 271.385 147.474 272.182C148.463 273.024 149.656 273.353 151.343 273.092L151.19 272.104C149.736 272.329 148.852 272.042 148.122 271.421C147.34 270.756 146.703 269.687 145.831 268.21L144.97 268.718ZM144.883 268.57C144.912 268.62 144.941 268.669 144.97 268.718L145.831 268.21C145.802 268.161 145.773 268.112 145.744 268.062L144.883 268.57ZM103.315 251.357L107.544 248.807L107.028 247.951L102.799 250.5L103.315 251.357ZM143.661 268.849C144.236 268.841 144.791 268.831 145.327 268.816L145.3 267.817C144.769 267.831 144.219 267.842 143.648 267.849L143.661 268.849ZM93.7195 27.6373C94.363 29.0888 95.6904 29.9416 97.0573 30.3575C98.4207 30.7723 99.903 30.7791 100.977 30.4649L100.696 29.5051C99.8295 29.7587 98.5471 29.7654 97.3483 29.4008C96.1531 29.0371 95.1208 28.3308 94.6337 27.232L93.7195 27.6373ZM100.977 30.4649C102.042 30.1533 103.021 29.4331 103.627 28.3165C104.234 27.1987 104.449 25.7232 104.062 23.9302L103.085 24.1408C103.431 25.7469 103.221 26.97 102.749 27.8391C102.276 28.7094 101.52 29.2643 100.696 29.5051L100.977 30.4649ZM90.7163 28.2844C90.7163 29.6211 90.4522 30.7678 89.7688 31.6474C89.0914 32.5194 87.943 33.2041 86.0158 33.4993L86.1672 34.4878C88.2659 34.1663 89.68 33.3918 90.5585 32.2609C91.431 31.1378 91.7163 29.7382 91.7163 28.2844H90.7163ZM86.0158 33.4993C84.0863 33.7949 82.8939 33.4799 82.111 32.9423C81.3181 32.3979 80.8604 31.5685 80.5172 30.6575L79.5814 31.01C79.951 31.9912 80.5014 33.0501 81.5449 33.7667C82.5985 34.4902 84.0708 34.8089 86.1672 34.4878L86.0158 33.4993Z" fill="black"/>
</svg>
