<svg viewBox="0 0 188 135" fill="none" xmlns="http://www.w3.org/2000/svg">
<path fill-rule="evenodd" clip-rule="evenodd" d="M86.4911 129.249C77.3829 127.089 75.0033 125.259 77.7048 120.419C77.7275 120.144 77.7548 119.885 77.7982 119.634C77.9435 118.792 78.2694 118.039 79.2083 117.083C79.9401 116.338 81.0442 115.469 82.7254 114.336C84.0658 113.754 85.3166 113.247 86.4911 112.817C93.6199 110.212 97.9421 110.482 102.482 114.336C103.141 114.895 103.805 115.53 104.482 116.243C104.621 116.389 104.76 116.538 104.9 116.691C105.157 118.16 105.268 119.297 105.208 120.223C105.104 121.822 104.488 122.79 103.227 123.755C101.669 129.071 97.6797 130.065 86.4911 129.249ZM79.2083 120.223C77.7982 122.181 85.7941 124.175 90.2566 121.4C90.978 122.111 91.6625 122.14 93.1853 121.792C94.0221 124.736 100.382 125.171 102.482 123.362C103.207 121.792 101.643 120.87 99.7745 120.615C97.8545 120.352 94.3039 120.615 93.1853 121.792C91.6625 122.14 90.978 122.111 90.2566 121.4C90.2566 120.111 89.1694 119.048 85.1863 118.763C81.2032 118.479 79.9135 119.349 79.2083 120.223Z" fill="#C0A26C"/>
<path d="M77.7048 120.419C75.0033 125.259 77.3829 127.089 86.4911 129.249C97.6797 130.065 101.669 129.071 103.227 123.755C104.488 122.79 105.104 121.822 105.208 120.223C107.281 121.235 107.44 122.612 105.737 126.698C100.15 135.041 93.7847 134.335 82.7254 133.565C73.552 130.796 68.8186 129.099 76.4495 120.419L76.8855 119.634C77.1352 119.654 77.4404 119.65 77.7982 119.634C77.7548 119.885 77.7275 120.144 77.7048 120.419Z" fill="#0E0A04"/>
<path d="M86.4911 112.817C85.8163 111.737 82.927 110.778 81.7539 110.927C97.4298 106.902 98.9795 108.989 104.9 110.804C104.092 111.098 103.56 111.413 103.207 111.785C102.611 112.414 102.525 113.205 102.482 114.336C97.9421 110.482 93.6199 110.212 86.4911 112.817Z" fill="#C0A26C"/>
<path d="M118.707 112.963C122.488 110.33 125.285 109.074 124.983 105.114C137.5 107.387 144.766 108.389 158.036 109.823C160.134 110.878 161.584 111.189 164.73 111.197C172.649 112.803 176.714 113.863 178.537 118.064C173.736 117.754 171.846 118.17 169.751 119.83C165.075 119.354 162.767 118.423 158.873 116.298C157.98 115.569 153.688 114.801 151.342 115.121C142.328 113.19 134.497 112.918 118.707 112.963Z" fill="#C0A26C"/>
<path d="M169.751 119.83C171.846 118.17 173.736 117.754 178.537 118.064C179.302 119.448 180.784 120.101 183.976 121.204C189.358 126.67 187.134 128.333 180.629 130.622C171.084 131.46 169.432 129.257 169.751 122.97C170.663 121.39 170.972 120.584 169.751 119.83Z" fill="#C0A26C"/>
<path d="M72.2657 97.0689C78.077 106.403 76.9008 108.522 67.245 107.076C56.7048 103.072 50.8387 100.517 40.4678 95.3029C30.9428 93.236 25.5199 90.3421 15.7826 83.9223C13.9782 84.0073 13.081 83.8461 11.5987 83.3336C11.3661 83.4365 10.9422 83.383 10.4598 83.2195C9.37762 82.8526 8.00138 81.9316 7.83314 80.979C9.17419 79.7523 10.1023 79.5009 12.1417 79.9979C12.0988 79.8725 12.0575 79.742 12.0171 79.6055C12.7917 78.6083 13.5059 78.2721 16.201 78.8206L16.7584 78.8898C16.4648 78.6234 16.1412 78.3429 15.7826 78.0357C16.5704 76.3731 17.396 75.9828 19.9665 76.8584C20.2078 77.296 20.4266 77.6813 20.6508 78.0357C20.5321 77.2411 20.9378 76.8708 22.0584 76.2698C25.2666 75.8914 26.3294 76.1344 26.2423 77.0547C23.2141 79.0707 23.1204 80.0265 24.4564 81.5677C32.0524 83.6682 43.5299 88.1211 43.3965 88.4353C44.2202 90.2086 46.6728 90.7497 49.6724 91.1823C59.7733 92.9867 64.6305 94.3104 72.2657 97.0689Z" fill="#C0A26C"/>
<path d="M8.0296 81.4822C8.48244 82.2422 9.57043 82.9179 10.4598 83.2195C8.51181 83.4161 6.21644 83.4722 3.64921 83.7261L1.55724 82.5488C0.326902 81.8986 1.24389 81.3739 3.23081 81.7639C4.87515 82.2867 6.01914 82.3966 8.0296 81.4822Z" fill="#D9D9D9"/>
<path d="M80.6335 111.393C79.1145 112.019 78.1678 111.726 76.4495 111C71.2684 110.264 68.4556 109.805 67.245 107.076C76.9008 108.522 78.077 106.403 72.2657 97.0689C74.6116 92.568 76.4303 90.252 81.4703 86.8656C84.7225 84.2213 84.1904 81.8799 81.4703 77.0547C82.3232 73.4529 82.7043 71.4339 81.4703 67.8324C103.105 66.0146 113.738 66.102 127.912 69.7946C126.643 70.0451 126.484 70.4977 126.657 71.5606C127.912 74.9047 125.608 75.9015 125.608 79.6039C122.873 84.4454 122.293 87.1867 122.891 93.537C125.623 95.5547 125.625 96.9641 123.069 99.8159C122.397 103.254 122.657 104.567 124.983 105.114C125.285 109.074 122.488 110.33 118.707 112.963C112.756 113.428 109.303 113.736 109.502 111.785C108.032 112.459 106.789 112.529 105.319 111.785H104.9H103.207C103.56 111.413 104.092 111.098 104.9 110.804C98.9795 108.989 97.4298 106.902 81.7539 110.927C81.6429 110.941 81.5473 110.966 81.4703 111C81.2295 111.109 80.773 111.262 80.6335 111.393Z" fill="#D9D9D9"/>
<path d="M79.2083 120.223C77.7982 122.181 85.7941 124.175 90.2566 121.4C90.2566 120.111 89.1694 119.048 85.1863 118.763C81.2032 118.479 79.9135 119.349 79.2083 120.223Z" fill="#AA8E5D"/>
<path d="M93.1853 121.792C94.0221 124.736 100.382 125.171 102.482 123.362C103.207 121.792 101.643 120.87 99.7745 120.615C97.8545 120.352 94.3039 120.615 93.1853 121.792Z" fill="#AA8E5D"/>
<path d="M82.7254 114.336C81.0442 115.469 79.9401 116.338 79.2083 117.083C78.4079 116.559 77.8686 116.439 77.2086 117.083L76.4495 111C78.1678 111.726 79.1145 112.019 80.6335 111.393C80.773 111.262 81.2295 111.109 81.4703 111C81.5654 110.976 81.6599 110.951 81.7539 110.927C82.927 110.778 85.8163 111.737 86.4911 112.817C85.3166 113.247 84.0658 113.754 82.7254 114.336Z" fill="#0E0A04"/>
<path d="M102.482 114.336C102.525 113.205 102.611 112.414 103.207 111.785H104.9C105.587 113.532 105.304 114.506 104.482 116.243C103.805 115.53 103.141 114.895 102.482 114.336Z" fill="#0E0A04"/>
<path d="M79.2083 117.083C78.2694 118.039 77.9435 118.792 77.7982 119.634C77.4404 119.65 77.1352 119.654 76.8855 119.634C76.0014 119.563 75.8128 119.198 76.4495 118.064C76.7286 117.632 76.9761 117.31 77.2086 117.083C77.8686 116.439 78.4079 116.559 79.2083 117.083Z" fill="#D9D9D9"/>
<path d="M91.5117 18.3689C93.7127 15.6018 95.039 14.4648 98.206 16.0309L100.716 16.4233L101.972 18.5817C98.187 18.9322 96.5365 19.4038 94.4405 20.7401C95.297 19.7759 95.598 19.2564 94.0221 18.5817C93.1402 18.7901 92.6172 18.6322 91.5117 18.3689Z" fill="#D9D9D9"/>
<path d="M125.559 11.1254C124.339 9.61021 121.132 9.19745 111.176 10.1444C105.047 12.2107 101.499 12.7722 94.8589 12.6952C89.9615 13.7664 88.0807 14.4864 89.4198 16.4233C87.3591 16.2023 86.5908 15.7207 85.6541 14.4611C87.0866 12.3968 88.4646 11.5714 92.3484 10.9292C101.143 11.0314 104.816 10.1988 110.339 7.98596H119.126C127.708 8.26611 126.957 9.49021 125.404 11.7141C125.518 11.534 125.569 11.338 125.559 11.1254Z" fill="#D9D9D9"/>
<path d="M176.445 6.80865L171.843 4.0616C170.013 3.23961 168.786 2.97163 165.149 3.86538C164.364 4.25392 163.698 4.34838 160.965 3.66916C157.167 3.31046 155.544 3.48241 153.015 4.0616C152.368 4.1306 151.804 4.33873 151.342 4.61381C149.79 3.74364 149.618 3.24119 151.342 2.29563C154.518 1.19622 156.252 0.529356 161.383 1.51077C162.924 2.37714 163.838 2.46956 165.567 1.70698C167.724 0.846963 169.041 0.49062 173.517 2.29563C173.851 2.29563 182.024 6.08919 186.068 7.98596C185.887 9.59525 185.232 9.97314 183.344 9.94813C183.117 9.38511 180.856 8.39656 176.445 6.80865Z" fill="#D9D9D9"/>
<path d="M155.107 9.75192C154.315 7.78464 152.935 7.33679 150.087 6.80865C149.663 6.41492 150.182 5.30376 151.342 4.61381C151.804 4.33873 152.368 4.1306 153.015 4.0616C155.544 3.48241 157.167 3.31046 160.965 3.66916C163.698 4.34838 164.364 4.25392 165.149 3.86538C168.786 2.97163 170.013 3.23961 171.843 4.0616L176.445 6.80865C180.856 8.39656 183.117 9.38511 183.344 9.94813C183.57 10.5073 181.79 10.6467 178.119 10.5368C175.012 10.1705 173.486 10.2334 171.425 11.1254C166.442 10.9336 164.16 11.3672 161.802 12.6952C157.098 12.8288 155.251 12.2053 155.107 9.75192Z" fill="#3C4241"/>
<path d="M157.199 13.8725C156.639 11.3338 153.17 10.6701 143.778 10.5518L143.864 10.4839C145.558 9.14317 146.56 8.35018 149.668 8.57461C148.891 7.77566 148.923 7.38124 150.087 6.80865C152.935 7.33679 154.315 7.78464 155.107 9.75192C155.251 12.2053 157.098 12.8288 161.802 12.6952C159.593 12.9047 158.375 13.2131 157.199 13.8725Z" fill="#D9D9D9"/>
<path d="M127.912 69.7946C113.738 66.102 103.105 66.0146 81.4703 67.8324C82.3894 63.5145 84.8972 60.4339 90.8041 57.6291C94.5819 54.9728 99.6862 52.2367 106.992 48.7993C109.229 47.78 111.15 46.8769 112.85 46.0103C114.054 44.1159 113.608 40.7804 112.85 40.7543L105.737 36.0451C99.0938 31.1726 99.5264 29.7509 100.297 27.2179L100.298 27.2153C98.5368 24.3712 97.1457 23.0182 94.4405 20.7401C96.5365 19.4038 98.187 18.9322 101.972 18.5817L106.156 19.759C107.848 20.9824 109.184 22.3632 110.156 24.0758C112.225 25.8427 114.72 27.3643 118.023 28.7851C119.615 30.0372 120.954 31.1809 122.044 32.317C123.139 32.9096 124.302 33.4933 125.559 34.0829C125.939 32.6669 126.002 31.1005 125.82 28.9813C128.238 25.6026 130.468 22.9825 134.606 19.2946C138.059 17.4205 140.607 15.2981 142.556 12.6952L142.137 10.5368C142.703 10.5402 143.25 10.5452 143.778 10.5518C153.17 10.6701 156.639 11.3338 157.199 13.8725C153.307 16.3984 151.689 17.8173 148.832 20.3477C144.673 25.7135 143.524 28.9859 142.556 35.064C143.647 42.5295 142.213 44.9997 137.535 47.622L133.976 50.7615C134.66 59.3234 132.581 63.2139 127.912 69.7946Z" fill="#071021"/>
<path d="M109.503 18.5817C108.653 19.8258 107.857 19.9777 106.156 19.759L101.972 18.5817L100.716 16.4233L98.206 16.0309C95.039 14.4648 93.7127 15.6018 91.5117 18.3689L89.4198 16.4233C88.0807 14.4864 89.9615 13.7664 94.8589 12.6952C101.499 12.7722 105.047 12.2107 111.176 10.1444C121.132 9.19745 124.339 9.61021 125.559 11.1254C125.569 11.338 125.518 11.534 125.404 11.7141C124.872 12.5535 122.975 13.0461 119.544 13.2417C118.509 13.7009 117.559 14.1842 116.615 14.7114C114.339 15.422 111.721 16.0845 108.247 16.8158V18.3689C108.627 18.4453 109.044 18.5153 109.503 18.5817Z" fill="#3C4241"/>
<path d="M86.4911 129.249L86.4547 129.747L86.4147 129.745L86.3757 129.735L86.4911 129.249ZM77.7048 120.419L78.2031 120.46L78.1942 120.568L78.1414 120.663L77.7048 120.419ZM103.227 123.755L102.747 123.614L102.793 123.457L102.923 123.357L103.227 123.755ZM104.9 116.691L105.269 116.353L105.368 116.46L105.393 116.605L104.9 116.691ZM82.7254 114.336L82.4461 113.921L82.4841 113.896L82.5262 113.878L82.7254 114.336ZM76.4495 118.064L76.0136 117.819L76.0211 117.806L76.0294 117.793L76.4495 118.064ZM79.2083 117.083L79.5651 117.433L79.5651 117.433L79.2083 117.083ZM82.7254 133.565L82.6907 134.064L82.6347 134.06L82.5809 134.044L82.7254 133.565ZM105.737 126.698L106.199 126.89L106.18 126.935L106.153 126.976L105.737 126.698ZM76.4495 120.419L76.8866 120.662L76.8605 120.709L76.8251 120.749L76.4495 120.419ZM76.8855 119.634L76.9253 119.136L76.8855 119.634ZM77.2086 117.083L77.5578 117.441L77.5578 117.441L77.2086 117.083ZM76.4495 111L76.5199 110.505L76.5842 110.514L76.6441 110.54L76.4495 111ZM80.6335 111.393L80.9756 111.757L80.9088 111.82L80.8242 111.855L80.6335 111.393ZM102.482 114.336L102.159 114.717L102.482 114.336ZM104.9 110.804L105.047 110.326L106.474 110.764L105.071 111.274L104.9 110.804ZM79.2083 120.223L78.8026 119.93L78.8106 119.919L78.8192 119.909L79.2083 120.223ZM102.482 123.362L102.936 123.572L102.891 123.67L102.809 123.741L102.482 123.362ZM81.4703 86.8656L81.7857 87.2535L81.7681 87.2679L81.7492 87.2806L81.4703 86.8656ZM122.891 93.537L122.594 93.9391L122.414 93.8063L122.393 93.5838L122.891 93.537ZM123.069 99.8159L122.697 99.4822L123.069 99.8159ZM125.608 79.6039H126.108V79.7353L126.043 79.8498L125.608 79.6039ZM126.657 71.5606L126.189 71.7363L126.171 71.6898L126.163 71.6408L126.657 71.5606ZM127.912 69.7946L128.32 70.0839L128.204 70.2465L128.009 70.2851L127.912 69.7946ZM81.4703 67.8324L80.9973 67.9945L80.9525 67.8636L80.9813 67.7283L81.4703 67.8324ZM81.4703 77.0547L81.0348 77.3002L80.9387 77.1298L80.9838 76.9394L81.4703 77.0547ZM106.992 48.7993L106.779 48.3468L106.785 48.3443L106.992 48.7993ZM90.8041 57.6291L91.0917 58.0381L91.0569 58.0625L91.0186 58.0808L90.8041 57.6291ZM125.82 28.9813L125.322 29.024L125.306 28.8402L125.413 28.6903L125.82 28.9813ZM142.556 12.6952L143.047 12.6L143.089 12.8175L142.956 12.9948L142.556 12.6952ZM134.606 19.2946L134.274 18.9213L134.317 18.8828L134.368 18.8552L134.606 19.2946ZM142.137 10.5368L141.646 10.6319L141.53 10.0331L142.14 10.0368L142.137 10.5368ZM142.556 35.064L142.061 35.1363L142.05 35.0608L142.062 34.9854L142.556 35.064ZM148.832 20.3477L148.436 20.0414L148.465 20.0044L148.5 19.9734L148.832 20.3477ZM137.535 47.622L137.204 47.247L137.244 47.2118L137.29 47.1858L137.535 47.622ZM133.976 50.7615L133.645 50.3865L133.645 50.3865L133.976 50.7615ZM125.559 34.0829L126.042 34.2125L125.559 34.0829ZM122.044 32.317L121.806 32.7567L121.737 32.7195L121.683 32.6632L122.044 32.317ZM118.023 28.7851L118.221 28.3257L118.281 28.3516L118.333 28.3921L118.023 28.7851ZM110.156 24.0758L109.831 24.4561L109.765 24.3991L109.721 24.3227L110.156 24.0758ZM109.503 18.5817L109.574 18.0869L110.368 18.2017L109.916 18.8637L109.503 18.5817ZM108.247 16.8158H107.747V16.4101L108.144 16.3265L108.247 16.8158ZM125.559 11.1254L125.949 10.8119L126.051 10.9391L126.059 11.1021L125.559 11.1254ZM116.615 14.7114L116.859 15.1479L116.814 15.1732L116.764 15.1887L116.615 14.7114ZM119.544 13.2417L119.341 12.7846L119.425 12.7477L119.516 12.7425L119.544 13.2417ZM111.176 10.1444L111.016 9.67055L111.071 9.65208L111.129 9.6466L111.176 10.1444ZM94.8589 12.6952L94.7521 12.2067L94.8077 12.1946L94.8647 12.1952L94.8589 12.6952ZM91.5117 18.3689L91.3959 18.8553L91.2677 18.8248L91.1712 18.7351L91.5117 18.3689ZM98.206 16.0309L98.1288 16.5249L98.0531 16.5131L97.9844 16.4791L98.206 16.0309ZM100.716 16.4233L100.794 15.9293L101.029 15.9661L101.149 16.172L100.716 16.4233ZM94.4405 20.7401L94.1184 21.1226L93.7257 20.7919L94.0667 20.4081L94.4405 20.7401ZM94.0221 18.5817L93.9071 18.0951L94.0675 18.0572L94.2189 18.1221L94.0221 18.5817ZM100.298 27.2153L100.723 26.9521L100.842 27.1444L100.776 27.3609L100.298 27.2153ZM105.737 36.0451L105.461 36.462L105.451 36.4554L105.441 36.4483L105.737 36.0451ZM112.85 40.7543L112.833 41.2541L112.691 41.2492L112.574 41.1713L112.85 40.7543ZM49.6724 91.1823L49.7438 90.6875L49.7521 90.6887L49.7604 90.6901L49.6724 91.1823ZM40.4678 95.3029L40.5738 94.8143L40.6358 94.8277L40.6924 94.8562L40.4678 95.3029ZM15.7826 83.9223L15.7591 83.4228L15.9218 83.4152L16.0578 83.5048L15.7826 83.9223ZM43.3965 88.4353L42.9431 88.6459L42.8495 88.4444L42.9363 88.2399L43.3965 88.4353ZM15.7826 78.0357L15.4573 78.4155L15.1672 78.1669L15.3308 77.8217L15.7826 78.0357ZM19.9665 76.8584L20.1278 76.3851L20.311 76.4475L20.4044 76.617L19.9665 76.8584ZM12.0171 79.6055L11.5376 79.7473L11.4648 79.5013L11.6222 79.2988L12.0171 79.6055ZM16.201 78.8206L16.1394 79.3168L16.1202 79.3144L16.1013 79.3106L16.201 78.8206ZM16.7584 78.8898L17.0944 78.5195L17.0944 78.5195L16.7584 78.8898ZM11.5987 83.3336L11.3964 82.8764L11.5762 82.7968L11.762 82.8611L11.5987 83.3336ZM7.83314 80.979L7.34076 81.066L7.29298 80.7955L7.49566 80.6101L7.83314 80.979ZM12.1417 79.9979L12.6148 79.836L12.1417 79.9979ZM10.4598 83.2195L10.6204 82.746L10.6204 82.746L10.4598 83.2195ZM3.64921 83.7261L3.69841 84.2236L3.54144 84.2392L3.40398 84.1618L3.64921 83.7261ZM1.55724 82.5488L1.79094 82.1065L1.80246 82.113L1.55724 82.5488ZM3.23081 81.7639L3.32711 81.2732L3.35512 81.2787L3.38232 81.2874L3.23081 81.7639ZM8.0296 81.4822L7.82258 81.0271L8.23001 80.8417L8.45913 81.2262L8.0296 81.4822ZM109.502 111.785L109.294 111.331L110.089 110.967L110 111.836L109.502 111.785ZM105.319 111.785V111.285H105.438L105.544 111.339L105.319 111.785ZM151.342 115.121L151.409 115.616L151.323 115.628L151.237 115.61L151.342 115.121ZM158.036 109.823L158.09 109.326L158.18 109.336L158.261 109.376L158.036 109.823ZM158.873 116.298L158.633 116.737L158.593 116.715L158.557 116.685L158.873 116.298ZM164.73 111.197L164.732 110.697L164.781 110.697L164.83 110.707L164.73 111.197ZM24.4564 81.5677L24.3232 82.0496L24.4564 81.5677ZM26.2423 77.0547L26.7401 77.1017L26.7176 77.3389L26.5194 77.4709L26.2423 77.0547ZM22.0584 76.2698L21.822 75.8292L21.9056 75.7843L21.9998 75.7732L22.0584 76.2698ZM169.751 122.97L169.252 122.944L169.258 122.824L169.318 122.72L169.751 122.97ZM180.629 130.622L180.795 131.094L180.736 131.115L180.673 131.12L180.629 130.622ZM183.976 121.204L184.14 120.731L184.25 120.769L184.333 120.853L183.976 121.204ZM125.404 11.7141L124.981 11.4466L124.981 11.4466L125.404 11.7141ZM119.126 7.98596V7.48596H119.134L119.142 7.48623L119.126 7.98596ZM110.339 7.98596L110.153 7.52182L110.243 7.48596H110.339V7.98596ZM92.3484 10.9292L92.2668 10.4359L92.3102 10.4287L92.3542 10.4293L92.3484 10.9292ZM85.6541 14.4611L85.2529 14.7595L85.0385 14.4712L85.2433 14.1761L85.6541 14.4611ZM143.778 10.5518L143.772 11.0518L143.772 11.0518L143.778 10.5518ZM149.668 8.57461L150.027 8.2259L150.943 9.16799L149.632 9.07331L149.668 8.57461ZM155.107 9.75192L155.571 9.56513L155.602 9.64105L155.606 9.72275L155.107 9.75192ZM161.802 12.6952L162.047 13.1309L161.954 13.1829L161.849 13.193L161.802 12.6952ZM171.425 11.1254L171.623 11.5843L171.519 11.6294L171.405 11.6251L171.425 11.1254ZM178.119 10.5368L178.104 11.0366L178.082 11.0359L178.06 11.0333L178.119 10.5368ZM176.445 6.80865L176.276 7.2791L176.231 7.26274L176.189 7.23799L176.445 6.80865ZM171.843 4.0616L172.048 3.60551L172.074 3.6174L172.099 3.63227L171.843 4.0616ZM165.149 3.86538L164.927 3.41731L164.976 3.39293L165.029 3.37983L165.149 3.86538ZM160.965 3.66916L161.012 3.17138L161.049 3.1749L161.085 3.18392L160.965 3.66916ZM153.015 4.0616L153.127 4.54898L153.098 4.55562L153.068 4.55878L153.015 4.0616ZM151.342 2.29563L151.101 1.85728L151.138 1.83696L151.178 1.82314L151.342 2.29563ZM161.383 1.51077L161.477 1.01967L161.557 1.03498L161.628 1.07493L161.383 1.51077ZM165.567 1.70698L165.365 1.24951L165.374 1.24588L165.382 1.24254L165.567 1.70698ZM173.517 2.29563V2.79563H173.42L173.33 2.75935L173.517 2.29563ZM186.068 7.98596L186.281 7.53327L186.605 7.68558L186.565 8.04202L186.068 7.98596ZM99.7745 120.615L99.7069 121.11L99.7745 120.615ZM86.3757 129.735C84.0915 129.194 82.2109 128.668 80.7195 128.106C79.2345 127.547 78.0939 126.935 77.3241 126.201C76.5349 125.447 76.1402 124.567 76.1572 123.529C76.1737 122.522 76.577 121.414 77.2682 120.175L78.1414 120.663C77.4819 121.844 77.1696 122.78 77.1571 123.545C77.1451 124.279 77.408 124.898 78.0146 125.477C78.6405 126.075 79.6338 126.629 81.0722 127.171C82.5042 127.71 84.3365 128.224 86.6065 128.762L86.3757 129.735ZM86.5275 128.75C92.1285 129.159 95.8328 129.103 98.321 128.324C99.5493 127.94 100.463 127.384 101.161 126.631C101.862 125.875 102.372 124.892 102.747 123.614L103.706 123.895C103.302 125.275 102.73 126.41 101.895 127.311C101.057 128.214 99.9821 128.852 98.6198 129.279C95.9268 130.122 92.0423 130.155 86.4547 129.747L86.5275 128.75ZM77.2065 120.378C77.2297 120.097 77.2585 119.821 77.3055 119.549L78.2909 119.719C78.2512 119.949 78.2254 120.191 78.2031 120.46L77.2065 120.378ZM77.3055 119.549C77.4693 118.599 77.8466 117.756 78.8515 116.733L79.5651 117.433C78.6923 118.322 78.4178 118.984 78.2909 119.719L77.3055 119.549ZM78.8515 116.733C79.6188 115.951 80.7558 115.06 82.4461 113.921L83.0048 114.751C81.3325 115.877 80.2614 116.724 79.5651 117.433L78.8515 116.733ZM82.7601 133.067C88.3218 133.454 92.5933 133.812 96.1806 133.06C99.7113 132.319 102.593 130.495 105.322 126.42L106.153 126.976C103.294 131.244 100.199 133.238 96.3859 134.038C92.6291 134.826 88.1883 134.447 82.6907 134.064L82.7601 133.067ZM82.5809 134.044C80.2924 133.353 78.2502 132.721 76.6066 132.024C74.9739 131.332 73.6554 130.546 72.8842 129.507C72.0811 128.424 71.9185 127.133 72.4477 125.584C72.9658 124.067 74.1532 122.274 76.074 120.089L76.8251 120.749C74.9304 122.904 73.8478 124.578 73.394 125.907C72.9511 127.204 73.1144 128.138 73.6874 128.911C74.2924 129.727 75.4004 130.427 76.9967 131.103C78.5822 131.775 80.5717 132.393 82.8699 133.087L82.5809 134.044ZM77.821 120.133C77.4578 120.15 77.1274 120.155 76.8457 120.132L76.9253 119.136C77.143 119.153 77.4231 119.151 77.7753 119.135L77.821 120.133ZM76.8457 120.132C76.6017 120.113 76.3546 120.07 76.1427 119.971C75.9148 119.864 75.7122 119.683 75.6214 119.401C75.5382 119.144 75.5739 118.876 75.6455 118.635C75.7187 118.39 75.8461 118.118 76.0136 117.819L76.8855 118.309C76.7346 118.578 76.6468 118.777 76.6039 118.921C76.5595 119.07 76.5782 119.11 76.5731 119.094C76.5604 119.055 76.5308 119.049 76.5671 119.066C76.6193 119.09 76.7273 119.12 76.9253 119.136L76.8457 120.132ZM76.0124 120.176L76.4484 119.391L77.3226 119.877L76.8866 120.662L76.0124 120.176ZM102.923 123.357C103.522 122.9 103.937 122.463 104.218 121.977C104.497 121.493 104.661 120.929 104.709 120.19L105.707 120.255C105.651 121.115 105.455 121.835 105.084 122.477C104.716 123.115 104.193 123.645 103.53 124.152L102.923 123.357ZM104.709 120.19C104.765 119.325 104.662 118.234 104.408 116.777L105.393 116.605C105.652 118.087 105.771 119.27 105.707 120.255L104.709 120.19ZM105.276 126.506C106.13 124.454 106.464 123.195 106.39 122.351C106.355 121.954 106.23 121.658 106.021 121.407C105.803 121.147 105.474 120.909 104.989 120.672L105.427 119.773C105.979 120.043 106.446 120.356 106.788 120.766C107.139 121.186 107.335 121.679 107.386 122.264C107.484 123.383 107.047 124.855 106.199 126.89L105.276 126.506ZM76.0294 117.793C76.3176 117.347 76.5884 116.99 76.8593 116.725L77.5578 117.441C77.3637 117.63 77.1397 117.917 76.8696 118.335L76.0294 117.793ZM76.8593 116.725C77.2522 116.342 77.6798 116.122 78.1794 116.146C78.6396 116.167 79.071 116.396 79.4821 116.665L78.9345 117.502C78.5452 117.247 78.3067 117.153 78.1321 117.145C77.997 117.138 77.8249 117.18 77.5578 117.441L76.8593 116.725ZM76.7124 117.145L75.9534 111.062L76.9457 110.938L77.7047 117.021L76.7124 117.145ZM76.6441 110.54C77.5075 110.904 78.1163 111.132 78.6825 111.208C79.2239 111.28 79.7517 111.216 80.4429 110.931L80.8242 111.855C79.9963 112.196 79.2912 112.298 78.55 112.199C77.8336 112.104 77.1098 111.822 76.255 111.461L76.6441 110.54ZM80.2915 111.028C80.3782 110.947 80.4832 110.887 80.5586 110.848C80.6424 110.804 80.7343 110.764 80.8198 110.728C81.0166 110.645 81.1452 110.599 81.2641 110.545L81.6766 111.456C81.5546 111.511 81.3346 111.596 81.2081 111.649C81.1319 111.681 81.0685 111.71 81.0199 111.735C80.9629 111.765 80.9586 111.773 80.9756 111.757L80.2915 111.028ZM86.6627 113.287C85.4997 113.712 84.2584 114.215 82.9246 114.795L82.5262 113.878C83.8733 113.292 85.1334 112.781 86.3194 112.348L86.6627 113.287ZM102.159 114.717C99.9496 112.842 97.8285 111.865 95.4136 111.652C92.9809 111.438 90.199 111.995 86.6627 113.287L86.3194 112.348C89.912 111.035 92.8556 110.423 95.5013 110.656C98.1647 110.891 100.475 111.976 102.806 113.955L102.159 114.717ZM79.6141 120.515C79.528 120.634 79.5355 120.702 79.5609 120.767C79.6005 120.869 79.7205 121.025 79.9918 121.208C80.5286 121.571 81.4558 121.9 82.6123 122.093C84.9258 122.478 87.9024 122.275 89.9926 120.975L90.5206 121.825C88.1483 123.3 84.8957 123.487 82.4481 123.079C81.2241 122.876 80.1378 122.513 79.4326 122.037C79.0828 121.802 78.7746 121.503 78.6294 121.131C78.47 120.723 78.5361 120.3 78.8026 119.93L79.6141 120.515ZM90.6075 121.044C90.9031 121.335 91.1556 121.459 91.4783 121.496C91.8376 121.538 92.3161 121.478 93.0742 121.305L93.2965 122.28C92.5318 122.454 91.9066 122.553 91.3625 122.49C90.782 122.422 90.3314 122.176 89.9056 121.756L90.6075 121.044ZM93.6663 121.656C93.8283 122.226 94.2683 122.714 94.9436 123.1C95.6187 123.485 96.4906 123.744 97.4236 123.863C98.3544 123.983 99.3201 123.96 100.17 123.802C101.029 123.643 101.724 123.355 102.156 122.983L102.809 123.741C102.19 124.273 101.303 124.61 100.352 124.786C99.3934 124.963 98.323 124.987 97.2966 124.855C96.2725 124.724 95.2662 124.435 94.4477 123.968C93.6296 123.501 92.9607 122.831 92.7044 121.929L93.6663 121.656ZM76.3792 111.495C73.8059 111.13 71.7489 110.825 70.187 110.255C68.5905 109.673 67.4611 108.796 66.7879 107.279L67.702 106.873C68.2394 108.085 69.1218 108.802 70.5297 109.316C71.9721 109.842 73.9121 110.135 76.5199 110.505L76.3792 111.495ZM67.319 106.582C69.7246 106.942 71.5572 107.072 72.8693 106.938C74.1962 106.802 74.8419 106.413 75.1103 105.888C75.3951 105.33 75.37 104.415 74.8223 102.949C74.2842 101.508 73.2897 99.6598 71.8412 97.3331L72.6901 96.8046C74.1473 99.1452 75.185 101.062 75.7591 102.599C76.3235 104.11 76.4905 105.384 76.0007 106.343C75.4945 107.333 74.3989 107.786 72.9712 107.933C71.5286 108.08 69.5933 107.933 67.1709 107.57L67.319 106.582ZM71.8223 96.8378C73.0031 94.5723 74.0659 92.8276 75.4825 91.2189C76.8988 89.6103 78.6513 88.1573 81.1915 86.4505L81.7492 87.2806C79.2493 88.9602 77.5724 90.3585 76.233 91.8797C74.8937 93.4008 73.8742 95.0645 72.7091 97.3L71.8223 96.8378ZM80.4723 90.7091C81.8185 90.2505 83.8369 90.1387 86.0409 90.2634C88.2613 90.389 90.7302 90.7585 93.0105 91.3029C95.2845 91.8458 97.4026 92.57 98.9048 93.4188C99.6537 93.8419 100.283 94.3145 100.696 94.839C101.117 95.3729 101.338 95.9981 101.172 96.6699L100.201 96.4286C100.272 96.1424 100.202 95.828 99.9107 95.4578C99.6117 95.0784 99.1083 94.6824 98.4129 94.2895C97.0268 93.5063 95.0108 92.8085 92.7783 92.2755C90.552 91.7441 88.142 91.3838 85.9844 91.2618C83.8103 91.1388 81.9516 91.2615 80.7948 91.6556L80.4723 90.7091ZM85.0208 89.3574C85.5509 89.1049 87.2182 88.5652 89.0528 88.0657C90.8967 87.5637 92.9937 87.0793 94.3968 86.9561L94.4842 87.9523C93.1774 88.067 91.155 88.5298 89.3155 89.0306C87.4669 89.5339 85.8868 90.0525 85.4509 90.2602L85.0208 89.3574ZM84.2095 88.3651C88.3167 86.6818 90.6536 85.8833 94.7996 85.388L94.9182 86.3809C90.8976 86.8613 88.6544 87.6241 84.5887 89.2904L84.2095 88.3651ZM122.522 99.6745C122.582 99.6096 122.64 99.5455 122.697 99.4822L123.441 100.15C123.382 100.216 123.322 100.282 123.26 100.35L122.522 99.6745ZM122.697 99.4822C123.979 98.0508 124.48 97.1193 124.463 96.3753C124.446 95.6693 123.949 94.9398 122.594 93.9391L123.188 93.1348C124.565 94.1518 125.434 95.136 125.463 96.352C125.49 97.5301 124.714 98.7292 123.441 100.15L122.697 99.4822ZM124.869 105.601C124.251 105.455 123.726 105.249 123.31 104.94C122.883 104.622 122.594 104.213 122.427 103.705C122.109 102.738 122.245 101.426 122.578 99.72L123.56 99.9118C123.221 101.644 123.151 102.707 123.377 103.393C123.482 103.711 123.651 103.947 123.907 104.137C124.173 104.335 124.553 104.499 125.098 104.627L124.869 105.601ZM122.393 93.5838C122.093 90.3912 122.083 88.0621 122.509 85.9077C122.936 83.7489 123.793 81.8001 125.173 79.3579L126.043 79.8498C124.688 82.2492 123.887 84.0918 123.49 86.1016C123.092 88.1157 123.092 90.3325 123.389 93.4901L122.393 93.5838ZM125.108 79.6039C125.108 77.642 125.728 76.3696 126.134 75.274C126.338 74.7241 126.489 74.2244 126.523 73.6758C126.558 73.1327 126.481 72.514 126.189 71.7363L127.125 71.3849C127.461 72.2792 127.566 73.0392 127.521 73.7392C127.477 74.4337 127.287 75.0416 127.072 75.6218C126.64 76.7862 126.108 77.8633 126.108 79.6039H125.108ZM126.163 71.6408C126.078 71.1141 126.033 70.5573 126.322 70.1042C126.618 69.6403 127.162 69.433 127.815 69.3041L128.009 70.2851C127.393 70.4067 127.223 70.5509 127.165 70.6417C127.1 70.7432 127.063 70.9441 127.15 71.4803L126.163 71.6408ZM127.786 70.2784C113.694 66.6073 103.128 66.5143 81.5122 68.3307L81.4284 67.3342C103.081 65.5148 113.781 65.5966 128.038 69.3107L127.786 70.2784ZM81.1549 86.4776C82.7073 85.2154 83.2676 84.1069 83.2104 82.7998C83.1498 81.4162 82.4003 79.7226 81.0348 77.3002L81.9059 76.8091C83.2604 79.2119 84.137 81.1016 84.2094 82.7561C84.2852 84.4871 83.4855 85.8715 81.7857 87.2535L81.1549 86.4776ZM80.9838 76.9394C81.4114 75.1337 81.7075 73.7748 81.7532 72.4265C81.7984 71.0925 81.5982 69.7483 80.9973 67.9945L81.9433 67.6703C82.5764 69.518 82.8027 70.9841 82.7526 72.4604C82.7031 73.9224 82.3822 75.3738 81.9569 77.1699L80.9838 76.9394ZM80.9813 67.7283C81.4565 65.4959 82.3482 63.5642 83.8935 61.8306C85.4329 60.1038 87.5997 58.5971 90.5896 57.1774L91.0186 58.0808C88.1016 59.4658 86.061 60.9019 84.64 62.496C83.225 64.0834 82.4033 65.851 81.9594 67.9365L80.9813 67.7283ZM90.5165 57.2201C94.3311 54.538 99.4675 51.787 106.779 48.3468L107.205 49.2517C99.9049 52.6864 94.8328 55.4076 91.0917 58.0381L90.5165 57.2201ZM125.413 28.6903C127.852 25.2825 130.107 22.6347 134.274 18.9213L134.939 19.6679C130.829 23.3303 128.624 25.9226 126.227 29.2723L125.413 28.6903ZM134.368 18.8552C137.77 17.0088 140.258 14.9305 142.155 12.3956L142.956 12.9948C140.957 15.6656 138.349 17.8321 134.845 19.7341L134.368 18.8552ZM142.065 12.7903L141.646 10.6319L142.628 10.4416L143.047 12.6L142.065 12.7903ZM142.14 10.0368C147.449 10.0691 151.116 10.2314 153.535 10.7338C154.747 10.9854 155.692 11.3309 156.381 11.8217C157.089 12.3252 157.512 12.9704 157.688 13.7648L156.711 13.9802C156.591 13.4338 156.312 12.9998 155.802 12.6366C155.273 12.2607 154.483 11.9519 153.332 11.7129C151.026 11.234 147.458 11.0691 142.134 11.0368L142.14 10.0368ZM142.062 34.9854C142.548 31.9316 143.085 29.5496 144.035 27.248C144.986 24.9446 146.34 22.7458 148.436 20.0414L149.227 20.654C147.164 23.3153 145.865 25.4357 144.959 27.6295C144.053 29.8251 143.531 32.1183 143.049 35.1427L142.062 34.9854ZM148.5 19.9734C151.366 17.4358 153.005 15.9984 156.927 13.4531L157.472 14.2919C153.609 16.7983 152.012 18.1988 149.163 20.722L148.5 19.9734ZM143.05 34.9917C143.599 38.745 143.532 41.3453 142.668 43.3565C141.796 45.3873 140.151 46.7289 137.779 48.0581L137.29 47.1858C139.597 45.8927 141.008 44.6881 141.749 42.9619C142.499 41.2161 142.603 38.8485 142.061 35.1363L143.05 34.9917ZM137.866 47.9969L134.307 51.1364L133.645 50.3865L137.204 47.247L137.866 47.9969ZM134.307 51.1364L120.293 63.4981L119.632 62.7482L133.645 50.3865L134.307 51.1364ZM127.504 69.5053C129.837 66.2169 131.487 63.648 132.48 60.8536C133.468 58.0716 133.815 55.0327 133.478 50.8013L134.474 50.7217C134.82 55.0522 134.47 58.2395 133.422 61.1883C132.379 64.1248 130.656 66.7915 128.32 70.0839L127.504 69.5053ZM122.905 38.1066C124.024 36.5591 124.709 35.3219 125.076 33.9534L126.042 34.2125C125.63 35.7483 124.868 37.0994 123.715 38.6929L122.905 38.1066ZM125.076 33.9534C125.435 32.6165 125.501 31.1153 125.322 29.024L126.318 28.9386C126.502 31.0858 126.443 32.7172 126.042 34.2125L125.076 33.9534ZM125.347 34.5356C124.082 33.9424 122.911 33.3544 121.806 32.7567L122.282 31.8772C123.368 32.4647 124.522 33.0441 125.772 33.6302L125.347 34.5356ZM121.683 32.6632C120.617 31.5518 119.299 30.4246 117.714 29.178L118.333 28.3921C119.931 29.6497 121.291 30.8101 122.405 31.9707L121.683 32.6632ZM117.826 29.2444C114.486 27.808 111.946 26.2618 109.831 24.4561L110.481 23.6956C112.504 25.4236 114.953 26.9206 118.221 28.3257L117.826 29.2444ZM109.721 24.3227C108.791 22.6848 107.509 21.3549 105.863 20.1642L106.448 19.3538C108.186 20.6099 109.576 22.0415 110.591 23.829L109.721 24.3227ZM106.219 19.2631C107.063 19.3716 107.591 19.3726 107.996 19.2428C108.372 19.1222 108.702 18.867 109.09 18.2997L109.916 18.8637C109.453 19.5405 108.961 19.9833 108.301 20.195C107.67 20.3976 106.949 20.3651 106.092 20.255L106.219 19.2631ZM109.431 19.0766C108.966 19.0092 108.54 18.9377 108.149 18.8592L108.346 17.8787C108.715 17.9528 109.122 18.0214 109.574 18.0869L109.431 19.0766ZM108.149 18.8592C106.946 18.6176 106.048 18.3056 105.328 17.8237C104.601 17.3365 104.094 16.7022 103.629 15.8859L104.498 15.391C104.916 16.1247 105.328 16.6199 105.885 16.9927C106.449 17.3707 107.202 17.6491 108.346 17.8787L108.149 18.8592ZM107.747 18.3689V16.8158H108.747V18.3689H107.747ZM108.144 16.3265C111.608 15.5972 114.21 14.9385 116.466 14.2342L116.764 15.1887C114.468 15.9055 111.833 16.5717 108.35 17.305L108.144 16.3265ZM116.371 14.2749C117.327 13.7412 118.29 13.2508 119.341 12.7846L119.747 13.6988C118.727 14.1509 117.791 14.6271 116.859 15.1479L116.371 14.2749ZM125.17 11.439C124.695 10.8488 123.769 10.3816 121.604 10.21C119.452 10.0395 116.199 10.1689 111.224 10.6421L111.129 9.6466C116.109 9.17291 119.437 9.03521 121.683 9.21316C123.916 9.39006 125.204 9.88683 125.949 10.8119L125.17 11.439ZM111.336 10.6182C105.152 12.7028 101.549 13.2728 94.8531 13.1952L94.8647 12.1952C101.45 12.2716 104.941 11.7187 111.016 9.67055L111.336 10.6182ZM94.9657 13.1836C93.7438 13.4509 92.7222 13.6937 91.8958 13.9369C91.0633 14.1819 90.4612 14.4183 90.0603 14.6619C89.6577 14.9066 89.5358 15.11 89.508 15.2634C89.4784 15.4271 89.5253 15.6968 89.8311 16.139L89.0085 16.7077C88.6447 16.1814 88.4246 15.6347 88.524 15.0853C88.6253 14.5254 89.0287 14.1187 89.541 13.8073C90.0552 13.4949 90.7578 13.2294 91.6135 12.9776C92.4753 12.724 93.5253 12.4751 94.7521 12.2067L94.9657 13.1836ZM89.7603 16.0572L91.8523 18.0028L91.1712 18.7351L89.0793 16.7895L89.7603 16.0572ZM91.1204 18.0577C92.2092 16.6889 93.163 15.6079 94.2979 15.1162C95.4905 14.5995 96.778 14.7669 98.4277 15.5827L97.9844 16.4791C96.4671 15.7288 95.5079 15.6817 94.6954 16.0338C93.8251 16.4108 93.0153 17.2819 91.9031 18.6802L91.1204 18.0577ZM98.2833 15.5369L100.794 15.9293L100.639 16.9173L98.1288 16.5249L98.2833 15.5369ZM101.149 16.172L102.404 18.3304L101.539 18.8331L100.284 16.6747L101.149 16.172ZM102.018 19.0796C98.2739 19.4263 96.7118 19.885 94.7093 21.1617L94.1717 20.3185C96.3612 18.9226 98.1001 18.4381 101.925 18.0839L102.018 19.0796ZM94.0667 20.4081C94.2809 20.1669 94.436 19.9801 94.5363 19.8225C94.639 19.6612 94.6446 19.5905 94.6439 19.5743C94.6438 19.5704 94.6435 19.5637 94.6349 19.5482C94.6247 19.5297 94.5998 19.494 94.5421 19.4431C94.421 19.3364 94.2012 19.2023 93.8253 19.0414L94.2189 18.1221C94.6309 18.2985 94.9644 18.4824 95.2033 18.6929C95.452 18.9121 95.628 19.1885 95.643 19.5305C95.6569 19.8489 95.5253 20.1311 95.3799 20.3595C95.2321 20.5916 95.0284 20.8312 94.8143 21.0722L94.0667 20.4081ZM94.1371 19.0683C93.1194 19.3088 92.4765 19.1127 91.3959 18.8553L91.6276 17.8825C92.7579 18.1517 93.161 18.2714 93.9071 18.0951L94.1371 19.0683ZM94.7626 20.3577C97.4885 22.6533 98.9232 24.0455 100.723 26.9521L99.8729 27.4785C98.1505 24.697 96.8028 23.3831 94.1184 21.1226L94.7626 20.3577ZM106.013 35.6282L113.126 40.3374L112.574 41.1713L105.461 36.462L106.013 35.6282ZM106.785 48.3443C109.02 47.326 110.932 46.4265 112.623 45.5648L113.077 46.4557C111.367 47.3274 109.439 48.2339 107.2 49.2543L106.785 48.3443ZM112.623 45.5648C117.001 43.3329 119.881 41.3572 122.954 38.2447L123.665 38.9472C120.5 42.1527 117.527 44.1872 113.077 46.4557L112.623 45.5648ZM112.867 40.2546C113.157 40.2646 113.367 40.4314 113.499 40.587C113.632 40.7446 113.731 40.9426 113.807 41.1448C113.96 41.553 114.055 42.0856 114.085 42.6558C114.144 43.7874 113.95 45.2115 113.272 46.2785L112.428 45.7421C112.954 44.9146 113.139 43.7238 113.086 42.7076C113.06 42.2039 112.977 41.7793 112.871 41.4956C112.817 41.3519 112.767 41.2702 112.735 41.2329C112.702 41.1937 112.732 41.2506 112.833 41.2541L112.867 40.2546ZM72.0958 97.5391C64.4902 94.7913 59.6608 93.4745 49.5845 91.6746L49.7604 90.6901C59.8858 92.4989 64.7707 93.8294 72.4356 96.5986L72.0958 97.5391ZM67.0674 107.543C56.5117 103.533 50.63 100.971 40.2432 95.7496L40.6924 94.8562C51.0475 100.062 56.8978 102.61 67.4225 106.609L67.0674 107.543ZM40.3618 95.7915C30.7505 93.7059 25.268 90.7749 15.5074 84.3397L16.0578 83.5048C25.7717 89.9092 31.1351 92.766 40.5738 94.8143L40.3618 95.7915ZM49.6011 91.6772C48.1016 91.4609 46.6897 91.2117 45.5423 90.7795C44.3916 90.346 43.4331 89.7009 42.9431 88.6459L43.85 88.2247C44.1837 88.9431 44.8633 89.4551 45.8948 89.8437C46.9295 90.2334 48.2436 90.4711 49.7438 90.6875L49.6011 91.6772ZM15.3308 77.8217C15.7387 76.9605 16.2217 76.2793 17.0567 76.018C17.85 75.7698 18.8369 75.9454 20.1278 76.3851L19.8053 77.3317C18.5256 76.8958 17.8144 76.8287 17.3553 76.9724C16.938 77.103 16.6142 77.4483 16.2345 78.2498L15.3308 77.8217ZM11.6222 79.2988C12.0444 78.7552 12.5064 78.3225 13.2773 78.146C14.0013 77.9803 14.9445 78.0547 16.3007 78.3307L16.1013 79.3106C14.7624 79.0381 14.001 79.0063 13.5004 79.1208C13.0468 79.2246 12.7644 79.4585 12.4119 79.9122L11.6222 79.2988ZM18.6622 82.3335C18.1741 81.0454 17.5434 80.2772 16.4224 79.26L17.0944 78.5195C18.284 79.5989 19.0339 80.4925 19.5973 81.9791L18.6622 82.3335ZM16.4224 79.26C16.1343 78.9987 15.8152 78.722 15.4573 78.4155L16.1079 77.656C16.4672 77.9638 16.7953 78.2481 17.0944 78.5195L16.4224 79.26ZM16.2625 78.3244L16.8199 78.3936L16.6968 79.386L16.1394 79.3168L16.2625 78.3244ZM11.8009 83.7909C11.6076 83.8764 11.3948 83.8926 11.208 83.8842C11.0143 83.8756 10.8068 83.8385 10.5986 83.7836C10.182 83.6736 9.71853 83.4802 9.27957 83.2339C8.84083 82.9877 8.40751 82.678 8.06112 82.325C7.7207 81.978 7.42629 81.5502 7.34076 81.066L8.32551 80.892C8.3616 81.0963 8.50439 81.3489 8.77494 81.6246C9.03952 81.8943 9.39094 82.1497 9.76888 82.3618C10.1466 82.5737 10.5317 82.7316 10.8539 82.8167C11.0151 82.8592 11.1495 82.8806 11.2525 82.8852C11.3624 82.8901 11.4012 82.8743 11.3964 82.8764L11.8009 83.7909ZM14.2071 83.5213C12.7972 82.3449 12.1384 81.5326 11.6686 80.1598L12.6148 79.836C13.0045 80.9749 13.5191 81.6449 14.8478 82.7535L14.2071 83.5213ZM11.6686 80.1598C11.6232 80.027 11.5797 79.8897 11.5376 79.7473L12.4965 79.4637C12.5352 79.5944 12.5744 79.7181 12.6148 79.836L11.6686 80.1598ZM7.49566 80.6101C8.19302 79.9722 8.83588 79.5378 9.61098 79.3554C10.3795 79.1745 11.2128 79.2569 12.2601 79.5121L12.0233 80.4837C11.0312 80.2419 10.3807 80.2016 9.84007 80.3288C9.30601 80.4545 8.8143 80.7591 8.17061 81.3479L7.49566 80.6101ZM10.5101 83.717C9.5242 83.8165 8.45227 83.8803 7.31756 83.9504C6.17926 84.0207 4.97187 84.0977 3.69841 84.2236L3.60001 83.2285C4.89377 83.1006 6.11769 83.0226 7.25589 82.9523C8.39768 82.8817 9.44746 82.8191 10.4096 82.722L10.5101 83.717ZM3.40398 84.1618L1.31202 82.9845L1.80246 82.113L3.89443 83.2903L3.40398 84.1618ZM1.32363 82.9908C1.14854 82.8983 0.994779 82.7994 0.869761 82.6926C0.748858 82.5894 0.628331 82.4565 0.558679 82.2892C0.48192 82.1048 0.472866 81.887 0.577453 81.6834C0.671818 81.4997 0.82811 81.3877 0.961985 81.32C1.22521 81.187 1.57843 81.1355 1.95156 81.1306C2.33933 81.1256 2.80431 81.1706 3.32711 81.2732L3.13452 82.2545C2.66385 82.1621 2.26911 82.1266 1.96458 82.1305C1.6454 82.1347 1.47372 82.1819 1.41312 82.2125C1.38508 82.2267 1.42974 82.2128 1.46694 82.1404C1.51437 82.048 1.50263 81.9547 1.48187 81.9048C1.46822 81.872 1.46239 81.8837 1.51907 81.9321C1.57164 81.977 1.65836 82.0367 1.79085 82.1067L1.32363 82.9908ZM3.38232 81.2874C4.18481 81.5426 4.8189 81.6813 5.47846 81.6622C6.13528 81.6432 6.8572 81.4662 7.82258 81.0271L8.23661 81.9373C7.19153 82.4127 6.33623 82.6378 5.50736 82.6618C4.68123 82.6857 3.92116 82.5081 3.0793 82.2404L3.38232 81.2874ZM11.762 82.8611C13.1867 83.3536 14.0205 83.5047 15.7591 83.4228L15.8061 84.4217C13.9358 84.5098 12.9753 84.3386 11.4353 83.8062L11.762 82.8611ZM118.421 112.552C118.898 112.22 119.358 111.911 119.796 111.617C120.235 111.322 120.649 111.044 121.039 110.772C121.822 110.227 122.487 109.72 123.022 109.183C123.553 108.65 123.948 108.096 124.196 107.459C124.443 106.824 124.555 106.079 124.485 105.152L125.482 105.076C125.562 106.129 125.437 107.026 125.127 107.822C124.818 108.617 124.333 109.284 123.73 109.889C123.131 110.49 122.407 111.038 121.611 111.593C121.212 111.871 120.79 112.154 120.353 112.447C119.916 112.741 119.462 113.046 118.993 113.373L118.421 112.552ZM118.746 113.461C115.791 113.692 113.393 113.891 111.764 113.779C110.957 113.723 110.255 113.588 109.758 113.284C109.499 113.125 109.284 112.913 109.148 112.635C109.011 112.357 108.973 112.051 109.005 111.734L110 111.836C109.982 112.007 110.008 112.118 110.045 112.195C110.083 112.271 110.151 112.352 110.281 112.431C110.561 112.603 111.057 112.728 111.833 112.781C113.368 112.887 115.672 112.699 118.668 112.464L118.746 113.461ZM109.711 112.24C108.934 112.596 108.185 112.807 107.417 112.817C106.645 112.827 105.888 112.633 105.093 112.231L105.544 111.339C106.22 111.681 106.82 111.824 107.404 111.817C107.993 111.809 108.601 111.648 109.294 111.331L109.711 112.24ZM101.983 114.317C102.024 113.203 102.103 112.223 102.844 111.441L103.57 112.129C103.119 112.605 103.025 113.208 102.982 114.355L101.983 114.317ZM102.844 111.441C103.273 110.989 103.886 110.641 104.729 110.334L105.071 111.274C104.298 111.555 103.847 111.837 103.57 112.129L102.844 111.441ZM104.532 117.029C104.394 116.878 104.256 116.731 104.119 116.587L104.844 115.898C104.985 116.046 105.127 116.198 105.269 116.353L104.532 117.029ZM104.119 116.587C103.452 115.885 102.802 115.263 102.159 114.717L102.806 113.955C103.481 114.528 104.157 115.175 104.844 115.898L104.119 116.587ZM105.319 112.285H104.9V111.285H105.319V112.285ZM104.9 112.285H103.207V111.285H104.9V112.285ZM104.03 116.029C104.44 115.162 104.684 114.547 104.761 113.954C104.835 113.379 104.756 112.785 104.435 111.968L105.366 111.602C105.731 112.532 105.854 113.298 105.753 114.082C105.654 114.846 105.346 115.586 104.934 116.457L104.03 116.029ZM118.706 112.463C134.495 112.418 142.375 112.689 151.447 114.632L151.237 115.61C142.281 113.692 134.498 113.418 118.709 113.463L118.706 112.463ZM125.072 104.622C137.575 106.892 144.83 107.893 158.09 109.326L157.982 110.32C144.703 108.885 137.424 107.881 124.894 105.606L125.072 104.622ZM151.274 114.626C152.519 114.456 154.235 114.576 155.734 114.823C156.488 114.947 157.204 115.106 157.793 115.283C158.36 115.453 158.882 115.66 159.189 115.911L158.557 116.685C158.417 116.572 158.068 116.41 157.506 116.241C156.967 116.079 156.295 115.929 155.571 115.81C154.115 115.57 152.511 115.466 151.409 115.616L151.274 114.626ZM158.261 109.376C159.283 109.891 160.128 110.214 161.091 110.413C162.061 110.614 163.172 110.693 164.732 110.697L164.729 111.697C163.143 111.693 161.955 111.613 160.889 111.392C159.816 111.17 158.887 110.811 157.811 110.27L158.261 109.376ZM164.83 110.707C168.777 111.507 171.829 112.183 174.122 113.201C176.447 114.232 178.025 115.628 178.996 117.865L178.079 118.263C177.227 116.3 175.86 115.065 173.717 114.115C171.542 113.15 168.602 112.492 164.631 111.687L164.83 110.707ZM159.112 115.859C162.964 117.962 165.208 118.865 169.802 119.333L169.7 120.328C164.942 119.843 162.569 118.885 158.633 116.737L159.112 115.859ZM169.44 119.438C170.539 118.568 171.605 118.009 173.029 117.718C174.432 117.432 176.16 117.41 178.57 117.565L178.505 118.563C176.114 118.409 174.496 118.439 173.229 118.698C171.984 118.953 171.058 119.432 170.062 120.222L169.44 119.438ZM42.9363 88.2399C42.8576 88.4253 42.9176 88.5835 42.949 88.6449C42.9807 88.707 43.0173 88.7429 43.0253 88.7507C43.0446 88.7697 43.0503 88.7702 43.0194 88.7504C42.9649 88.7155 42.865 88.6604 42.7113 88.5845C42.409 88.4353 41.9529 88.232 41.3678 87.986C40.2004 87.4951 38.5478 86.846 36.6506 86.14C32.8547 84.7272 28.1014 83.0944 24.3232 82.0496L24.5897 81.0858C28.4074 82.1415 33.1909 83.7853 36.9994 85.2028C38.9044 85.9118 40.5709 86.5661 41.7554 87.0642C42.3462 87.3126 42.8243 87.5251 43.1539 87.6878C43.3161 87.7679 43.4564 87.8427 43.5591 87.9085C43.6068 87.9391 43.6704 87.9827 43.7257 88.0371C43.7517 88.0626 43.8009 88.1143 43.8397 88.1902C43.8781 88.2655 43.9397 88.4354 43.8568 88.6307L42.9363 88.2399ZM24.3232 82.0496C24.0791 81.9821 23.8392 81.9171 23.604 81.8548L23.8601 80.8881C24.099 80.9514 24.3424 81.0174 24.5897 81.0858L24.3232 82.0496ZM24.0786 81.8952C23.3984 81.1105 22.9092 80.289 23.2399 79.3267C23.3937 78.8794 23.7093 78.4575 24.1516 78.0329C24.5961 77.6062 25.1974 77.1496 25.9652 76.6385L26.5194 77.4709C25.773 77.9677 25.2271 78.3867 24.8441 78.7543C24.4589 79.1241 24.2668 79.4155 24.1856 79.6518C24.0464 80.0567 24.1784 80.4836 24.8342 81.2401L24.0786 81.8952ZM25.7445 77.0076C25.7564 76.8818 25.7274 76.8493 25.7122 76.8331C25.6779 76.7966 25.5723 76.7212 25.2899 76.6659C24.72 76.5543 23.7242 76.5768 22.1169 76.7663L21.9998 75.7732C23.6008 75.5844 24.7405 75.5393 25.4822 75.6846C25.8557 75.7578 26.2 75.892 26.4407 76.1481C26.7005 76.4244 26.7717 76.7674 26.7401 77.1017L25.7445 77.0076ZM23.0183 81.1862C21.623 80.1646 20.8999 79.3646 20.2283 78.3031L21.0734 77.7684C21.6707 78.7126 22.3032 79.4232 23.6091 80.3794L23.0183 81.1862ZM20.2283 78.3031C19.9957 77.9355 19.771 77.5394 19.5287 77.0998L20.4044 76.617C20.6445 77.0525 20.8575 77.4271 21.0734 77.7684L20.2283 78.3031ZM22.2947 76.7104C21.7293 77.0136 21.4288 77.2179 21.2711 77.4037C21.153 77.5428 21.1035 77.6821 21.1454 77.9618L20.1563 78.1096C20.0794 77.5948 20.1734 77.1516 20.5087 76.7566C20.8042 76.4084 21.2669 76.1269 21.822 75.8292L22.2947 76.7104ZM170.014 119.405C170.357 119.616 170.635 119.857 170.819 120.152C171.009 120.458 171.076 120.787 171.049 121.129C171.024 121.457 170.913 121.79 170.764 122.123C170.615 122.457 170.413 122.823 170.184 123.22L169.318 122.72C169.545 122.327 169.724 121.999 169.851 121.715C169.979 121.429 170.04 121.216 170.052 121.051C170.064 120.9 170.036 120.788 169.97 120.681C169.897 120.563 169.756 120.421 169.488 120.256L170.014 119.405ZM170.25 122.995C170.091 126.145 170.453 128.015 171.8 129.075C172.486 129.614 173.478 129.987 174.92 130.168C176.362 130.348 178.215 130.332 180.586 130.124L180.673 131.12C178.271 131.331 176.338 131.353 174.796 131.16C173.253 130.967 172.063 130.553 171.182 129.861C169.397 128.457 169.092 126.081 169.252 122.944L170.25 122.995ZM180.463 130.15C182.087 129.579 183.413 129.057 184.415 128.514C185.426 127.966 186.035 127.434 186.314 126.88C186.574 126.361 186.587 125.735 186.185 124.87C185.775 123.988 184.953 122.908 183.62 121.554L184.333 120.853C185.691 122.233 186.609 123.41 187.092 124.449C187.583 125.505 187.643 126.463 187.207 127.329C186.789 128.16 185.959 128.815 184.892 129.393C183.815 129.977 182.425 130.521 180.795 131.094L180.463 130.15ZM183.813 121.676C182.221 121.127 181.014 120.675 180.106 120.178C179.184 119.672 178.54 119.103 178.1 118.306L178.975 117.822C179.299 118.409 179.78 118.858 180.587 119.301C181.41 119.752 182.54 120.179 184.14 120.731L183.813 121.676ZM86.067 113.082C85.9574 112.907 85.7252 112.693 85.3666 112.469C85.0175 112.252 84.5881 112.049 84.1344 111.879C83.6816 111.71 83.2163 111.579 82.7998 111.499C82.3745 111.417 82.034 111.396 81.8172 111.423L81.6907 110.431C82.0604 110.384 82.5209 110.427 82.9884 110.516C83.4647 110.608 83.9839 110.756 84.4844 110.943C84.984 111.129 85.4768 111.359 85.8958 111.621C86.3054 111.876 86.6873 112.188 86.9152 112.553L86.067 113.082ZM81.6296 110.443C89.4807 108.427 93.8527 107.925 97.0249 108.177C100.184 108.428 102.169 109.444 105.047 110.326L104.754 111.282C101.711 110.349 99.9601 109.414 96.9456 109.174C93.9438 108.935 89.703 109.402 81.8783 111.412L81.6296 110.443ZM81.8783 111.412C81.7845 111.436 81.6903 111.46 81.5955 111.484L81.3451 110.516C81.4404 110.492 81.5353 110.467 81.6296 110.443L81.8783 111.412ZM81.2641 110.545C81.4006 110.483 81.5485 110.449 81.6907 110.431L81.8172 111.423C81.7373 111.433 81.694 111.448 81.6766 111.456L81.2641 110.545ZM105.441 36.4483C102.123 34.0145 100.474 32.3776 99.7876 30.9737C99.0665 29.4976 99.4364 28.3292 99.8189 27.0723L100.776 27.3635C100.387 28.6396 100.155 29.4486 100.686 30.5347C101.252 31.693 102.708 33.2033 106.033 35.6419L105.441 36.4483ZM99.8189 27.0723L99.8197 27.0697L100.776 27.3609L100.776 27.3635L99.8189 27.0723ZM100.776 27.3609C100.776 27.3613 100.776 27.3618 100.776 27.3622C100.776 27.3627 100.776 27.3631 100.776 27.3635L99.8189 27.0723C99.819 27.0719 99.8192 27.0714 99.8193 27.071C99.8194 27.0705 99.8195 27.0701 99.8197 27.0698L100.776 27.3609ZM11.8009 83.7909C11.5666 83.8945 11.2989 83.8982 11.0696 83.8736C10.8277 83.8477 10.5642 83.7828 10.2993 83.693L10.6204 82.746C10.8379 82.8197 11.0274 82.8633 11.1762 82.8793C11.3376 82.8966 11.3982 82.8756 11.3964 82.8764L11.8009 83.7909ZM10.2993 83.693C9.70658 83.4921 9.04099 83.1434 8.49385 82.7112C7.96413 82.2929 7.45743 81.7265 7.34076 81.066L8.32551 80.892C8.37709 81.1841 8.64263 81.5545 9.11365 81.9265C9.56725 82.2847 10.1309 82.58 10.6204 82.746L10.2993 83.693ZM8.45913 81.2262C8.63442 81.5204 8.95577 81.8305 9.36382 82.1104C9.76669 82.3867 10.22 82.6102 10.6204 82.746L10.2993 83.693C9.81027 83.5272 9.27489 83.262 8.7982 82.9351C8.32669 82.6117 7.87761 82.2039 7.60007 81.7381L8.45913 81.2262ZM119.516 12.7425C121.219 12.6454 122.513 12.4758 123.435 12.2355C124.387 11.9875 124.825 11.6935 124.981 11.4466L125.826 11.9816C125.451 12.5741 124.674 12.9461 123.687 13.2032C122.671 13.4679 121.301 13.6424 119.572 13.7409L119.516 12.7425ZM124.981 11.4466C125.04 11.3541 125.065 11.2597 125.06 11.1487L126.059 11.1021C126.073 11.4162 125.996 11.7139 125.826 11.9816L124.981 11.4466ZM124.994 11.4278C125.395 10.8541 125.687 10.4198 125.814 10.0641C125.875 9.89585 125.882 9.78586 125.87 9.71363C125.86 9.65295 125.83 9.58159 125.732 9.49352C125.501 9.28685 124.967 9.05448 123.862 8.86688C122.783 8.68364 121.247 8.55548 119.109 8.48569L119.142 7.48623C121.295 7.55651 122.884 7.68643 124.03 7.881C125.149 8.0712 125.939 8.33638 126.399 8.74874C126.646 8.97018 126.804 9.23871 126.856 9.5485C126.906 9.84674 126.85 10.1378 126.756 10.4014C126.574 10.9095 126.19 11.4621 125.814 12.0004L124.994 11.4278ZM119.126 8.48596H110.339V7.48596H119.126V8.48596ZM110.525 8.45009C104.934 10.6903 101.194 11.5321 92.3426 11.4292L92.3542 10.4293C101.092 10.5308 104.699 9.70724 110.153 7.52182L110.525 8.45009ZM92.4299 11.4225C90.504 11.741 89.2545 12.0972 88.3195 12.6018C87.4008 13.0978 86.7524 13.7554 86.0649 14.7462L85.2433 14.1761C85.9882 13.1025 86.7452 12.3153 87.8445 11.7219C88.9276 11.1372 90.309 10.7596 92.2668 10.4359L92.4299 11.4225ZM86.0553 14.1628C86.5029 14.7646 86.8771 15.1352 87.3527 15.3915C87.8358 15.6519 88.4682 15.8184 89.4731 15.9262L89.3664 16.9205C88.3107 16.8072 87.5286 16.6223 86.8782 16.2718C86.2202 15.9172 85.742 15.4172 85.2529 14.7595L86.0553 14.1628ZM149.31 8.92332C149.106 8.71339 148.925 8.50153 148.805 8.28539C148.682 8.0637 148.599 7.79687 148.66 7.50465C148.72 7.21844 148.898 7.0001 149.099 6.83117C149.299 6.66278 149.561 6.50981 149.866 6.36002L150.307 7.25728C150.03 7.39379 149.852 7.50484 149.743 7.59641C149.635 7.68744 149.636 7.725 149.639 7.70884C149.644 7.68667 149.626 7.70403 149.679 7.7989C149.735 7.89931 149.842 8.03635 150.027 8.2259L149.31 8.92332ZM150.178 6.31703C151.594 6.57968 152.725 6.83401 153.602 7.29879C154.516 7.78301 155.135 8.48257 155.571 9.56513L154.644 9.93871C154.287 9.05398 153.82 8.54598 153.134 8.18243C152.411 7.79943 151.427 7.56576 149.995 7.30027L150.178 6.31703ZM155.606 9.72275C155.639 10.2762 155.765 10.6818 155.969 10.9888C156.17 11.292 156.475 11.5394 156.937 11.7323C157.895 12.132 159.432 12.2623 161.787 12.1954L161.816 13.195C159.468 13.2617 157.73 13.147 156.552 12.6551C155.946 12.4021 155.468 12.0419 155.136 11.5424C154.806 11.0467 154.648 10.4544 154.608 9.78108L155.606 9.72275ZM161.556 12.2595C164.033 10.8652 166.424 10.4325 171.444 10.6258L171.405 11.6251C166.46 11.4346 164.288 11.8692 162.047 13.1309L161.556 12.2595ZM171.226 10.6666C173.405 9.72356 175.034 9.66966 178.177 10.0402L178.06 11.0333C174.99 10.6714 173.567 10.7432 171.623 11.5843L171.226 10.6666ZM176.189 7.23799L171.587 4.49094L172.099 3.63227L176.702 6.37932L176.189 7.23799ZM171.638 4.51769C170.746 4.11697 170.046 3.87208 169.144 3.81923C168.228 3.76555 167.069 3.90832 165.268 4.35093L165.029 3.37983C166.865 2.92869 168.138 2.75857 169.203 2.82094C170.281 2.88414 171.11 3.18424 172.048 3.60551L171.638 4.51769ZM165.371 4.31345C164.92 4.53671 164.478 4.68227 163.777 4.66757C163.111 4.6536 162.215 4.49501 160.844 4.1544L161.085 3.18392C162.448 3.52254 163.252 3.65633 163.798 3.66779C164.31 3.67853 164.593 3.5826 164.927 3.41731L165.371 4.31345ZM160.918 4.16695C157.168 3.81283 155.599 3.98268 153.127 4.54898L152.904 3.57423C155.488 2.98215 157.165 2.80809 161.012 3.17138L160.918 4.16695ZM149.746 7.17504C149.505 6.95083 149.43 6.64875 149.441 6.37555C149.453 6.10769 149.545 5.83605 149.68 5.58585C149.95 5.0827 150.438 4.5694 151.086 4.1841L151.597 5.04353C151.085 5.34817 150.734 5.73543 150.561 6.05878C150.473 6.22182 150.443 6.34492 150.44 6.4177C150.437 6.48515 150.456 6.46961 150.427 6.44227L149.746 7.17504ZM151.086 4.1841C151.607 3.87435 152.24 3.64149 152.962 3.56442L153.068 4.55878C152.497 4.61971 152.002 4.8031 151.597 5.04353L151.086 4.1841ZM151.097 5.04993C150.702 4.82836 150.362 4.61257 150.113 4.39125C149.872 4.17725 149.637 3.88891 149.615 3.51334C149.591 3.12363 149.803 2.81082 150.051 2.57345C150.301 2.33364 150.659 2.0998 151.101 1.85728L151.582 2.73399C151.163 2.96425 150.896 3.1478 150.743 3.29533C150.586 3.4453 150.615 3.48978 150.613 3.45265C150.611 3.42965 150.603 3.48918 150.777 3.64368C150.943 3.79085 151.206 3.96417 151.586 4.17769L151.097 5.04993ZM151.178 1.82314C152.754 1.27774 154.034 0.815816 155.568 0.626647C157.109 0.436624 158.881 0.523233 161.477 1.01967L161.289 2.00186C158.754 1.51689 157.093 1.44622 155.691 1.61913C154.281 1.79289 153.106 2.21411 151.505 2.76813L151.178 1.82314ZM161.628 1.07493C162.374 1.49394 162.908 1.69081 163.433 1.72053C163.957 1.75019 164.533 1.61654 165.365 1.24951L165.769 2.16445C164.872 2.55999 164.127 2.76142 163.377 2.71893C162.627 2.67649 161.934 2.39397 161.138 1.9466L161.628 1.07493ZM165.382 1.24254C166.47 0.808637 167.419 0.470337 168.685 0.502078C169.934 0.533386 171.448 0.92245 173.704 1.83192L173.33 2.75935C171.109 1.8638 169.727 1.52853 168.66 1.50176C167.609 1.47543 166.821 1.74531 165.752 2.17142L165.382 1.24254ZM173.517 1.79563C173.606 1.79563 173.686 1.81965 173.708 1.8257C173.748 1.83716 173.792 1.85193 173.836 1.86774C173.926 1.8997 174.041 1.94463 174.175 1.99937C174.445 2.10937 174.812 2.2671 175.252 2.46029C176.131 2.84711 177.314 3.38182 178.609 3.97485C181.202 5.16121 184.258 6.58451 186.281 7.53327L185.856 8.43865C183.835 7.49064 180.782 6.06877 178.193 4.88416C176.899 4.29171 175.722 3.75949 174.849 3.37574C174.412 3.18364 174.054 3.03018 173.797 2.92531C173.668 2.87262 173.569 2.8342 173.5 2.80966C173.466 2.79722 173.444 2.79046 173.434 2.78745C173.404 2.77902 173.448 2.79563 173.517 2.79563V1.79563ZM178.134 10.037C179.969 10.092 181.302 10.0833 182.141 9.99605C182.572 9.95127 182.816 9.8906 182.927 9.83851C182.983 9.81225 182.946 9.81541 182.906 9.88132C182.849 9.9771 182.858 10.0809 182.88 10.1352L183.808 9.76106C183.886 9.9551 183.89 10.1856 183.764 10.3956C183.656 10.5757 183.487 10.6807 183.351 10.7444C183.077 10.8723 182.689 10.9445 182.244 10.9907C181.332 11.0855 179.94 11.0915 178.104 11.0366L178.134 10.037ZM182.88 10.1352C182.892 10.1653 182.895 10.1484 182.826 10.0862C182.764 10.0293 182.667 9.95605 182.524 9.86665C182.24 9.68796 181.823 9.47295 181.258 9.21856C180.132 8.71102 178.48 8.07234 176.276 7.2791L176.615 6.33821C178.822 7.13287 180.505 7.78242 181.669 8.30688C182.25 8.5685 182.715 8.80543 183.057 9.02007C183.227 9.12734 183.378 9.23607 183.5 9.3472C183.616 9.45309 183.739 9.59024 183.808 9.76106L182.88 10.1352ZM186.565 8.04202C186.469 8.89182 186.234 9.57312 185.631 9.99098C185.065 10.3826 184.281 10.4606 183.337 10.4481L183.351 9.44818C184.295 9.46068 184.782 9.36224 185.061 9.16883C185.303 9.00167 185.486 8.68939 185.572 7.9299L186.565 8.04202ZM156.955 13.4364C158.218 12.7275 159.516 12.4096 161.754 12.1974L161.849 13.193C159.669 13.3997 158.531 13.6987 157.444 14.3085L156.955 13.4364ZM156.711 13.9802C156.597 13.4612 156.34 13.0461 155.883 12.6965C155.411 12.3356 154.708 12.0322 153.686 11.7912C151.635 11.3075 148.473 11.111 143.772 11.0518L143.785 10.0519C148.475 10.111 151.743 10.3055 153.915 10.8179C155.005 11.0749 155.861 11.4208 156.49 11.9021C157.135 12.3946 157.522 13.0145 157.688 13.7648L156.711 13.9802ZM143.468 10.1598L143.554 10.0918L144.174 10.8759L144.089 10.9439L143.468 10.1598ZM143.554 10.0918C144.39 9.43015 145.121 8.84713 146.051 8.4776C146.995 8.103 148.104 7.96036 149.704 8.07591L149.632 9.07331C148.124 8.96443 147.178 9.10607 146.42 9.40703C145.65 9.71305 145.032 10.1969 144.174 10.8759L143.554 10.0918ZM143.468 10.1597C143.497 10.1369 143.525 10.1144 143.554 10.0918L144.174 10.8759C144.146 10.8983 144.117 10.9211 144.089 10.944L143.468 10.1597ZM102.107 18.1004L106.291 19.2777L106.02 20.2403L101.836 19.063L102.107 18.1004ZM142.14 10.0368C142.707 10.0402 143.255 10.0452 143.785 10.0519L143.772 11.0518C143.245 11.0451 142.699 11.0402 142.134 11.0368L142.14 10.0368ZM92.8228 121.448C93.1797 121.072 93.6949 120.802 94.2484 120.604C94.8096 120.403 95.4533 120.262 96.1091 120.168C97.4174 119.983 98.8317 119.981 99.8422 120.119L99.7069 121.11C98.7973 120.986 97.4763 120.984 96.2497 121.159C95.638 121.245 95.0643 121.374 94.5852 121.545C94.0983 121.72 93.7502 121.924 93.5479 122.137L92.8228 121.448ZM99.8422 120.119C100.819 120.252 101.787 120.567 102.427 121.116C102.754 121.397 103.01 121.754 103.114 122.191C103.219 122.631 103.155 123.098 102.936 123.572L102.028 123.153C102.172 122.842 102.184 122.605 102.141 122.422C102.097 122.236 101.982 122.052 101.775 121.875C101.346 121.506 100.599 121.232 99.7069 121.11L99.8422 120.119ZM89.7566 121.4C89.7566 121.151 89.7048 120.931 89.5911 120.734C89.4768 120.535 89.2835 120.33 88.9576 120.134C88.2901 119.733 87.1179 119.403 85.1506 119.262L85.2219 118.265C87.2377 118.409 88.6007 118.753 89.4726 119.277C89.9163 119.543 90.2438 119.863 90.4578 120.235C90.6725 120.608 90.7566 121.005 90.7566 121.4H89.7566ZM85.1506 119.262C83.193 119.122 81.9453 119.27 81.1207 119.535C80.3152 119.793 79.8956 120.167 79.5974 120.537L78.8192 119.909C79.2262 119.404 79.8041 118.907 80.8155 118.582C81.8078 118.264 83.1965 118.12 85.2219 118.265L85.1506 119.262Z" fill="black"/>
</svg>
