<svg viewBox="0 0 129 144" fill="none" xmlns="http://www.w3.org/2000/svg">
<path d="M68.875 79.0771C71.2962 79.0608 71.896 78.7018 72.0203 77.6249L73.3448 77.5484C73.9134 76.6201 74.3994 76.339 75.9934 76.8605C77.8788 76.3759 78.676 76.3119 79.4697 76.7077V77.3191C81.6311 78.6346 82.6688 79.6652 84.2704 81.9051C94.2408 84.1763 99.751 85.519 108.936 88.4783C110.537 89.4297 110.487 90.342 109.763 92.2236L102.811 107.128C101.063 111.058 97.8714 111.915 91.2229 112.86C91.3607 108.191 91.4058 105.599 90.5607 101.701C91.4664 101.937 91.988 102.157 93.044 103.306C92.6125 99.9148 93.7495 97.35 98.6723 91.3828C90.2894 88.1034 85.7562 86.8904 77.8142 85.2682L75.4966 84.4274L68.875 80.2236V79.0771Z" fill="#F9B9A5"/>
<path d="M72.0203 77.6249C58.0985 74.7528 44.4234 77.449 21.0341 81.5229C14.4205 72.553 11.5784 67.7209 18.0546 61.7268C20.3795 58.1946 21.8197 55.1444 22.2528 52.5548C24.7747 47.0137 26.1891 42.6773 23.1863 39.867C20.8858 33.6669 21.2449 29.9492 23.1863 23.1282C24.4492 18.9116 25.0269 16.758 24.5106 15.4084C28.5837 14.6353 30.8666 14.4458 34.9396 15.4084C35.3808 16.0941 35.2426 16.5575 34.9396 17.3957C35.7575 18.1651 36.0463 18.6053 35.2707 19.4594C35.9694 20.0798 36.075 20.6004 35.7673 21.8288C38.7447 26.4879 40.1463 29.379 40.899 36.3511C41.7174 38.6197 42.7878 40.4169 44.3607 42.3128C44.9693 43.1396 45.4567 44.0858 45.7826 45.2937C45.1688 46.4992 45.3734 48.2918 46.1963 50.8733C46.8148 54.0273 47.7535 55.6025 49.3416 58.4402C50.1206 59.8046 50.2381 60.7717 50.3348 62.5676L51.4936 63.179L57.453 61.1918C66.6409 56.0095 72.0298 53.2088 81.9528 48.351C86.9797 44.8462 89.2083 42.6745 89.8987 37.6504C91.9569 31.711 93.2125 28.4248 98.0102 23.6632C98.1201 22.0611 98.2834 21.2367 99.8311 20.6823L100.162 17.0135C106.144 16.3073 109.256 16.0686 110.713 17.0135C110.853 17.1043 110.977 17.206 111.088 17.3193C111.23 17.8896 111.052 18.0926 110.591 18.3893C110.782 26.6158 110.292 31.0449 108.439 38.6441C106.408 42.7603 105.738 44.7543 105.294 47.816C97.587 60.3218 91.2387 66.4267 75.9934 75.5612V76.8605C74.3994 76.339 73.9134 76.6201 73.3448 77.5484L72.0203 77.6249Z" fill="black"/>
<path d="M34.9396 15.4084C30.8666 14.4458 28.5837 14.6353 24.5106 15.4084C22.6098 15.911 22.47 15.6309 23.0208 14.6441L25.6694 13.8798C22.6639 12.9185 21.8626 12.3559 23.0208 11.2811C21.8175 10.7817 21.3453 10.3643 21.1998 9.14093C17.743 7.90599 15.715 6.98075 15.2469 5.93074C17.5803 4.71388 18.7744 4.58244 20.7032 5.31928H25.6694C28.2213 4.15954 29.6652 3.55458 32.9531 4.86069C33.9592 6.23632 34.0898 6.81861 34.1119 7.76514L34.2268 7.77256C35.9042 7.88063 36.8794 7.94345 37.0916 9.14093C36.9619 12.2794 36.5104 13.3125 34.9396 13.7269V15.4084Z" fill="#5B555B"/>
<path d="M78.4764 115.383C80.2082 114.814 81.0194 114.477 80.9595 113.701C79.3992 109.439 77.3895 107.929 72.3514 106.364C67.8136 107.928 65.931 109.17 62.7501 111.485L63.0812 112.173L60.4326 114.695C57.2459 114.524 55.5338 115.026 54.1718 116.1C51.1744 116.202 50.1229 116.028 48.1826 115.612C55.1353 114.466 49.0103 103.306 41.3955 101.701C39.9098 101.498 39.2175 101.663 38.0847 102.16C39.1154 101.22 39.6193 100.688 38.7469 99.6376C39.4085 99.2704 39.4408 99.0681 38.4158 98.7204C38.6987 97.9235 38.8569 97.4768 38.0847 97.0388C38.1917 96.1923 38.0235 95.6656 36.7604 95.3573C36.8232 94.9763 36.7494 94.7248 35.7672 93.9815C36.4955 93.366 35.8577 93.1055 33.2841 92.7586L32.6219 91.9943H35.105L39.7401 88.5548C40.3855 87.1653 40.8613 86.3506 43.2164 84.4274L43.713 81.0643C42.7227 80.4304 42.0089 80.3132 40.4023 80.6057C38.4323 80.1603 37.5871 80.1214 36.7604 80.6057C35.2265 80.2902 34.423 80.2532 33.2841 80.9115C31.5048 80.693 30.7221 80.6932 29.9733 81.0643V83.5102C28.7821 84.9395 28.5871 85.8689 28.649 87.6376C28.7006 87.6647 28.5954 87.6093 28.649 87.6376C27.4603 87.0128 26.6057 86.5952 25.5037 86.2618C24.7317 85.2102 24.3979 84.4944 22.855 84.4274C21.599 83.5975 21.3412 83.0821 21.8618 82.058L21.0341 81.5229C44.4234 77.449 58.0985 74.7528 72.0203 77.6249C71.896 78.7018 71.2962 79.0608 68.875 79.0771V80.2236L75.4966 84.4274L77.8142 85.2682L77.6486 87.0261L78.9729 87.4083V88.8605L80.6283 89.0898V90.3892H81.9527L81.9527 91.765L83.9391 91.9178V93.0643L85.429 94.6694C85.429 94.6694 88.6309 95.9479 89.7875 97.0388C91.5257 98.6783 90.5607 101.701 90.5607 101.701C91.4058 105.599 91.3607 108.191 91.2229 112.86C86.6384 114.222 83.8081 114.703 78.8074 115.612L78.4764 115.383Z" fill="#2EC4B6"/>
<path d="M41.3955 101.701C49.0103 103.306 55.1353 114.466 48.1826 115.612C40.9692 114.595 36.9972 113.389 29.9732 110.72L7.45981 99.8669C4.50223 98.0794 3.47215 97.0433 8.61859 94.8223C14.1038 92.4802 17.9076 90.9863 23.1863 89.2427C25.1478 88.8631 27.2944 88.5095 28.649 87.6376C28.5871 85.8689 28.7821 84.9395 29.9733 83.5102V81.0643C30.7221 80.6932 31.5048 80.693 33.2841 80.9115C34.423 80.2532 35.2265 80.2902 36.7604 80.6057C37.5871 80.1214 38.4323 80.1603 40.4023 80.6057C42.0089 80.3132 42.7227 80.4304 43.713 81.0643L43.2164 84.4274C40.8613 86.3506 40.3855 87.1653 39.7401 88.5548L35.105 91.9943H32.6219C23.6865 95.695 21.1421 97.2348 20.8686 98.4911C27.1695 99.6577 31.1162 101.139 38.4158 104.3C38.8532 103.168 38.8629 102.656 38.0847 102.16C39.2175 101.663 39.9098 101.498 41.3955 101.701Z" fill="#F9B9A5"/>
<path fill-rule="evenodd" clip-rule="evenodd" d="M76.821 122.728C76.8037 122.724 76.7863 122.721 76.7688 122.717C76.7611 122.716 76.7534 122.714 76.7457 122.713C76.771 122.718 76.7961 122.723 76.821 122.728ZM76.7435 122.712C76.7352 122.711 76.7269 122.709 76.7186 122.708C76.7041 122.705 76.6894 122.702 76.6748 122.699C76.6978 122.704 76.7208 122.708 76.7435 122.712Z" fill="#D9D9D9"/>
<path d="M74.6689 123.408C74.6689 123.164 74.2275 121.013 74.0068 119.969L70.8615 117.905C67.2517 116.456 64.0883 116.174 60.1015 117.126C59.8689 116.232 59.9017 115.707 60.3504 114.848C60.3764 114.798 60.4038 114.747 60.4326 114.695L63.0812 112.173L62.7501 111.485C65.931 109.17 67.8136 107.928 72.3514 106.364C77.3895 107.929 79.3992 109.439 80.9595 113.701C81.0194 114.477 80.2082 114.814 78.4764 115.383C77.3571 115.929 76.9021 116.507 76.3243 117.905L76.821 119.052V122.728C76.7961 122.723 76.771 122.718 76.7457 122.713L76.7435 122.712C76.7208 122.708 76.6978 122.704 76.6748 122.699C76.6625 122.697 76.6503 122.695 76.638 122.692C76.2034 122.612 75.7147 122.546 75.1656 122.491L74.6689 123.408Z" fill="#F9B9A5"/>
<path d="M59.4393 117.294C59.2099 117.355 56.4596 119.077 55.1353 119.969C54.7654 120.138 54.4471 120.288 54.1718 120.427C54.2395 119.589 54.2787 118.859 54.4731 118.213C55.8388 118.011 56.4445 117.763 57.2873 117.126C57.8599 116.411 57.9544 116.077 56.9562 115.823C57.7911 115.471 58.8923 115.149 60.3504 114.848C59.9017 115.707 59.8689 116.232 60.1015 117.126C59.8833 117.178 59.6626 117.234 59.4393 117.294Z" fill="#724E2D"/>
<path d="M53.8109 131.128C58.2804 130.669 59.1995 130.869 60.4324 131.357C64.4442 129.656 67.1161 128.732 72.848 127.153C72.596 126.262 72.487 125.779 73.3446 125.472C74.379 124.742 75.1564 124.701 76.821 125.166C76.7658 125.497 76.5892 126.313 76.3243 126.313C77.3487 127.231 79.6789 127.326 79.9662 126.16C79.8594 124.126 79.1823 123.189 76.7688 122.717C76.7863 122.721 76.8037 122.724 76.821 122.728V119.052L76.3243 117.905C77.4196 118.778 78.1906 119.163 79.9662 119.587C82.9173 120.695 83.0657 121.655 82.1182 123.638C81.9945 124.14 82.3292 124.34 82.9038 124.682L82.9459 124.708V127.383C81.4849 129.447 80.2667 130.576 76.821 132.504C67.0137 135.678 63.6551 135.047 56.9562 134.72C57.5766 133.543 55.531 133.119 51.9525 132.377L51.8244 132.351C48.3223 129.074 47.8543 127.559 49.838 125.472C51.9804 123.284 52.5398 121.837 51.8244 118.669C52.6457 117.617 53.3441 116.753 54.1718 116.1C55.5338 115.026 57.2459 114.524 60.4326 114.695C60.4038 114.747 60.3764 114.798 60.3504 114.848C58.8923 115.149 57.7911 115.471 56.9562 115.823C55.3897 116.485 54.7611 117.256 54.4731 118.213C54.2787 118.859 54.2395 119.589 54.1718 120.427C52.7576 121.144 52.477 121.597 52.1556 123.102C52.7148 124.064 52.3803 125.032 51.8244 125.625C50.4001 128.723 50.7408 129.968 53.8109 131.128Z" fill="#724E2D"/>
<path d="M60.4324 131.357C59.1995 130.869 58.2804 130.669 53.8109 131.128C50.7408 129.968 50.4001 128.723 51.8244 125.625C52.3803 125.032 52.7148 124.064 52.1556 123.102C52.477 121.597 52.7576 121.144 54.1718 120.427C54.4471 120.288 54.7654 120.138 55.1353 119.969C56.4596 119.077 59.2099 117.355 59.4393 117.294C59.6626 117.234 59.8833 117.178 60.1015 117.126C64.0883 116.174 67.2517 116.456 70.8615 117.905L74.0068 119.969C74.2275 121.013 74.6689 123.164 74.6689 123.408L75.1656 122.491C75.7147 122.546 76.2034 122.612 76.638 122.692C76.6503 122.695 76.6625 122.697 76.6748 122.699C76.6894 122.702 76.7041 122.705 76.7186 122.708L76.7435 122.712L76.7457 122.713L76.7688 122.717C79.1823 123.189 79.8594 124.126 79.9662 126.16C79.6789 127.326 77.3487 127.231 76.3243 126.313C76.5892 126.313 76.7658 125.497 76.821 125.166C75.1564 124.701 74.379 124.742 73.3446 125.472C72.487 125.779 72.596 126.262 72.848 127.153C67.1161 128.732 64.4442 129.656 60.4324 131.357Z" fill="#F9B9A5"/>
<path d="M106.287 14.0326H108.274C108.826 15.3417 109.74 15.4842 112.578 14.5677C110.698 15.212 110.614 15.835 110.713 17.0135C109.256 16.0686 106.144 16.3073 100.162 17.0135C100.083 16.8269 100.013 16.6486 99.9517 16.4785C99.135 14.1969 100.077 13.3951 106.287 14.0326Z" fill="#F9B9A5"/>
<path d="M108.274 14.0326H106.287C100.077 13.3951 99.135 14.1969 99.9517 16.4785C98.9582 15.1302 98.1789 14.1904 97.1507 13.2423C97.0852 13.1818 97.0184 13.1212 96.9507 13.0605C95.5054 11.6764 96.1986 10.555 101.818 8.83521C104.385 7.48393 105.576 6.62039 106.287 4.47852C109.627 2.74622 111.788 2.21561 116.551 2.64413C119.309 3.01316 121.005 2.88919 122.51 2.03266C123.156 2.03457 123.465 2.12417 123.797 2.64413L123.325 4.59737C118.896 7.55913 117.411 9.28452 115.557 12.3511C114.384 12.9423 114.808 13.2047 117.047 13.574L112.578 14.5677C109.74 15.4842 108.826 15.3417 108.274 14.0326Z" fill="#5B555B"/>
<path d="M111.088 1.19191C120.524 0.809742 124.025 0.990784 124 1.80336L123.797 2.64413C123.465 2.12417 123.156 2.03457 122.51 2.03266C121.005 2.88919 119.309 3.01316 116.551 2.64413C111.788 2.21561 109.627 2.74622 106.287 4.47852C105.576 6.62039 104.385 7.48393 101.818 8.83521C96.1986 10.555 95.5054 11.6764 96.9507 13.0605C96.405 12.5718 95.7859 12.074 95.0305 11.5104C94.1883 9.7407 95.102 8.99684 99.0034 8.07087C103.662 6.92655 105.49 6.00283 104.135 3.86706C105.968 2.42379 107.18 1.69799 111.088 1.19191Z" fill="white"/>
<path d="M38.0849 7.30654C39.1497 8.5227 38.7528 8.86261 37.0916 9.14093C36.8794 7.94345 35.9042 7.88063 34.2268 7.77256L34.1119 7.76514C34.0898 6.81861 33.9592 6.23632 32.9531 4.86069C29.6652 3.55458 28.2213 4.15954 25.6694 5.31928H20.7032C18.7744 4.58244 17.5803 4.71388 15.2469 5.93074C14.9377 5.23713 15.3092 4.48907 16.3992 3.56132C27.1593 3.10273 33.6153 2.49127 34.1119 4.86069C33.0039 5.68854 34.7339 6.26525 38.0849 7.30654Z" fill="white"/>
<path d="M53.8109 131.128L53.8619 131.625L53.7445 131.637L53.6342 131.596L53.8109 131.128ZM60.4324 131.357L60.6277 131.818L60.439 131.898L60.2485 131.822L60.4324 131.357ZM51.8244 125.625L51.3701 125.416L51.4041 125.342L51.4597 125.283L51.8244 125.625ZM52.1556 123.102L51.7233 123.354L51.6263 123.187L51.6666 122.998L52.1556 123.102ZM55.1353 119.969L55.4146 120.383L55.3806 120.406L55.3435 120.423L55.1353 119.969ZM59.4393 117.294L59.568 117.777L59.4393 117.294ZM70.8615 117.905L71.0478 117.441L71.0941 117.46L71.1358 117.487L70.8615 117.905ZM74.6689 123.408L75.1086 123.646L74.1689 123.408H74.6689ZM74.0068 119.969L74.2811 119.551L74.4534 119.664L74.496 119.865L74.0068 119.969ZM75.1656 122.491L74.7259 122.253L74.8845 121.96L75.2158 121.994L75.1656 122.491ZM79.9662 126.16L80.4655 126.134L80.4694 126.207L80.4517 126.279L79.9662 126.16ZM76.3243 126.313L75.9905 126.685L75.018 125.813H76.3243V126.313ZM76.821 125.166L76.9554 124.685L77.388 124.805L77.3142 125.248L76.821 125.166ZM73.3446 125.472L73.6329 125.88L73.5774 125.92L73.5134 125.943L73.3446 125.472ZM72.848 127.153L73.3291 127.017L73.4661 127.502L72.9808 127.635L72.848 127.153ZM51.8244 132.351L51.7229 132.84L51.5853 132.812L51.4828 132.716L51.8244 132.351ZM56.9562 134.72L56.9318 135.22L56.148 135.181L56.5139 134.487L56.9562 134.72ZM76.821 132.504L77.0651 132.94L77.0219 132.964L76.9749 132.979L76.821 132.504ZM82.9459 127.383H83.4459V127.542L83.354 127.672L82.9459 127.383ZM82.9459 124.708L83.2021 124.278L83.4459 124.424V124.708H82.9459ZM82.1182 123.638L81.6327 123.518L81.645 123.468L81.6671 123.422L82.1182 123.638ZM79.9662 119.587L80.0822 119.1L80.1127 119.107L80.1421 119.119L79.9662 119.587ZM76.3243 117.905L75.8655 118.104L75.7814 117.91L75.8623 117.714L76.3243 117.905ZM76.821 122.728H77.321V123.338L76.7227 123.218L76.821 122.728ZM76.821 119.052L77.2798 118.853L77.321 118.948V119.052H76.821ZM78.4764 115.383L78.257 114.933L78.2878 114.918L78.3204 114.908L78.4764 115.383ZM80.9595 113.701L81.429 113.529L81.4527 113.594L81.458 113.663L80.9595 113.701ZM72.3514 106.364L72.1884 105.891L72.3433 105.838L72.4997 105.886L72.3514 106.364ZM63.0812 112.173L63.5317 111.956L63.6896 112.284L63.426 112.535L63.0812 112.173ZM62.7501 111.485L62.2996 111.701L62.1187 111.326L62.456 111.08L62.7501 111.485ZM49.838 125.472L49.4755 125.127L49.4807 125.122L49.838 125.472ZM51.8244 118.669L51.3367 118.78L51.2845 118.549L51.4302 118.362L51.8244 118.669ZM54.1718 120.427L54.3979 120.873L54.3979 120.873L54.1718 120.427ZM57.2873 117.126L57.6775 117.439L57.6385 117.487L57.5888 117.525L57.2873 117.126ZM54.1718 116.1L54.4814 116.493L54.4814 116.493L54.1718 116.1ZM41.3955 101.701L41.4631 101.206L41.481 101.208L41.4986 101.212L41.3955 101.701ZM38.0847 102.16L37.816 102.582L37.2652 102.231L37.7478 101.79L38.0847 102.16ZM38.7469 99.6376L38.3622 99.9569L37.9769 99.4929L38.5043 99.2003L38.7469 99.6376ZM38.4158 98.7204L38.2551 99.1938L37.7749 99.0309L37.9446 98.5531L38.4158 98.7204ZM38.0847 97.0388L37.838 97.4737L37.5467 97.3085L37.5886 96.9762L38.0847 97.0388ZM36.7604 95.3573L36.6418 95.843L36.1916 95.7332L36.2671 95.2759L36.7604 95.3573ZM35.7672 93.9815L35.4654 94.3802L34.9671 94.0031L35.4444 93.5996L35.7672 93.9815ZM33.2841 92.7586L33.2173 93.2541L33.0299 93.2289L32.9062 93.086L33.2841 92.7586ZM32.6219 91.9943L32.4306 91.5323L32.5225 91.4943H32.6219V91.9943ZM35.105 91.9943L35.4029 92.3958L35.2702 92.4943H35.105V91.9943ZM39.7401 88.5548L40.1936 88.7654L40.1401 88.8806L40.0381 88.9563L39.7401 88.5548ZM43.2164 84.4274L43.7111 84.5004L43.6828 84.6921L43.5327 84.8147L43.2164 84.4274ZM43.713 81.0643L43.9826 80.6432L44.2549 80.8175L44.2077 81.1374L43.713 81.0643ZM29.9733 81.0643H29.4733V80.7541L29.7512 80.6163L29.9733 81.0643ZM29.9733 83.5102H30.4733V83.6912L30.3574 83.8303L29.9733 83.5102ZM25.5037 86.2618L25.3589 86.7404L25.1993 86.6921L25.1006 86.5577L25.5037 86.2618ZM22.855 84.4274L22.8334 84.9269L22.695 84.9209L22.5794 84.8446L22.855 84.4274ZM21.8618 82.058L22.1332 81.6381L22.5118 81.8828L22.3075 82.2845L21.8618 82.058ZM21.0341 81.5229L20.7627 81.9428L20.6859 81.8932L20.6317 81.8197L21.0341 81.5229ZM68.875 79.0771H68.375V78.5804L68.8717 78.5771L68.875 79.0771ZM68.875 80.2236L68.607 80.6457L68.375 80.4984V80.2236H68.875ZM75.4966 84.4274L75.3261 84.8974L75.2747 84.8788L75.2286 84.8495L75.4966 84.4274ZM77.6486 87.0261L77.51 87.5065L77.112 87.3917L77.1508 86.9792L77.6486 87.0261ZM78.9729 87.4083L79.1116 86.9279L79.4729 87.0322V87.4083H78.9729ZM78.9729 88.8605L78.9043 89.3558L78.4729 89.296V88.8605H78.9729ZM80.6283 89.0898L80.6969 88.5945L81.1283 88.6543V89.0898H80.6283ZM80.6283 90.3892L80.6283 90.8892H80.1283L80.1283 90.3892H80.6283ZM81.9527 90.3892V89.8892H82.4527V90.3892H81.9527ZM81.9527 91.765L81.9143 92.2635L81.4527 92.228V91.765H81.9527ZM83.9391 91.9178L83.9775 91.4193L84.4391 91.4548V91.9178H83.9391ZM83.9391 93.0643L83.5727 93.4045L83.4391 93.2606V93.0643H83.9391ZM85.429 94.6694L85.2436 95.1338L85.1391 95.092L85.0625 95.0096L85.429 94.6694ZM89.7875 97.0388L89.4444 97.4026L89.4444 97.4026L89.7875 97.0388ZM90.5607 101.701L90.0721 101.807L90.0437 101.677L90.0844 101.549L90.5607 101.701ZM78.8074 115.612L78.8968 116.104L78.693 116.141L78.5227 116.023L78.8074 115.612ZM38.4158 104.3L38.8822 104.48L38.6946 104.966L38.2171 104.759L38.4158 104.3ZM29.9732 110.72L29.7956 111.188L29.7755 111.18L29.7561 111.171L29.9732 110.72ZM7.45981 99.8669L7.24268 100.317L7.2214 100.307L7.20119 100.295L7.45981 99.8669ZM8.61859 94.8223L8.42046 94.3632L8.42225 94.3624L8.61859 94.8223ZM23.1863 89.2427L23.0295 88.7679L23.0599 88.7579L23.0913 88.7518L23.1863 89.2427ZM93.044 103.306L93.54 103.243L93.7382 104.801L92.6757 103.645L93.044 103.306ZM98.6723 91.3828L98.8545 90.9172L99.4972 91.1686L99.058 91.701L98.6723 91.3828ZM73.3448 77.5484L73.7712 77.8096L73.6346 78.0325L73.3736 78.0476L73.3448 77.5484ZM75.9934 76.8605L76.1179 77.3448L75.9766 77.3811L75.8379 77.3357L75.9934 76.8605ZM79.4697 76.7077L79.6928 76.2602L79.9697 76.3982V76.7077H79.4697ZM79.4697 77.3191L79.2098 77.7462L78.9697 77.6001V77.3191H79.4697ZM84.2704 81.9051L84.1593 82.3926L83.9741 82.3504L83.8637 82.1959L84.2704 81.9051ZM108.936 88.4783L109.089 88.0024L109.143 88.0197L109.191 88.0485L108.936 88.4783ZM109.763 92.2236L110.23 92.4029L110.224 92.4192L110.217 92.4349L109.763 92.2236ZM102.811 107.128L102.354 106.925L102.358 106.917L102.811 107.128ZM18.0546 61.7268L18.4722 62.0017L18.4388 62.0525L18.3942 62.0938L18.0546 61.7268ZM23.1863 39.867L22.8446 40.232L22.7586 40.1515L22.7175 40.0409L23.1863 39.867ZM22.2528 52.5548L21.7597 52.4724L21.7705 52.4076L21.7978 52.3477L22.2528 52.5548ZM23.1863 23.1282L22.7054 22.9913L22.7073 22.9847L23.1863 23.1282ZM24.5106 15.4084L24.3828 14.925L24.4 14.9205L24.4174 14.9172L24.5106 15.4084ZM34.9396 17.3957L34.597 17.7599L34.3577 17.5347L34.4694 17.2257L34.9396 17.3957ZM35.2707 19.4594L34.9387 19.8333L34.5606 19.4976L34.9005 19.1232L35.2707 19.4594ZM35.7673 21.8288L35.346 22.098L35.2299 21.9164L35.2823 21.7073L35.7673 21.8288ZM40.899 36.3511L40.4287 36.5207L40.4084 36.4643L40.4019 36.4047L40.899 36.3511ZM46.1963 50.8733L46.6727 50.7215L46.6814 50.7489L46.687 50.7771L46.1963 50.8733ZM44.3607 42.3128L44.7455 41.9936L44.7548 42.0048L44.7634 42.0164L44.3607 42.3128ZM45.7826 45.2937L46.2653 45.1635L46.3154 45.3492L46.2282 45.5206L45.7826 45.2937ZM49.3416 58.4402L48.9073 58.6881L48.9052 58.6844L49.3416 58.4402ZM50.3348 62.5676L50.1014 63.0098L49.8508 62.8775L49.8355 62.5944L50.3348 62.5676ZM51.4936 63.179L51.6517 63.6534L51.4491 63.7209L51.2602 63.6212L51.4936 63.179ZM57.453 61.1918L57.6986 61.6273L57.6568 61.6509L57.6112 61.6661L57.453 61.1918ZM81.9528 48.351L82.2388 48.7612L82.2072 48.7832L82.1727 48.8001L81.9528 48.351ZM89.8987 37.6504L89.4034 37.5824L89.4101 37.5334L89.4263 37.4867L89.8987 37.6504ZM98.0102 23.6632L98.509 23.6974L98.4961 23.8854L98.3624 24.0181L98.0102 23.6632ZM99.8311 20.6823L100.329 20.7272L100.3 21.0453L99.9997 21.153L99.8311 20.6823ZM111.088 17.3193L111.446 16.9702L111.54 17.0672L111.573 17.1987L111.088 17.3193ZM110.591 18.3893L110.091 18.4009L110.085 18.1207L110.32 17.9689L110.591 18.3893ZM108.439 38.6441L108.925 38.7625L108.912 38.816L108.888 38.8653L108.439 38.6441ZM105.294 47.816L105.789 47.8877L105.774 47.9902L105.72 48.0783L105.294 47.816ZM75.9934 75.5612H75.4934V75.2779L75.7364 75.1323L75.9934 75.5612ZM34.9396 13.7269H34.4396L34.4396 13.3417L34.8121 13.2435L34.9396 13.7269ZM38.0849 7.30654L38.2332 6.82907L38.3681 6.87096L38.461 6.97717L38.0849 7.30654ZM34.1119 4.86069L34.6013 4.75812L34.6667 5.07031L34.4112 5.26123L34.1119 4.86069ZM16.3992 3.56132L16.0751 3.18057L16.2061 3.0691L16.3779 3.06178L16.3992 3.56132ZM21.1998 9.14093L21.368 8.67007L21.6598 8.77429L21.6963 9.0819L21.1998 9.14093ZM23.0208 11.2811L23.2124 10.8193L23.9317 11.1178L23.3609 11.6476L23.0208 11.2811ZM25.6694 13.8798L25.8217 13.4035L27.3876 13.9044L25.808 14.3602L25.6694 13.8798ZM23.0208 14.6441L22.5842 14.4004L22.6844 14.2208L22.8821 14.1637L23.0208 14.6441ZM106.287 14.0326V14.5326H106.262L106.236 14.53L106.287 14.0326ZM108.274 14.0326V13.5326H108.605L108.734 13.8383L108.274 14.0326ZM112.578 14.5677L112.424 14.0919L112.446 14.0847L112.469 14.0796L112.578 14.5677ZM110.713 17.0135L110.441 17.433L110.441 17.433L110.713 17.0135ZM117.047 13.574L117.129 13.0807L117.156 14.0621L117.047 13.574ZM115.557 12.3511L115.985 12.6098L115.911 12.7329L115.782 12.7976L115.557 12.3511ZM123.325 4.59737L123.603 5.01299L123.603 5.01299L123.325 4.59737ZM124 1.80336L124.5 1.81853L124.498 1.87036L124.486 1.92077L124 1.80336ZM111.088 1.19191L111.024 0.696048L111.045 0.69321L111.068 0.692316L111.088 1.19191ZM99.9517 16.4785L100.422 16.31L100.422 16.31L99.9517 16.4785ZM95.0305 11.5104L94.7315 11.9111L94.6322 11.8371L94.579 11.7252L95.0305 11.5104ZM99.0034 8.07087L99.1227 8.55646L99.1189 8.55736L99.0034 8.07087ZM104.135 3.86706L103.713 4.13493L103.471 3.75363L103.826 3.47425L104.135 3.86706ZM101.818 8.83521L102.05 9.27766L102.009 9.29956L101.964 9.31331L101.818 8.83521ZM106.287 4.47852L105.813 4.32092L105.877 4.12819L106.057 4.03468L106.287 4.47852ZM116.551 2.64413L116.595 2.14614L116.606 2.14711L116.617 2.14855L116.551 2.64413ZM122.51 2.03266L122.263 1.59812L122.378 1.53227L122.511 1.53266L122.51 2.03266ZM15.2469 5.93074L14.7903 6.13433L14.7903 6.13433L15.2469 5.93074ZM20.7032 5.31928V5.81928H20.611L20.5248 5.78636L20.7032 5.31928ZM25.6694 5.31928L25.8763 5.77448L25.7777 5.81928H25.6694V5.31928ZM32.9531 4.86069L33.1377 4.39601L33.2717 4.44921L33.3567 4.56553L32.9531 4.86069ZM34.1119 7.76514L34.0796 8.26409L33.6227 8.2345L33.6121 7.77681L34.1119 7.76514ZM82.9038 124.682L83.1598 124.253L83.1598 124.253L82.9038 124.682ZM51.9525 132.377L51.851 132.867L51.9525 132.377ZM34.2268 7.77256L34.1947 8.27153L34.1947 8.27153L34.2268 7.77256ZM76.7435 122.712L76.8384 122.221L76.8386 122.221L76.7435 122.712ZM76.638 122.692L76.5475 123.184L76.5475 123.184L76.638 122.692ZM76.6748 122.699L76.5828 123.191L76.5828 123.191L76.6748 122.699ZM53.7598 130.631C55.998 130.401 57.3788 130.332 58.3638 130.388C59.3735 130.446 59.965 130.635 60.6164 130.892L60.2485 131.822C59.6669 131.592 59.1824 131.437 58.3069 131.387C57.4068 131.336 56.0933 131.396 53.8619 131.625L53.7598 130.631ZM53.6342 131.596C52.0891 131.012 51.0307 130.342 50.6596 129.266C50.2971 128.215 50.6609 126.958 51.3701 125.416L52.2787 125.834C51.5636 127.389 51.3856 128.304 51.6049 128.94C51.8156 129.551 52.4626 130.084 53.9876 130.66L53.6342 131.596ZM51.4597 125.283C51.9093 124.803 52.1417 124.073 51.7233 123.354L52.5878 122.851C53.2878 124.055 52.8514 125.261 52.1891 125.967L51.4597 125.283ZM54.856 119.554C55.5248 119.104 56.5489 118.447 57.4334 117.895C57.8758 117.62 58.2861 117.368 58.6015 117.182C58.7588 117.089 58.8957 117.01 59.0025 116.951C59.0555 116.922 59.105 116.896 59.1479 116.875C59.1783 116.86 59.243 116.828 59.3106 116.81L59.568 117.777C59.6069 117.766 59.6233 117.755 59.5876 117.773C59.5643 117.784 59.5299 117.802 59.4832 117.828C59.3905 117.879 59.2645 117.951 59.111 118.042C58.8048 118.223 58.4017 118.47 57.9624 118.744C57.0833 119.292 56.0701 119.942 55.4146 120.383L54.856 119.554ZM74.1689 123.408C74.1689 123.421 74.1685 123.397 74.155 123.306C74.1435 123.229 74.1263 123.126 74.1042 123.002C74.0602 122.754 73.9989 122.434 73.9301 122.085C73.7927 121.389 73.6277 120.593 73.5176 120.072L74.496 119.865C74.6066 120.389 74.7727 121.19 74.9112 121.892C74.9804 122.242 75.0432 122.57 75.0888 122.827C75.1116 122.955 75.1306 123.069 75.1441 123.16C75.1556 123.237 75.1689 123.334 75.1689 123.408H74.1689ZM73.7325 120.387L70.5873 118.323L71.1358 117.487L74.2811 119.551L73.7325 120.387ZM74.2293 123.17L74.7259 122.253L75.6053 122.729L75.1086 123.646L74.2293 123.17ZM76.6582 125.94C77.0548 126.296 77.7611 126.524 78.4168 126.518C78.7385 126.515 79.0063 126.455 79.1921 126.36C79.3696 126.269 79.4512 126.16 79.4807 126.04L80.4517 126.279C80.3375 126.743 80.0201 127.059 79.6479 127.25C79.284 127.436 78.8514 127.514 78.4266 127.518C77.5892 127.526 76.6183 127.248 75.9905 126.685L76.6582 125.94ZM76.3243 125.813C76.1225 125.813 76.0527 125.958 76.0905 125.902C76.1096 125.873 76.1416 125.809 76.1784 125.701C76.2496 125.494 76.3022 125.238 76.3278 125.084L77.3142 125.248C77.2846 125.426 77.2212 125.743 77.1242 126.026C77.0769 126.164 77.0116 126.324 76.9213 126.458C76.8498 126.565 76.6586 126.813 76.3243 126.813V125.813ZM76.6865 125.648C75.8668 125.419 75.3269 125.334 74.8871 125.369C74.4686 125.403 74.0998 125.551 73.6329 125.88L73.0564 125.063C73.6238 124.663 74.1609 124.425 74.8059 124.373C75.4295 124.322 76.1106 124.449 76.9554 124.685L76.6865 125.648ZM60.2372 130.897C64.2736 129.185 66.9671 128.255 72.7152 126.671L72.9808 127.635C67.2652 129.21 64.6149 130.127 60.6277 131.818L60.2372 130.897ZM72.3669 127.289C72.3047 127.069 72.2441 126.85 72.2069 126.648C72.1699 126.447 72.1486 126.226 72.188 126.006C72.2301 125.771 72.3376 125.557 72.5231 125.379C72.6987 125.21 72.9241 125.092 73.1758 125.001L73.5134 125.943C73.3364 126.006 73.2537 126.063 73.2165 126.099C73.189 126.126 73.1788 126.146 73.1724 126.182C73.1634 126.232 73.1629 126.318 73.1904 126.467C73.2178 126.616 73.2653 126.792 73.3291 127.017L72.3669 127.289ZM56.9806 134.221C60.357 134.386 62.8244 134.622 65.6889 134.426C68.5394 134.232 71.7894 133.607 76.667 132.028L76.9749 132.979C72.0453 134.575 68.7123 135.222 65.757 135.424C62.8156 135.625 60.2543 135.382 56.9318 135.22L56.9806 134.221ZM83.354 127.672C82.6084 128.725 81.9114 129.559 80.9518 130.375C79.9978 131.187 78.7995 131.97 77.0651 132.94L76.5769 132.067C78.2881 131.11 79.4218 130.364 80.3036 129.614C81.1798 128.868 81.8224 128.105 82.5378 127.094L83.354 127.672ZM82.4459 127.383V124.708H83.4459V127.383H82.4459ZM81.6671 123.422C82.1445 122.423 82.2311 121.888 82.0498 121.493C81.9571 121.291 81.7695 121.069 81.4028 120.824C81.0343 120.578 80.5119 120.326 79.7904 120.055L80.1421 119.119C80.896 119.402 81.4989 119.685 81.9586 119.993C82.4201 120.301 82.7637 120.651 82.9586 121.076C83.3524 121.934 83.0394 122.869 82.5694 123.853L81.6671 123.422ZM79.8502 120.073C78.947 119.857 78.2734 119.646 77.6781 119.367C77.0789 119.086 76.5785 118.747 76.0128 118.296L76.6359 117.514C77.1655 117.936 77.5982 118.225 78.1022 118.461C78.6101 118.699 79.2099 118.892 80.0822 119.1L79.8502 120.073ZM76.321 122.728V119.052H77.321V122.728H76.321ZM76.3622 119.25L75.8655 118.104L76.7832 117.706L77.2798 118.853L76.3622 119.25ZM75.8623 117.714C76.157 117.001 76.4386 116.45 76.8146 116.003C77.1983 115.546 77.6555 115.227 78.257 114.933L78.6957 115.832C78.178 116.085 77.8481 116.327 77.58 116.646C77.3043 116.974 77.0695 117.411 76.7864 118.096L75.8623 117.714ZM78.3204 114.908C79.2007 114.619 79.7762 114.409 80.1286 114.193C80.2979 114.09 80.3788 114.006 80.4178 113.944C80.4499 113.893 80.4684 113.836 80.4609 113.74L81.458 113.663C81.4805 113.955 81.42 114.23 81.2628 114.479C81.1124 114.716 80.8936 114.897 80.6511 115.046C80.1798 115.335 79.4839 115.578 78.6323 115.858L78.3204 114.908ZM72.4997 105.886C75.0345 106.674 76.8743 107.466 78.2797 108.637C79.6974 109.818 80.6308 111.349 81.429 113.529L80.4899 113.873C79.7279 111.792 78.8763 110.436 77.6395 109.405C76.3905 108.364 74.7064 107.619 72.203 106.841L72.4997 105.886ZM60.0877 114.333L62.7364 111.81L63.426 112.535L60.7774 115.057L60.0877 114.333ZM62.6307 112.389L62.2996 111.701L63.2006 111.268L63.5317 111.956L62.6307 112.389ZM62.456 111.08C65.6618 108.748 67.5889 107.476 72.1884 105.891L72.5143 106.836C68.0383 108.379 66.2001 109.593 63.0443 111.889L62.456 111.08ZM59.3106 116.81C59.538 116.75 59.7628 116.693 59.9854 116.64L60.2176 117.613C60.0038 117.664 59.7873 117.718 59.568 117.777L59.3106 116.81ZM59.9854 116.64C64.0744 115.664 67.3434 115.954 71.0478 117.441L70.6752 118.369C67.16 116.958 64.1021 116.685 60.2176 117.613L59.9854 116.64ZM51.4828 132.716C49.7403 131.085 48.6442 129.803 48.2941 128.606C48.1113 127.98 48.1316 127.383 48.3502 126.793C48.5635 126.217 48.9563 125.674 49.4756 125.127L50.2005 125.816C49.7279 126.314 49.4353 126.743 49.2879 127.14C49.1457 127.524 49.13 127.901 49.2539 128.325C49.5174 129.226 50.4064 130.339 52.166 131.986L51.4828 132.716ZM49.4807 125.122C50.5348 124.045 51.1425 123.206 51.4251 122.29C51.7063 121.379 51.6857 120.325 51.3367 118.78L52.3121 118.559C52.6784 120.181 52.7358 121.434 52.3806 122.585C52.0268 123.732 51.2836 124.71 50.1953 125.822L49.4807 125.122ZM51.6666 122.998C51.828 122.242 51.995 121.658 52.3509 121.173C52.7104 120.684 53.2228 120.348 53.9457 119.981L54.3979 120.873C53.7066 121.224 53.3716 121.473 53.1569 121.765C52.9386 122.062 52.8045 122.457 52.6446 123.207L51.6666 122.998ZM53.9457 119.981C54.2301 119.837 54.5556 119.684 54.9271 119.514L55.3435 120.423C54.9752 120.592 54.6642 120.738 54.3979 120.873L53.9457 119.981ZM59.6176 117.252C59.4944 116.779 59.4293 116.359 59.4729 115.924C59.5168 115.488 59.666 115.078 59.9071 114.616L60.7936 115.079C60.586 115.477 60.4945 115.76 60.4679 116.024C60.4412 116.29 60.4759 116.58 60.5854 117L59.6176 117.252ZM59.9071 114.616C59.9351 114.563 59.9643 114.508 59.9949 114.453L60.8703 114.937C60.8432 114.986 60.8177 115.033 60.7936 115.079L59.9071 114.616ZM53.6734 120.387C53.7388 119.578 53.7806 118.779 53.9943 118.069L54.9519 118.357C54.7768 118.939 54.7402 119.601 54.6702 120.468L53.6734 120.387ZM54.3998 117.719C55.0669 117.62 55.5176 117.514 55.8945 117.367C56.2659 117.222 56.5876 117.028 56.9858 116.727L57.5888 117.525C57.1442 117.861 56.7416 118.11 56.258 118.298C55.78 118.485 55.245 118.604 54.5464 118.708L54.3998 117.719ZM53.9943 118.069C54.1584 117.524 54.4252 117.018 54.8789 116.557C55.3274 116.101 55.9382 115.71 56.7617 115.363L57.1507 116.284C56.4077 116.598 55.921 116.923 55.5916 117.258C55.2673 117.588 55.0758 117.945 54.9519 118.357L53.9943 118.069ZM56.7617 115.363C57.6381 114.992 58.7743 114.663 60.2491 114.358L60.4516 115.337C59.0104 115.635 57.944 115.949 57.1507 116.284L56.7617 115.363ZM56.897 116.814C57.0369 116.639 57.1267 116.513 57.1781 116.418C57.2335 116.316 57.2077 116.316 57.2159 116.373C57.2284 116.46 57.2845 116.483 57.2406 116.455C57.1854 116.42 57.0652 116.367 56.833 116.308L57.0794 115.339C57.3462 115.406 57.5886 115.491 57.7785 115.612C57.9797 115.74 58.1636 115.939 58.2057 116.23C58.2435 116.492 58.1491 116.726 58.0569 116.895C57.9607 117.072 57.8239 117.256 57.6775 117.439L56.897 116.814ZM51.4302 118.362C52.247 117.315 52.98 116.403 53.8622 115.707L54.4814 116.493C53.7082 117.102 53.0445 117.918 52.2186 118.977L51.4302 118.362ZM53.8622 115.707C55.3561 114.529 57.2077 114.021 60.4593 114.196L60.4058 115.194C57.2842 115.027 55.7114 115.523 54.4814 116.493L53.8622 115.707ZM48.2874 115.123C50.1912 115.531 51.2018 115.701 54.1547 115.6L54.1888 116.6C51.1471 116.703 50.0546 116.525 48.0778 116.101L48.2874 115.123ZM48.1013 115.119C48.9008 114.987 49.4738 114.718 49.8723 114.373C50.2677 114.031 50.5182 113.591 50.6389 113.068C50.8854 112 50.5892 110.575 49.8074 109.058C48.2456 106.025 44.9204 102.955 41.2924 102.19L41.4986 101.212C45.4854 102.052 49.0301 105.365 50.6964 108.6C51.5286 110.215 51.9359 111.896 51.6133 113.293C51.4495 114.002 51.0973 114.635 50.5267 115.129C49.9591 115.62 49.2026 115.951 48.264 116.105L48.1013 115.119ZM37.8839 101.702C38.4642 101.448 38.9669 101.262 39.5308 101.174C40.0957 101.086 40.6924 101.101 41.4631 101.206L41.3279 102.197C40.6128 102.099 40.1205 102.094 39.6847 102.162C39.2479 102.23 38.838 102.376 38.2855 102.618L37.8839 101.702ZM37.7478 101.79C38.0069 101.554 38.2142 101.36 38.374 101.182C38.5345 101.004 38.621 100.87 38.6623 100.762C38.6982 100.668 38.7044 100.583 38.6748 100.477C38.6414 100.358 38.5555 100.19 38.3622 99.9569L39.1316 99.3182C39.3745 99.6108 39.5527 99.9033 39.6379 100.208C39.727 100.527 39.7064 100.831 39.5965 101.119C39.4921 101.392 39.314 101.633 39.1173 101.851C38.92 102.071 38.6778 102.296 38.4217 102.529L37.7478 101.79ZM38.5043 99.2003C38.5801 99.1583 38.6406 99.122 38.6879 99.0906C38.7364 99.0584 38.7624 99.0369 38.7741 99.0257C38.7879 99.0126 38.7675 99.0276 38.7473 99.0722C38.7363 99.0968 38.725 99.131 38.7207 99.1732C38.7163 99.2163 38.7198 99.2598 38.7307 99.3007C38.7521 99.3807 38.793 99.4214 38.7981 99.4262C38.803 99.431 38.7919 99.4193 38.7477 99.3945C38.6582 99.3441 38.5033 99.278 38.2551 99.1938L38.5764 98.2469C38.8408 98.3366 39.0662 98.4262 39.2382 98.523C39.3811 98.6035 39.6214 98.7599 39.6969 99.0428C39.7887 99.3865 39.5821 99.6375 39.4627 99.7508C39.3336 99.8735 39.1595 99.9804 38.9894 100.075L38.5043 99.2003ZM37.9446 98.5531C38.0173 98.3483 38.0724 98.1919 38.1086 98.0551C38.1446 97.9192 38.1518 97.8376 38.1475 97.7855C38.1443 97.7455 38.143 97.6468 37.838 97.4737L38.3314 96.6039C38.7985 96.8689 39.1043 97.2125 39.1443 97.7045C39.1616 97.9185 39.1245 98.1254 39.0754 98.311C39.0265 98.4957 38.9557 98.694 38.887 98.8876L37.9446 98.5531ZM37.5886 96.9762C37.6389 96.5781 37.6014 96.3936 37.522 96.2762C37.4407 96.1559 37.2336 95.9875 36.6418 95.843L36.8789 94.8716C37.5502 95.0354 38.0588 95.2845 38.3506 95.7162C38.6443 96.1508 38.6374 96.653 38.5808 97.1015L37.5886 96.9762ZM36.2671 95.2759C36.2792 95.2026 36.2776 95.1747 36.2755 95.1609C36.2742 95.1528 36.2704 95.1295 36.2376 95.0795C36.1562 94.9554 35.9561 94.7515 35.4654 94.3802L36.0689 93.5828C36.5605 93.9549 36.8884 94.2484 37.0738 94.5311C37.1744 94.6844 37.2386 94.8419 37.2642 95.0113C37.289 95.175 37.2731 95.3215 37.2537 95.4387L36.2671 95.2759ZM35.4444 93.5996C35.5187 93.5369 35.5537 93.4964 35.5671 93.4775C35.5814 93.4572 35.5501 93.4916 35.5485 93.5691C35.5442 93.7761 35.72 93.8021 35.5492 93.7209C35.4123 93.6558 35.1645 93.5809 34.7613 93.4996C34.367 93.42 33.8572 93.3404 33.2173 93.2541L33.3508 92.2631C33.9978 92.3503 34.5328 92.4333 34.9592 92.5193C35.3766 92.6036 35.7253 92.6973 35.9785 92.8177C36.1978 92.922 36.5574 93.1502 36.5483 93.5899C36.5442 93.7839 36.4633 93.9423 36.3832 94.0554C36.3021 94.1699 36.1977 94.2723 36.0899 94.3634L35.4444 93.5996ZM32.9062 93.086L32.244 92.3216L32.9998 91.6669L33.662 92.4312L32.9062 93.086ZM32.6219 91.4943H35.105V92.4943H32.6219V91.4943ZM34.807 91.5927L39.4422 88.1532L40.0381 88.9563L35.4029 92.3958L34.807 91.5927ZM39.2866 88.3442C39.6144 87.6386 39.9147 87.0441 40.4466 86.379C40.9729 85.7209 41.7118 85.0106 42.9002 84.0401L43.5327 84.8147C42.3659 85.7675 41.6894 86.4261 41.2276 87.0035C40.7715 87.5739 40.5112 88.0815 40.1936 88.7654L39.2866 88.3442ZM42.7218 84.3544L43.2184 80.9913L44.2077 81.1374L43.7111 84.5004L42.7218 84.3544ZM43.4435 81.4855C42.9861 81.1926 42.6279 81.0412 42.2179 80.9825C41.7948 80.922 41.2776 80.9546 40.4918 81.0977L40.3127 80.1138C41.1336 79.9643 41.7766 79.9092 42.3596 79.9926C42.9557 80.0779 43.4497 80.3021 43.9826 80.6432L43.4435 81.4855ZM40.292 81.0934C38.3094 80.6451 37.6509 80.6635 37.0131 81.0372L36.5077 80.1743C37.5232 79.5794 38.5551 79.6755 40.5125 80.1181L40.292 81.0934ZM36.6597 81.0955C35.8962 80.9385 35.3685 80.8634 34.9054 80.8925C34.4608 80.9204 34.0494 81.0466 33.5343 81.3444L33.0339 80.4786C33.6576 80.1181 34.2174 79.9337 34.8428 79.8944C35.4496 79.8563 36.0907 79.9575 36.8611 80.116L36.6597 81.0955ZM33.2231 81.4077C31.4304 81.1876 30.7927 81.2163 30.1953 81.5123L29.7512 80.6163C30.6514 80.1702 31.5793 80.1984 33.345 80.4152L33.2231 81.4077ZM28.1493 87.6551C28.1178 86.7549 28.1485 86.0145 28.3624 85.3027C28.5781 84.5846 28.9676 83.9359 29.5892 83.1901L30.3574 83.8303C29.7877 84.5138 29.4841 85.0444 29.3201 85.5905C29.1541 86.1429 29.1183 86.7515 29.1487 87.6201L28.1493 87.6551ZM29.4733 83.5102V81.0643H30.4733V83.5102H29.4733ZM25.1006 86.5577C24.6812 85.9864 24.4583 85.6246 24.1435 85.3554C23.8722 85.1234 23.5171 84.9566 22.8334 84.9269L22.8767 83.9279C23.7359 83.9652 24.3191 84.1898 24.7934 84.5954C25.2242 84.9637 25.5542 85.4857 25.9067 85.9659L25.1006 86.5577ZM22.5794 84.8446C21.9528 84.4305 21.4546 84.0244 21.2334 83.5145C20.989 82.9507 21.1299 82.3943 21.4161 81.8314L22.3075 82.2845C22.0731 82.7458 22.0826 82.9591 22.1509 83.1166C22.2425 83.3279 22.5013 83.5943 23.1307 84.0102L22.5794 84.8446ZM21.5904 82.4779L20.7627 81.9428L21.3056 81.103L22.1332 81.6381L21.5904 82.4779ZM20.9483 81.0304C44.2973 76.9635 58.0843 74.2393 72.1213 77.1352L71.9193 78.1145C58.1128 75.2662 44.5495 77.9346 21.1199 82.0155L20.9483 81.0304ZM68.8717 78.5771C70.0884 78.5689 70.7368 78.47 71.0913 78.2986C71.2488 78.2224 71.3329 78.1384 71.3885 78.046C71.4494 77.9448 71.4969 77.7985 71.5236 77.5676L72.517 77.6822C72.4815 77.9897 72.4075 78.2921 72.2453 78.5616C72.0778 78.8399 71.8373 79.0486 71.5267 79.1988C70.945 79.4802 70.0829 79.5689 68.8784 79.5771L68.8717 78.5771ZM69.375 79.0771V80.2236H68.375V79.0771H69.375ZM69.143 79.8015L75.7646 84.0053L75.2286 84.8495L68.607 80.6457L69.143 79.8015ZM75.6671 83.9574L77.9847 84.7981L77.6436 85.7382L75.3261 84.8974L75.6671 83.9574ZM78.312 85.315L78.1464 87.073L77.1508 86.9792L77.3164 85.2213L78.312 85.315ZM77.7873 86.5457L79.1116 86.9279L78.8343 87.8887L77.51 87.5065L77.7873 86.5457ZM79.4729 87.4083V88.8605H78.4729V87.4083H79.4729ZM79.0415 88.3652L80.6969 88.5945L80.5597 89.5851L78.9043 89.3558L79.0415 88.3652ZM81.1283 89.0898V90.3892H80.1283V89.0898H81.1283ZM80.6283 89.8892H81.9527L81.9527 90.8892H80.6283L80.6283 89.8892ZM82.4527 90.3892L82.4527 91.765H81.4527L81.4527 90.3892H82.4527ZM81.991 91.2664L83.9775 91.4193L83.9008 92.4164L81.9143 92.2635L81.991 91.2664ZM84.4391 91.9178V93.0643H83.4391V91.9178H84.4391ZM84.3056 92.7242L85.7954 94.3293L85.0625 95.0096L83.5727 93.4045L84.3056 92.7242ZM85.429 94.6694C85.6144 94.2051 85.6144 94.2051 85.6145 94.2051C85.6145 94.2051 85.6146 94.2052 85.6147 94.2052C85.6148 94.2052 85.615 94.2053 85.6153 94.2054C85.6158 94.2056 85.6165 94.2059 85.6173 94.2062C85.6191 94.2069 85.6216 94.208 85.6249 94.2093C85.6314 94.2119 85.6409 94.2157 85.6532 94.2207C85.6779 94.2307 85.7138 94.2454 85.7597 94.2643C85.8515 94.3022 85.9833 94.3574 86.1449 94.4269C86.4679 94.5658 86.9111 94.7628 87.3918 94.9947C88.3313 95.448 89.4886 96.0696 90.1306 96.6751L89.4444 97.4026C88.9298 96.9171 87.9078 96.354 86.9572 95.8953C86.4929 95.6713 86.0633 95.4804 85.7498 95.3455C85.5931 95.2781 85.4658 95.2249 85.378 95.1886C85.3341 95.1705 85.3001 95.1566 85.2772 95.1473C85.2658 95.1427 85.2572 95.1392 85.2515 95.137C85.2487 95.1358 85.2466 95.135 85.2453 95.1344C85.2446 95.1342 85.2441 95.134 85.2438 95.1339C85.2437 95.1338 85.2436 95.1338 85.2436 95.1338C85.2435 95.1338 85.2435 95.1338 85.2435 95.1337C85.2435 95.1338 85.2436 95.1338 85.429 94.6694ZM90.1306 96.6751C91.1516 97.6381 91.3512 98.9791 91.3258 99.9973C91.3129 100.515 91.2417 100.974 91.1742 101.304C91.1403 101.469 91.107 101.603 91.0818 101.697C91.0691 101.745 91.0585 101.782 91.0507 101.808C91.0469 101.821 91.0437 101.832 91.0414 101.839C91.0402 101.843 91.0393 101.846 91.0385 101.849C91.0382 101.85 91.0379 101.851 91.0376 101.851C91.0375 101.852 91.0374 101.852 91.0373 101.853C91.0372 101.853 91.0372 101.853 91.0371 101.853C91.0371 101.853 91.037 101.853 90.5607 101.701C90.0844 101.549 90.0843 101.549 90.0843 101.549C90.0843 101.55 90.0843 101.55 90.0842 101.55C90.0842 101.55 90.0842 101.55 90.0842 101.55C90.0841 101.55 90.0842 101.55 90.0843 101.55C90.0845 101.549 90.0849 101.548 90.0855 101.546C90.0867 101.542 90.0888 101.535 90.0915 101.526C90.0971 101.507 90.1054 101.478 90.1158 101.439C90.1365 101.361 90.1651 101.247 90.1945 101.103C90.2536 100.814 90.315 100.416 90.3261 99.9724C90.3486 99.0693 90.1616 98.079 89.4444 97.4026L90.1306 96.6751ZM91.0494 101.595C91.9085 105.558 91.8605 108.203 91.7227 112.875L90.7231 112.846C90.8608 108.179 90.9032 105.64 90.0721 101.807L91.0494 101.595ZM78.7611 114.972L79.0921 115.201L78.5227 116.023L78.1917 115.794L78.7611 114.972ZM78.718 115.12C83.7213 114.211 86.5259 113.734 91.0805 112.381L91.3653 113.34C86.7509 114.71 83.8948 115.195 78.8968 116.104L78.718 115.12ZM37.9494 104.12C38.1702 103.548 38.2332 103.245 38.2097 103.051C38.1942 102.923 38.1343 102.784 37.816 102.582L38.3534 101.738C38.8133 102.031 39.1377 102.396 39.2025 102.931C39.2594 103.401 39.0988 103.92 38.8822 104.48L37.9494 104.12ZM38.2171 104.759C30.9302 101.604 27.0237 100.139 20.7776 98.9827L20.9596 97.9994C27.3152 99.1761 31.3021 100.675 38.6145 103.841L38.2171 104.759ZM20.38 98.3847C20.4792 97.9292 20.7711 97.5115 21.2275 97.0964C21.6846 96.6807 22.3449 96.2334 23.252 95.7234C25.0678 94.7028 27.9624 93.3829 32.4306 91.5323L32.8132 92.4562C28.346 94.3064 25.5007 95.6067 23.742 96.5952C22.862 97.0898 22.2764 97.4943 21.9003 97.8363C21.5235 98.1789 21.3947 98.4248 21.3571 98.5974L20.38 98.3847ZM12.5668 99.3675C14.6679 99.2634 16.2619 99.1782 17.5549 98.993C18.8409 98.8089 19.7949 98.5301 20.62 98.0572L21.1172 98.9249C20.1423 99.4835 19.052 99.7889 17.6967 99.9829C16.3483 100.176 14.7037 100.263 12.6163 100.366L12.5668 99.3675ZM48.1128 116.107C40.8523 115.084 36.8431 113.865 29.7956 111.188L30.1508 110.253C37.1513 112.913 41.0861 114.107 48.2524 115.117L48.1128 116.107ZM29.7561 111.171L7.24268 100.317L7.67694 99.4165L30.1903 110.27L29.7561 111.171ZM7.20119 100.295C6.4636 99.849 5.808 99.4281 5.33766 99.0109C4.88169 98.6066 4.48735 98.1085 4.5003 97.4966C4.51338 96.8787 4.93522 96.3593 5.54972 95.8967C6.17906 95.4228 7.12355 94.9229 8.42047 94.3632L8.81671 95.2813C7.5404 95.8322 6.68374 96.2946 6.15121 96.6956C5.60384 97.1077 5.50309 97.3755 5.50008 97.5177C5.49694 97.6659 5.59302 97.9008 6.00119 98.2628C6.39498 98.6121 6.97723 98.991 7.71843 99.4389L7.20119 100.295ZM28.4157 88.0798C28.409 88.0763 28.4046 88.074 28.402 88.0726C28.401 88.0721 28.3995 88.0713 28.3984 88.0707C28.3983 88.0706 28.3969 88.0699 28.3953 88.0691C28.3949 88.0688 28.3939 88.0683 28.3927 88.0676C28.3922 88.0673 28.3908 88.0666 28.3901 88.0662C28.389 88.0655 28.3861 88.0639 28.3844 88.063C28.3814 88.0612 28.3716 88.0554 28.365 88.0512C28.3365 88.0317 28.1822 87.4137 28.7262 87.138C28.7766 87.1503 28.834 87.1713 28.8425 87.1752C28.846 87.1768 28.8514 87.1794 28.8533 87.1803C28.8565 87.1819 28.859 87.1831 28.8596 87.1834C28.8606 87.1839 28.8613 87.1843 28.8618 87.1846C28.8627 87.185 28.8634 87.1854 28.8637 87.1855C28.8643 87.1859 28.8649 87.1862 28.8651 87.1863C28.8667 87.1871 28.8694 87.1885 28.8718 87.1898C28.8745 87.1912 28.8779 87.193 28.8812 87.1947C28.8845 87.1965 28.8879 87.1983 28.8907 87.1998C28.8932 87.2011 28.8959 87.2025 28.8974 87.2033C28.8977 87.2034 28.8981 87.2036 28.8985 87.2039C28.8986 87.2039 28.9001 87.2047 28.9019 87.2057C28.9024 87.206 28.9036 87.2066 28.905 87.2074C28.9058 87.2078 28.9075 87.2088 28.9085 87.2094C28.9101 87.2102 28.9143 87.2127 28.9169 87.2142C28.9224 87.2175 28.9461 87.2327 28.9638 87.2454C29.1488 87.7663 28.6092 88.1423 28.4814 88.1109C28.4696 88.1061 28.4537 88.0991 28.4493 88.097C28.4471 88.096 28.4435 88.0942 28.4421 88.0935C28.4397 88.0923 28.4378 88.0914 28.4372 88.091C28.4363 88.0906 28.4356 88.0903 28.4352 88.09C28.4344 88.0896 28.4337 88.0893 28.4334 88.0891C28.4324 88.0886 28.4314 88.0881 28.4311 88.0879C28.4306 88.0877 28.43 88.0873 28.4294 88.087C28.427 88.0858 28.4228 88.0836 28.4163 88.0802L28.8816 87.195C28.888 87.1984 28.8918 87.2004 28.8938 87.2014C28.8943 87.2016 28.8945 87.2018 28.8947 87.2019C28.895 87.202 28.8945 87.2018 28.8937 87.2013C28.8934 87.2012 28.8928 87.2009 28.892 87.2005C28.8917 87.2003 28.891 87.2 28.8901 87.1995C28.8895 87.1992 28.8876 87.1983 28.8852 87.197C28.8838 87.1964 28.8802 87.1946 28.878 87.1936C28.8737 87.1915 28.8577 87.1845 28.8459 87.1797C28.7181 87.1483 28.1785 87.5243 28.3635 88.0452C28.3812 88.0579 28.4049 88.0731 28.4104 88.0764C28.413 88.0779 28.4172 88.0803 28.4188 88.0812C28.4198 88.0818 28.4216 88.0828 28.4223 88.0832C28.4237 88.084 28.4249 88.0846 28.4254 88.0849C28.4265 88.0855 28.4273 88.0859 28.4276 88.0861C28.428 88.0863 28.4283 88.0864 28.4284 88.0865C28.4288 88.0867 28.429 88.0868 28.429 88.0868C28.429 88.0868 28.4286 88.0866 28.4277 88.0861C28.4268 88.0856 28.4257 88.085 28.4244 88.0844C28.4217 88.083 28.4185 88.0813 28.4153 88.0796C28.412 88.0779 28.4088 88.0762 28.4063 88.0748C28.4034 88.0733 28.4021 88.0726 28.4021 88.0726C28.4022 88.0727 28.4026 88.0729 28.4031 88.0732C28.4034 88.0733 28.404 88.0736 28.4049 88.0741C28.4053 88.0743 28.4061 88.0747 28.407 88.0752C28.4076 88.0755 28.4101 88.0767 28.4132 88.0783C28.4152 88.0792 28.4206 88.0818 28.4241 88.0834C28.4326 88.0873 28.49 88.1083 28.5404 88.1206C29.0844 87.8449 28.9301 87.2269 28.9016 87.2074C28.8949 87.2032 28.8852 87.1974 28.8821 87.1956C28.8804 87.1947 28.8776 87.1931 28.8765 87.1925C28.8758 87.192 28.8744 87.1913 28.8739 87.191C28.8727 87.1903 28.8718 87.1898 28.8713 87.1896C28.8703 87.1891 28.8696 87.1887 28.8694 87.1885C28.869 87.1884 28.8688 87.1882 28.8686 87.1881C28.8681 87.1879 28.868 87.1878 28.8694 87.1885C28.8715 87.1897 28.8756 87.1918 28.8823 87.1953L28.4157 88.0798ZM28.4163 88.0802C27.2331 87.4583 26.4132 87.0593 25.3589 86.7404L25.6485 85.7832C26.7982 86.131 27.6875 86.5674 28.8816 87.195L28.4163 88.0802ZM8.42225 94.3624C13.9163 92.0166 17.7337 90.5172 23.0295 88.7679L23.3431 89.7174C18.0814 91.4555 14.2913 92.9438 8.81493 95.2821L8.42225 94.3624ZM23.0913 88.7518C24.0831 88.5599 25.0885 88.3805 26.0206 88.1406C26.9546 87.9001 27.7685 87.6097 28.3783 87.2172L28.9196 88.058C28.1749 88.5374 27.2382 88.8598 26.2699 89.109C25.2996 89.3587 24.251 89.5459 23.2813 89.7336L23.0913 88.7518ZM32.7841 83.0516V80.9115H33.7841V83.0516H32.7841ZM36.2604 82.8987V80.6057H37.2604V82.8987H36.2604ZM39.9023 82.5166V80.6057H40.9023V82.5166H39.9023ZM90.6869 101.217C91.1535 101.339 91.5668 101.467 92.0055 101.734C92.4387 101.997 92.8699 102.378 93.4122 102.968L92.6757 103.645C92.1621 103.085 91.8045 102.782 91.4865 102.589C91.1739 102.399 90.8735 102.3 90.4346 102.185L90.6869 101.217ZM92.548 103.369C92.3207 101.583 92.5102 99.9986 93.3972 98.0989C94.2717 96.2263 95.8222 94.0519 98.2866 91.0646L99.058 91.701C96.5997 94.6809 95.1203 96.7725 94.3033 98.522C93.499 100.244 93.3357 101.638 93.54 103.243L92.548 103.369ZM98.4902 91.8484C90.1376 88.5809 85.6323 87.3754 77.7141 85.758L77.9142 84.7783C85.88 86.4054 90.4411 87.6259 98.8545 90.9172L98.4902 91.8484ZM71.9915 77.1257L73.316 77.0493L73.3736 78.0476L72.0491 78.124L71.9915 77.1257ZM72.9184 77.2873C73.2149 76.8032 73.5607 76.3612 74.1369 76.1831C74.6873 76.0129 75.3372 76.1198 76.1489 76.3853L75.8379 77.3357C75.0555 77.0798 74.6654 77.0664 74.4322 77.1385C74.2247 77.2026 74.0433 77.3653 73.7712 77.8096L72.9184 77.2873ZM75.8689 76.3763C77.7412 75.8951 78.7131 75.7718 79.6928 76.2602L79.2467 77.1551C78.6388 76.8521 78.0164 76.8568 76.1179 77.3448L75.8689 76.3763ZM78.9697 77.3191V76.7077H79.9697V77.3191H78.9697ZM79.7297 76.892C81.9585 78.2485 83.0436 79.3298 84.6771 81.6143L83.8637 82.1959C82.2941 80.0007 81.3038 79.0207 79.2098 77.7462L79.7297 76.892ZM84.3814 81.4176C94.3579 83.6901 99.8841 85.0366 109.089 88.0024L108.782 88.9542C99.6178 86.0014 94.1238 84.6624 84.1593 82.3926L84.3814 81.4176ZM109.297 92.0442C109.662 91.0937 109.8 90.5155 109.728 90.0844C109.666 89.7115 109.424 89.3498 108.68 88.9082L109.191 88.0485C110.049 88.5582 110.582 89.1283 110.714 89.9198C110.837 90.6531 110.588 91.4718 110.23 92.4029L109.297 92.0442ZM91.1525 112.365C94.485 111.891 96.8769 111.448 98.651 110.657C100.387 109.883 101.531 108.776 102.354 106.925L103.268 107.331C102.343 109.41 101.018 110.697 99.0582 111.57C97.1374 112.427 94.6092 112.884 91.2933 113.355L91.1525 112.365ZM102.358 106.917L109.31 92.0122L110.217 92.4349L103.264 107.339L102.358 106.917ZM20.6317 81.8197C17.3417 77.3575 14.9049 73.8215 14.1491 70.624C13.7654 69.0008 13.8097 67.4519 14.39 65.9111C14.9671 64.3791 16.0604 62.8912 17.715 61.3599L18.3942 62.0938C16.8107 63.5594 15.8307 64.9233 15.3259 66.2636C14.8244 67.5949 14.7782 68.9385 15.1223 70.3939C15.8218 73.3534 18.1129 76.7184 21.4366 81.2262L20.6317 81.8197ZM17.6369 61.4519C19.9484 57.9401 21.3437 54.9595 21.7597 52.4724L22.746 52.6373C22.2957 55.3294 20.8106 58.4491 18.4722 62.0017L17.6369 61.4519ZM21.7978 52.3477C23.0595 49.5754 24.0136 47.1661 24.296 45.1185C24.5745 43.0991 24.1936 41.4945 22.8446 40.232L23.528 39.5019C25.1818 41.0497 25.5951 43.0186 25.2866 45.2552C24.982 47.4637 23.968 49.9932 22.7079 52.762L21.7978 52.3477ZM22.7175 40.0409C21.5517 36.8988 21.0494 34.3564 21.0957 31.7216C21.1417 29.0971 21.732 26.4111 22.7054 22.9913L23.6672 23.265C22.6991 26.6662 22.1392 29.2496 22.0955 31.7392C22.052 34.2185 22.5204 36.635 23.6551 39.693L22.7175 40.0409ZM22.7073 22.9847C23.3405 20.8707 23.7926 19.3034 24.0247 18.0986C24.2585 16.8848 24.2496 16.1256 24.0436 15.5871L24.9776 15.2298C25.2879 16.0408 25.2483 17.0332 25.0066 18.2878C24.7632 19.5513 24.295 21.1691 23.6653 23.2716L22.7073 22.9847ZM24.4174 14.9172C28.5324 14.1361 30.8908 13.9377 35.0546 14.9218L34.8246 15.895C30.8424 14.9538 28.635 15.1345 24.6039 15.8997L24.4174 14.9172ZM34.4694 17.2257C34.6257 16.7934 34.707 16.5375 34.7195 16.3167C34.7299 16.1323 34.6923 15.9481 34.5191 15.679L35.3601 15.1379C35.6282 15.5545 35.742 15.9448 35.7179 16.3731C35.6958 16.765 35.5566 17.1598 35.4098 17.5657L34.4694 17.2257ZM35.2822 17.0315C35.4897 17.2267 35.6828 17.4186 35.8362 17.6107C35.9896 17.8029 36.1252 18.022 36.188 18.2756C36.3266 18.8352 36.0652 19.3282 35.6408 19.7955L34.9005 19.1232C35.2517 18.7365 35.2338 18.5823 35.2173 18.5159C35.2026 18.4566 35.1612 18.368 35.0547 18.2346C34.9481 18.101 34.7985 17.9494 34.597 17.7599L35.2822 17.0315ZM35.6027 19.0855C35.9966 19.4353 36.2806 19.8089 36.3859 20.3141C36.4855 20.792 36.4096 21.3223 36.2523 21.9503L35.2823 21.7073C35.4327 21.1069 35.4579 20.7627 35.4069 20.5181C35.3617 20.3008 35.2435 20.1039 34.9387 19.8333L35.6027 19.0855ZM36.1886 21.5596C37.6821 23.8967 38.7999 25.8199 39.6355 28.0469C40.4717 30.2756 41.017 32.7857 41.3961 36.2974L40.4019 36.4047C40.0283 32.9443 39.4964 30.5229 38.6992 28.3982C37.9015 26.272 36.8298 24.42 35.346 22.098L36.1886 21.5596ZM41.3694 36.1814C42.166 38.3898 43.2055 40.1372 44.7455 41.9936L43.9759 42.6321C42.3702 40.6965 41.2688 38.8495 40.4287 36.5207L41.3694 36.1814ZM44.7634 42.0164C45.4073 42.8912 45.9227 43.8934 46.2653 45.1635L45.2998 45.424C44.9907 44.2782 44.5312 43.388 43.958 42.6092L44.7634 42.0164ZM46.2282 45.5206C45.9781 46.0118 45.8762 46.6585 45.9489 47.5257C46.0217 48.3935 46.2663 49.4464 46.6727 50.7215L45.7199 51.0252C45.3035 49.7187 45.0342 48.5846 44.9524 47.6093C44.8706 46.6334 44.9733 45.7812 45.337 45.0668L46.2282 45.5206ZM48.9052 58.6844C47.3187 55.8493 46.3413 54.2109 45.7056 50.9695L46.687 50.7771C47.2883 53.8437 48.1884 55.3557 49.7779 58.196L48.9052 58.6844ZM49.8355 62.5944C49.74 60.82 49.6271 59.9488 48.9073 58.6881L49.7758 58.1923C50.614 59.6604 50.7362 60.7235 50.8341 62.5407L49.8355 62.5944ZM50.5681 62.1254L51.7269 62.7368L51.2602 63.6212L50.1014 63.0098L50.5681 62.1254ZM51.3354 62.7047L57.2948 60.7175L57.6112 61.6661L51.6517 63.6534L51.3354 62.7047ZM57.2074 60.7563C66.405 55.5685 71.8027 52.7633 81.733 47.902L82.1727 48.8001C72.257 53.6543 66.8768 56.4505 57.6986 61.6273L57.2074 60.7563ZM81.6669 47.9409C84.1792 46.1892 85.9379 44.8061 87.1597 43.2604C88.3665 41.7335 89.068 40.0227 89.4034 37.5824L90.3941 37.7185C90.039 40.3022 89.281 42.1893 87.9442 43.8805C86.6224 45.5528 84.7533 47.008 82.2388 48.7612L81.6669 47.9409ZM89.4263 37.4867C90.4539 34.5211 91.2944 32.1771 92.4876 29.9768C93.6858 27.7672 95.2311 25.7169 97.658 23.3083L98.3624 24.0181C95.9915 26.3711 94.5102 28.3447 93.3667 30.4535C92.2181 32.5715 91.4017 34.8403 90.3712 37.8141L89.4263 37.4867ZM97.5113 23.629C97.5653 22.843 97.6343 22.1313 97.9381 21.5487C98.2632 20.9252 98.8153 20.5151 99.6625 20.2116L99.9997 21.153C99.2993 21.4039 98.9958 21.6832 98.8248 22.011C98.6325 22.3798 98.565 22.8812 98.509 23.6974L97.5113 23.629ZM99.3331 20.6374L99.6642 16.9686L100.66 17.0585L100.329 20.7272L99.3331 20.6374ZM110.32 17.9689C110.553 17.8192 110.607 17.7547 110.624 17.7229C110.625 17.7197 110.66 17.6701 110.603 17.4398L111.573 17.1987C111.658 17.5388 111.674 17.8759 111.507 18.1909C111.356 18.4774 111.09 18.6628 110.862 18.8097L110.32 17.9689ZM107.953 38.5256C109.796 30.9699 110.281 26.5845 110.091 18.4009L111.091 18.3777C111.283 26.647 110.789 31.1199 108.925 38.7625L107.953 38.5256ZM104.799 47.7443C105.253 44.6135 105.945 42.5677 107.991 38.4228L108.888 38.8653C106.87 42.953 106.223 44.8951 105.789 47.8877L104.799 47.7443ZM105.72 48.0783C101.852 54.3541 98.3123 59.0449 93.8148 63.3154C89.3206 67.5829 83.887 71.4145 76.2504 75.9901L75.7364 75.1323C83.3452 70.5734 88.7083 66.7853 93.1263 62.5903C97.541 58.3983 101.029 53.7838 104.868 47.5537L105.72 48.0783ZM75.4934 76.8605V75.5612H76.4934V76.8605H75.4934ZM34.4396 15.4084V13.7269H35.4396V15.4084H34.4396ZM34.8121 13.2435C35.1619 13.1512 35.418 13.0325 35.6153 12.8806C35.809 12.7315 35.9691 12.5327 36.1024 12.2452C36.3815 11.6427 36.5271 10.6916 36.5921 9.12028L37.5912 9.16157C37.5264 10.7287 37.3814 11.8634 37.0097 12.6656C36.8175 13.0805 36.5621 13.4138 36.2253 13.6731C35.8921 13.9295 35.5027 14.0955 35.0672 14.2104L34.8121 13.2435ZM38.461 6.97717C38.737 7.29232 38.9554 7.59074 39.0739 7.87435C39.1983 8.17229 39.2372 8.52336 39.0318 8.84476C38.8522 9.12559 38.5463 9.27937 38.2643 9.37923C37.9676 9.4843 37.5962 9.56336 37.1742 9.63405L37.009 8.6478C37.4177 8.57933 37.7188 8.51154 37.9305 8.43659C38.1568 8.35644 38.195 8.29705 38.1892 8.30609C38.1575 8.3557 38.1998 8.37637 38.1511 8.25983C38.0965 8.12897 37.9652 7.92884 37.7087 7.63591L38.461 6.97717ZM37.9365 7.78402C36.2829 7.27019 34.9567 6.85056 34.1922 6.44536C33.9959 6.34134 33.816 6.22795 33.6701 6.10077C33.5269 5.97605 33.3847 5.81056 33.3171 5.59568C33.1561 5.08375 33.4986 4.69476 33.8126 4.46015L34.4112 5.26123C34.1712 5.44054 34.3145 5.43408 34.271 5.29566C34.2622 5.26753 34.2578 5.28654 34.327 5.34686C34.3934 5.40471 34.5003 5.47689 34.6605 5.56179C35.3217 5.91223 36.5359 6.30161 38.2332 6.82907L37.9365 7.78402ZM33.6226 4.96326C33.5536 4.63414 33.2735 4.31771 32.4961 4.06997C31.7229 3.82355 30.5915 3.69303 29.0901 3.6503C26.0926 3.56498 21.8206 3.83071 16.4205 4.06087L16.3779 3.06178C21.7378 2.83334 26.0739 2.56404 29.1186 2.6507C30.6383 2.69396 31.8866 2.82617 32.7997 3.11718C33.7088 3.40685 34.422 3.90253 34.6013 4.75812L33.6226 4.96326ZM21.6963 9.0819C21.7623 9.63718 21.8934 9.934 22.0859 10.1487C22.2928 10.3794 22.6208 10.5737 23.2124 10.8193L22.8291 11.7429C22.2175 11.489 21.7078 11.225 21.3414 10.8163C20.9606 10.3916 20.7828 9.86807 20.7033 9.19995L21.6963 9.0819ZM25.5171 14.356C24.7612 14.1142 24.1299 13.8932 23.6285 13.6792C23.1361 13.4691 22.726 13.2483 22.4459 12.9916C22.1494 12.72 21.9494 12.3562 22.0318 11.9138C22.1033 11.5302 22.3726 11.2004 22.6807 10.9146L23.3609 11.6476C23.0899 11.8991 23.025 12.0428 23.0149 12.097C23.0123 12.1107 23.0132 12.1162 23.018 12.1276C23.0256 12.1456 23.0499 12.1887 23.1215 12.2544C23.2726 12.3928 23.554 12.5601 24.021 12.7595C24.4789 12.9549 25.0748 13.1647 25.8217 13.4035L25.5171 14.356ZM25.808 14.3602L23.1594 15.1245L22.8821 14.1637L25.5308 13.3994L25.808 14.3602ZM23.4574 14.8878C23.321 15.132 23.2597 15.2789 23.2422 15.3581C23.2342 15.3941 23.2455 15.3742 23.2324 15.3246C23.2149 15.2583 23.1699 15.1983 23.1161 15.1638C23.0766 15.1385 23.0609 15.1453 23.1089 15.1502C23.1537 15.1547 23.2291 15.155 23.3454 15.1426C23.5789 15.1177 23.9149 15.0488 24.3828 14.925L24.6384 15.8918C24.156 16.0194 23.7616 16.1039 23.4515 16.137C23.296 16.1536 23.1463 16.159 23.0085 16.1451C22.8738 16.1315 22.7179 16.0963 22.5766 16.0057C22.4209 15.906 22.3124 15.7574 22.2655 15.5797C22.223 15.4185 22.2389 15.2641 22.2656 15.1429C22.3174 14.9078 22.4451 14.6496 22.5842 14.4004L23.4574 14.8878ZM106.287 13.5326H108.274V14.5326H106.287V13.5326ZM108.734 13.8383C108.856 14.1268 108.98 14.3069 109.111 14.4224C109.234 14.531 109.392 14.6076 109.633 14.6389C110.16 14.7073 110.997 14.5527 112.424 14.0919L112.731 15.0435C111.32 15.4992 110.282 15.7315 109.504 15.6306C109.093 15.5772 108.742 15.43 108.449 15.1724C108.165 14.9216 107.967 14.593 107.813 14.227L108.734 13.8383ZM100.104 16.517C103.091 16.1643 105.389 15.9248 107.126 15.8944C108.841 15.8645 110.12 16.0328 110.985 16.5941L110.441 17.433C109.849 17.0494 108.844 16.8646 107.143 16.8943C105.465 16.9236 103.216 17.1565 100.221 17.5101L100.104 16.517ZM110.985 16.5941C111.155 16.7041 111.308 16.8291 111.446 16.9702L110.73 17.6683C110.647 17.5829 110.551 17.5045 110.441 17.433L110.985 16.5941ZM110.215 17.0555C110.166 16.4771 110.137 15.8642 110.481 15.3222C110.822 14.7861 111.456 14.4235 112.416 14.0947L112.74 15.0406C111.819 15.3562 111.472 15.6272 111.325 15.8584C111.182 16.0835 111.16 16.3714 111.211 16.9715L110.215 17.0555ZM112.469 14.0796L116.939 13.086L117.156 14.0621L112.686 15.0558L112.469 14.0796ZM116.966 14.0674C116.402 13.9744 115.939 13.886 115.581 13.7948C115.248 13.7097 114.927 13.6043 114.716 13.4408C114.602 13.3525 114.459 13.1995 114.427 12.9681C114.395 12.7323 114.496 12.5448 114.589 12.4285C114.755 12.2193 115.043 12.0504 115.332 11.9046L115.782 12.7976C115.646 12.8664 115.544 12.9248 115.471 12.9738C115.393 13.0257 115.37 13.0523 115.372 13.0509C115.374 13.048 115.436 12.9673 115.418 12.8329C115.41 12.7703 115.386 12.7222 115.365 12.6914C115.355 12.6767 115.346 12.6664 115.339 12.6602C115.333 12.654 115.329 12.651 115.329 12.6508C115.329 12.6505 115.331 12.6524 115.337 12.656C115.343 12.6595 115.351 12.6644 115.363 12.6704C115.386 12.6825 115.419 12.6973 115.462 12.7142C115.551 12.7484 115.671 12.7857 115.828 12.8258C116.143 12.9061 116.573 12.989 117.129 13.0807L116.966 14.0674ZM115.129 12.0924C116.067 10.5426 116.924 9.30885 118.118 8.08568C119.309 6.86582 120.819 5.67202 123.047 4.18175L123.603 5.01299C121.403 6.48448 119.956 7.63425 118.833 8.78418C117.714 9.93079 116.902 11.093 115.985 12.6098L115.129 12.0924ZM123.047 4.18175C123.106 4.1421 123.166 4.1022 123.227 4.06207L123.78 4.89496C123.72 4.93451 123.661 4.97386 123.603 5.01299L123.047 4.18175ZM123.5 1.7882C123.497 1.90131 123.569 1.94993 123.544 1.93135C123.506 1.90361 123.404 1.85099 123.191 1.79456C122.773 1.68351 122.087 1.59824 121.067 1.54902C119.04 1.45115 115.826 1.50041 111.108 1.6915L111.068 0.692316C115.785 0.501236 119.039 0.449942 121.116 0.550188C122.148 0.600033 122.922 0.688499 123.448 0.827993C123.707 0.896825 123.949 0.988678 124.135 1.12489C124.333 1.27024 124.509 1.50228 124.5 1.81853L123.5 1.7882ZM99.7017 17.2084C99.62 17.0154 99.5457 16.828 99.4809 16.647L100.422 16.31C100.479 16.4692 100.546 16.6385 100.623 16.8186L99.7017 17.2084ZM99.4809 16.647C99.2701 16.058 99.1367 15.4755 99.232 14.9542C99.3369 14.38 99.701 13.963 100.281 13.7043C100.828 13.4601 101.583 13.3467 102.552 13.3251C103.53 13.3033 104.777 13.375 106.338 13.5352L106.236 14.53C104.692 14.3715 103.493 14.3044 102.574 14.3249C101.645 14.3456 101.051 14.4557 100.688 14.6175C100.358 14.7647 100.252 14.9361 100.216 15.134C100.17 15.3849 100.225 15.7581 100.422 16.31L99.4809 16.647ZM94.579 11.7252C94.3522 11.2487 94.2101 10.7755 94.2491 10.3144C94.2902 9.82829 94.526 9.42568 94.9129 9.0944C95.2849 8.77595 95.8035 8.51614 96.4463 8.2806C97.0946 8.04304 97.9052 7.81763 98.8879 7.58439L99.1189 8.55736C98.1509 8.7871 97.3843 9.00191 96.7903 9.21955C96.1909 9.43922 95.8021 9.6496 95.5633 9.85406C95.3394 10.0457 95.2608 10.2187 95.2455 10.3988C95.2282 10.6038 95.2876 10.8872 95.4819 11.2955L94.579 11.7252ZM98.8841 7.58531C100.044 7.30051 101.013 7.03263 101.797 6.7595C102.585 6.48445 103.153 6.21458 103.528 5.93821C103.897 5.66634 104.035 5.42305 104.064 5.19837C104.096 4.95918 104.022 4.62195 103.713 4.13493L104.557 3.59919C104.926 4.18006 105.131 4.75921 105.056 5.32966C104.978 5.91462 104.622 6.37425 104.121 6.74331C103.626 7.10789 102.948 7.41699 102.126 7.70372C101.298 7.99237 100.293 8.26907 99.1227 8.55644L98.8841 7.58531ZM103.826 3.47425C104.752 2.74462 105.556 2.16827 106.641 1.71648C107.72 1.267 109.05 0.951689 111.024 0.696048L111.152 1.68777C109.218 1.9382 107.988 2.23883 107.026 2.6396C106.069 3.03804 105.351 3.54623 104.444 4.25987L103.826 3.47425ZM101.585 8.39275C102.868 7.71739 103.755 7.18956 104.409 6.58578C105.047 5.99748 105.48 5.32168 105.813 4.32092L106.762 4.63611C106.383 5.77722 105.865 6.60413 105.087 7.32089C104.327 8.02217 103.335 8.60174 102.05 9.27766L101.585 8.39275ZM106.057 4.03468C107.748 3.15769 109.172 2.56824 110.792 2.25984C112.409 1.95205 114.191 1.92983 116.595 2.14614L116.506 3.14212C114.148 2.92992 112.468 2.95874 110.979 3.2422C109.493 3.52505 108.166 4.06705 106.517 4.92235L106.057 4.03468ZM116.617 2.14855C119.344 2.51334 120.903 2.37182 122.263 1.59812L122.757 2.4672C121.107 3.40655 119.275 3.51297 116.484 3.13972L116.617 2.14855ZM122.839 4.47997L123.311 2.52673L124.283 2.76153L123.811 4.71477L122.839 4.47997ZM123.311 2.52673L123.514 1.68596L124.486 1.92077L124.283 2.76154L123.311 2.52673ZM122.511 1.53266C122.843 1.53364 123.172 1.55425 123.472 1.68639C123.793 1.82716 124.02 2.06515 124.218 2.37504L123.375 2.91323C123.241 2.70315 123.149 2.63636 123.07 2.60186C122.972 2.55874 122.823 2.53359 122.509 2.53266L122.511 1.53266ZM21.0316 9.61178C19.3014 8.99366 17.9026 8.44413 16.8726 7.91043C15.8698 7.39083 15.1006 6.83043 14.7903 6.13433L15.7036 5.72715C15.8614 6.08106 16.3402 6.50829 17.3327 7.02254C18.2979 7.5227 19.6415 8.05326 21.368 8.67007L21.0316 9.61178ZM14.7903 6.13433C14.5672 5.63388 14.6031 5.11767 14.8492 4.61427C15.0839 4.13406 15.5094 3.66206 16.0751 3.18057L16.7233 3.94208C16.199 4.38833 15.8938 4.75424 15.7476 5.05339C15.6127 5.32936 15.6175 5.53399 15.7036 5.72715L14.7903 6.13433ZM15.0157 5.48741C16.1996 4.87002 17.1472 4.49869 18.0713 4.39546C19.009 4.29072 19.8733 4.467 20.8817 4.85221L20.5248 5.78636C19.6043 5.43472 18.9072 5.3083 18.1823 5.38928C17.4438 5.47178 16.6277 5.7746 15.4781 6.37407L15.0157 5.48741ZM20.3721 4.81928H25.6694V5.81928H20.3721V4.81928ZM25.4625 4.86409C26.7263 4.28974 27.7948 3.81276 28.9748 3.66896C30.1743 3.52279 31.4441 3.72321 33.1377 4.39601L32.7685 5.32537C31.1743 4.69206 30.0781 4.54191 29.0958 4.66162C28.0939 4.78371 27.1644 5.18908 25.8763 5.77448L25.4625 4.86409ZM33.6121 7.77681C33.6016 7.32744 33.5661 7.00831 33.4326 6.64725C33.295 6.27525 33.0421 5.82933 32.5496 5.15585L33.3567 4.56553C33.8702 5.26768 34.1857 5.80072 34.3705 6.3004C34.5593 6.81103 34.6002 7.25631 34.6118 7.75347L33.6121 7.77681ZM82.6038 123.757C82.5954 123.791 82.5931 123.814 82.5927 123.827C82.5923 123.84 82.5937 123.846 82.5939 123.847C82.5942 123.848 82.5947 123.85 82.5972 123.855C82.6 123.86 82.6066 123.87 82.6208 123.886C82.6517 123.92 82.7059 123.966 82.8018 124.032C82.8976 124.096 83.0127 124.165 83.1598 124.253L82.6478 125.112C82.3868 124.956 82.08 124.78 81.8776 124.555C81.7642 124.429 81.6684 124.274 81.622 124.083C81.5761 123.893 81.5873 123.703 81.6327 123.518L82.6038 123.757ZM83.1599 124.253L83.202 124.278L82.6898 125.137L82.6477 125.112L83.1599 124.253ZM56.5139 134.487C56.5628 134.394 56.5668 134.344 56.5663 134.326C56.566 134.314 56.5639 134.295 56.5374 134.259C56.4655 134.162 56.2708 134.018 55.8462 133.851C55.0149 133.525 53.6618 133.242 51.851 132.867L52.054 131.888C53.8217 132.254 55.2807 132.555 56.2116 132.92C56.6682 133.099 57.0923 133.328 57.3413 133.665C57.4752 133.846 57.5592 134.059 57.5659 134.298C57.5725 134.531 57.5047 134.752 57.3985 134.953L56.5139 134.487ZM51.851 132.867L51.7229 132.84L51.9259 131.861L52.054 131.888L51.851 132.867ZM51.9259 131.861C51.9688 131.87 52.0115 131.879 52.054 131.888L51.851 132.867C51.8085 132.858 51.7658 132.849 51.7229 132.84L51.9259 131.861ZM82.6897 125.137C82.6756 125.129 82.6616 125.12 82.6478 125.112L83.1598 124.253C83.1738 124.261 83.1879 124.27 83.2021 124.278L82.6897 125.137ZM20.7032 4.81928H25.6694V5.81928H20.7032V4.81928ZM34.1441 7.26618L34.2591 7.2736L34.1946 8.27152L34.0797 8.2641L34.1441 7.26618ZM34.259 7.2736C35.0667 7.32563 35.818 7.369 36.3833 7.5797C36.6829 7.69139 36.9574 7.85807 37.1736 8.11597C37.3895 8.37367 37.5193 8.68913 37.584 9.05365L36.5993 9.2282C36.5578 8.99398 36.4861 8.85254 36.4071 8.7583C36.3283 8.66425 36.2144 8.58395 36.034 8.51673C35.6394 8.36964 35.0644 8.32756 34.1947 8.27153L34.259 7.2736ZM34.1442 7.26618C34.1828 7.26868 34.2211 7.27115 34.259 7.2736L34.1947 8.27153C34.1567 8.26908 34.1183 8.2666 34.0796 8.26409L34.1442 7.26618ZM76.7227 123.218C76.7062 123.214 76.6896 123.211 76.6729 123.208L76.8648 122.227C76.883 122.23 76.9012 122.234 76.9192 122.237L76.7227 123.218ZM76.6728 123.208C76.6655 123.206 76.6582 123.205 76.6507 123.204L76.8407 122.222C76.8486 122.223 76.8567 122.225 76.8649 122.227L76.6728 123.208ZM76.8406 122.222C76.867 122.227 76.8932 122.232 76.9192 122.237L76.7227 123.218C76.6989 123.213 76.6749 123.208 76.6507 123.204L76.8406 122.222ZM76.6486 123.203C76.6407 123.202 76.6328 123.2 76.6248 123.199L76.8124 122.216C76.8211 122.218 76.8298 122.22 76.8384 122.221L76.6486 123.203ZM75.2158 121.994C75.7743 122.05 76.2771 122.118 76.7285 122.201L76.5475 123.184C76.1298 123.107 75.6551 123.043 75.1153 122.988L75.2158 121.994ZM76.8386 122.221L76.8407 122.222L76.6506 123.204L76.6485 123.203L76.8386 122.221ZM76.8648 122.227C78.11 122.47 79.0139 122.851 79.607 123.522C80.2037 124.196 80.41 125.078 80.4655 126.134L79.4669 126.186C79.4155 125.208 79.2299 124.605 78.858 124.184C78.4825 123.76 77.8412 123.436 76.6729 123.208L76.8648 122.227ZM76.6486 123.203C76.6269 123.199 76.6049 123.195 76.5828 123.191L76.7667 122.208C76.7908 122.212 76.8146 122.217 76.8384 122.221L76.6486 123.203ZM76.5828 123.191C76.571 123.188 76.5593 123.186 76.5475 123.184L76.7285 122.201C76.7414 122.203 76.7541 122.205 76.7668 122.208L76.5828 123.191ZM76.6248 123.199C76.6109 123.196 76.5969 123.193 76.5828 123.191L76.7667 122.208C76.782 122.211 76.7972 122.213 76.8124 122.216L76.6248 123.199ZM76.8129 122.216L76.8379 122.221L76.6492 123.203L76.6243 123.199L76.8129 122.216ZM76.8411 122.222L76.8643 122.226L76.6734 123.208L76.6502 123.204L76.8411 122.222ZM99.5491 16.7751C98.5649 15.4394 97.807 14.5277 96.8118 13.6099L97.4897 12.8747C98.5507 13.8532 99.3514 14.8211 100.354 16.1819L99.5491 16.7751ZM96.8118 13.6098C96.748 13.551 96.6831 13.4921 96.6171 13.433L97.2842 12.688C97.3538 12.7503 97.4223 12.8126 97.4897 12.8748L96.8118 13.6098ZM96.6049 13.4216C96.2204 13.0534 95.8933 12.6276 95.8171 12.1346C95.7341 11.597 95.9655 11.12 96.3885 10.7133C96.799 10.3185 97.4306 9.94561 98.281 9.5691C99.1392 9.18914 100.257 8.78991 101.671 8.3571L101.964 9.31331C100.569 9.74038 99.4927 10.1262 98.6858 10.4835C97.871 10.8442 97.3661 11.1606 97.0816 11.4341C96.8095 11.6958 96.7875 11.8662 96.8054 11.9819C96.8301 12.1422 96.9583 12.3755 97.2965 12.6994L96.6049 13.4216ZM96.8233 13.6202C96.7473 13.5543 96.6743 13.4881 96.6049 13.4216L97.2965 12.6994C97.3526 12.7531 97.4131 12.808 97.4782 12.8644L96.8233 13.6202ZM99.5491 16.7751C98.5028 15.3551 97.7112 14.4128 96.6171 13.433L97.2843 12.688C98.4492 13.7313 99.2868 14.7333 100.354 16.1819L99.5491 16.7751ZM96.6171 13.433C96.0858 12.9571 95.479 12.4688 94.7315 11.9111L95.3295 11.1096C96.0928 11.6791 96.7243 12.1866 97.2843 12.688L96.6171 13.433ZM52.1023 94.8602C58.5408 94.1703 62.3587 94.4207 65.0641 95.387C67.7874 96.3597 69.3308 98.0441 71.2215 100.006L70.5015 100.7C68.585 98.7114 67.1955 97.2102 64.7277 96.3287C62.2421 95.4409 58.6107 95.1685 52.2089 95.8545L52.1023 94.8602Z" fill="black"/>
<defs>
<filter id="filter0_d_250_175" x="0.5" y="0.5" width="128" height="143" filterUnits="userSpaceOnUse" color-interpolation-filters="sRGB">
<feFlood flood-opacity="0" result="BackgroundImageFix"/>
<feColorMatrix in="SourceAlpha" type="matrix" values="0 0 0 0 0 0 0 0 0 0 0 0 0 0 0 0 0 0 127 0" result="hardAlpha"/>
<feOffset dy="4"/>
<feGaussianBlur stdDeviation="2"/>
<feComposite in2="hardAlpha" operator="out"/>
<feColorMatrix type="matrix" values="0 0 0 0 0 0 0 0 0 0 0 0 0 0 0 0 0 0 0.25 0"/>
<feBlend mode="normal" in2="BackgroundImageFix" result="effect1_dropShadow_250_175"/>
<feBlend mode="normal" in="SourceGraphic" in2="effect1_dropShadow_250_175" result="shape"/>
</filter>
</defs>
</svg>
