<svg viewBox="0 0 188 135" fill="none" xmlns="http://www.w3.org/2000/svg">
<path d="M131.801 82.7225C126.602 82.6869 123.786 82.5996 119.447 81.9747L85.1307 81.6542C81.3402 81.3797 79.7911 81.5446 79.3225 83.4703L77.5811 82.9362V81.6542L74.1495 80.6928L73.692 78.8767C85.2987 78.4254 96.7683 76.5611 108.237 73.5924C119.484 72.1319 127.462 71.6821 132.258 72.9408C132.577 73.0245 132.882 73.1158 133.173 73.2149L132.716 74.0695C132.366 74.7753 132.401 75.1901 133.173 75.9924L132.258 78.129C133.09 77.912 134.785 78.9233 134.775 79.945C136.18 80.1095 136.226 80.6464 135.69 81.9747L137.749 83.5902C135.76 83.6332 134.394 83.4657 131.801 82.7225Z" fill="#2EC4B6"/>
<path d="M130.886 116.48C124.727 113.723 121.432 114.69 115.558 116.48L113.727 118.136C114.589 115.331 114.919 113.909 113.041 113.809C112.944 111.701 114.705 110.347 120.819 108.254C122.381 107.075 123.631 105.629 127.225 104.622C132.726 108.04 134.428 109.996 133.402 113.595L131.778 114.023C131.775 116.154 132.034 117.17 132.726 118.296C132.242 117.581 131.582 116.896 130.886 116.48Z" fill="#F9B9A5"/>
<path d="M28.8523 16.0626L27.9372 15.7421L23.5905 15.1011C22.4471 16.2777 20.3502 16.5035 16.956 16.515C16.0473 16.518 15.0456 16.5057 13.9444 16.4922L13.7532 16.4899L11.2367 13.2851C11.651 13.1878 6.67774 10.4544 2.77205 9.01201C-0.583036 6.14531 0.887702 5.62014 6.6612 5.70037C12.3597 5.78794 15.1597 6.2135 19.7013 7.40961C23.7049 10.3505 25.3626 11.1128 27.9372 11.8963L28.8523 16.0626Z" fill="#5B555B"/>
<path d="M27.9372 15.7421C25.0562 16.9797 23.0686 17.5159 17.8711 17.7718L16.956 16.515C20.3502 16.5035 22.4471 16.2777 23.5905 15.1011L27.9372 15.7421Z" fill="black"/>
<path d="M103.89 107.293C103.714 111.026 101.799 111.298 96.5694 109.963L96.1118 109.963L93.8241 108.788C86.3947 103.19 83.774 99.4077 80.0976 92.3369L79.1825 84.4317C79.2085 84.0709 79.2539 83.7518 79.3225 83.4703C79.7911 81.5446 81.3402 81.3797 85.1307 81.6542L119.447 81.9747C123.786 82.5996 126.602 82.6869 131.801 82.7225C134.394 83.4657 135.76 83.6332 137.749 83.5902C137.897 83.5869 138.05 83.5825 138.206 83.5771C140.617 84.7709 142.443 85.3317 146.671 86.141C150.362 85.2865 151.175 85.7292 151.246 87.5297C153.226 87.6325 153.542 87.8936 152.848 88.7048L149.416 89.1321C145.057 89.8418 142.42 89.6675 137.749 89.4526L130.657 87.5297C128.197 86.1983 121.782 86.3073 110.525 87.0709C101.876 87.6663 96.7245 88.1124 93.8241 88.3843V89.2389C97.5308 92.8102 99.3925 95.4905 102.517 100.883C103.126 102.06 103.405 103.921 103.89 107.293Z" fill="#F9B9A5"/>
<path d="M133.402 113.595C134.428 109.996 132.726 108.04 127.225 104.622C123.631 105.629 122.381 107.075 120.819 108.254C114.705 110.347 112.944 111.701 113.041 113.809C111.671 113.447 110.647 113.345 108.466 113.382C105.834 111.943 104.46 111.492 102.289 111.673C96.8965 111.629 96.6181 111.038 96.1333 110.009L96.1118 109.963L96.5694 109.963C101.799 111.298 103.714 111.026 103.89 107.293C103.405 103.921 103.126 102.06 102.517 100.883C99.3925 95.4905 97.5308 92.8102 93.8241 89.2389V88.3843C96.7245 88.1124 101.876 87.6663 110.525 87.0709C121.782 86.3073 128.197 86.1983 130.657 87.5297L137.749 89.4526C138.904 89.5057 139.935 89.5564 140.898 89.5918C144.131 90.9654 144.483 93.0571 145.069 96.61C146.768 97.8942 147.42 98.7883 148.272 100.563C148.174 102.414 147.899 103.937 147.439 105.477C147.322 107.94 146.568 109.768 145.069 111.459C140.423 112.878 137.898 113.149 133.402 113.595Z" fill="#2EC4B6"/>
<path d="M145.069 111.459C146.568 109.768 147.322 107.94 147.439 105.477C147.899 103.937 148.174 102.414 148.272 100.563L151.933 102.165C157.582 101.14 161.577 100.089 172.98 95.7554C173.959 95.0683 174.435 94.6246 174.353 93.0847L174.81 84.6454V83.5902C173.485 83.3223 172.733 83.2425 171.379 83.2566C168.606 83.2077 168.272 83.0442 167.032 82.9362C166.248 81.8859 163.6 81.7611 163.6 81.0133C164.296 80.3989 164.764 80.2665 165.888 80.7996L168.176 81.5474H169.091C170.199 80.6737 170.996 80.7543 172.522 81.2269C172.944 79.7895 173.853 79.5738 176.109 79.8994C176.463 78.1869 177.762 78.9088 179.215 79.4115L181.445 80.3723C180.877 79.0695 180.738 79.0062 183.333 79.3047C184.158 80.5579 184.707 80.7705 184.419 81.5474L185.105 82.5089V84.4317C185.103 84.5037 185.101 84.5749 185.099 84.6454C185.015 88.0037 185.586 89.8008 186.935 92.8711C187.23 95.7401 186.631 97.1851 182.817 99.1738L178.013 101.524C171.121 103.728 167.42 105.078 161.312 107.827C156.667 110.768 152.462 110.981 145.069 111.459Z" fill="#F9B9A5"/>
<path d="M136.605 121.287C134.956 120.099 134.292 120.074 133.402 120.753C133.631 120.383 133.5 119.723 133.148 119.013C133.135 118.988 133.122 118.963 133.109 118.937C133.479 119.466 134.652 119.995 136.082 120.326C138.217 121.34 139.061 121.719 140.036 122.142V123.969C138.52 124.136 137.165 124.333 135.928 124.563C137.534 123.62 137.859 122.891 136.605 121.287Z" fill="#724E2D"/>
<path d="M111.897 128.979C108.964 126.91 110.296 122.142 110.296 122.142C106.796 123.889 105.303 124.434 107.093 121.287C108.559 119.579 109.464 118.849 111.897 119.792L113.727 118.136L115.558 116.48C121.432 114.69 124.727 113.723 130.886 116.48C131.582 116.896 132.242 117.581 132.726 118.296C132.871 118.509 132.999 118.725 133.109 118.937C133.122 118.963 133.135 118.988 133.148 119.013C133.5 119.723 133.631 120.383 133.402 120.753C134.292 120.074 134.956 120.099 136.605 121.287C137.859 122.891 137.534 123.62 135.928 124.563C135.893 124.569 135.859 124.575 135.825 124.582C130.342 125.614 127.163 127.303 122.421 129.94L120.591 128.979L117.845 130.047C115.878 130.287 114.543 129.993 111.897 128.979Z" fill="#F9B9A5"/>
<path d="M110.296 122.142C110.296 122.142 108.964 126.91 111.897 128.979C114.543 129.993 115.878 130.287 117.845 130.047L120.591 128.979L122.421 129.94C127.163 127.303 130.342 125.614 135.825 124.582C135.859 124.575 135.893 124.569 135.928 124.563C137.165 124.333 138.52 124.136 140.036 123.969C140.408 123.928 140.789 123.888 141.18 123.851C142.026 123.611 141.806 123.778 140.036 124.705C139.959 124.717 139.883 124.728 139.808 124.74V125.881L137.977 126.201C137.664 127.913 136.919 128.684 135.232 129.94C132.944 132.504 124.727 134.492 118.074 133.893C111.705 132.977 105.408 129.006 106.178 128.444C105.477 126.103 105.612 124.898 106.362 122.912C106.103 124.117 107.607 123.484 110.296 122.142Z" fill="#724E2D"/>
<path d="M108.237 73.5924C96.7683 76.5611 85.2987 78.4254 73.692 78.8767C68.9791 76.5957 67.1454 74.8411 64.7698 71.1852C62.5709 69.5285 61.3461 68.4009 58.1354 64.8824C60.5741 64.8988 62.012 65.0917 64.7698 65.9507C68.4838 62.125 72.3768 60.1958 89.7062 59.2982C91.0018 59.2311 92.3726 59.1697 93.8241 59.1138L97.942 61.7845L100.23 60.5025C103.366 62.6775 110.139 62.977 131.801 61.7845L133.173 63.0664L135.69 60.5025L134.775 63.4937C133.093 64.8002 133.208 65.8036 134.088 67.7668C135.502 70.112 134.544 71.1597 132.258 72.9408C127.462 71.6821 119.484 72.1319 108.237 73.5924Z" fill="black"/>
<path d="M131.801 61.7845C110.139 62.977 103.366 62.6775 100.23 60.5025C101.069 59.5252 101.334 58.9203 100.23 57.4046C100.748 53.7209 101.31 51.8926 103.433 49.6062C103.284 45.9545 103.198 43.879 102.975 39.5645C105.052 35.0601 105.959 32.5415 104.348 28.134L104.309 28.0559C103.178 25.7996 102.962 25.3679 105.263 16.7035C104.533 14.6105 104.194 13.3849 102.518 12.0032C105.124 13.0216 107.503 13.0774 113.27 12.3236L112.584 13.0714C116.93 20.2288 123.474 24.2918 124.022 33.7958C124.539 37.7341 124.527 39.0108 124.709 41.9147C128.062 45.8159 130.886 54.3066 133.173 59.7547V63.0664L131.801 61.7845Z" fill="#F9B9A5"/>
<path d="M135.69 60.5025L133.173 63.0664V59.7547L135.69 60.5025Z" fill="#D9D9D9"/>
<path d="M64.7698 65.9507C62.012 65.0917 60.5741 64.8988 58.1354 64.8824C58.3164 59.8102 57.0433 56.5206 49.8995 49.0721C47.8358 45.8391 46.0515 44.0081 39.1471 40.6327C32.2032 35.6642 29.4329 31.9401 25.1919 24.7156C21.7907 20.5262 20.1661 19.002 17.8711 17.7718C23.0686 17.5159 25.0562 16.9797 27.9372 15.7421L28.8523 16.0626L29.5386 19.3742C36.8267 23.9153 40.7491 26.1528 47.383 29.5228C53.2377 35.2381 54.8163 37.0367 66.8536 41.1933C73.8586 48.6562 79.4041 51.8584 89.7062 57.4046V59.2982C72.3768 60.1958 68.4838 62.125 64.7698 65.9507Z" fill="#F9B9A5"/>
<path d="M113.27 12.3236C107.503 13.0774 105.124 13.0216 102.518 12.0032C100.851 9.8483 100.43 8.55858 102.518 5.8072C101.003 4.754 100.536 4.11575 101.831 2.70924C104.314 2.11918 107.99 2.1952 114.871 2.38874C116.109 2.43356 116.884 2.5521 117.339 2.70924C118.051 3.21837 118.134 4.24794 118.074 5.8072C117.631 9.34309 116.235 10.5317 113.27 12.3236Z" fill="#5B555B"/>
<path d="M117.339 2.70924C116.884 2.5521 116.109 2.43356 114.871 2.38874C107.99 2.1952 104.314 2.11918 101.831 2.70924C100.43 2.49231 100.53 2.04452 101.374 1L118.074 1.42731C119.045 1.88937 118.77 2.17337 117.339 2.70924Z" fill="white"/>
<path d="M110.296 122.142L110.073 121.694L111.08 121.191L110.777 122.276L110.296 122.142ZM111.897 128.979L111.718 129.446L111.66 129.423L111.609 129.387L111.897 128.979ZM107.093 121.287L106.658 121.04L106.682 120.998L106.714 120.961L107.093 121.287ZM111.897 119.792L112.233 120.162L112.004 120.369L111.717 120.258L111.897 119.792ZM115.558 116.48L115.222 116.109L115.305 116.034L115.412 116.002L115.558 116.48ZM130.886 116.48L131.09 116.024L131.117 116.036L131.142 116.051L130.886 116.48ZM133.402 120.753L133.705 121.15L132.977 120.49L133.402 120.753ZM136.605 121.287L136.897 120.881L136.955 120.923L136.999 120.979L136.605 121.287ZM120.591 128.979L120.409 128.513L120.622 128.43L120.823 128.536L120.591 128.979ZM122.421 129.94L122.664 130.377L122.428 130.508L122.188 130.383L122.421 129.94ZM141.18 123.851L141.317 124.332L141.273 124.344L141.228 124.349L141.18 123.851ZM132.258 126.949L131.807 126.732L131.885 126.57L132.049 126.495L132.258 126.949ZM140.036 124.705L140.268 125.148L140.194 125.187L140.11 125.2L140.036 124.705ZM106.178 128.444L106.657 128.301L106.758 128.64L106.472 128.848L106.178 128.444ZM118.074 133.893L118.029 134.39L118.016 134.389L118.003 134.387L118.074 133.893ZM135.232 129.94L134.859 129.607L134.893 129.569L134.934 129.539L135.232 129.94ZM137.977 126.201L137.486 126.111L137.548 125.769L137.891 125.709L137.977 126.201ZM139.808 125.881H140.308V126.301L139.894 126.373L139.808 125.881ZM140.036 123.969L140.091 124.465L140.036 123.969ZM140.036 122.142L140.235 121.683L140.536 121.814V122.142H140.036ZM133.109 118.937L132.665 119.167L132.665 119.167L133.109 118.937ZM136.082 120.326L136.195 119.838L136.248 119.851L136.297 119.874L136.082 120.326ZM106.362 122.912L105.894 122.735L106.85 123.017L106.362 122.912ZM117.845 130.047L118.027 130.513L117.968 130.535L117.906 130.543L117.845 130.047ZM113.041 113.809L113.015 114.308L112.963 114.306L112.913 114.292L113.041 113.809ZM131.778 114.023L131.278 114.022L131.778 114.023ZM127.225 104.622L127.09 104.141L127.302 104.081L127.489 104.197L127.225 104.622ZM120.819 108.254L121.121 108.653L121.057 108.701L120.981 108.727L120.819 108.254ZM147.439 105.477L146.94 105.453L146.943 105.392L146.96 105.334L147.439 105.477ZM145.069 96.61L144.768 97.0088L144.609 96.8884L144.576 96.6914L145.069 96.61ZM140.898 89.5918L140.916 89.0922L141.008 89.0956L141.093 89.1316L140.898 89.5918ZM96.5694 109.963V109.463H96.6322L96.693 109.479L96.5694 109.963ZM103.89 107.293L104.385 107.222L104.392 107.269L104.39 107.316L103.89 107.293ZM102.289 111.673L102.33 112.171L102.307 112.173L102.285 112.173L102.289 111.673ZM108.466 113.382L108.474 113.882L108.342 113.884L108.226 113.82L108.466 113.382ZM102.517 100.883L102.95 100.632L102.956 100.643L102.962 100.653L102.517 100.883ZM93.8241 89.2389L93.4772 89.599L93.3241 89.4515V89.2389H93.8241ZM93.8241 88.3843L93.7044 87.8989L93.7404 87.89L93.7774 87.8865L93.8241 88.3843ZM130.657 87.5297L130.526 88.0123L130.47 87.9971L130.419 87.9694L130.657 87.5297ZM110.525 87.0709L110.49 86.5721L110.491 86.5721L110.525 87.0709ZM137.749 89.4526L137.726 89.9521L137.671 89.9495L137.618 89.9352L137.749 89.4526ZM149.416 89.1321L149.336 88.6386L149.345 88.6371L149.354 88.6359L149.416 89.1321ZM152.848 88.7048L153.228 89.0298L153.102 89.177L152.91 89.201L152.848 88.7048ZM151.246 87.5297L151.22 88.029L150.765 88.0054L150.747 87.5496L151.246 87.5297ZM146.671 86.141L146.784 86.6281L146.681 86.6519L146.577 86.632L146.671 86.141ZM138.206 83.5771L138.189 83.0774L138.315 83.0731L138.428 83.1291L138.206 83.5771ZM131.801 82.7225L131.804 82.2225L131.872 82.223L131.938 82.2419L131.801 82.7225ZM119.447 81.9747L119.451 81.4747L119.485 81.4751L119.518 81.4798L119.447 81.9747ZM85.1307 81.6542L85.126 82.1542L85.1103 82.1541L85.0945 82.1529L85.1307 81.6542ZM79.1825 84.4317L78.6859 84.4892L78.6805 84.4426L78.6838 84.3958L79.1825 84.4317ZM80.0976 92.3369L79.654 92.5676L79.6116 92.4859L79.601 92.3944L80.0976 92.3369ZM93.8241 108.788L93.5956 109.233L93.5575 109.213L93.5232 109.188L93.8241 108.788ZM77.5811 82.9362L77.4345 83.4142L77.0811 83.3058V82.9362H77.5811ZM77.5811 81.6542L77.716 81.1728L78.0811 81.2751V81.6542H77.5811ZM74.1495 80.6928L74.0146 81.1743L73.7355 81.0961L73.6647 80.815L74.1495 80.6928ZM133.173 73.2149L133.334 72.7416L133.892 72.9315L133.614 73.4509L133.173 73.2149ZM108.237 73.5924L108.112 73.1083L108.142 73.1005L108.172 73.0965L108.237 73.5924ZM137.749 83.5902L137.76 84.09L137.749 83.5902ZM135.69 81.9747L135.381 82.3681L135.085 82.1361L135.226 81.7876L135.69 81.9747ZM134.775 79.945L134.717 80.4416L134.27 80.3894L134.275 79.94L134.775 79.945ZM132.258 78.129L132.384 78.6128L131.397 78.8704L131.799 77.9321L132.258 78.129ZM133.173 75.9924L133.533 75.6456L133.763 75.8845L133.633 76.1893L133.173 75.9924ZM132.716 74.0695L132.268 73.8475L132.271 73.8405L132.275 73.8335L132.716 74.0695ZM151.933 102.165L152.022 102.657L151.872 102.684L151.732 102.623L151.933 102.165ZM172.98 95.7554L173.267 96.1647L173.216 96.2006L173.158 96.2228L172.98 95.7554ZM161.312 107.827L161.045 107.404L161.075 107.385L161.107 107.371L161.312 107.827ZM178.013 101.524L178.233 101.973L178.2 101.989L178.165 102L178.013 101.524ZM174.353 93.0847L173.853 93.1116L173.852 93.0846L173.853 93.0576L174.353 93.0847ZM174.81 84.6454H175.31V84.6589L175.309 84.6725L174.81 84.6454ZM182.817 99.1738L183.048 99.6173L183.037 99.623L182.817 99.1738ZM186.935 92.8711L187.393 92.6699L187.424 92.7418L187.433 92.82L186.935 92.8711ZM185.105 84.4317H185.605V84.4399L185.605 84.448L185.105 84.4317ZM185.099 84.6454L185.599 84.6579L185.099 84.6454ZM174.81 83.5902L174.909 83.1001L175.31 83.1811V83.5902H174.81ZM64.7698 71.1852L65.0707 70.7859L65.141 70.8389L65.189 70.9128L64.7698 71.1852ZM58.1354 64.8824L57.766 65.2195L57.6284 65.0686L57.6357 64.8646L58.1354 64.8824ZM64.7698 65.9507L65.1285 66.299L64.9145 66.5195L64.6211 66.4281L64.7698 65.9507ZM93.8241 59.1138L93.8048 58.6142L93.9632 58.6081L94.0961 58.6943L93.8241 59.1138ZM97.942 61.7845L98.1864 62.2206L97.9232 62.3682L97.67 62.204L97.942 61.7845ZM131.801 61.7845L131.773 61.2852L131.986 61.2735L132.142 61.419L131.801 61.7845ZM133.173 63.0664L133.53 63.4166L133.188 63.7647L132.832 63.4318L133.173 63.0664ZM135.69 60.5025L135.832 60.0232L136.315 60.1668L136.168 60.6488L135.69 60.5025ZM134.088 67.7668L133.66 68.0249L133.645 67.999L133.632 67.9713L134.088 67.7668ZM134.775 63.4937L135.253 63.64L135.206 63.7913L135.081 63.8885L134.775 63.4937ZM89.7062 59.2982L89.732 59.7975L89.7062 59.2982ZM89.7062 57.4046L89.9432 56.9643L90.2062 57.1059V57.4046H89.7062ZM66.8536 41.1933L67.0168 40.7207L67.1336 40.761L67.2181 40.8511L66.8536 41.1933ZM49.8995 49.0721L49.5386 49.4182L49.5045 49.3826L49.478 49.3411L49.8995 49.0721ZM39.1471 40.6327L38.9275 41.0819L38.8901 41.0636L38.8562 41.0394L39.1471 40.6327ZM25.1919 24.7156L25.5801 24.4004L25.6039 24.4298L25.6231 24.4624L25.1919 24.7156ZM47.383 29.5228L47.6094 29.077L47.6776 29.1116L47.7322 29.165L47.383 29.5228ZM29.5386 19.3742L29.2742 19.7986L29.0925 19.6853L29.049 19.4757L29.5386 19.3742ZM28.8523 16.0626L29.3407 15.9553L29.3419 15.9611L28.8523 16.0626ZM27.9372 15.7421L28.0101 15.2474L28.0574 15.2544L28.1025 15.2702L27.9372 15.7421ZM17.8711 17.7718L17.6349 18.2125L17.5342 18.1585L17.4669 18.0661L17.8711 17.7718ZM11.2367 13.2851L10.8434 13.5939L10.3594 12.9775L11.1224 12.7983L11.2367 13.2851ZM13.7532 16.4899L13.7471 16.9898L13.5077 16.9869L13.3599 16.7987L13.7532 16.4899ZM23.5905 15.1011L23.2319 14.7527L23.4102 14.5692L23.6634 14.6065L23.5905 15.1011ZM27.9372 11.8963L28.0828 11.418L28.3628 11.5032L28.4255 11.7891L27.9372 11.8963ZM19.7013 7.40961L19.8287 6.9261L19.9207 6.95033L19.9973 7.00665L19.7013 7.40961ZM6.6612 5.70037L6.66815 5.20042L6.66889 5.20043L6.6612 5.70037ZM2.77205 9.01201L2.59883 9.48104L2.5151 9.45012L2.44724 9.39214L2.77205 9.01201ZM100.23 57.4046L99.8256 57.699L99.7064 57.5354L99.7346 57.3349L100.23 57.4046ZM103.433 49.6062L103.932 49.5859L103.941 49.7939L103.799 49.9464L103.433 49.6062ZM102.975 39.5645L102.476 39.5903L102.469 39.4671L102.521 39.3551L102.975 39.5645ZM104.348 28.134L104.795 27.9102L104.808 27.9356L104.817 27.9623L104.348 28.134ZM105.263 16.7035L105.735 16.539L105.785 16.6837L105.746 16.8319L105.263 16.7035ZM102.518 12.0032L102.2 12.389L102.156 12.3533L102.122 12.3091L102.518 12.0032ZM112.584 13.0714L112.156 13.331L111.961 13.01L112.215 12.7334L112.584 13.0714ZM124.022 33.7958L123.527 33.8609L123.524 33.8428L123.523 33.8246L124.022 33.7958ZM124.709 41.9147L124.329 42.2406L124.22 42.1133L124.21 41.9458L124.709 41.9147ZM102.518 5.8072L102.803 5.3967L103.231 5.69425L102.916 6.10943L102.518 5.8072ZM118.074 5.8072L118.574 5.82643L118.573 5.84799L118.57 5.86939L118.074 5.8072ZM114.871 2.38874L114.885 1.88892L114.889 1.88907L114.871 2.38874ZM118.074 1.42731L118.087 0.92747L118.193 0.930187L118.289 0.975848L118.074 1.42731ZM101.374 1L100.985 0.685754L101.14 0.493854L101.386 0.500165L101.374 1ZM171.379 83.2566L171.384 83.7568L171.37 83.7566L171.379 83.2566ZM167.032 82.9362L166.988 83.4343L166.765 83.4148L166.631 83.2352L167.032 82.9362ZM163.6 81.0133H163.1V80.7879L163.269 80.6386L163.6 81.0133ZM165.888 80.7996L165.733 81.2749L165.702 81.265L165.674 81.2514L165.888 80.7996ZM168.176 81.5474V82.0474H168.096L168.02 82.0227L168.176 81.5474ZM179.215 79.4115L179.378 78.939L179.396 78.945L179.413 78.9523L179.215 79.4115ZM181.445 80.3723L181.903 80.1727L182.408 81.3319L181.247 80.8315L181.445 80.3723ZM183.333 79.3047L183.39 78.808L183.622 78.8346L183.751 79.0298L183.333 79.3047ZM184.419 81.5474L184.012 81.8379L183.858 81.6219L183.95 81.3732L184.419 81.5474ZM185.105 82.5089L185.512 82.2184L185.605 82.3487V82.5089H185.105ZM13.9444 16.4922L13.9383 16.9922L13.9382 16.9922L13.9444 16.4922ZM133.148 119.013L132.7 119.236L132.7 119.236L133.148 119.013ZM135.825 124.582L135.917 125.073L135.825 124.582ZM104.309 28.0559L104.756 27.8319L104.756 27.8319L104.309 28.0559ZM110.296 122.142C110.777 122.276 110.777 122.276 110.778 122.276C110.778 122.276 110.778 122.276 110.778 122.276C110.778 122.276 110.778 122.276 110.778 122.276C110.778 122.276 110.777 122.276 110.777 122.277C110.777 122.278 110.776 122.281 110.775 122.285C110.773 122.292 110.77 122.304 110.766 122.319C110.758 122.351 110.746 122.399 110.732 122.462C110.703 122.588 110.665 122.772 110.627 123C110.551 123.459 110.481 124.087 110.497 124.773C110.529 126.163 110.912 127.672 112.186 128.57L111.609 129.387C109.95 128.217 109.532 126.307 109.497 124.796C109.479 124.031 109.558 123.338 109.64 122.838C109.682 122.587 109.724 122.382 109.757 122.239C109.773 122.168 109.787 122.111 109.797 122.072C109.802 122.053 109.806 122.037 109.809 122.026C109.811 122.021 109.812 122.016 109.813 122.013C109.813 122.012 109.813 122.01 109.814 122.009C109.814 122.009 109.814 122.008 109.814 122.008C109.814 122.008 109.814 122.008 109.814 122.008C109.814 122.007 109.814 122.007 110.296 122.142ZM110.519 122.589C109.644 123.026 108.88 123.395 108.257 123.651C107.945 123.778 107.658 123.882 107.404 123.951C107.157 124.019 106.906 124.064 106.678 124.049C106.443 124.033 106.162 123.947 105.983 123.682C105.817 123.437 105.816 123.15 105.852 122.917C105.925 122.453 106.212 121.825 106.658 121.04L107.528 121.534C107.08 122.322 106.882 122.807 106.84 123.072C106.82 123.203 106.854 123.184 106.811 123.121C106.755 123.038 106.685 123.047 106.744 123.051C106.809 123.055 106.934 123.043 107.141 122.987C107.34 122.932 107.585 122.845 107.877 122.725C108.463 122.485 109.197 122.131 110.073 121.694L110.519 122.589ZM106.714 120.961C107.439 120.117 108.105 119.409 108.951 119.079C109.831 118.736 110.807 118.833 112.078 119.325L111.717 120.258C110.554 119.808 109.861 119.798 109.314 120.011C108.733 120.238 108.214 120.749 107.473 121.613L106.714 120.961ZM115.412 116.002C118.335 115.111 120.689 114.4 123.089 114.276C125.512 114.15 127.955 114.62 131.09 116.024L130.681 116.936C127.658 115.583 125.374 115.158 123.141 115.274C120.885 115.391 118.654 116.059 115.703 116.958L115.412 116.002ZM133.099 120.356C133.598 119.974 134.121 119.728 134.79 119.825C135.404 119.914 136.068 120.284 136.897 120.881L136.313 121.693C135.493 121.102 135 120.865 134.647 120.814C134.35 120.771 134.096 120.852 133.705 121.15L133.099 120.356ZM134.333 123.094L136.172 124.127L135.683 124.999L133.844 123.967L134.333 123.094ZM135.675 124.131C136.485 123.656 136.784 123.329 136.854 123.052C136.917 122.798 136.83 122.387 136.211 121.595L136.999 120.979C137.634 121.791 138.011 122.547 137.824 123.295C137.643 124.018 136.976 124.527 136.181 124.994L135.675 124.131ZM120.823 128.536L122.653 129.497L122.188 130.383L120.358 129.421L120.823 128.536ZM118.66 131.593C119.442 131.801 120.575 131.787 121.896 131.575C123.205 131.366 124.651 130.971 126.035 130.458C127.42 129.944 128.729 129.319 129.767 128.656C130.823 127.981 131.53 127.31 131.807 126.732L132.709 127.165C132.306 128.004 131.398 128.8 130.305 129.498C129.193 130.208 127.817 130.864 126.382 131.395C124.947 131.927 123.437 132.341 122.054 132.563C120.683 132.782 119.387 132.821 118.403 132.56L118.66 131.593ZM139.804 124.262C140.246 124.031 140.587 123.849 140.838 123.71C141.098 123.565 141.236 123.481 141.289 123.44C141.302 123.431 141.295 123.435 141.28 123.45C141.273 123.458 141.255 123.477 141.236 123.505C141.219 123.53 141.182 123.591 141.165 123.679C141.146 123.781 141.156 123.918 141.242 124.044C141.319 124.157 141.42 124.206 141.472 124.225C141.527 124.245 141.57 124.25 141.589 124.251C141.611 124.253 141.627 124.253 141.632 124.252C141.645 124.252 141.628 124.252 141.56 124.268C141.499 124.282 141.419 124.303 141.317 124.332L141.044 123.37C141.238 123.315 141.443 123.261 141.582 123.254C141.612 123.252 141.711 123.247 141.82 123.287C141.881 123.31 141.987 123.362 142.068 123.48C142.157 123.611 142.169 123.754 142.148 123.864C142.117 124.03 142.012 124.132 141.996 124.149C141.959 124.187 141.92 124.218 141.889 124.241C141.772 124.328 141.576 124.444 141.323 124.584C141.062 124.73 140.712 124.916 140.268 125.148L139.804 124.262ZM106.472 128.848C106.575 128.774 106.622 128.647 106.613 128.543C106.607 128.48 106.585 128.468 106.621 128.522C106.689 128.622 106.849 128.789 107.129 129.013C107.676 129.451 108.558 130.011 109.679 130.592C111.918 131.751 115.03 132.95 118.145 133.398L118.003 134.387C114.749 133.92 111.528 132.675 109.219 131.48C108.065 130.882 107.12 130.287 106.504 129.794C106.202 129.553 105.947 129.31 105.793 129.082C105.718 128.972 105.633 128.816 105.617 128.633C105.597 128.409 105.684 128.185 105.883 128.04L106.472 128.848ZM118.119 133.395C121.385 133.689 125.048 133.348 128.176 132.616C129.739 132.25 131.156 131.789 132.317 131.267C133.486 130.742 134.355 130.172 134.859 129.607L135.605 130.273C134.965 130.99 133.949 131.63 132.727 132.18C131.495 132.733 130.013 133.213 128.404 133.589C125.188 134.342 121.416 134.696 118.029 134.39L118.119 133.395ZM134.934 129.539C135.774 128.913 136.333 128.441 136.724 127.935C137.103 127.446 137.34 126.903 137.486 126.111L138.469 126.291C138.301 127.211 138.009 127.91 137.515 128.547C137.034 129.17 136.377 129.711 135.531 130.341L134.934 129.539ZM137.891 125.709L139.721 125.388L139.894 126.373L138.064 126.694L137.891 125.709ZM132.049 126.495C134.474 125.378 136.049 124.808 139.732 124.246L139.883 125.234C136.298 125.782 134.812 126.323 132.467 127.403L132.049 126.495ZM139.732 124.246C139.808 124.234 139.885 124.222 139.963 124.211L140.11 125.2C140.034 125.211 139.958 125.223 139.883 125.234L139.732 124.246ZM139.308 125.881V124.74H140.308V125.881H139.308ZM139.982 123.472C140.356 123.43 140.739 123.391 141.133 123.353L141.228 124.349C140.839 124.386 140.46 124.425 140.091 124.465L139.982 123.472ZM139.536 123.969V122.142H140.536V123.969H139.536ZM139.838 122.6C138.855 122.175 138.005 121.793 135.868 120.777L136.297 119.874C138.428 120.887 139.266 121.263 140.235 121.683L139.838 122.6ZM135.97 120.813C135.229 120.642 134.544 120.417 133.988 120.16C133.452 119.912 132.963 119.602 132.699 119.224L133.519 118.651C133.625 118.802 133.907 119.021 134.408 119.252C134.888 119.474 135.505 119.679 136.195 119.838L135.97 120.813ZM105.699 128.588C105.339 127.387 105.183 126.441 105.227 125.521C105.27 124.603 105.512 123.748 105.894 122.735L106.829 123.088C106.462 124.061 106.262 124.803 106.225 125.569C106.189 126.334 106.315 127.161 106.657 128.301L105.699 128.588ZM120.772 129.445L118.027 130.513L117.664 129.581L120.409 128.513L120.772 129.445ZM117.906 130.543C115.82 130.798 114.395 130.471 111.718 129.446L112.076 128.512C114.691 129.514 115.936 129.776 117.785 129.55L117.906 130.543ZM111.562 119.421L113.392 117.765L114.063 118.506L112.233 120.162L111.562 119.421ZM113.392 117.765L115.222 116.109L115.893 116.851L114.063 118.506L113.392 117.765ZM113.25 117.989C113.465 117.287 113.643 116.687 113.761 116.177C113.881 115.662 113.931 115.275 113.913 114.989C113.896 114.714 113.82 114.585 113.734 114.51C113.634 114.423 113.432 114.331 113.015 114.308L113.068 113.31C113.589 113.338 114.05 113.46 114.39 113.756C114.743 114.063 114.883 114.484 114.911 114.927C114.938 115.36 114.861 115.86 114.735 116.403C114.608 116.952 114.421 117.582 114.205 118.283L113.25 117.989ZM132.312 118.576C131.857 117.905 131.247 117.279 130.629 116.909L131.142 116.051C131.917 116.514 132.626 117.257 133.14 118.015L132.312 118.576ZM132.3 118.558C131.543 117.325 131.275 116.208 131.278 114.022L132.278 114.023C132.275 116.1 132.525 117.014 133.152 118.034L132.3 118.558ZM131.278 114.022C131.278 113.657 131.286 113.262 131.301 112.831L132.3 112.865C132.286 113.288 132.278 113.672 132.278 114.023L131.278 114.022ZM131.651 113.539L133.275 113.112L133.529 114.079L131.905 114.506L131.651 113.539ZM132.921 113.458C133.165 112.604 133.237 111.879 133.148 111.223C133.059 110.572 132.807 109.959 132.356 109.333C131.435 108.057 129.716 106.759 126.961 105.047L127.489 104.197C130.235 105.904 132.117 107.293 133.167 108.748C133.701 109.489 134.025 110.254 134.139 111.088C134.252 111.918 134.152 112.787 133.883 113.733L132.921 113.458ZM112.542 113.832C112.514 113.228 112.62 112.655 112.916 112.108C113.209 111.567 113.671 111.082 114.308 110.621C115.567 109.709 117.6 108.827 120.658 107.781L120.981 108.727C117.925 109.773 116.02 110.615 114.894 111.431C114.338 111.833 113.996 112.213 113.795 112.584C113.598 112.949 113.52 113.336 113.541 113.786L112.542 113.832ZM120.518 107.855C122.039 106.707 123.381 105.179 127.09 104.141L127.36 105.103C123.881 106.078 122.723 107.444 121.121 108.653L120.518 107.855ZM133.353 113.098C137.839 112.652 140.324 112.385 144.923 110.981L145.215 111.937C140.521 113.37 137.958 113.646 133.451 114.093L133.353 113.098ZM144.695 111.127C146.115 109.525 146.828 107.807 146.94 105.453L147.939 105.5C147.816 108.074 147.02 110.011 145.444 111.791L144.695 111.127ZM146.96 105.334C147.408 103.833 147.676 102.349 147.773 100.536L148.772 100.589C148.671 102.48 148.39 104.042 147.918 105.62L146.96 105.334ZM147.822 100.779C147.402 99.906 147.045 99.2771 146.597 98.7137C146.149 98.1516 145.597 97.6356 144.768 97.0088L145.371 96.2112C146.24 96.8686 146.863 97.4417 147.379 98.0913C147.895 98.7395 148.29 99.4449 148.723 100.346L147.822 100.779ZM144.576 96.6914C144.279 94.8917 144.054 93.5637 143.528 92.5061C143.024 91.4899 142.226 90.6996 140.702 90.052L141.093 89.1316C142.802 89.8577 143.798 90.8 144.424 92.0613C145.03 93.2812 145.274 94.7754 145.563 96.5286L144.576 96.6914ZM96.693 109.479C97.9933 109.811 99.0675 110.037 99.951 110.137C100.84 110.238 101.493 110.205 101.973 110.052C102.43 109.906 102.744 109.648 102.967 109.235C103.202 108.8 103.348 108.17 103.391 107.269L104.39 107.316C104.344 108.282 104.185 109.085 103.847 109.71C103.498 110.356 102.974 110.782 102.277 111.005C101.602 111.22 100.785 111.238 99.8386 111.131C98.8867 111.023 97.7604 110.783 96.4458 110.448L96.693 109.479ZM102.247 111.174C103.383 111.08 104.331 111.15 105.342 111.439C106.341 111.725 107.382 112.219 108.706 112.943L108.226 113.82C106.918 113.105 105.956 112.655 105.067 112.401C104.191 112.15 103.366 112.085 102.33 112.171L102.247 111.174ZM108.457 112.882C110.665 112.845 111.739 112.947 113.169 113.326L112.913 114.292C111.603 113.946 110.63 113.846 108.474 113.882L108.457 112.882ZM103.395 107.364C103.152 105.674 102.963 104.38 102.76 103.363C102.556 102.343 102.345 101.638 102.073 101.113L102.962 100.653C103.298 101.305 103.531 102.119 103.74 103.167C103.95 104.217 104.143 105.54 104.385 107.222L103.395 107.364ZM102.085 101.134C98.9722 95.7625 97.1376 93.1257 93.4772 89.599L94.171 88.8789C97.9241 92.4948 99.8128 95.2186 102.95 100.632L102.085 101.134ZM93.3241 89.2389V88.3843H94.3241V89.2389H93.3241ZM93.7774 87.8865C96.6824 87.6142 101.838 87.1677 110.49 86.5721L110.559 87.5697C101.914 88.1648 96.7666 88.6107 93.8707 88.8821L93.7774 87.8865ZM110.491 86.5721C116.12 86.1902 120.556 85.9707 123.896 86.0147C125.567 86.0367 126.975 86.1247 128.129 86.2943C129.277 86.463 130.205 86.7168 130.895 87.09L130.419 87.9694C129.878 87.6769 129.082 87.4451 127.984 87.2836C126.891 87.123 125.531 87.0363 123.883 87.0146C120.587 86.9712 116.187 87.188 110.558 87.5698L110.491 86.5721ZM130.788 87.0471L137.88 88.97L137.618 89.9352L130.526 88.0123L130.788 87.0471ZM137.772 88.9531C142.447 89.1682 145.035 89.3388 149.336 88.6386L149.497 89.6256C145.079 90.3448 142.392 90.1668 137.726 89.9521L137.772 88.9531ZM149.354 88.6359L152.786 88.2086L152.91 89.201L149.478 89.6283L149.354 88.6359ZM152.468 88.3798C152.545 88.2891 152.6 88.216 152.637 88.1578C152.655 88.1292 152.667 88.1069 152.675 88.0904C152.679 88.0822 152.682 88.0761 152.683 88.0718C152.685 88.0676 152.685 88.0655 152.685 88.0656C152.685 88.0671 152.675 88.1079 152.695 88.1655C152.715 88.2238 152.748 88.2505 152.75 88.2518C152.75 88.2518 152.748 88.2505 152.744 88.248C152.74 88.2455 152.734 88.242 152.725 88.2378C152.707 88.2292 152.682 88.2186 152.647 88.2068C152.576 88.1828 152.477 88.1583 152.344 88.1352C152.076 88.0888 151.709 88.0544 151.22 88.029L151.272 87.0304C151.774 87.0564 152.188 87.0932 152.515 87.15C152.824 87.2036 153.129 87.2861 153.349 87.4514C153.471 87.5425 153.582 87.6699 153.641 87.8417C153.7 88.0128 153.69 88.1796 153.652 88.3212C153.584 88.5786 153.407 88.8203 153.228 89.0298L152.468 88.3798ZM150.747 87.5496C150.73 87.1251 150.67 86.8459 150.575 86.6607C150.493 86.4996 150.374 86.3874 150.155 86.3131C149.913 86.2309 149.543 86.1944 148.975 86.2425C148.413 86.2901 147.697 86.4167 146.784 86.6281L146.558 85.6538C147.491 85.438 148.26 85.2995 148.891 85.246C149.516 85.1931 150.045 85.2196 150.477 85.3663C150.932 85.5209 151.26 85.8036 151.465 86.2052C151.659 86.5827 151.727 87.0341 151.746 87.5099L150.747 87.5496ZM146.577 86.632C142.326 85.8184 140.451 85.2469 137.984 84.0252L138.428 83.1291C140.782 84.2948 142.559 84.8449 146.765 85.6499L146.577 86.632ZM131.797 83.2225C126.592 83.1868 123.749 83.0993 119.376 82.4696L119.518 81.4798C123.824 82.0998 126.613 82.1869 131.804 82.2225L131.797 83.2225ZM119.442 82.4747L85.126 82.1542L85.1353 81.1543L119.451 81.4747L119.442 82.4747ZM79.6792 84.3742L80.5943 92.2794L79.601 92.3944L78.6859 84.4892L79.6792 84.3742ZM80.5413 92.1063C82.3749 95.6329 83.9309 98.3108 85.9424 100.801C87.9524 103.288 90.4315 105.606 94.125 108.389L93.5232 109.188C89.7873 106.372 87.2414 104 85.1646 101.429C83.0893 98.8603 81.4968 96.1117 79.654 92.5676L80.5413 92.1063ZM94.0525 108.343L96.3403 109.519L95.8834 110.408L93.5956 109.233L94.0525 108.343ZM96.5694 110.463L96.1118 110.463V109.463L96.5694 109.463V110.463ZM93.9438 88.8698C93.2908 89.0308 92.737 89.1574 92.0512 89.206C91.3681 89.2545 90.5723 89.2247 89.4213 89.0948L89.5334 88.1011C90.6539 88.2275 91.3825 88.2509 91.9805 88.2085C92.5757 88.1663 93.0596 88.0579 93.7044 87.8989L93.9438 88.8698ZM85.0945 82.1529C83.1833 82.0145 81.9349 81.9981 81.1109 82.22C80.7156 82.3264 80.448 82.4809 80.2556 82.6816C80.0622 82.8832 79.9108 83.1671 79.8083 83.5885L78.8366 83.3521C78.9684 82.8107 79.1864 82.3517 79.5338 81.9895C79.8821 81.6262 80.3265 81.3956 80.8509 81.2544C81.8662 80.981 83.2876 81.0194 85.1668 81.1555L85.0945 82.1529ZM79.8083 83.5885C79.748 83.836 79.7058 84.1263 79.6813 84.4676L78.6838 84.3958C78.7112 84.0155 78.7598 83.6676 78.8366 83.3521L79.8083 83.5885ZM79.1758 83.9483L77.4345 83.4142L77.7278 82.4581L79.4691 82.9923L79.1758 83.9483ZM77.0811 82.9362V81.6542H78.0811V82.9362H77.0811ZM77.4462 82.1357L74.0146 81.1743L74.2844 80.2113L77.716 81.1728L77.4462 82.1357ZM73.6647 80.815L73.2071 78.9989L74.1768 78.7546L74.6344 80.5706L73.6647 80.815ZM73.6725 78.3771C85.2384 77.9274 96.6722 76.0695 108.112 73.1083L108.362 74.0764C96.8643 77.0527 85.3591 78.9234 73.7114 79.3764L73.6725 78.3771ZM138.224 84.0768C138.065 84.0823 137.911 84.0868 137.76 84.09L137.738 83.0903C137.884 83.0871 138.034 83.0828 138.189 83.0774L138.224 84.0768ZM137.76 84.09C135.713 84.1343 134.297 83.9579 131.663 83.2032L131.938 82.2419C134.492 82.9735 135.807 83.1321 137.738 83.0903L137.76 84.09ZM137.44 83.9835L135.381 82.3681L135.998 81.5813L138.057 83.1968L137.44 83.9835ZM135.226 81.7876C135.357 81.4631 135.441 81.2143 135.481 81.02C135.521 80.8226 135.505 80.7333 135.492 80.6988C135.485 80.6802 135.424 80.5245 134.717 80.4416L134.833 79.4484C135.53 79.5301 136.195 79.725 136.428 80.3481C136.536 80.6344 136.518 80.9387 136.46 81.2207C136.402 81.5058 136.291 81.8221 136.153 82.1619L135.226 81.7876ZM132.132 77.6451C132.461 77.5593 132.822 77.6039 133.143 77.6974C133.473 77.7935 133.809 77.9549 134.111 78.1573C134.412 78.3593 134.695 78.6136 134.908 78.9062C135.118 79.1969 135.279 79.5545 135.275 79.95L134.275 79.94C134.276 79.8247 134.228 79.6727 134.098 79.4932C133.969 79.3156 133.779 79.139 133.553 78.9876C133.329 78.8366 133.085 78.7221 132.864 78.6576C132.634 78.5905 132.471 78.5901 132.384 78.6128L132.132 77.6451ZM131.799 77.9321L132.714 75.7956L133.633 76.1893L132.718 78.3258L131.799 77.9321ZM132.813 76.3392C132.413 75.9239 132.126 75.5342 132.034 75.0978C131.938 74.6393 132.077 74.233 132.268 73.8475L133.164 74.2916C133.005 74.6118 132.986 74.7658 133.013 74.8917C133.044 75.0397 133.161 75.2586 133.533 75.6456L132.813 76.3392ZM132.275 73.8335L132.732 72.9789L133.614 73.4509L133.156 74.3055L132.275 73.8335ZM148.473 100.105L152.133 101.707L151.732 102.623L148.072 101.021L148.473 100.105ZM151.843 101.673C157.452 100.655 161.415 99.6151 172.802 95.288L173.158 96.2228C161.738 100.562 157.712 101.624 152.022 102.657L151.843 101.673ZM145.037 110.96C152.456 110.481 156.526 110.266 161.045 107.404L161.58 108.249C156.808 111.271 152.467 111.482 145.102 111.958L145.037 110.96ZM161.107 107.371C167.236 104.612 170.956 103.256 177.861 101.048L178.165 102C171.286 104.2 167.604 105.544 161.518 108.283L161.107 107.371ZM172.693 95.346C173.187 94.9991 173.465 94.7705 173.635 94.4847C173.795 94.2144 173.892 93.8313 173.853 93.1116L174.852 93.0579C174.896 93.878 174.796 94.4868 174.495 94.9951C174.202 95.4879 173.752 95.8246 173.267 96.1647L172.693 95.346ZM173.853 93.0576L174.311 84.6183L175.309 84.6725L174.852 93.1118L173.853 93.0576ZM177.793 101.075L182.597 98.7247L183.037 99.623L178.233 101.973L177.793 101.075ZM182.586 98.7305C184.475 97.7455 185.474 96.9393 185.99 96.0926C186.493 95.2653 186.582 94.3217 186.438 92.9221L187.433 92.82C187.583 94.2895 187.519 95.5029 186.844 96.6126C186.18 97.7027 184.973 98.6134 183.048 99.6172L182.586 98.7305ZM186.477 93.0722C185.111 89.9628 184.512 88.0902 184.599 84.6329L185.599 84.6579C185.517 87.9173 186.061 89.6387 187.393 92.6699L186.477 93.0722ZM184.599 84.6329C184.601 84.5611 184.603 84.4887 184.605 84.4155L185.605 84.448C185.602 84.5186 185.6 84.5886 185.599 84.6579L184.599 84.6329ZM174.31 84.6454V83.5902H175.31V84.6454H174.31ZM73.4741 79.3268C71.0967 78.1761 69.4159 77.1443 68.0245 75.9222C66.6315 74.6989 65.5504 73.3041 64.3505 71.4577L65.189 70.9128C66.3648 72.7222 67.3883 74.0326 68.6843 75.1708C69.9818 76.3103 71.5743 77.2963 73.9098 78.4267L73.4741 79.3268ZM64.4689 71.5846C62.2362 69.9024 60.9882 68.7504 57.766 65.2195L58.5047 64.5454C61.704 68.0514 62.9056 69.1546 65.0707 70.7859L64.4689 71.5846ZM58.1387 64.3824C60.6272 64.3992 62.114 64.5998 64.9185 65.4733L64.6211 66.4281C61.9099 65.5836 60.521 65.3985 58.132 65.3824L58.1387 64.3824ZM94.0961 58.6943L98.2141 61.365L97.67 62.204L93.552 59.5333L94.0961 58.6943ZM97.6976 61.3483L99.9853 60.0663L100.474 60.9387L98.1864 62.2206L97.6976 61.3483ZM100.515 60.0916C101.956 61.0913 104.305 61.7094 109.089 61.9067C113.855 62.1033 120.941 61.8816 131.773 61.2852L131.828 62.2837C120.999 62.8799 113.868 63.1047 109.048 62.9059C104.245 62.7078 101.64 62.0887 99.9448 60.9134L100.515 60.0916ZM132.142 61.419L133.515 62.701L132.832 63.4318L131.459 62.1499L132.142 61.419ZM132.816 62.7161L135.333 60.1523L136.047 60.8528L133.53 63.4166L132.816 62.7161ZM135.547 60.9818L133.031 60.234L133.316 59.2755L135.832 60.0232L135.547 60.9818ZM133.673 59.7547V63.0664H132.673V59.7547H133.673ZM108.172 73.0965C113.802 72.3655 118.626 71.8857 122.649 71.7472C126.666 71.609 129.917 71.8095 132.385 72.4572L132.131 73.4244C129.803 72.8135 126.667 72.6095 122.684 72.7466C118.707 72.8835 113.919 73.3588 108.301 74.0882L108.172 73.0965ZM132.385 72.4572C132.715 72.5437 133.031 72.6384 133.334 72.7416L133.012 73.6882C132.733 73.5933 132.44 73.5054 132.131 73.4244L132.385 72.4572ZM131.951 72.5464C133.114 71.64 133.816 71.0055 134.105 70.3609C134.359 69.794 134.325 69.1268 133.66 68.0249L134.517 67.5086C135.266 68.752 135.46 69.7813 135.017 70.7698C134.609 71.6807 133.688 72.4606 132.565 73.3352L131.951 72.5464ZM133.632 67.9713C133.194 66.9952 132.886 66.1394 132.974 65.3301C133.066 64.4763 133.579 63.7895 134.468 63.0989L135.081 63.8885C134.289 64.5043 134.018 64.9725 133.968 65.4378C133.913 65.9476 134.102 66.5751 134.545 67.5622L133.632 67.9713ZM134.297 63.3474L135.212 60.3563L136.168 60.6488L135.253 63.64L134.297 63.3474ZM64.411 65.6024C66.318 63.6381 68.2915 62.148 71.9896 61.0472C75.6539 59.9564 81.01 59.248 89.6803 58.7989L89.732 59.7975C81.073 60.2461 75.8179 60.951 72.2749 62.0056C68.7657 63.0502 66.9356 64.4375 65.1285 66.299L64.411 65.6024ZM89.6803 58.7989C90.9784 58.7316 92.3514 58.6702 93.8048 58.6142L93.8433 59.6134C92.3938 59.6693 91.0252 59.7305 89.732 59.7975L89.6803 58.7989ZM89.2062 59.2982V57.4046H90.2062V59.2982H89.2062ZM89.4691 57.8448C79.1584 52.294 73.5523 49.0605 66.489 41.5355L67.2181 40.8511C74.1648 48.2519 79.6498 51.4228 89.9432 56.9643L89.4691 57.8448ZM57.6357 64.8646C57.7241 62.3865 57.4583 60.3843 56.3166 58.0912C55.1631 55.7741 53.1027 53.1342 49.5386 49.4182L50.2603 48.726C53.8401 52.4584 55.9882 55.1876 57.2118 57.6455C58.4475 60.1274 58.7276 62.3061 58.635 64.9003L57.6357 64.8646ZM49.478 49.3411C48.4618 47.7491 47.5329 46.5306 46.0217 45.2926C44.4994 44.0455 42.3681 42.7639 38.9275 41.0819L39.3667 40.1836C42.8305 41.8769 45.0435 43.1985 46.6554 44.519C48.2784 45.8486 49.2735 47.1621 50.3209 48.803L49.478 49.3411ZM38.8562 41.0394C31.8375 36.0174 29.0242 32.2315 24.7607 24.9687L25.6231 24.4624C29.8417 31.6487 32.5689 35.3111 39.4381 40.2261L38.8562 41.0394ZM66.6904 41.6659C60.6638 39.5849 57.2135 38.0806 54.5303 36.3637C51.8469 34.6466 49.9493 32.7268 47.0337 29.8805L47.7322 29.165C50.6714 32.0341 52.4905 33.8712 55.0693 35.5214C57.6485 37.1718 61.0061 38.6451 67.0168 40.7207L66.6904 41.6659ZM47.1565 29.9685C40.5076 26.591 36.5724 24.346 29.2742 19.7986L29.803 18.9498C37.0809 23.4846 40.9907 25.7147 47.6094 29.077L47.1565 29.9685ZM29.049 19.4757L28.3627 16.164L29.3419 15.9611L30.0282 19.2727L29.049 19.4757ZM28.687 16.5345L27.7719 16.214L28.1025 15.2702L29.0176 15.5907L28.687 16.5345ZM28.1345 16.2015C25.1883 17.4671 23.1401 18.013 17.8957 18.2712L17.8465 17.2724C22.9971 17.0188 24.924 16.4923 27.7398 15.2827L28.1345 16.2015ZM18.1074 17.3311C20.4945 18.6108 22.1709 20.2012 25.5801 24.4004L24.8037 25.0307C21.4106 20.8513 19.8378 19.3933 17.6349 18.2125L18.1074 17.3311ZM11.6299 12.9763L14.1464 16.1811L13.3599 16.7987L10.8434 13.5939L11.6299 12.9763ZM16.9543 16.015C18.649 16.0093 19.9821 15.9494 21.025 15.7536C22.0647 15.5583 22.7607 15.2375 23.2319 14.7527L23.9491 15.4496C23.2769 16.1413 22.3527 16.5217 21.2096 16.7364C20.0697 16.9505 18.6572 17.0092 16.9577 17.015L16.9543 16.015ZM17.4669 18.0661L16.5518 16.8093L17.3602 16.2207L18.2753 17.4775L17.4669 18.0661ZM27.8642 16.2367L23.5175 15.5958L23.6634 14.6065L28.0101 15.2474L27.8642 16.2367ZM28.3639 16.1698L27.4488 12.0036L28.4255 11.7891L29.3406 15.9553L28.3639 16.1698ZM27.7916 12.3747C25.1489 11.5704 23.4408 10.7769 19.4053 7.81257L19.9973 7.00665C23.9689 9.92406 25.5762 10.6552 28.0828 11.418L27.7916 12.3747ZM19.574 7.89312C15.073 6.70772 12.3133 6.28729 6.65352 6.20032L6.66889 5.20043C12.4061 5.2886 15.2464 5.71927 19.8287 6.9261L19.574 7.89312ZM6.65426 6.20033C5.2144 6.18032 4.06175 6.19852 3.19193 6.27873C2.75734 6.3188 2.40541 6.37334 2.13005 6.44215C1.84944 6.51227 1.67919 6.58984 1.58444 6.65766C1.50113 6.7173 1.50158 6.74886 1.50101 6.75296C1.4978 6.77571 1.49725 6.86028 1.59231 7.03623C1.78807 7.39858 2.26069 7.91743 3.09685 8.63187L2.44724 9.39214C1.60586 8.67324 1.00417 8.05143 0.712498 7.51156C0.56384 7.2364 0.466292 6.92947 0.510772 6.61354C0.557877 6.27897 0.750687 6.02469 1.00237 5.84452C1.24262 5.67255 1.54999 5.55636 1.88761 5.47199C2.23046 5.38631 2.63734 5.32562 3.10011 5.28295C4.025 5.19767 5.22126 5.18032 6.66815 5.20042L6.65426 6.20033ZM11.1224 12.7983C11.0623 12.8124 10.8608 12.8788 10.7844 13.1139C10.7199 13.3126 10.8063 13.4632 10.8182 13.4841C10.8526 13.5447 10.8833 13.5597 10.8315 13.5164C10.7557 13.453 10.6049 13.3478 10.3735 13.2035C9.91977 12.9205 9.2274 12.5313 8.39319 12.0963C6.72509 11.2266 4.52551 10.1926 2.59883 9.48104L2.94526 8.54297C4.92428 9.27383 7.16415 10.3277 8.85552 11.2096C9.70103 11.6505 10.4184 12.053 10.9027 12.355C11.1402 12.5031 11.3406 12.6387 11.4727 12.749C11.5248 12.7926 11.6237 12.8777 11.6874 12.9898C11.7139 13.0363 11.8053 13.208 11.7355 13.4228C11.6539 13.6741 11.4369 13.7517 11.351 13.7719L11.1224 12.7983ZM99.8504 60.1768C100.273 59.685 100.44 59.4017 100.46 59.1198C100.48 58.8413 100.362 58.4348 99.8256 57.699L100.634 57.1101C101.202 57.89 101.504 58.5439 101.457 59.1911C101.411 59.835 101.026 60.3428 100.609 60.8283L99.8504 60.1768ZM99.7346 57.3349C99.9945 55.4864 100.271 54.0599 100.764 52.7993C101.261 51.5268 101.971 50.446 103.066 49.266L103.799 49.9464C102.772 51.0528 102.139 52.0293 101.695 53.1635C101.247 54.3096 100.983 55.6391 100.725 57.4742L99.7346 57.3349ZM102.933 49.6265C102.785 45.9757 102.698 43.9022 102.476 39.5903L103.474 39.5387C103.697 43.8557 103.784 45.9333 103.932 49.5859L102.933 49.6265ZM102.521 39.3551C103.562 37.0976 104.278 35.3998 104.551 33.7323C104.82 32.0883 104.66 30.4443 103.878 28.3057L104.817 27.9623C105.647 30.2312 105.839 32.0502 105.538 33.8936C105.24 35.7133 104.465 37.527 103.429 39.7738L102.521 39.3551ZM104.791 16.8681C104.055 14.7586 103.752 13.669 102.2 12.389L102.836 11.6174C104.635 13.1008 105.011 14.4624 105.735 16.539L104.791 16.8681ZM113.335 12.8194C107.559 13.5743 105.069 13.537 102.336 12.4689L102.7 11.5375C105.178 12.5063 107.447 12.5804 113.205 11.8279L113.335 12.8194ZM113.638 12.6617L112.952 13.4095L112.215 12.7334L112.902 11.9856L113.638 12.6617ZM113.011 12.8119C114.08 14.5728 115.288 16.1484 116.517 17.6796C117.741 19.2033 118.999 20.6976 120.132 22.26C122.414 25.4051 124.24 28.8876 124.521 33.767L123.523 33.8246C123.256 29.2001 121.537 25.8991 119.323 22.8473C118.208 21.3112 116.981 19.8538 115.738 18.3057C114.501 16.7651 113.26 15.1488 112.156 13.331L113.011 12.8119ZM124.21 41.9458C124.027 39.0308 124.041 37.7775 123.527 33.8609L124.518 33.7307C125.038 37.6907 125.027 38.9909 125.208 41.8835L124.21 41.9458ZM125.088 41.5888C126.819 43.6034 128.389 46.7659 129.8 50.0576C130.509 51.7108 131.183 53.4111 131.822 55.0343C132.462 56.6603 133.065 58.2057 133.634 59.5612L132.712 59.9483C132.138 58.5797 131.529 57.0207 130.892 55.4005C130.253 53.7775 129.583 52.0897 128.881 50.4516C127.47 47.1606 125.951 44.1272 124.329 42.2406L125.088 41.5888ZM102.122 12.3091C101.288 11.2302 100.673 10.2607 100.611 9.15695C100.548 8.04036 101.054 6.90954 102.119 5.50497L102.916 6.10943C101.894 7.45624 101.566 8.34597 101.609 9.1008C101.652 9.86842 102.081 10.6212 102.913 11.6973L102.122 12.3091ZM113.011 11.8957C114.494 10.9997 115.514 10.2934 116.228 9.40595C116.928 8.53572 117.364 7.45137 117.578 5.74501L118.57 5.86939C118.341 7.69892 117.857 8.97684 117.007 10.0329C116.171 11.0717 115.011 11.8557 113.529 12.7515L113.011 11.8957ZM117.575 5.78797C117.604 5.01035 117.595 4.41489 117.505 3.96176C117.418 3.5207 117.265 3.27145 117.048 3.11592L117.63 2.30255C118.124 2.65615 118.369 3.17626 118.486 3.76708C118.601 4.34583 118.604 5.04479 118.574 5.82643L117.575 5.78797ZM117.175 3.18182C116.794 3.04999 116.081 2.93286 114.853 2.88842L114.889 1.88907C116.137 1.93426 116.974 2.05421 117.502 2.23665L117.175 3.18182ZM117.163 2.24098C117.517 2.1087 117.78 1.99873 117.965 1.9034C118.057 1.85599 118.119 1.81741 118.159 1.78782C118.202 1.75619 118.201 1.74856 118.187 1.76949C118.168 1.79865 118.138 1.8668 118.149 1.95718C118.154 1.99727 118.166 2.02846 118.177 2.04911C118.182 2.05917 118.187 2.06651 118.19 2.07116C118.193 2.0758 118.195 2.07815 118.195 2.0783C118.196 2.07845 118.194 2.07684 118.191 2.07355C118.187 2.07027 118.182 2.06567 118.175 2.05981C118.16 2.04789 118.139 2.03249 118.11 2.01379C118.051 1.97587 117.969 1.93098 117.859 1.87877L118.289 0.975848C118.538 1.09446 118.784 1.23452 118.945 1.41607C119.031 1.51421 119.119 1.65311 119.141 1.83218C119.165 2.0198 119.109 2.18467 119.027 2.3117C118.886 2.53028 118.639 2.68071 118.423 2.79229C118.184 2.91536 117.876 3.04184 117.514 3.17749L117.163 2.24098ZM118.061 1.92714L101.361 1.49984L101.386 0.500165L118.087 0.92747L118.061 1.92714ZM101.763 1.31425C101.555 1.57095 101.414 1.76676 101.33 1.91882C101.239 2.08298 101.26 2.11865 101.254 2.08304C101.241 2.00642 101.186 2.00558 101.277 2.05193C101.38 2.10416 101.573 2.16326 101.908 2.21513L101.755 3.20335C101.389 3.14675 101.07 3.06853 100.823 2.94315C100.565 2.81188 100.325 2.59314 100.267 2.24689C100.217 1.94166 100.333 1.65597 100.454 1.43562C100.583 1.20317 100.77 0.951308 100.985 0.685754L101.763 1.31425ZM102.232 6.2177C101.848 5.95094 101.508 5.69465 101.241 5.43513C100.975 5.17641 100.75 4.88436 100.643 4.53817C100.413 3.79323 100.799 3.09203 101.463 2.37056L102.199 3.04792C101.568 3.73296 101.54 4.05414 101.599 4.24325C101.636 4.36409 101.731 4.51699 101.938 4.7181C102.144 4.91842 102.429 5.13687 102.803 5.3967L102.232 6.2177ZM171.37 83.7566C168.577 83.7073 168.182 83.5382 166.988 83.4343L167.075 82.438C168.363 82.5502 168.635 82.7082 171.387 82.7567L171.37 83.7566ZM166.631 83.2352C166.507 83.0694 166.282 82.9076 165.95 82.749C165.623 82.5931 165.247 82.4647 164.863 82.3352C164.497 82.212 164.1 82.0808 163.798 81.9266C163.647 81.8489 163.484 81.7485 163.355 81.6138C163.219 81.4721 163.1 81.2705 163.1 81.0133H164.1C164.1 80.943 164.064 80.9089 164.076 80.9213C164.095 80.9406 164.145 80.9809 164.254 81.0364C164.474 81.1488 164.787 81.2546 165.182 81.3875C165.557 81.5139 165.99 81.6604 166.38 81.8466C166.765 82.0302 167.164 82.2778 167.433 82.6372L166.631 83.2352ZM163.269 80.6386C163.637 80.3138 164.022 80.0426 164.521 79.98C165.01 79.9186 165.515 80.0694 166.102 80.3479L165.674 81.2514C165.137 80.9967 164.846 80.9471 164.646 80.9722C164.455 80.9961 164.259 81.0983 163.931 81.388L163.269 80.6386ZM166.043 80.3244L168.331 81.0722L168.02 82.0227L165.733 81.2749L166.043 80.3244ZM168.176 81.0474H169.091V82.0474H168.176V81.0474ZM168.781 81.1548C169.393 80.6723 169.965 80.4203 170.622 80.3831C171.249 80.3475 171.907 80.5128 172.67 80.7493L172.374 81.7046C171.612 81.4685 171.108 81.3571 170.678 81.3815C170.277 81.4042 169.896 81.5488 169.4 81.94L168.781 81.1548ZM172.043 81.0862C172.283 80.2668 172.703 79.6909 173.466 79.4291C174.154 79.1927 175.057 79.2424 176.18 79.4045L176.037 80.3943C174.905 80.2308 174.225 80.2256 173.79 80.375C173.429 80.499 173.183 80.7496 173.002 81.3676L172.043 81.0862ZM176.18 79.4045C176.281 79.419 176.384 79.4346 176.489 79.451L176.334 80.439C176.233 80.4231 176.134 80.4082 176.037 80.3943L176.18 79.4045ZM175.619 79.7982C175.72 79.3122 175.903 78.9144 176.215 78.6492C176.537 78.3755 176.919 78.3064 177.276 78.3254C177.623 78.3438 177.986 78.4465 178.326 78.5609C178.5 78.6193 178.677 78.6844 178.852 78.7487C179.028 78.8137 179.203 78.8781 179.378 78.939L179.051 79.884C178.864 79.8192 178.68 79.7511 178.506 79.6871C178.33 79.6224 178.165 79.5619 178.007 79.5087C177.684 79.3999 177.428 79.3349 177.223 79.324C177.03 79.3137 176.93 79.3539 176.863 79.4108C176.786 79.4762 176.675 79.6303 176.599 80.0006L175.619 79.7982ZM179.413 78.9523L181.642 79.9131L181.247 80.8315L179.017 79.8707L179.413 78.9523ZM180.986 80.572C180.856 80.2736 180.719 79.9773 180.654 79.7503C180.621 79.6339 180.588 79.4744 180.615 79.3057C180.646 79.1063 180.755 78.9325 180.931 78.8181C181.082 78.721 181.251 78.6863 181.39 78.6709C181.537 78.6546 181.704 78.6546 181.886 78.6629C182.25 78.6795 182.746 78.7339 183.39 78.808L183.276 79.8014C182.622 79.7262 182.163 79.6766 181.84 79.6618C181.68 79.6545 181.571 79.6569 181.501 79.6648C181.422 79.6734 181.433 79.6844 181.474 79.6579C181.542 79.6143 181.591 79.5362 181.602 79.4609C181.609 79.4163 181.597 79.4095 181.616 79.4775C181.657 79.6195 181.749 79.8196 181.903 80.1727L180.986 80.572ZM183.95 81.3732C184.001 81.2366 184 81.1666 183.993 81.1245C183.985 81.0764 183.961 81.0072 183.877 80.8819C183.789 80.7493 183.671 80.6045 183.497 80.3827C183.331 80.1696 183.132 79.9092 182.915 79.5796L183.751 79.0298C183.946 79.3268 184.126 79.5629 184.285 79.7664C184.437 79.9612 184.593 80.1531 184.709 80.3275C184.83 80.5091 184.941 80.7171 184.981 80.9664C185.021 81.2218 184.981 81.4697 184.887 81.7216L183.95 81.3732ZM184.826 81.2569L185.512 82.2184L184.698 82.7993L184.012 81.8379L184.826 81.2569ZM185.605 82.5089V84.4317H184.605V82.5089H185.605ZM174.711 84.0803C173.418 83.8188 172.701 83.7429 171.384 83.7566L171.373 82.7567C172.766 82.7421 173.552 82.8258 174.909 83.1001L174.711 84.0803ZM172.834 80.8358C173.367 81.2602 173.805 81.5232 174.322 81.6967C174.847 81.873 175.485 81.9671 176.434 82.0093L176.389 83.0084C175.404 82.9645 174.659 82.8645 174.004 82.6448C173.341 82.4223 172.8 82.0874 172.211 81.6181L172.834 80.8358ZM169.499 81.2592C169.734 81.5923 169.928 81.7793 170.179 81.911C170.443 82.05 170.812 82.1497 171.439 82.2262L171.318 83.2188C170.653 83.1377 170.14 83.0201 169.714 82.7961C169.274 82.5648 168.97 82.2431 168.682 81.8356L169.499 81.2592ZM176.513 79.6043C176.951 80.2033 177.336 80.5449 177.788 80.7734C178.253 81.0087 178.827 81.1444 179.685 81.266L179.544 82.2561C178.664 82.1314 177.955 81.9785 177.337 81.6658C176.705 81.3463 176.207 80.8803 175.705 80.1946L176.513 79.6043ZM16.9577 17.015C16.0443 17.0181 15.0385 17.0057 13.9383 16.9922L13.9505 15.9923C15.0528 16.0058 16.0503 16.018 16.9543 16.015L16.9577 17.015ZM13.9382 16.9922L13.7471 16.9898L13.7593 15.9899L13.9505 15.9923L13.9382 16.9922ZM13.7593 15.9899C13.8234 15.9907 13.8871 15.9915 13.9505 15.9923L13.9382 16.9922C13.8748 16.9914 13.8111 16.9906 13.7471 16.9898L13.7593 15.9899ZM102.285 112.173C99.5956 112.151 98.0984 111.995 97.2054 111.682C96.7397 111.519 96.4133 111.305 96.1677 111.029C95.9334 110.766 95.7972 110.469 95.681 110.222L96.5856 109.796C96.7119 110.064 96.7922 110.227 96.915 110.365C97.0264 110.49 97.1975 110.62 97.5361 110.739C98.2515 110.989 99.5896 111.151 102.293 111.173L102.285 112.173ZM95.681 110.222L95.6595 110.177L96.5641 109.75L96.5856 109.796L95.681 110.222ZM137.772 88.9531C138.929 89.0064 139.956 89.0568 140.916 89.0922L140.879 90.0915C139.913 90.0559 138.879 90.0051 137.726 89.9521L137.772 88.9531ZM96.564 109.75C96.5713 109.765 96.5786 109.781 96.5856 109.796L95.681 110.222C95.6738 110.207 95.6668 110.192 95.6597 110.177L96.564 109.75ZM140.091 124.465C138.585 124.632 137.243 124.827 136.019 125.054L135.836 124.071C137.088 123.838 138.455 123.64 139.982 123.472L140.091 124.465ZM133.14 118.015C133.295 118.244 133.434 118.477 133.553 118.708L132.665 119.167C132.565 118.973 132.446 118.774 132.312 118.576L133.14 118.015ZM133.553 118.708C133.568 118.735 133.582 118.763 133.595 118.791L132.7 119.236C132.689 119.213 132.677 119.19 132.665 119.167L133.553 118.708ZM133.595 118.791C133.786 119.174 133.928 119.566 133.987 119.931C134.044 120.285 134.033 120.685 133.827 121.016L132.977 120.49C133.001 120.451 133.039 120.335 132.999 120.09C132.962 119.855 132.862 119.562 132.7 119.236L133.595 118.791ZM132.7 119.236C132.593 119.021 132.462 118.798 132.312 118.576L133.14 118.015C133.313 118.271 133.467 118.532 133.595 118.791L132.7 119.236ZM122.178 129.503C126.929 126.861 130.166 125.138 135.732 124.09L135.917 125.073C130.517 126.09 127.397 127.745 122.664 130.377L122.178 129.503ZM135.732 124.09C135.767 124.084 135.802 124.077 135.836 124.071L136.019 125.054C135.985 125.06 135.951 125.067 135.917 125.073L135.732 124.09ZM106.85 123.017C106.795 123.275 106.895 123.15 106.749 123.061C106.711 123.039 106.704 123.053 106.776 123.052C106.845 123.051 106.95 123.036 107.099 122.998C107.716 122.839 108.712 122.373 110.073 121.694L110.519 122.589C109.191 123.252 108.09 123.775 107.348 123.966C107.158 124.015 106.969 124.049 106.791 124.052C106.618 124.054 106.414 124.028 106.229 123.916C105.79 123.649 105.799 123.151 105.873 122.807L106.85 123.017ZM135.732 124.09C137.012 123.849 138.413 123.645 139.982 123.472L140.091 124.465C138.543 124.636 137.168 124.838 135.917 125.073L135.732 124.09ZM103.901 28.3579L103.862 28.2797L104.756 27.832L104.795 27.9101L103.901 28.3579ZM103.862 28.2798C103.583 27.7245 103.335 27.2329 103.177 26.6881C103.015 26.1302 102.951 25.5349 103 24.7515C103.096 23.2188 103.633 20.8925 104.78 16.5752L105.746 16.8319C104.592 21.179 104.087 23.4007 103.998 24.814C103.955 25.5036 104.013 25.9808 104.138 26.4091C104.266 26.8506 104.469 27.2591 104.756 27.8319L103.862 28.2798ZM103.901 28.3578C103.887 28.3315 103.874 28.3056 103.862 28.2798L104.756 27.8319C104.769 27.8578 104.782 27.8839 104.795 27.9102L103.901 28.3578ZM101.716 2.22279C104.279 1.61355 108.039 1.69639 114.885 1.88894L114.857 2.88855C107.941 2.69401 104.349 2.62481 101.947 3.19568L101.716 2.22279ZM111.907 88.9527C115.7 89.0226 118.725 89.4236 121.066 90.4334C123.434 91.4549 125.081 93.0909 126.12 95.5615L125.199 95.9493C124.259 93.7166 122.8 92.2708 120.669 91.3516C118.511 90.4206 115.644 90.0218 111.888 89.9525L111.907 88.9527Z" fill="black"/>
</svg>
