<svg viewBox="0 0 190 290" fill="none" xmlns="http://www.w3.org/2000/svg">
<path d="M133.207 112.037C127.953 112.114 125.106 112.303 120.72 113.656L86.0353 114.35C82.2041 114.945 80.6384 114.588 80.1646 110.418L78.4046 111.574V114.35L74.9361 116.432L74.4736 120.365C86.2052 121.342 97.798 125.379 109.39 131.807C120.758 134.97 128.822 135.944 133.67 133.218C133.992 133.037 134.3 132.839 134.594 132.625L134.132 130.774C133.778 129.246 133.814 128.348 134.594 126.61L133.67 121.984C134.51 122.454 136.223 120.264 136.213 118.051C137.633 117.695 137.68 116.533 137.138 113.656L139.219 110.158C137.209 110.065 135.828 110.428 133.207 112.037Z" fill="#2EC4B6"/>
<path d="M132.282 38.9383C126.058 44.9081 122.727 42.8138 116.789 38.9383L114.94 35.3528C115.811 41.427 116.144 44.5055 114.246 44.7216C114.148 49.2863 115.928 52.2192 122.108 56.7505C123.686 59.3032 124.95 62.4354 128.582 64.6155C134.142 57.2133 135.863 52.9785 134.826 45.1843L133.184 44.259C133.181 39.6439 133.443 37.4446 134.142 35.006C133.653 36.5538 132.986 38.0366 132.282 38.9383Z" fill="#F9B9A5"/>
<path d="M29.1518 256.383L28.2268 257.077L23.8334 258.465C22.6777 255.917 20.5583 255.428 17.1276 255.404C16.2091 255.397 15.1967 255.424 14.0836 255.453L13.8903 255.458L11.3468 262.398C11.7655 262.608 6.7388 268.527 2.7911 271.651C-0.600058 277.858 0.886494 278.995 6.72208 278.822C12.4818 278.632 15.3119 277.711 19.9024 275.121C23.949 268.752 25.6245 267.102 28.2268 265.405L29.1518 256.383Z" fill="#5B555B"/>
<path d="M28.2268 257.077C25.3148 254.397 23.3059 253.236 18.0525 252.682L17.1276 255.404C20.5583 255.428 22.6777 255.917 23.8334 258.465L28.2268 257.077Z" fill="black"/>
<path d="M104.996 58.8324C104.818 50.7491 102.883 50.1598 97.597 53.0493H97.1345L94.8222 55.5939C87.313 67.7166 84.6641 75.9067 80.9482 91.2178L80.0232 108.336C80.0495 109.117 80.0954 109.808 80.1646 110.418C80.6384 114.588 82.2041 114.945 86.0353 114.35L120.72 113.656C125.106 112.303 127.953 112.114 133.207 112.037C135.828 110.428 137.209 110.065 139.219 110.158C139.37 110.165 139.523 110.175 139.682 110.186C142.118 107.601 143.963 106.387 148.237 104.635C151.968 106.485 152.79 105.526 152.862 101.627C154.863 101.405 155.182 100.839 154.481 99.0828L151.012 98.1575C146.606 96.6207 143.941 96.9982 139.219 97.4636L132.051 101.627C129.564 104.51 123.081 104.274 111.702 102.621C102.961 101.332 97.7538 100.366 94.8222 99.7768V97.9262C98.5688 90.1929 100.451 84.3889 103.609 72.7119C104.224 70.1637 104.507 66.1343 104.996 58.8324Z" fill="#F9B9A5"/>
<path d="M134.826 45.1843C135.863 52.9785 134.142 57.2133 128.582 64.6155C124.95 62.4354 123.686 59.3032 122.108 56.7505C115.928 52.2192 114.148 49.2863 114.246 44.7216C112.861 45.5066 111.826 45.7259 109.621 45.6469C106.962 48.7635 105.573 49.7382 103.378 49.3481C97.9276 49.4423 97.6463 50.7219 97.1562 52.9506L97.1345 53.0493H97.597C102.883 50.1598 104.818 50.7491 104.996 58.8324C104.507 66.1343 104.224 70.1637 103.609 72.7119C100.451 84.3889 98.5688 90.1929 94.8222 97.9262V99.7768C97.7538 100.366 102.961 101.332 111.702 102.621C123.081 104.274 129.564 104.51 132.051 101.627L139.219 97.4636C140.387 97.3485 141.429 97.2388 142.402 97.1621C145.67 94.1876 146.026 89.6582 146.619 81.9648C148.335 79.184 148.994 77.2479 149.856 73.4058C149.756 69.3958 149.479 66.0982 149.014 62.7649C148.895 57.4304 148.133 53.472 146.619 49.8108C141.922 46.7384 139.37 46.1509 134.826 45.1843Z" fill="#2EC4B6"/>
<path d="M146.619 49.8108C148.133 53.472 148.895 57.4304 149.014 62.7649C149.479 66.0982 149.756 69.3958 149.856 73.4058L153.556 69.936C159.266 72.1562 163.304 74.4321 174.829 83.8154C175.819 85.3031 176.3 86.264 176.217 89.5985L176.679 107.873V110.158C175.34 110.738 174.58 110.911 173.211 110.88C170.408 110.986 170.071 111.34 168.817 111.574C168.025 113.848 165.349 114.119 165.349 115.738C166.051 117.069 166.525 117.355 167.661 116.201L169.973 114.582H170.898C172.018 116.474 172.824 116.299 174.367 115.276C174.793 118.388 175.712 118.855 177.992 118.15C178.349 121.859 179.663 120.295 181.131 119.207L183.385 117.126C182.811 119.947 182.671 120.084 185.293 119.438C186.127 116.724 186.683 116.264 186.391 114.582L187.085 112.5V108.336C187.082 108.18 187.08 108.026 187.078 107.873C186.993 100.601 187.57 96.7096 188.934 90.0612C189.232 83.8484 188.627 80.7195 184.772 76.413L179.916 71.3239C172.95 66.5508 169.209 63.6283 163.036 57.6758C158.341 51.3066 154.09 50.845 146.619 49.8108Z" fill="#F9B9A5"/>
<path d="M138.063 28.5287C136.396 31.1021 135.725 31.1566 134.826 29.6853C135.058 30.487 134.925 31.9159 134.569 33.4526C134.556 33.5071 134.543 33.5619 134.53 33.6167C134.903 32.4715 136.089 31.3264 137.535 30.6109C139.692 28.414 140.545 27.5941 141.531 26.6781V22.7223C139.999 22.3603 138.629 21.9338 137.378 21.4359C139.002 23.476 139.331 25.0553 138.063 28.5287Z" fill="#724E2D"/>
<path d="M113.09 11.8733C110.125 16.353 111.471 26.6781 111.471 26.6781C107.933 22.8941 106.425 21.7133 108.234 28.5287C109.716 32.2273 110.63 33.8085 113.09 31.7672L114.94 35.3528L116.789 38.9383C122.727 42.8138 126.058 44.9081 132.282 38.9383C132.986 38.0366 133.653 36.5538 134.142 35.006C134.288 34.5441 134.419 34.0765 134.53 33.6167C134.543 33.5619 134.556 33.5071 134.569 33.4526C134.925 31.9159 135.058 30.487 134.826 29.6853C135.725 31.1566 136.396 31.1021 138.063 28.5287C139.331 25.0553 139.002 23.476 137.378 21.4359C137.344 21.4221 137.309 21.4082 137.275 21.3943C131.733 19.1591 128.52 15.5016 123.726 9.79142L121.877 11.8733L119.102 9.56035C117.113 9.03956 115.764 9.67735 113.09 11.8733Z" fill="#F9B9A5"/>
<path d="M111.471 26.6781C111.471 26.6781 110.125 16.353 113.09 11.8733C115.764 9.67735 117.113 9.03956 119.102 9.56035L121.877 11.8733L123.726 9.79142C128.52 15.5016 131.733 19.1591 137.275 21.3943C137.309 21.4082 137.344 21.4221 137.378 21.4359C138.629 21.9338 139.999 22.3603 141.531 22.7223C141.907 22.811 142.292 22.8958 142.688 22.9769C143.543 23.4964 143.32 23.1338 141.531 21.1267C141.453 21.1017 141.376 21.0768 141.3 21.0519V18.582L139.45 17.888C139.133 14.1813 138.38 12.5117 136.676 9.79142C134.363 4.23989 126.057 -0.0651704 119.333 1.23278C112.895 3.21545 106.531 11.815 107.309 13.0303C106.6 18.0992 106.737 20.71 107.495 25.0106C107.233 22.4008 108.753 23.7714 111.471 26.6781Z" fill="#724E2D"/>
<path d="M109.39 131.807C97.798 125.379 86.2052 121.342 74.4736 120.365C69.71 125.304 67.8567 129.103 65.4555 137.02C63.233 140.607 61.995 143.049 58.7497 150.668C61.2147 150.633 62.668 150.215 65.4555 148.355C69.2095 156.639 73.1443 160.817 90.66 162.76C91.9696 162.906 93.3551 163.038 94.8222 163.16L98.9844 157.377L101.297 160.152C104.467 155.443 111.312 154.794 133.207 157.377L134.594 154.601L137.138 160.152L136.213 153.675C134.514 150.846 134.63 148.673 135.519 144.422C136.949 139.344 135.98 137.075 133.67 133.218C128.822 135.944 120.758 134.97 109.39 131.807Z" fill="black"/>
<path d="M133.207 157.377C111.312 154.794 104.467 155.443 101.297 160.152C102.145 162.269 102.413 163.579 101.297 166.861C101.82 174.837 102.389 178.797 104.534 183.747C104.384 191.655 104.297 196.149 104.072 205.492C106.171 215.246 107.088 220.7 105.459 230.244L105.419 230.413C104.277 235.299 104.059 236.233 106.384 254.995C105.647 259.528 105.303 262.182 103.609 265.174C106.243 262.968 108.649 262.847 114.477 264.48L113.783 262.86C118.177 247.362 124.791 238.564 125.345 217.983C125.868 209.455 125.855 206.691 126.039 200.403C129.428 191.955 132.282 173.569 134.594 161.772V154.601L133.207 157.377Z" fill="#F9B9A5"/>
<path d="M137.138 160.152L134.594 154.601V161.772L137.138 160.152Z" fill="#D9D9D9"/>
<path d="M65.4555 148.355C62.668 150.215 61.2147 150.633 58.7497 150.668C58.9327 161.652 57.6459 168.775 50.4253 184.904C48.3394 191.905 46.5359 195.87 39.5573 203.179C32.5387 213.938 29.7386 222.002 25.452 237.646C22.0143 246.718 20.3722 250.018 18.0525 252.682C23.3059 253.236 25.3148 254.397 28.2268 257.077L29.1518 256.383L29.8455 249.212C37.2119 239.379 41.1766 234.534 47.8817 227.236C53.7994 214.86 55.395 210.966 67.5617 201.965C74.642 185.805 80.2472 178.871 90.66 166.861V162.76C73.1443 160.817 69.2095 156.639 65.4555 148.355Z" fill="#F9B9A5"/>
<path d="M114.477 264.48C108.649 262.847 106.243 262.968 103.609 265.174C101.925 269.84 101.499 272.633 103.609 278.59C102.078 280.871 101.606 282.253 102.915 285.299C105.425 286.577 109.14 286.412 116.096 285.993C117.347 285.896 118.13 285.639 118.59 285.299C119.309 284.196 119.394 281.967 119.333 278.59C118.885 270.934 117.474 268.36 114.477 264.48Z" fill="#5B555B"/>
<path d="M118.59 285.299C118.13 285.639 117.347 285.896 116.096 285.993C109.14 286.412 105.425 286.577 102.915 285.299C101.5 285.769 101.6 286.738 102.453 289L119.333 288.075C120.314 287.074 120.036 286.459 118.59 285.299Z" fill="white"/>
<path d="M111.471 26.6781L111.106 27.0196L112.168 28.1554L111.967 26.6135L111.471 26.6781ZM113.09 11.8733L112.772 11.4869L112.714 11.5347L112.673 11.5974L113.09 11.8733ZM108.234 28.5287L107.751 28.657L107.758 28.6864L107.77 28.7146L108.234 28.5287ZM113.09 31.7672L113.534 31.538L113.249 30.9853L112.77 31.3825L113.09 31.7672ZM116.789 38.9383L116.345 39.1675L116.406 39.2848L116.516 39.357L116.789 38.9383ZM132.282 38.9383L132.628 39.2991L132.654 39.2743L132.676 39.246L132.282 38.9383ZM134.826 29.6853L135.252 29.4245L134.345 29.8242L134.826 29.6853ZM138.063 28.5287L138.483 28.8005L138.513 28.7531L138.533 28.7002L138.063 28.5287ZM121.877 11.8733L121.556 12.2574L121.929 12.5676L122.25 12.2055L121.877 11.8733ZM123.726 9.79142L124.109 9.46996L123.737 9.02655L123.353 9.45932L123.726 9.79142ZM142.688 22.9769L142.947 22.5496L142.873 22.5045L142.788 22.4871L142.688 22.9769ZM133.67 16.2685L133.182 16.3779L133.214 16.5212L133.318 16.6244L133.67 16.2685ZM141.531 21.1267L141.905 20.794L141.814 20.692L141.684 20.6504L141.531 21.1267ZM107.309 13.0303L107.804 13.0995L107.83 12.9164L107.73 12.7607L107.309 13.0303ZM119.333 1.23278L119.238 0.741839L119.212 0.746966L119.186 0.754927L119.333 1.23278ZM136.676 9.79142L136.214 9.98368L136.23 10.0219L136.252 10.057L136.676 9.79142ZM139.45 17.888L138.952 17.9307L138.979 18.2453L139.275 18.3562L139.45 17.888ZM141.3 18.582H141.8V18.2355L141.476 18.1139L141.3 18.582ZM141.531 22.7223L141.646 22.2357L141.531 22.7223ZM141.531 26.6781L141.872 27.0445L142.031 26.8961V26.6781H141.531ZM134.53 33.6167L134.044 33.4995V33.4995L134.53 33.6167ZM137.535 30.6109L137.756 31.059L137.832 31.0215L137.891 30.9612L137.535 30.6109ZM107.495 25.0106L107.002 25.0973L107.992 24.9608L107.495 25.0106ZM119.102 9.56035L119.422 9.17628L119.336 9.10491L119.228 9.07667L119.102 9.56035ZM114.246 44.7216L114.189 44.2248L114.088 44.2364L113.999 44.2866L114.246 44.7216ZM133.184 44.259L132.684 44.2593L133.184 44.259ZM128.582 64.6155L128.325 65.0442L128.712 65.2761L128.982 64.9158L128.582 64.6155ZM122.108 56.7505L122.533 56.4875L122.482 56.4048L122.403 56.3473L122.108 56.7505ZM149.014 62.7649L148.514 62.776L148.515 62.8051L148.519 62.834L149.014 62.7649ZM146.619 81.9648L146.193 81.7022L146.129 81.8055L146.12 81.9264L146.619 81.9648ZM142.402 97.1621L142.441 97.6605L142.612 97.6471L142.739 97.5318L142.402 97.1621ZM97.597 53.0493V53.5493H97.7247L97.8368 53.488L97.597 53.0493ZM104.996 58.8324L105.495 58.8659L105.497 58.8437L105.496 58.8214L104.996 58.8324ZM103.378 49.3481L103.465 48.8558L103.418 48.8474L103.369 48.8482L103.378 49.3481ZM109.621 45.6469L109.639 45.1472L109.398 45.1386L109.241 45.3224L109.621 45.6469ZM103.609 72.7119L104.092 72.8425L104.095 72.8291L103.609 72.7119ZM94.8222 97.9262L94.3722 97.7082L94.3222 97.8115V97.9262H94.8222ZM94.8222 99.7768L94.5886 100.219L94.6527 100.253L94.7237 100.267L94.8222 99.7768ZM132.051 101.627L131.8 101.195L131.727 101.237L131.672 101.301L132.051 101.627ZM111.702 102.621L111.629 103.116L111.63 103.116L111.702 102.621ZM139.219 97.4636L139.17 96.966L139.062 96.9766L138.968 97.0312L139.219 97.4636ZM151.012 98.1575L150.847 98.6296L150.865 98.6358L150.883 98.6406L151.012 98.1575ZM154.481 99.0828L154.945 98.8974L154.852 98.6644L154.609 98.5997L154.481 99.0828ZM152.862 101.627L152.807 101.13L152.37 101.179L152.362 101.618L152.862 101.627ZM148.237 104.635L148.459 104.187L148.257 104.086L148.048 104.172L148.237 104.635ZM139.682 110.186L139.645 110.685L139.882 110.703L140.045 110.529L139.682 110.186ZM133.207 112.037L133.214 112.537L133.352 112.535L133.469 112.463L133.207 112.037ZM120.72 113.656L120.73 114.156L120.801 114.155L120.868 114.134L120.72 113.656ZM86.0353 114.35L86.0253 113.85L85.9918 113.851L85.9586 113.856L86.0353 114.35ZM80.0232 108.336L79.5239 108.309L79.5228 108.331L79.5235 108.353L80.0232 108.336ZM80.9482 91.2178L80.4623 91.0999L80.4514 91.1447L80.4489 91.1908L80.9482 91.2178ZM94.8222 55.5939L94.4522 55.2576L94.4213 55.2916L94.3971 55.3306L94.8222 55.5939ZM78.4046 111.574L78.13 111.156L77.9046 111.305V111.574H78.4046ZM78.4046 114.35L78.6619 114.779L78.9046 114.633V114.35H78.4046ZM74.9361 116.432L74.6787 116.003L74.4682 116.13L74.4395 116.374L74.9361 116.432ZM134.594 132.625L134.889 133.029L135.161 132.83L135.08 132.504L134.594 132.625ZM109.39 131.807L109.147 132.245L109.199 132.273L109.256 132.289L109.39 131.807ZM139.219 110.158L139.242 109.659L139.219 110.158ZM137.138 113.656L136.708 113.401L136.612 113.563L136.647 113.749L137.138 113.656ZM136.213 118.051L136.091 117.566L135.711 117.662L135.713 118.054L136.213 118.051ZM133.67 121.984L133.913 121.547L132.967 121.018L133.179 122.082L133.67 121.984ZM134.594 126.61L135.051 126.815L135.116 126.669L135.085 126.512L134.594 126.61ZM134.132 130.774L133.645 130.887L133.647 130.895L134.132 130.774ZM153.556 69.936L153.737 69.47L153.443 69.3558L153.214 69.5713L153.556 69.936ZM174.829 83.8154L175.245 83.5384L175.204 83.4754L175.145 83.4277L174.829 83.8154ZM163.036 57.6758L162.634 57.9725L162.659 58.0064L162.689 58.0357L163.036 57.6758ZM179.916 71.3239L180.278 70.9787L180.242 70.941L180.199 70.9114L179.916 71.3239ZM176.217 89.5985L175.717 89.586L175.716 89.5986L175.717 89.6112L176.217 89.5985ZM176.679 107.873H177.179L177.179 107.86L176.679 107.873ZM184.772 76.413L185.145 76.0796L185.139 76.0736L185.134 76.0679L184.772 76.413ZM188.934 90.0612L189.424 90.1617L189.432 90.1238L189.434 90.0851L188.934 90.0612ZM187.085 108.336H187.585L187.584 108.328L187.085 108.336ZM187.078 107.873L187.578 107.867L187.078 107.873ZM176.679 110.158L176.878 110.617L177.179 110.486V110.158H176.679ZM65.4555 137.02L65.8805 137.283L65.915 137.228L65.934 137.165L65.4555 137.02ZM58.7497 150.668L58.2897 150.472L58.248 150.57L58.2498 150.676L58.7497 150.668ZM65.4555 148.355L65.9109 148.148L65.6678 147.612L65.1779 147.939L65.4555 148.355ZM94.8222 163.16L94.781 163.658L95.0628 163.681L95.228 163.452L94.8222 163.16ZM98.9844 157.377L99.3686 157.057L98.9556 156.561L98.5786 157.084L98.9844 157.377ZM133.207 157.377L133.148 157.873L133.497 157.914L133.654 157.6L133.207 157.377ZM134.594 154.601L135.049 154.392L134.614 153.443L134.147 154.377L134.594 154.601ZM137.138 160.152L137.407 160.574L137.679 160.401L137.633 160.082L137.138 160.152ZM135.519 144.422L135.038 144.287L135.033 144.303L135.03 144.32L135.519 144.422ZM136.213 153.675L136.708 153.605L136.694 153.505L136.642 153.418L136.213 153.675ZM90.66 162.76L90.7151 162.263L90.66 162.76ZM90.66 166.861L91.0378 167.188L91.16 167.047V166.861H90.66ZM67.5617 201.965L67.859 202.367L67.9662 202.288L68.0196 202.166L67.5617 201.965ZM50.4253 184.904L49.9689 184.7L49.9555 184.73L49.9461 184.761L50.4253 184.904ZM39.5573 203.179L39.1957 202.833L39.1638 202.867L39.1385 202.906L39.5573 203.179ZM25.452 237.646L25.9196 237.823L25.928 237.801L25.9343 237.778L25.452 237.646ZM47.8817 227.236L48.2499 227.575L48.3005 227.52L48.3328 227.452L47.8817 227.236ZM29.8455 249.212L29.4453 248.912L29.3613 249.025L29.3478 249.164L29.8455 249.212ZM29.1518 256.383L29.6492 256.434L29.6494 256.431L29.1518 256.383ZM28.2268 257.077L28.3775 257.554L28.4587 257.528L28.5269 257.477L28.2268 257.077ZM18.0525 252.682L17.6755 252.354L17.6108 252.428L17.5791 252.521L18.0525 252.682ZM11.3468 262.398L10.8773 262.226L10.7239 262.644L11.1221 262.844L11.3468 262.398ZM13.8903 255.458L13.8772 254.958L13.5377 254.967L13.4209 255.286L13.8903 255.458ZM23.8334 258.465L23.378 258.672L23.5612 259.076L23.984 258.942L23.8334 258.465ZM28.2268 265.405L28.4999 265.824L28.6999 265.693L28.7242 265.456L28.2268 265.405ZM19.9024 275.121L20.1481 275.556L20.2572 275.494L20.3244 275.389L19.9024 275.121ZM6.72208 278.822L6.73696 279.322L6.73853 279.321L6.72208 278.822ZM2.7911 271.651L2.48086 271.259L2.40108 271.322L2.35231 271.411L2.7911 271.651ZM101.297 166.861L100.823 166.7L100.791 166.794L100.798 166.894L101.297 166.861ZM104.534 183.747L105.034 183.757L105.036 183.648L104.993 183.549L104.534 183.747ZM104.072 205.492L103.572 205.48L103.57 205.539L103.583 205.597L104.072 205.492ZM105.459 230.244L105.946 230.357L105.949 230.343L105.952 230.328L105.459 230.244ZM106.384 254.995L106.877 255.076L106.889 255.005L106.88 254.934L106.384 254.995ZM103.609 265.174L103.174 264.927L103.153 264.964L103.139 265.004L103.609 265.174ZM113.783 262.86L113.302 262.724L113.254 262.894L113.324 263.057L113.783 262.86ZM125.345 217.983L124.846 217.953L124.846 217.961L124.845 217.97L125.345 217.983ZM126.039 200.403L125.575 200.217L125.542 200.299L125.539 200.388L126.039 200.403ZM103.609 278.59L104.024 278.869L104.164 278.66L104.08 278.423L103.609 278.59ZM119.333 278.59L119.833 278.581L119.833 278.571L119.832 278.561L119.333 278.59ZM116.096 285.993L116.126 286.492L116.134 286.491L116.096 285.993ZM119.333 288.075L119.36 288.574L119.554 288.563L119.69 288.425L119.333 288.075ZM102.453 289L101.985 289.176L102.114 289.519L102.48 289.499L102.453 289ZM173.211 110.88L173.222 110.38L173.207 110.38L173.192 110.381L173.211 110.88ZM168.817 111.574L168.725 111.083L168.44 111.136L168.345 111.41L168.817 111.574ZM165.349 115.738H164.849V115.862L164.906 115.972L165.349 115.738ZM167.661 116.201L167.374 115.791L167.337 115.817L167.305 115.85L167.661 116.201ZM169.973 114.582V114.082H169.816L169.686 114.172L169.973 114.582ZM181.131 119.207L181.429 119.608L181.451 119.592L181.47 119.574L181.131 119.207ZM183.385 117.126L183.875 117.226L184.183 115.709L183.046 116.759L183.385 117.126ZM185.293 119.438L185.413 119.923L185.688 119.856L185.771 119.585L185.293 119.438ZM186.391 114.582L185.917 114.423L185.877 114.543L185.898 114.667L186.391 114.582ZM187.085 112.5L187.559 112.658L187.585 112.581V112.5H187.085ZM14.0836 255.453L14.0704 254.953H14.0704L14.0836 255.453ZM134.569 33.4526L134.081 33.3396V33.3396L134.569 33.4526ZM137.275 21.3943L137.462 20.9306L137.275 21.3943ZM105.419 230.413L105.906 230.527L105.419 230.413ZM111.471 26.6781C111.967 26.6135 111.967 26.6135 111.967 26.6135C111.967 26.6135 111.967 26.6134 111.967 26.6133C111.967 26.6131 111.967 26.6128 111.967 26.6122C111.967 26.6112 111.966 26.6096 111.966 26.6073C111.966 26.6028 111.965 26.5958 111.963 26.5864C111.961 26.5676 111.958 26.5393 111.953 26.5019C111.944 26.4271 111.932 26.3161 111.916 26.1727C111.886 25.8859 111.845 25.47 111.806 24.9564C111.727 23.9287 111.652 22.5132 111.669 20.961C111.686 19.4072 111.794 17.7268 112.078 16.1659C112.363 14.5987 112.819 13.1887 113.507 12.1493L112.673 11.5974C111.878 12.7978 111.391 14.3584 111.094 15.987C110.797 17.6219 110.686 19.3627 110.669 20.9502C110.652 22.5392 110.728 23.985 110.809 25.0332C110.849 25.5576 110.89 25.9833 110.922 26.2787C110.938 26.4264 110.951 26.5415 110.96 26.6202C110.965 26.6595 110.969 26.6897 110.971 26.7103C110.972 26.7206 110.973 26.7285 110.974 26.7339C110.975 26.7366 110.975 26.7387 110.975 26.7402C110.975 26.7409 110.975 26.7415 110.975 26.7419C110.975 26.7421 110.975 26.7423 110.975 26.7424C110.975 26.7426 110.975 26.7427 111.471 26.6781ZM111.836 26.3366C110.953 25.3917 110.18 24.5914 109.548 24.0368C109.233 23.7602 108.937 23.5298 108.668 23.3722C108.417 23.2258 108.101 23.0879 107.777 23.1336C107.377 23.1901 107.152 23.4873 107.054 23.7998C106.962 24.0889 106.95 24.4559 106.98 24.8687C107.042 25.7073 107.298 26.95 107.751 28.657L108.717 28.4004C108.266 26.6997 108.032 25.5343 107.978 24.7957C107.95 24.4199 107.974 24.2061 108.007 24.101C108.033 24.0193 108.021 24.109 107.917 24.1237C107.89 24.1276 107.954 24.1134 108.163 24.2353C108.352 24.346 108.593 24.5285 108.888 24.7882C109.478 25.3062 110.22 26.0725 111.106 27.0196L111.836 26.3366ZM107.77 28.7146C108.141 29.6402 108.484 30.453 108.829 31.1137C109.17 31.7677 109.537 32.3189 109.975 32.6842C110.435 33.0691 110.973 33.2445 111.589 33.1347C112.17 33.0313 112.769 32.6835 113.409 32.152L112.77 31.3825C112.181 31.8716 111.743 32.0916 111.414 32.1502C111.121 32.2025 110.876 32.1342 110.616 31.9167C110.332 31.6795 110.038 31.2695 109.715 30.6506C109.395 30.0383 109.068 29.2665 108.698 28.3427L107.77 28.7146ZM116.516 39.357C119.451 41.2725 121.876 42.8494 124.373 43.1272C126.938 43.4127 129.468 42.3303 132.628 39.2991L131.936 38.5774C128.872 41.5161 126.624 42.3715 124.483 42.1333C122.274 41.8875 120.065 40.4796 117.063 38.5196L116.516 39.357ZM134.399 29.9461C134.631 30.3261 134.882 30.6664 135.177 30.8872C135.5 31.1294 135.884 31.2317 136.305 31.1014C136.679 30.9854 137.021 30.702 137.351 30.3375C137.689 29.964 138.061 29.4521 138.483 28.8005L137.643 28.2569C137.232 28.892 136.895 29.3519 136.61 29.6664C136.317 29.9899 136.123 30.1107 136.009 30.1462C135.941 30.1672 135.885 30.1681 135.777 30.0872C135.64 29.9847 135.47 29.7801 135.252 29.4245L134.399 29.9461ZM135.904 23.9906L137.763 21.7557L136.994 21.1162L135.135 23.3511L135.904 23.9906ZM136.987 21.7472C137.77 22.7307 138.197 23.5488 138.308 24.5029C138.422 25.4717 138.218 26.6473 137.593 28.3572L138.533 28.7002C139.176 26.9367 139.442 25.5859 139.302 24.3867C139.16 23.1728 138.61 22.1811 137.77 21.1246L136.987 21.7472ZM122.25 12.2055L124.1 10.1235L123.353 9.45932L121.503 11.5412L122.25 12.2055ZM120.043 5.59958C120.75 5.19758 121.804 5.20504 123.113 5.65404C124.405 6.0971 125.849 6.9397 127.244 8.04713C130.048 10.2732 132.529 13.4666 133.182 16.3779L134.157 16.1591C133.435 12.9369 130.763 9.56374 127.866 7.26394C126.41 6.10847 124.867 5.19835 123.438 4.70813C122.026 4.22386 120.626 4.11748 119.548 4.73031L120.043 5.59958ZM141.158 21.4593C142.067 22.4791 142.533 23.0327 142.677 23.2636C142.692 23.2877 142.696 23.2973 142.695 23.2956C142.695 23.2942 142.691 23.2858 142.686 23.2715C142.682 23.2582 142.674 23.2306 142.671 23.1926C142.665 23.1209 142.672 22.9301 142.848 22.7907C142.995 22.6737 143.147 22.6893 143.173 22.6921C143.235 22.6988 143.252 22.7171 143.179 22.6811C143.125 22.6544 143.049 22.6116 142.947 22.5496L142.428 23.4042C142.54 23.4721 142.644 23.5316 142.734 23.5767C142.806 23.6123 142.932 23.6719 143.066 23.6863C143.127 23.6929 143.306 23.704 143.47 23.5738C143.662 23.4211 143.676 23.2082 143.667 23.1053C143.659 23.0063 143.625 22.9256 143.605 22.8812C143.582 22.8296 143.553 22.7799 143.525 22.7349C143.325 22.4126 142.785 21.7813 141.905 20.794L141.158 21.4593ZM107.73 12.7607C107.758 12.8046 107.741 12.8162 107.745 12.7402C107.747 12.6693 107.767 12.5595 107.815 12.4063C107.911 12.1005 108.101 11.6931 108.386 11.2049C108.953 10.2331 109.854 9.00986 110.986 7.75409C113.261 5.23116 116.388 2.66299 119.48 1.71063L119.186 0.754927C115.841 1.78523 112.566 4.50817 110.244 7.0845C109.077 8.37836 108.131 9.65677 107.522 10.7012C107.219 11.2211 106.989 11.7004 106.861 12.1053C106.798 12.3074 106.753 12.5089 106.745 12.6984C106.738 12.8829 106.762 13.1041 106.888 13.2999L107.73 12.7607ZM119.428 1.72371C122.658 1.10019 126.303 1.81998 129.434 3.39049C132.57 4.96321 135.118 7.35139 136.214 9.98368L137.137 9.59917C135.921 6.67993 133.159 4.13981 129.883 2.49661C126.602 0.851186 122.732 0.0674191 119.238 0.741839L119.428 1.72371ZM136.252 10.057C137.099 11.4083 137.691 12.4698 138.113 13.6397C138.535 14.8069 138.796 16.1051 138.952 17.9307L139.949 17.8454C139.787 15.9642 139.514 14.5743 139.054 13.3C138.594 12.0283 137.957 10.8948 137.099 9.52589L136.252 10.057ZM139.275 18.3562L141.125 19.0501L141.476 18.1139L139.626 17.4199L139.275 18.3562ZM133.318 16.6244C134.529 17.8196 135.548 18.7439 136.738 19.5205C137.932 20.2992 139.28 20.9171 141.145 21.5271L141.456 20.5767C139.647 19.9852 138.385 19.4008 137.284 18.6829C136.18 17.9628 135.22 17.0962 134.021 15.9126L133.318 16.6244ZM141.145 21.5271C141.222 21.5524 141.3 21.5777 141.379 21.6029L141.684 20.6504C141.607 20.6258 141.531 20.6012 141.456 20.5767L141.145 21.5271ZM140.8 18.582V21.0519H141.8V18.582H140.8ZM141.417 23.2089C141.797 23.2988 142.187 23.3847 142.587 23.4667L142.788 22.4871C142.397 22.407 142.017 22.3232 141.646 22.2357L141.417 23.2089ZM141.031 22.7223V26.6781H142.031V22.7223H141.031ZM141.191 26.3117C140.198 27.2345 139.339 28.0601 137.178 30.2605L137.891 30.9612C140.045 28.7678 140.893 27.9536 141.872 27.0445L141.191 26.3117ZM137.313 30.1627C135.801 30.911 134.485 32.1407 134.054 33.4617L135.005 33.7717C135.321 32.8023 136.377 31.7418 137.756 31.059L137.313 30.1627ZM106.814 12.9611C106.098 18.0847 106.236 20.7482 107.002 25.0973L107.987 24.9239C107.238 20.6719 107.103 18.1137 107.804 13.0995L106.814 12.9611ZM122.197 11.4893L119.422 9.17628L118.782 9.94442L121.556 12.2574L122.197 11.4893ZM119.228 9.07667C118.142 8.79203 117.197 8.82117 116.167 9.23395C115.169 9.63391 114.112 10.387 112.772 11.4869L113.407 12.2598C114.742 11.1637 115.696 10.4999 116.539 10.1622C117.35 9.83724 118.073 9.80788 118.975 10.044L119.228 9.07667ZM112.645 31.9965L114.495 35.582L115.384 35.1235L113.534 31.538L112.645 31.9965ZM114.495 35.582L116.345 39.1675L117.234 38.709L115.384 35.1235L114.495 35.582ZM114.445 35.4237C114.883 38.4765 115.175 40.7162 115.132 42.2195C115.11 42.9738 115.004 43.4743 114.837 43.7844C114.691 44.056 114.498 44.1897 114.189 44.2248L114.302 45.2184C114.943 45.1456 115.42 44.8133 115.718 44.2572C115.996 43.7394 116.108 43.0501 116.131 42.2484C116.178 40.6399 115.868 38.3033 115.435 35.2818L114.445 35.4237ZM133.666 34.8552C133.183 36.3814 132.538 37.7981 131.888 38.6305L132.676 39.246C133.434 38.2752 134.123 36.7262 134.619 35.1568L133.666 34.8552ZM133.662 34.8682C132.944 37.3706 132.681 39.6224 132.684 44.2593L133.684 44.2587C133.681 39.6654 133.942 37.5186 134.623 35.1438L133.662 34.8682ZM132.684 44.2593C132.684 45.0382 132.692 45.8848 132.707 46.8115L133.707 46.7956C133.692 45.8727 133.684 45.0313 133.684 44.2587L132.684 44.2593ZM132.938 44.6946L134.58 45.6199L135.071 44.7487L133.429 43.8234L132.938 44.6946ZM134.33 45.2502C134.842 49.0952 134.669 52.0214 133.704 54.8874C132.735 57.7673 130.955 60.6244 128.183 64.3152L128.982 64.9158C131.77 61.2045 133.63 58.243 134.652 55.2064C135.678 52.156 135.847 49.0676 135.321 45.1183L134.33 45.2502ZM113.746 44.7109C113.695 47.0726 114.133 49.0498 115.402 51.0194C116.658 52.9678 118.708 54.8774 121.812 57.1537L122.403 56.3473C119.328 54.0923 117.398 52.2698 116.243 50.4777C115.102 48.7069 114.698 46.9353 114.746 44.7324L113.746 44.7109ZM121.683 57.0134C123.215 59.4919 124.558 62.7835 128.325 65.0442L128.84 64.1868C125.341 62.0874 124.157 59.1145 122.533 56.4875L121.683 57.0134ZM134.722 45.6733C139.24 46.6344 141.723 47.2056 146.345 50.2292L146.892 49.3923C142.121 46.2713 139.501 45.6675 134.93 44.6952L134.722 45.6733ZM146.157 50.0019C147.642 53.5926 148.397 57.487 148.514 62.776L149.514 62.7538C149.394 57.3737 148.624 53.3513 147.081 49.6197L146.157 50.0019ZM148.519 62.834C148.981 66.1475 149.257 69.4262 149.356 73.4183L150.356 73.3934C150.256 69.3655 149.977 66.049 149.509 62.6959L148.519 62.834ZM149.368 73.2964C148.513 77.107 147.87 78.985 146.193 81.7022L147.044 82.2274C148.8 79.383 149.475 77.3889 150.344 73.5153L149.368 73.2964ZM146.12 81.9264C145.823 85.7867 145.588 88.7993 145.027 91.2202C144.469 93.6234 143.601 95.3948 142.066 96.7923L142.739 97.5318C144.471 95.9549 145.415 93.9744 146.001 91.446C146.583 88.9351 146.822 85.8364 147.117 82.0032L146.12 81.9264ZM97.8368 53.488C99.1497 52.7704 100.215 52.2918 101.076 52.0831C101.933 51.8755 102.511 51.9525 102.93 52.239C103.365 52.5358 103.746 53.1344 104.024 54.2345C104.299 55.3269 104.452 56.8352 104.497 58.8434L105.496 58.8214C105.452 56.7879 105.296 55.1914 104.993 53.9901C104.693 52.7967 104.226 51.9129 103.494 51.4131C102.747 50.9031 101.839 50.8693 100.84 51.1113C99.8466 51.3521 98.6873 51.8835 97.3572 52.6106L97.8368 53.488ZM103.29 49.8404C104.5 50.0554 105.521 49.8914 106.586 49.2389C107.615 48.6089 108.671 47.5301 110.002 45.9715L109.241 45.3224C107.911 46.8804 106.944 47.8472 106.064 48.3862C105.221 48.9026 104.451 49.0309 103.465 48.8558L103.29 49.8404ZM109.603 46.1466C110.721 46.1866 111.577 46.1528 112.34 45.9983C113.112 45.8422 113.767 45.5677 114.492 45.1566L113.999 44.2866C113.34 44.6605 112.785 44.8882 112.142 45.0182C111.491 45.1498 110.726 45.1862 109.639 45.1472L109.603 46.1466ZM104.498 58.7989C104.006 66.1255 103.725 70.099 103.123 72.5946L104.095 72.8291C104.723 70.2285 105.007 66.1431 105.495 58.8659L104.498 58.7989ZM103.126 72.5813C99.9707 84.2477 98.0986 90.0166 94.3722 97.7082L95.2722 98.1442C99.039 90.3692 100.93 84.5301 104.092 72.8424L103.126 72.5813ZM94.3222 97.9262V99.7768H95.3222V97.9262H94.3222ZM94.7237 100.267C97.6648 100.858 102.881 101.825 111.629 103.116L111.775 102.126C103.042 100.838 97.8428 99.8735 94.9206 99.2866L94.7237 100.267ZM111.63 103.116C117.32 103.943 121.824 104.421 125.225 104.325C128.603 104.23 131.039 103.566 132.43 101.954L131.672 101.301C130.576 102.572 128.527 103.232 125.197 103.326C121.89 103.419 117.463 102.953 111.774 102.126L111.63 103.116ZM132.302 102.06L139.47 97.8959L138.968 97.0312L131.8 101.195L132.302 102.06ZM139.268 97.9611C143.997 97.495 146.559 97.1337 150.847 98.6296L151.177 97.6854C146.654 96.1078 143.884 96.5014 139.17 96.966L139.268 97.9611ZM150.883 98.6406L154.352 99.5659L154.609 98.5997L151.141 97.6744L150.883 98.6406ZM154.016 99.2682C154.186 99.6936 154.279 100.011 154.309 100.251C154.338 100.486 154.301 100.601 154.26 100.666C154.218 100.733 154.124 100.825 153.883 100.914C153.64 101.005 153.292 101.076 152.807 101.13L152.917 102.124C153.432 102.067 153.875 101.984 154.232 101.852C154.592 101.718 154.909 101.516 155.109 101.195C155.311 100.871 155.347 100.501 155.301 100.129C155.256 99.7619 155.126 99.3503 154.945 98.8974L154.016 99.2682ZM152.362 101.618C152.344 102.583 152.28 103.331 152.147 103.886C152.013 104.447 151.827 104.737 151.627 104.883C151.439 105.02 151.142 105.098 150.613 105.002C150.079 104.905 149.378 104.642 148.459 104.187L148.015 105.083C148.962 105.552 149.762 105.864 150.434 105.986C151.111 106.108 151.724 106.05 152.216 105.691C152.696 105.341 152.963 104.777 153.12 104.118C153.278 103.455 153.344 102.621 153.362 101.637L152.362 101.618ZM148.048 104.172C143.725 105.945 141.814 107.195 139.318 109.843L140.045 110.529C142.422 108.008 144.202 106.83 148.427 105.097L148.048 104.172ZM133.2 111.537C127.928 111.614 125.026 111.805 120.573 113.178L120.868 114.134C125.186 112.802 127.978 112.614 133.214 112.537L133.2 111.537ZM120.71 113.156L86.0253 113.85L86.0453 114.85L120.73 114.156L120.71 113.156ZM80.5225 108.363L81.4474 91.2448L80.4489 91.1908L79.5239 108.309L80.5225 108.363ZM81.4341 91.3357C85.1438 76.0499 87.7771 67.9167 95.2472 55.8572L94.3971 55.3306C86.8488 67.5164 84.1843 75.7634 80.4623 91.0999L81.4341 91.3357ZM95.1922 55.9301L97.5046 53.3856L96.7645 52.713L94.4522 55.2576L95.1922 55.9301ZM97.597 52.5493H97.1345V53.5493H97.597V52.5493ZM95.0558 99.3347C94.3982 98.9873 93.8082 98.6954 93.0696 98.5832C92.3314 98.471 91.4893 98.5434 90.3113 98.8281L90.5462 99.8002C91.664 99.53 92.3628 99.4872 92.9194 99.5718C93.4756 99.6563 93.9345 99.8733 94.5886 100.219L95.0558 99.3347ZM85.9586 113.856C85.0078 114.004 84.2268 114.087 83.5792 114.073C82.9331 114.059 82.4562 113.948 82.0907 113.738C81.3851 113.33 80.8959 112.425 80.6614 110.361L79.6678 110.474C79.9071 112.58 80.4376 113.938 81.5911 114.604C82.1551 114.929 82.8176 115.057 83.5575 115.073C84.2957 115.089 85.1472 114.994 86.112 114.844L85.9586 113.856ZM80.6614 110.361C80.5941 109.769 80.5489 109.091 80.5229 108.319L79.5235 108.353C79.55 109.143 79.5967 109.848 79.6678 110.474L80.6614 110.361ZM79.89 110L78.13 111.156L78.6792 111.992L80.4392 110.836L79.89 110ZM77.9046 111.574V114.35H78.9046V111.574H77.9046ZM78.1473 113.922L74.6787 116.003L75.1934 116.861L78.6619 114.779L78.1473 113.922ZM74.4395 116.374L73.977 120.306L74.9702 120.423L75.4326 116.491L74.4395 116.374ZM74.4321 120.863C86.0762 121.833 97.6006 125.841 109.147 132.245L109.632 131.37C97.9954 124.917 86.3342 120.851 74.5151 119.866L74.4321 120.863ZM139.719 109.688C139.556 109.676 139.398 109.666 139.242 109.659L139.196 110.658C139.341 110.664 139.49 110.674 139.645 110.685L139.719 109.688ZM139.242 109.659C138.197 109.61 137.289 109.68 136.297 109.981C135.314 110.279 134.272 110.797 132.945 111.611L133.469 112.463C134.764 111.668 135.722 111.2 136.587 110.938C137.443 110.678 138.231 110.613 139.196 110.658L139.242 109.659ZM138.789 109.902L136.708 113.401L137.568 113.912L139.649 110.414L138.789 109.902ZM136.647 113.749C136.92 115.201 137.022 116.122 136.919 116.713C136.87 116.99 136.782 117.158 136.672 117.273C136.56 117.389 136.386 117.493 136.091 117.566L136.335 118.536C136.75 118.432 137.114 118.257 137.394 117.965C137.675 117.671 137.831 117.303 137.904 116.885C138.044 116.086 137.898 114.987 137.629 113.564L136.647 113.749ZM133.426 122.42C133.871 122.669 134.346 122.516 134.688 122.303C135.043 122.082 135.381 121.726 135.671 121.309C136.251 120.474 136.719 119.275 136.713 118.049L135.713 118.054C135.718 119.04 135.334 120.042 134.85 120.738C134.608 121.087 134.361 121.328 134.159 121.455C134.058 121.517 133.987 121.54 133.946 121.546C133.927 121.549 133.917 121.548 133.914 121.548C133.913 121.547 133.913 121.547 133.913 121.547C133.913 121.547 133.914 121.548 133.913 121.547L133.426 122.42ZM133.179 122.082L134.104 126.708L135.085 126.512L134.16 121.886L133.179 122.082ZM134.138 126.405C133.737 127.299 133.51 128.014 133.44 128.722C133.37 129.432 133.463 130.099 133.645 130.887L134.619 130.662C134.448 129.921 134.381 129.375 134.435 128.82C134.49 128.262 134.671 127.659 135.051 126.815L134.138 126.405ZM133.647 130.895L134.109 132.746L135.08 132.504L134.617 130.653L133.647 130.895ZM150.198 73.7705L153.898 70.3007L153.214 69.5713L149.514 73.0411L150.198 73.7705ZM153.374 70.402C159.013 72.5946 163.004 74.8331 174.513 84.2032L175.145 83.4277C163.603 74.0312 159.518 71.7179 153.737 69.47L153.374 70.402ZM146.55 50.306C150.309 50.8263 153.168 51.1939 155.682 52.2065C158.165 53.2069 160.331 54.8491 162.634 57.9725L163.439 57.3791C161.046 54.1333 158.739 52.3601 156.056 51.2789C153.402 50.2099 150.401 49.8295 146.687 49.3155L146.55 50.306ZM162.689 58.0357C168.886 64.0106 172.649 66.9504 179.634 71.7364L180.199 70.9114C173.252 66.1513 169.533 63.246 163.383 57.3159L162.689 58.0357ZM174.413 84.0924C174.901 84.8258 175.232 85.384 175.444 86.1479C175.658 86.9214 175.758 87.9383 175.717 89.586L176.716 89.6111C176.759 87.9242 176.66 86.7934 176.407 85.8809C176.152 84.9588 175.747 84.2928 175.245 83.5384L174.413 84.0924ZM175.717 89.6112L176.179 107.886L177.179 107.86L176.716 89.5859L175.717 89.6112ZM179.555 71.6691L184.41 76.7582L185.134 76.0679L180.278 70.9787L179.555 71.6691ZM184.4 76.7465C186.293 78.8621 187.36 80.6557 187.93 82.6589C188.502 84.6747 188.583 86.9429 188.435 90.0372L189.434 90.0851C189.583 86.9667 189.511 84.564 188.892 82.3856C188.269 80.1945 187.106 78.2705 185.145 76.0796L184.4 76.7465ZM188.445 89.9607C187.076 96.6326 186.493 100.561 186.578 107.879L187.578 107.867C187.494 100.641 188.065 96.7867 189.424 90.1617L188.445 89.9607ZM186.578 107.879C186.58 108.032 186.582 108.187 186.585 108.343L187.584 108.328C187.582 108.173 187.58 108.019 187.578 107.867L186.578 107.879ZM176.179 107.873V110.158H177.179V107.873H176.179ZM74.1137 120.018C69.2768 125.033 67.392 128.913 64.977 136.875L65.934 137.165C68.3213 129.294 70.1433 125.575 74.8335 120.712L74.1137 120.018ZM65.0304 136.757C62.7884 140.376 61.539 142.844 58.2897 150.472L59.2097 150.864C62.451 143.254 63.6775 140.839 65.8805 137.283L65.0304 136.757ZM58.7569 151.168C60.0183 151.15 61.054 151.034 62.1403 150.67C63.2206 150.308 64.3231 149.712 65.733 148.771L65.1779 147.939C63.8004 148.858 62.7824 149.4 61.8229 149.722C60.8695 150.041 59.9461 150.151 58.7425 150.168L58.7569 151.168ZM95.228 163.452L99.3902 157.669L98.5786 157.084L94.4164 162.868L95.228 163.452ZM98.6002 157.697L100.913 160.472L101.681 159.832L99.3686 157.057L98.6002 157.697ZM101.712 160.432C103.18 158.251 105.51 156.949 110.274 156.528C115.061 156.105 122.198 156.581 133.148 157.873L133.266 156.88C122.322 155.589 115.089 155.099 110.186 155.532C105.262 155.967 102.584 157.345 100.882 159.873L101.712 160.432ZM133.654 157.6L135.042 154.824L134.147 154.377L132.76 157.153L133.654 157.6ZM134.14 154.809L136.683 160.361L137.593 159.944L135.049 154.392L134.14 154.809ZM136.87 159.731L134.326 161.35L134.863 162.193L137.407 160.574L136.87 159.731ZM135.094 161.772V154.601H134.094V161.772H135.094ZM109.256 132.289C114.951 133.874 119.846 134.918 123.938 135.22C128.025 135.521 131.367 135.086 133.915 133.654L133.424 132.783C131.124 134.076 128.011 134.517 124.012 134.222C120.017 133.928 115.197 132.904 109.524 131.326L109.256 132.289ZM133.915 133.654C134.254 133.464 134.579 133.255 134.889 133.029L134.3 132.221C134.022 132.424 133.73 132.611 133.424 132.783L133.915 133.654ZM133.241 133.475C134.395 135.403 135.174 136.871 135.508 138.465C135.838 140.045 135.739 141.796 135.038 144.287L136.001 144.558C136.729 141.97 136.86 140.048 136.486 138.26C136.115 136.486 135.254 134.891 134.098 132.961L133.241 133.475ZM135.03 144.32C134.585 146.447 134.32 148.109 134.396 149.607C134.473 151.127 134.898 152.457 135.784 153.933L136.642 153.418C135.829 152.065 135.462 150.893 135.395 149.557C135.326 148.199 135.564 146.648 136.009 144.525L135.03 144.32ZM135.718 153.746L136.643 160.223L137.633 160.082L136.708 153.605L135.718 153.746ZM65.0001 148.561C66.8915 152.735 68.8641 155.956 72.6283 158.357C76.3699 160.743 81.8265 162.283 90.6048 163.257L90.7151 162.263C81.9778 161.294 76.7092 159.773 73.166 157.514C69.6453 155.269 67.7735 152.259 65.9109 148.148L65.0001 148.561ZM90.6048 163.257C91.9196 163.403 93.3099 163.536 94.781 163.658L94.8633 162.661C93.4004 162.541 92.0196 162.408 90.7151 162.263L90.6048 163.257ZM90.16 162.76V166.861H91.16V162.76H90.16ZM90.2822 166.533C79.854 178.561 74.2127 185.538 67.1037 201.764L68.0196 202.166C75.0713 186.071 80.6404 179.18 91.0378 167.188L90.2822 166.533ZM58.2498 150.676C58.3409 156.143 58.066 160.626 56.8768 165.743C55.686 170.868 53.5739 176.647 49.9689 184.7L50.8816 185.108C54.4973 177.032 56.6389 171.185 57.8509 165.97C59.0645 160.747 59.3416 156.177 59.2496 150.66L58.2498 150.676ZM49.9461 184.761C48.9068 188.249 47.9473 190.948 46.3916 193.678C44.8353 196.41 42.6695 199.195 39.1957 202.833L39.9189 203.524C43.4237 199.853 45.649 197.002 47.2605 194.173C48.8727 191.344 49.8579 188.559 50.9045 185.047L49.9461 184.761ZM39.1385 202.906C32.0776 213.729 29.2611 221.853 24.9698 237.514L25.9343 237.778C30.2162 222.151 32.9999 214.146 39.9761 203.452L39.1385 202.906ZM67.2643 201.563C61.163 206.077 57.6767 209.336 54.9744 213.04C52.2813 216.732 50.3811 220.85 47.4306 227.021L48.3328 227.452C51.3001 221.246 53.1565 217.229 55.7823 213.63C58.3988 210.043 61.7937 206.854 67.859 202.367L67.2643 201.563ZM47.5135 226.898C40.7945 234.211 36.8192 239.069 29.4453 248.912L30.2456 249.512C37.6046 239.689 41.5586 234.857 48.2499 227.575L47.5135 226.898ZM29.3478 249.164L28.6541 256.335L29.6494 256.431L30.3431 249.26L29.3478 249.164ZM28.8517 255.983L27.9268 256.677L28.5269 257.477L29.4518 256.783L28.8517 255.983ZM28.5654 256.709C27.0947 255.356 25.8188 254.354 24.2252 253.628C22.6337 252.902 20.7588 252.465 18.105 252.185L18.0001 253.179C20.5997 253.454 22.3559 253.874 23.8102 254.537C25.2624 255.2 26.447 256.119 27.8882 257.445L28.5654 256.709ZM18.4296 253.01C20.816 250.27 22.4848 246.887 25.9196 237.823L24.9845 237.469C21.5438 246.548 19.9284 249.766 17.6755 252.354L18.4296 253.01ZM11.8162 262.57L14.3598 255.63L13.4209 255.286L10.8773 262.226L11.8162 262.57ZM17.124 255.904C18.831 255.916 20.1372 256.046 21.147 256.452C22.1248 256.846 22.8506 257.509 23.378 258.672L24.2887 258.259C23.6605 256.874 22.7487 256.019 21.5202 255.524C20.3237 255.043 18.8549 254.916 17.1312 254.904L17.124 255.904ZM17.5791 252.521L16.6542 255.243L17.601 255.565L18.5259 252.843L17.5791 252.521ZM28.0762 256.6L23.6828 257.988L23.984 258.942L28.3775 257.554L28.0762 256.6ZM28.6544 256.332L27.7294 265.354L28.7242 265.456L29.6492 256.434L28.6544 256.332ZM27.9538 264.986C25.2629 266.741 23.5413 268.462 19.4804 274.852L20.3244 275.389C24.3567 269.043 25.9861 267.463 28.4999 265.824L27.9538 264.986ZM19.6567 274.685C17.3769 275.971 15.5601 276.828 13.612 277.391C11.6645 277.953 9.56172 278.228 6.70563 278.322L6.73853 279.321C9.64218 279.226 11.8344 278.945 13.8894 278.352C15.944 277.758 17.8375 276.86 20.1481 275.556L19.6567 274.685ZM6.7072 278.322C5.25622 278.365 4.1155 278.325 3.26599 278.157C2.40979 277.988 1.94486 277.708 1.71539 277.356C1.48804 277.007 1.40688 276.457 1.63886 275.537C1.8696 274.622 2.38839 273.431 3.22989 271.89L2.35231 271.411C1.49824 272.974 0.931158 274.253 0.66922 275.292C0.40853 276.326 0.427893 277.212 0.877735 277.902C1.32545 278.589 2.11439 278.949 3.07219 279.138C4.0367 279.329 5.27014 279.365 6.73696 279.322L6.7072 278.322ZM11.1221 262.844C10.9562 262.761 10.8912 262.61 10.8759 262.509C10.8637 262.428 10.8797 262.374 10.8798 262.374C10.8815 262.367 10.8721 262.399 10.8248 262.484C10.7362 262.642 10.5747 262.882 10.3414 263.193C9.87924 263.811 9.17715 264.656 8.3338 265.598C6.64549 267.484 4.42332 269.722 2.48086 271.259L3.10134 272.043C5.10657 270.456 7.3716 268.172 9.07886 266.265C9.93331 265.311 10.6561 264.442 11.142 263.793C11.3828 263.471 11.5762 263.189 11.6978 262.971C11.7555 262.868 11.815 262.748 11.8463 262.63C11.8612 262.574 11.8821 262.475 11.8646 262.359C11.844 262.223 11.7635 262.048 11.5714 261.951L11.1221 262.844ZM100.833 160.338C101.251 161.383 101.503 162.174 101.534 163.086C101.564 164.003 101.372 165.085 100.823 166.7L101.77 167.022C102.337 165.354 102.569 164.141 102.533 163.053C102.497 161.961 102.19 161.038 101.761 159.966L100.833 160.338ZM100.798 166.894C101.322 174.883 101.894 178.913 104.075 183.946L104.993 183.549C102.883 178.68 102.318 174.792 101.796 166.828L100.798 166.894ZM104.034 183.738C103.884 191.645 103.797 196.138 103.572 205.48L104.571 205.504C104.797 196.16 104.884 191.665 105.034 183.757L104.034 183.738ZM103.583 205.597C105.677 215.33 106.579 220.71 104.966 230.16L105.952 230.328C107.597 220.69 106.664 215.161 104.56 205.387L103.583 205.597ZM105.89 254.915C105.149 259.474 104.815 262.029 103.174 264.927L104.044 265.42C105.792 262.334 106.144 259.581 106.877 255.076L105.89 254.915ZM114.612 263.998C111.691 263.18 109.563 262.781 107.815 262.888C106.03 262.998 104.672 263.632 103.288 264.79L103.93 265.557C105.181 264.51 106.342 263.981 107.876 263.887C109.445 263.79 111.434 264.147 114.342 264.961L114.612 263.998ZM114.937 264.283L114.243 262.663L113.324 263.057L114.018 264.677L114.937 264.283ZM114.264 262.997C115.357 259.142 116.589 255.701 117.834 252.379C119.077 249.063 120.338 245.853 121.478 242.488C123.762 235.741 125.566 228.346 125.845 217.997L124.845 217.97C124.57 228.201 122.79 235.495 120.53 242.167C119.398 245.512 118.147 248.693 116.897 252.028C115.649 255.359 114.406 258.83 113.302 262.724L114.264 262.997ZM125.539 200.388C125.356 206.682 125.368 209.435 124.846 217.953L125.844 218.014C126.368 209.476 126.355 206.7 126.539 200.417L125.539 200.388ZM126.503 200.589C128.217 196.316 129.785 189.564 131.211 182.442C132.633 175.336 133.937 167.727 135.085 161.868L134.104 161.676C132.94 167.614 131.661 175.096 130.23 182.245C128.803 189.377 127.25 196.042 125.575 200.217L126.503 200.589ZM103.139 265.004C102.292 267.35 101.742 269.276 101.686 271.385C101.631 273.495 102.072 275.747 103.138 278.757L104.08 278.423C103.037 275.476 102.635 273.353 102.686 271.411C102.737 269.467 103.242 267.663 104.079 265.343L103.139 265.004ZM114.081 264.785C115.571 266.714 116.636 268.28 117.393 270.295C118.151 272.314 118.611 274.815 118.834 278.62L119.832 278.561C119.607 274.709 119.137 272.095 118.329 269.943C117.519 267.786 116.38 266.126 114.873 264.174L114.081 264.785ZM118.833 278.599C118.863 280.287 118.857 281.664 118.756 282.751C118.654 283.852 118.461 284.582 118.171 285.026L119.008 285.572C119.438 284.914 119.647 283.977 119.752 282.843C119.858 281.696 119.863 280.27 119.833 278.581L118.833 278.599ZM118.292 284.897C117.944 285.154 117.273 285.4 116.057 285.494L116.134 286.491C117.421 286.392 118.316 286.124 118.887 285.701L118.292 284.897ZM118.277 285.689C118.631 285.973 118.896 286.21 119.083 286.417C119.273 286.626 119.359 286.779 119.393 286.891C119.439 287.044 119.43 287.262 118.976 287.725L119.69 288.425C120.217 287.887 120.56 287.298 120.35 286.602C120.257 286.291 120.064 286.01 119.825 285.746C119.584 285.48 119.272 285.205 118.902 284.909L118.277 285.689ZM119.306 287.575L102.426 288.501L102.48 289.499L119.36 288.574L119.306 287.575ZM102.921 288.824C102.709 288.263 102.551 287.799 102.45 287.409C102.349 287.016 102.315 286.729 102.332 286.516C102.347 286.317 102.406 286.192 102.494 286.095C102.592 285.988 102.764 285.876 103.073 285.773L102.758 284.824C102.359 284.957 102.012 285.141 101.757 285.419C101.494 285.707 101.365 286.054 101.335 286.439C101.306 286.81 101.369 287.219 101.482 287.658C101.596 288.101 101.77 288.606 101.985 289.176L102.921 288.824ZM103.194 278.312C102.423 279.461 101.865 280.456 101.703 281.586C101.538 282.726 101.784 283.932 102.456 285.496L103.375 285.101C102.738 283.62 102.565 282.612 102.692 281.729C102.821 280.837 103.265 280.001 104.024 278.869L103.194 278.312ZM173.192 110.381C170.346 110.488 169.882 110.867 168.725 111.083L168.909 112.066C170.26 111.814 170.471 111.484 173.229 111.38L173.192 110.381ZM168.345 111.41C168.007 112.381 167.27 112.936 166.493 113.496C166.123 113.764 165.715 114.052 165.41 114.387C165.089 114.739 164.849 115.174 164.849 115.738H165.849C165.849 115.492 165.943 115.287 166.149 115.061C166.37 114.819 166.681 114.594 167.078 114.307C167.838 113.759 168.835 113.042 169.289 111.739L168.345 111.41ZM164.906 115.972C165.086 116.312 165.267 116.616 165.46 116.851C165.653 117.086 165.895 117.299 166.212 117.384C166.544 117.473 166.864 117.399 167.154 117.244C167.435 117.094 167.72 116.854 168.017 116.552L167.305 115.85C167.034 116.125 166.833 116.282 166.684 116.361C166.544 116.436 166.489 116.423 166.472 116.419C166.441 116.41 166.362 116.374 166.233 116.217C166.105 116.061 165.962 115.829 165.791 115.505L164.906 115.972ZM167.948 116.61L170.26 114.991L169.686 114.172L167.374 115.791L167.948 116.61ZM169.973 115.082H170.898V114.082H169.973V115.082ZM170.468 114.836C171.037 115.798 171.627 116.423 172.414 116.518C172.797 116.565 173.169 116.476 173.526 116.326C173.88 116.176 174.251 115.952 174.643 115.692L174.09 114.859C173.711 115.111 173.403 115.292 173.137 115.404C172.874 115.515 172.685 115.544 172.534 115.525C172.252 115.491 171.879 115.257 171.329 114.327L170.468 114.836ZM173.871 115.343C173.98 116.139 174.124 116.795 174.326 117.317C174.528 117.841 174.801 118.263 175.188 118.547C175.973 119.125 177.002 118.98 178.14 118.628L177.844 117.672C176.702 118.026 176.131 117.999 175.78 117.742C175.599 117.608 175.42 117.374 175.259 116.957C175.097 116.538 174.966 115.969 174.862 115.208L173.871 115.343ZM178.14 118.628C178.243 118.596 178.349 118.562 178.457 118.525L178.139 117.577C178.037 117.611 177.939 117.643 177.844 117.672L178.14 118.628ZM177.494 118.198C177.585 119.139 177.741 119.822 177.988 120.273C178.116 120.506 178.283 120.704 178.503 120.833C178.729 120.965 178.971 121 179.202 120.974C179.623 120.926 180.03 120.669 180.364 120.428C180.542 120.3 180.723 120.158 180.899 120.019C181.078 119.877 181.253 119.739 181.429 119.608L180.833 118.805C180.643 118.947 180.455 119.095 180.28 119.233C180.102 119.374 179.937 119.503 179.779 119.617C179.443 119.859 179.224 119.965 179.089 119.981C179.041 119.986 179.022 119.978 179.008 119.97C178.987 119.958 178.934 119.917 178.865 119.792C178.72 119.528 178.578 119.015 178.49 118.102L177.494 118.198ZM181.47 119.574L183.724 117.493L183.046 116.759L180.792 118.839L181.47 119.574ZM182.895 117.027C182.755 117.717 182.632 118.281 182.577 118.703C182.548 118.916 182.533 119.12 182.546 119.304C182.56 119.487 182.605 119.694 182.735 119.875C183.021 120.271 183.502 120.278 183.857 120.244C184.247 120.206 184.768 120.082 185.413 119.923L185.174 118.953C184.507 119.117 184.063 119.219 183.759 119.249C183.42 119.282 183.481 119.2 183.546 119.29C183.566 119.317 183.55 119.317 183.544 119.231C183.538 119.147 183.543 119.021 183.568 118.834C183.618 118.457 183.728 117.946 183.875 117.226L182.895 117.027ZM185.898 114.667C186.03 115.424 185.972 115.879 185.787 116.475C185.688 116.792 185.556 117.138 185.388 117.599C185.222 118.054 185.027 118.601 184.815 119.291L185.771 119.585C185.976 118.918 186.164 118.389 186.327 117.942C186.488 117.501 186.634 117.119 186.742 116.771C186.97 116.038 187.044 115.422 186.884 114.496L185.898 114.667ZM186.865 114.74L187.559 112.658L186.61 112.342L185.917 114.423L186.865 114.74ZM187.585 112.5V108.336H186.585V112.5H187.585ZM176.48 109.699C175.824 109.983 175.334 110.157 174.852 110.259C174.373 110.36 173.882 110.395 173.222 110.38L173.199 111.38C173.908 111.396 174.481 111.36 175.06 111.237C175.635 111.116 176.194 110.913 176.878 110.617L176.48 109.699ZM174.798 115.528C175.356 114.577 175.807 114.004 176.317 113.638C176.815 113.28 177.417 113.086 178.345 112.997L178.25 112.002C177.224 112.1 176.428 112.326 175.733 112.826C175.05 113.317 174.512 114.038 173.935 115.023L174.798 115.528ZM171.373 114.738C171.633 113.948 171.859 113.48 172.137 113.168C172.399 112.873 172.743 112.676 173.337 112.521L173.084 111.553C172.372 111.739 171.825 112.013 171.389 112.504C170.969 112.977 170.691 113.611 170.423 114.425L171.373 114.738ZM178.465 118.312C178.933 116.94 179.353 116.146 179.828 115.63C180.29 115.13 180.842 114.852 181.68 114.597L181.39 113.64C180.471 113.92 179.726 114.266 179.093 114.952C178.474 115.624 178 116.578 177.519 117.989L178.465 118.312ZM17.1312 254.904C16.2027 254.897 15.1813 254.924 14.0704 254.953L14.0967 255.953C15.212 255.923 16.2155 255.897 17.124 255.904L17.1312 254.904ZM14.0704 254.953L13.8772 254.958L13.9035 255.958L14.0967 255.953L14.0704 254.953ZM13.9034 255.958C13.9682 255.956 14.0327 255.954 14.0967 255.953L14.0704 254.953C14.0063 254.955 13.9419 254.956 13.8772 254.958L13.9034 255.958ZM103.369 48.8482C100.642 48.8953 99.0598 49.2336 98.1068 49.949C97.1217 50.6886 96.905 51.7648 96.6679 52.8432L97.6446 53.0579C97.8975 51.9076 98.0665 51.2297 98.7072 50.7488C99.3799 50.2437 100.664 49.8951 103.386 49.848L103.369 48.8482ZM96.6679 52.8431L96.6462 52.9419L97.6228 53.1567L97.6446 53.058L96.6679 52.8431ZM139.268 97.9611C140.441 97.8456 141.474 97.7367 142.441 97.6605L142.363 96.6636C141.383 96.7408 140.333 96.8514 139.17 96.966L139.268 97.9611ZM97.6228 53.1569C97.6301 53.1237 97.6374 53.0906 97.6446 53.0579L96.6679 52.8432C96.6607 52.876 96.6535 52.9087 96.6462 52.9417L97.6228 53.1569ZM141.646 22.2357C140.135 21.8785 138.789 21.4591 137.563 20.9714L137.194 21.9005C138.47 22.4086 139.863 22.842 141.417 23.2089L141.646 22.2357ZM134.619 35.1568C134.769 34.6841 134.902 34.2052 135.016 33.734L134.044 33.4995C133.936 33.9477 133.808 34.4042 133.666 34.8552L134.619 35.1568ZM135.016 33.734C135.029 33.6778 135.043 33.6216 135.056 33.5656L134.081 33.3396C134.069 33.3927 134.057 33.446 134.044 33.4995L135.016 33.734ZM135.056 33.5656C135.238 32.7791 135.365 32.0117 135.416 31.3307C135.467 30.6597 135.447 30.0322 135.306 29.5464L134.345 29.8242C134.437 30.1401 134.466 30.6279 134.419 31.2559C134.373 31.8739 134.256 32.5894 134.081 33.3396L135.056 33.5656ZM134.081 33.3396C133.966 33.8387 133.825 34.3503 133.666 34.8552L134.619 35.1568C134.786 34.6277 134.934 34.0909 135.056 33.5656L134.081 33.3396ZM123.344 10.1129C128.13 15.8148 131.415 19.57 137.088 21.858L137.462 20.9306C132.05 18.7481 128.91 15.1884 124.109 9.46996L123.344 10.1129ZM137.088 21.858C137.123 21.8722 137.158 21.8864 137.194 21.9005L137.563 20.9714C137.529 20.9578 137.495 20.9442 137.462 20.9306L137.088 21.858ZM107.992 24.9608C107.961 24.6523 107.959 24.4258 107.976 24.2664C107.994 24.0977 108.028 24.0559 108.02 24.0659C107.989 24.1065 107.93 24.1255 107.905 24.1247C107.905 24.1247 107.909 24.1248 107.92 24.1268C107.93 24.1289 107.945 24.1327 107.964 24.1393C108.004 24.1529 108.057 24.1761 108.124 24.2133C108.407 24.3696 108.804 24.6924 109.321 25.1861C109.831 25.6721 110.427 26.2939 111.106 27.0196L111.836 26.3366C111.156 25.609 110.543 24.9694 110.012 24.4625C109.488 23.9633 109.012 23.5615 108.608 23.3381C108.408 23.2275 108.177 23.1329 107.937 23.1252C107.665 23.1164 107.406 23.2232 107.227 23.4569C107.071 23.66 107.008 23.9166 106.982 24.1611C106.955 24.4149 106.963 24.7164 106.997 25.0604L107.992 24.9608ZM137.088 21.858C138.393 22.3845 139.82 22.8318 141.417 23.2089L141.646 22.2357C140.093 21.8686 138.714 21.4358 137.462 20.9306L137.088 21.858ZM104.972 230.13L104.933 230.299L105.906 230.527L105.946 230.357L104.972 230.13ZM104.933 230.299C104.358 232.758 104.006 234.262 104.101 237.515C104.196 240.733 104.726 245.683 105.888 255.057L106.88 254.934C105.717 245.546 105.193 240.647 105.101 237.486C105.01 234.36 105.339 232.953 105.906 230.527L104.933 230.299ZM104.972 230.13C104.959 230.187 104.946 230.243 104.933 230.299L105.906 230.527C105.919 230.471 105.933 230.414 105.946 230.357L104.972 230.13ZM102.689 285.744C104.04 286.432 105.682 286.715 107.823 286.782C109.962 286.849 112.654 286.701 116.126 286.492L116.066 285.494C112.582 285.704 109.938 285.848 107.854 285.782C105.77 285.717 104.3 285.443 103.142 284.853L102.689 285.744ZM113.11 97.9632C116.987 97.81 120.1 96.9267 122.496 94.7129C124.882 92.5076 126.482 89.0496 127.491 83.9118L126.509 83.7191C125.518 88.7658 123.978 91.9811 121.817 93.9784C119.665 95.9671 116.824 96.8156 113.07 96.9639L113.11 97.9632Z" fill="black"/>
</svg>
