<svg viewBox="0 0 157 367" fill="none" xmlns="http://www.w3.org/2000/svg">

<path d="M83.9044 149.989C86.8954 150.032 87.6363 150.989 87.7898 153.858L89.4259 154.061C90.1283 156.535 90.7286 157.283 92.6977 155.894C95.0268 157.185 96.0115 157.356 96.992 156.301V154.672C99.662 151.168 100.944 148.422 102.922 142.454C115.239 136.404 122.045 132.826 133.391 124.942C135.369 122.407 135.307 119.977 134.414 114.964L125.825 75.2561C123.666 64.7847 119.723 62.5028 111.511 59.9837C111.681 72.4233 111.737 79.3295 110.693 89.7139C111.811 89.0848 112.456 88.5006 113.76 85.4376C113.227 94.4732 114.632 101.306 120.713 117.204C110.357 125.941 104.758 129.173 94.9469 133.495L92.0841 135.734L83.9044 146.934V149.989Z" fill="#F9B9A5"/>
<path d="M87.7898 153.858C70.5923 161.509 53.6995 154.326 24.8069 143.472C16.6371 167.37 13.1262 180.244 21.1263 196.213C23.9982 205.623 25.7773 213.75 26.3123 220.649C29.4275 235.411 31.1747 246.964 27.4654 254.451C24.6237 270.97 25.0672 280.874 27.4654 299.047C29.0254 310.28 29.7391 316.018 29.1014 319.613C34.1328 321.673 36.9529 322.178 41.9842 319.613C42.5292 317.787 42.3585 316.552 41.9842 314.319C42.9945 312.269 43.3513 311.096 42.3932 308.821C43.2564 307.168 43.3868 305.781 43.0067 302.508C46.6846 290.096 48.416 282.393 49.3459 263.818C50.3568 257.774 51.6791 252.986 53.6221 247.935C54.3738 245.733 54.9759 243.212 55.3785 239.994C54.6202 236.782 54.8731 232.006 55.8895 225.129C56.6536 216.726 57.8132 212.529 59.7749 204.969C60.7372 201.334 60.8824 198.757 61.0018 193.973L62.4332 192.344L69.7949 197.638C81.1446 211.445 87.8016 218.906 100.059 231.848C106.269 241.186 109.022 246.972 109.875 260.357C112.417 276.18 113.968 284.936 119.895 297.621C120.031 301.89 120.232 304.086 122.144 305.563L122.553 315.337C129.943 317.219 133.787 317.854 135.586 315.337C135.759 315.095 135.913 314.824 136.05 314.523C136.225 313.003 136.005 312.462 135.436 311.672C135.672 289.755 135.067 277.955 132.778 257.71C130.268 246.743 129.441 241.431 128.892 233.274C119.372 199.956 111.53 183.692 92.6977 159.356V155.894C90.7286 157.283 90.1283 156.535 89.4259 154.061L87.7898 153.858Z" fill="black"/>
<path d="M41.9842 319.613C36.9529 322.178 34.1328 321.673 29.1014 319.613C26.7533 318.275 26.5806 319.021 27.261 321.65L30.5328 323.686C26.8201 326.247 25.8303 327.746 27.261 330.609C25.7746 331.94 25.1912 333.052 25.0116 336.311C20.7414 339.601 18.2362 342.066 17.658 344.864C20.5404 348.106 22.0155 348.456 24.3981 346.493H30.5328C33.6852 349.582 35.4688 351.194 39.5304 347.714C40.7731 344.05 40.9345 342.498 40.9618 339.977L41.1037 339.957C43.1758 339.669 44.3804 339.501 44.6426 336.311C44.4824 327.95 43.9246 325.197 41.9842 324.093V319.613Z" fill="#5B555B"/>
<path d="M95.7649 53.2639C97.9042 54.7785 98.9063 55.6768 98.8323 57.7438C96.9049 69.0982 94.4223 73.1223 88.1988 77.2924C82.5933 73.1249 80.2677 69.8145 76.3384 63.6491L76.7474 61.8164L73.4755 55.0966C69.5391 55.5517 67.4241 54.2146 65.7416 51.3531C62.039 51.0807 60.7401 51.5452 58.3432 52.653C66.9319 55.7075 59.3657 85.4376 49.9591 89.7139C48.1238 90.2542 47.2687 89.8152 45.8693 88.4921C47.1425 90.9967 47.765 92.4122 46.6873 95.2119C47.5047 96.1899 47.5445 96.7289 46.2783 97.6555C46.6278 99.7784 46.8232 100.968 45.8693 102.135C46.0015 104.391 45.7937 105.794 44.2334 106.615C44.3111 107.63 44.2199 108.3 43.0065 110.281C43.9062 111.921 43.1184 112.615 39.9391 113.539L39.1212 115.575H42.1885L47.9142 124.738C48.7115 128.44 49.2993 130.611 52.2085 135.734L52.822 144.694C51.5986 146.383 50.7169 146.696 48.7322 145.916C46.2987 147.103 45.2546 147.206 44.2334 145.916C42.3386 146.757 41.3461 146.855 39.9391 145.102C37.7413 145.684 36.7743 145.683 35.8493 144.694V138.178C34.3779 134.37 34.137 131.894 34.2134 127.182C34.2772 127.11 34.1472 127.257 34.2134 127.182C32.7451 128.846 31.6894 129.959 30.3281 130.847C29.3745 133.649 28.9622 135.556 27.0562 135.734C25.5046 137.946 25.1862 139.318 25.8293 142.047L24.8069 143.472C53.6995 154.326 70.5923 161.509 87.7898 153.858C87.6363 150.989 86.8954 150.032 83.9044 149.989V146.934L92.0841 135.734L94.9469 133.495L94.7424 128.811L96.3783 127.793V123.924L98.4232 123.313V119.851H100.059V116.186L102.513 115.779V112.724L104.353 108.448C104.353 108.448 108.309 105.042 109.738 102.135C111.885 97.7676 110.693 89.7139 110.693 89.7139C111.737 79.3295 111.681 72.4233 111.511 59.9837C105.847 56.3555 102.351 55.0749 96.1739 52.653L95.7649 53.2639Z" fill="#2EC4B6"/>
<path d="M49.9591 89.7139C59.3657 85.4376 66.9319 55.7075 58.3432 52.653C49.4325 55.3614 44.526 58.5757 35.8492 65.6854L8.03859 94.601C4.3851 99.3632 3.11266 102.123 9.47002 108.041C16.2459 114.28 20.9446 118.26 27.4654 122.906C29.8884 123.917 32.5401 124.859 34.2134 127.182C34.137 131.894 34.3779 134.37 35.8493 138.178V144.694C36.7743 145.683 37.7413 145.684 39.9391 145.102C41.3461 146.855 42.3386 146.757 44.2334 145.916C45.2546 147.206 46.2987 147.103 48.7322 145.916C50.7169 146.696 51.5986 146.383 52.822 144.694L52.2085 135.734C49.2993 130.611 48.7115 128.44 47.9142 124.738L42.1885 115.575H39.1212C28.0833 105.716 24.9402 101.613 24.6024 98.2664C32.3858 95.1583 37.2612 91.2111 46.2783 82.7904C46.8187 85.8062 46.8306 87.1713 45.8693 88.4921C47.2687 89.8152 48.1238 90.2542 49.9591 89.7139Z" fill="#F9B9A5"/>
<path fill-rule="evenodd" clip-rule="evenodd" d="M93.72 33.696C93.6987 33.7053 93.6772 33.7144 93.6556 33.7235C93.6461 33.7275 93.6366 33.7315 93.627 33.7355C93.6582 33.7225 93.6892 33.7093 93.72 33.696ZM93.6244 33.7366C93.6141 33.7409 93.6039 33.7451 93.5936 33.7494C93.5756 33.7568 93.5575 33.7642 93.5394 33.7715C93.5679 33.76 93.5962 33.7484 93.6244 33.7366Z" fill="#D9D9D9"/>
<path d="M91.0616 31.8827C91.0616 32.5343 90.5163 38.2631 90.2437 41.0461L86.3584 46.5441C81.8991 50.4054 77.9914 51.1549 73.0665 48.6191C72.7792 51.0011 72.8197 52.3992 73.374 54.6893C73.4061 54.822 73.4399 54.9576 73.4755 55.0966L76.7474 61.8164L76.3384 63.6491C80.2677 69.8145 82.5933 73.1249 88.1988 77.2924C94.4223 73.1223 96.9049 69.0982 98.8323 57.7438C98.9063 55.6768 97.9042 54.7785 95.7649 53.2639C94.3823 51.8084 93.8203 50.2692 93.1066 46.5441L93.72 43.4896V33.696C93.6892 33.7093 93.6582 33.7225 93.627 33.7355L93.6244 33.7366C93.5962 33.7484 93.5679 33.76 93.5394 33.7715C93.5243 33.7776 93.5092 33.7836 93.494 33.7896C92.9572 34.0027 92.3535 34.1785 91.6751 34.3262L91.0616 31.8827Z" fill="#F9B9A5"/>
<path d="M72.2486 48.1732C71.9652 48.0103 68.5678 43.4218 66.9318 41.0461C66.4749 40.5948 66.0817 40.1962 65.7416 39.8242C65.8252 42.0566 65.8736 44.0024 66.1138 45.7233C67.8008 46.2622 68.5491 46.922 69.5902 48.6191C70.2976 50.5236 70.4142 51.4142 69.1812 52.0905C70.2125 53.0298 71.5729 53.886 73.374 54.6893C72.8197 52.3992 72.7792 51.0011 73.0665 48.6191C72.797 48.4803 72.5244 48.3317 72.2486 48.1732Z" fill="#724E2D"/>
<path d="M65.2958 11.3159C70.817 12.5377 71.9523 12.0045 73.4754 10.705C78.4311 15.2378 81.7317 17.698 88.8123 21.9047C88.5009 24.2792 88.3662 25.5651 89.4257 26.3846C90.7035 28.3293 91.6638 28.4375 93.72 27.1992C93.6518 26.3168 93.4337 24.1447 93.1066 24.1447C94.3719 21.6971 97.2504 21.4455 97.6053 24.552C97.4733 29.9702 96.637 32.466 93.6556 33.7235C93.6772 33.7144 93.6987 33.7053 93.72 33.696V43.4896L93.1066 46.5441C94.4595 44.2196 95.4119 43.1926 97.6053 42.0642C101.251 39.1101 101.434 36.5538 100.264 31.2717C100.111 29.9319 100.524 29.4003 101.234 28.4878L101.286 28.4209V21.2938C99.4813 15.7943 97.9765 12.7855 93.72 7.65058C81.6052 -0.806218 77.4562 0.87359 69.1812 1.74527C69.9476 4.88081 67.4206 6.01064 63.0002 7.98706L62.8419 8.05784C58.5158 16.7887 57.9377 20.8233 60.3882 26.3846C63.0346 32.2148 63.7256 36.0691 62.8419 44.5078C63.8565 47.3124 64.7192 49.6142 65.7416 51.3531C67.4241 54.2146 69.5391 55.5517 73.4755 55.0966C73.4399 54.9576 73.4061 54.822 73.374 54.6893C71.5729 53.886 70.2125 53.0298 69.1812 52.0905C67.2462 50.3279 66.4696 48.2724 66.1138 45.7233C65.8736 44.0024 65.8252 42.0566 65.7416 39.8242C63.9947 37.9139 63.648 36.7086 63.251 32.6972C63.9418 30.1347 63.5287 27.5564 62.8419 25.9774C61.0825 17.7241 61.5034 14.4057 65.2958 11.3159Z" fill="#724E2D"/>
<path d="M73.4754 10.705C71.9523 12.0045 70.817 12.5377 65.2958 11.3159C61.5034 14.4057 61.0825 17.7241 62.8419 25.9774C63.5287 27.5564 63.9418 30.1347 63.251 32.6972C63.648 36.7086 63.9947 37.9139 65.7416 39.8242C66.0817 40.1962 66.4749 40.5948 66.9318 41.0461C68.5678 43.4218 71.9652 48.0103 72.2486 48.1732C72.5244 48.3317 72.797 48.4803 73.0665 48.6191C77.9914 51.1549 81.8991 50.4054 86.3584 46.5441L90.2437 41.0461C90.5163 38.2631 91.0616 32.5343 91.0616 31.8827L91.6751 34.3262C92.3535 34.1785 92.9572 34.0027 93.494 33.7896C93.5092 33.7836 93.5243 33.7776 93.5394 33.7715C93.5575 33.7642 93.5756 33.7568 93.5936 33.7494L93.6244 33.7366L93.627 33.7355L93.6556 33.7235C96.637 32.466 97.4733 29.9702 97.6053 24.552C97.2504 21.4455 94.3719 21.6971 93.1066 24.1447C93.4337 24.1447 93.6518 26.3168 93.72 27.1992C91.6638 28.4375 90.7035 28.3293 89.4257 26.3846C88.3662 25.5651 88.5009 24.2792 88.8123 21.9047C81.7317 17.698 78.4311 15.2378 73.4754 10.705Z" fill="#F9B9A5"/>
<path d="M130.119 323.279H132.573C133.255 319.791 134.384 319.412 137.89 321.853C135.568 320.137 135.464 318.477 135.586 315.337C133.787 317.854 129.943 317.219 122.553 315.337C122.456 315.834 122.368 316.309 122.293 316.763C121.284 322.841 122.449 324.977 130.119 323.279Z" fill="#F9B9A5"/>
<path d="M132.573 323.279H130.119C122.449 324.977 121.284 322.841 122.293 316.763C121.066 320.355 120.103 322.858 118.833 325.384C118.752 325.546 118.67 325.707 118.586 325.869C116.801 329.556 117.657 332.544 124.598 337.126C127.77 340.726 129.241 343.026 130.119 348.733C134.245 353.348 136.915 354.761 142.798 353.62C146.206 352.637 148.301 352.967 150.159 355.249C150.958 355.244 151.339 355.005 151.749 353.62L151.166 348.416C145.695 340.525 143.861 335.929 141.571 327.759C140.121 326.184 140.645 325.484 143.411 324.501L137.89 321.853C134.384 319.412 133.255 319.791 132.573 323.279Z" fill="#5B555B"/>
<path d="M136.05 357.489C147.706 358.507 152.03 358.025 152 355.86L151.749 353.62C151.339 355.005 150.958 355.244 150.159 355.249C148.301 352.967 146.206 352.637 142.798 353.62C136.915 354.761 134.245 353.348 130.119 348.733C129.241 343.026 127.77 340.726 124.598 337.126C117.657 332.544 116.801 329.556 118.586 325.869C117.912 327.171 117.147 328.497 116.214 329.999C115.174 334.713 116.303 336.695 121.122 339.162C126.877 342.211 129.135 344.672 127.461 350.362C129.725 354.207 131.222 356.14 136.05 357.489Z" fill="white"/>
<path d="M45.8695 341.198C47.1849 337.958 46.6946 337.053 44.6426 336.311C44.3804 339.501 43.1758 339.669 41.1037 339.957L40.9618 339.977C40.9345 342.498 40.7731 344.05 39.5304 347.714C35.4688 351.194 33.6852 349.582 30.5328 346.493H24.3981C22.0155 348.456 20.5404 348.106 17.658 344.864C17.276 346.712 17.7349 348.705 19.0814 351.176C32.3732 352.398 40.3483 354.027 40.9618 347.714C39.5931 345.509 41.7302 343.972 45.8695 341.198Z" fill="white"/>
<path d="M65.2958 11.3159L65.4038 10.8277L65.1675 10.7755L64.98 10.9283L65.2958 11.3159ZM73.4754 10.705L73.8128 10.3361L73.4869 10.038L73.1508 10.3247L73.4754 10.705ZM62.8419 25.9774L62.3529 26.0816L62.3633 26.1307L62.3834 26.1768L62.8419 25.9774ZM63.251 32.6972L62.7682 32.5671L62.7444 32.6554L62.7534 32.7464L63.251 32.6972ZM66.9318 41.0461L67.3436 40.7625L67.3168 40.7236L67.2832 40.6903L66.9318 41.0461ZM72.2486 48.1732L72.4976 47.7396L72.2486 48.1732ZM86.3584 46.5441L86.6857 46.9221L86.7316 46.8823L86.7667 46.8327L86.3584 46.5441ZM91.0616 31.8827L91.5466 31.7609L90.5616 31.8827H91.0616ZM90.2437 41.0461L90.652 41.3346L90.7284 41.2266L90.7413 41.0948L90.2437 41.0461ZM91.6751 34.3262L91.1902 34.448L91.3081 34.9179L91.7815 34.8148L91.6751 34.3262ZM97.6053 24.552L98.1052 24.5641L98.106 24.5296L98.1021 24.4952L97.6053 24.552ZM93.1066 24.1447L92.6624 23.9151L92.2852 24.6447H93.1066V24.1447ZM93.72 27.1992L93.978 27.6275L94.2423 27.4683L94.2185 27.1607L93.72 27.1992ZM89.4257 26.3846L89.8436 26.1101L89.7977 26.0402L89.7316 25.9891L89.4257 26.3846ZM88.8123 21.9047L89.308 21.9698L89.3508 21.6431L89.0676 21.4749L88.8123 21.9047ZM62.8419 8.05784L62.6378 7.6014L62.4737 7.67479L62.3939 7.83585L62.8419 8.05784ZM69.1812 1.74527L69.1288 1.24802L68.5596 1.30798L68.6955 1.86398L69.1812 1.74527ZM93.72 7.65058L94.105 7.33149L94.0617 7.27935L94.0062 7.24059L93.72 7.65058ZM101.286 21.2938H101.786V21.2139L101.761 21.1379L101.286 21.2938ZM101.286 28.4209L101.681 28.7277L101.786 28.5923V28.4209H101.286ZM100.264 31.2717L99.7669 31.3284L99.7699 31.3544L99.7755 31.3799L100.264 31.2717ZM97.6053 42.0642L97.8341 42.5088L97.88 42.4852L97.9201 42.4526L97.6053 42.0642ZM93.1066 46.5441L92.6163 46.4457L92.597 46.5419L92.6155 46.6382L93.1066 46.5441ZM93.72 33.696H94.22V32.9352L93.5216 33.2371L93.72 33.696ZM93.72 43.4896L94.2102 43.5881L94.22 43.5393V43.4896H93.72ZM95.7649 53.2639L95.4024 53.6082L95.4361 53.6437L95.476 53.672L95.7649 53.2639ZM98.8323 57.7438L99.3252 57.8275L99.3308 57.7948L99.3319 57.7617L98.8323 57.7438ZM88.1988 77.2924L87.9005 77.6936L88.1838 77.9043L88.4771 77.7077L88.1988 77.2924ZM76.7474 61.8164L77.2354 61.9253L77.2734 61.7547L77.1969 61.5975L76.7474 61.8164ZM76.3384 63.6491L75.8504 63.5402L75.8052 63.7428L75.9167 63.9178L76.3384 63.6491ZM60.3882 26.3846L59.9306 26.5863L59.9329 26.5913L60.3882 26.3846ZM62.8419 44.5078L62.3446 44.4557L62.3326 44.5699L62.3717 44.6778L62.8419 44.5078ZM65.7416 39.8242L66.1106 39.4868V39.4868L65.7416 39.8242ZM69.5902 48.6191L70.0589 48.445L70.0419 48.3992L70.0164 48.3576L69.5902 48.6191ZM65.7416 51.3531L66.1726 51.0997L65.7416 51.3531ZM49.9591 89.7139L50.1004 90.1935L50.1341 90.1836L50.1661 90.169L49.9591 89.7139ZM45.8693 88.4921L45.4651 88.1979L45.2848 88.4456L45.4236 88.7187L45.8693 88.4921ZM46.6873 95.2119L46.2207 95.0323L46.115 95.3068L46.3036 95.5325L46.6873 95.2119ZM46.2783 97.6555L45.9831 97.252L45.735 97.4334L45.785 97.7367L46.2783 97.6555ZM45.8693 102.135L45.4822 101.819L45.3588 101.97L45.3702 102.165L45.8693 102.135ZM44.2334 106.615L44.0005 106.173L43.7098 106.326L43.7349 106.653L44.2334 106.615ZM43.0065 110.281L42.5801 110.019L42.4286 110.267L42.5681 110.521L43.0065 110.281ZM39.9391 113.539L39.7996 113.059L39.5659 113.127L39.4752 113.352L39.9391 113.539ZM39.1212 115.575L38.7881 115.948L38.9304 116.075H39.1212V115.575ZM42.1885 115.575L42.6126 115.31L42.4657 115.075H42.1885V115.575ZM47.9142 124.738L48.403 124.633L48.3846 124.548L48.3383 124.473L47.9142 124.738ZM52.2085 135.734L52.7074 135.7L52.6996 135.587L52.6433 135.488L52.2085 135.734ZM52.822 144.694L53.2269 144.988L53.3332 144.841L53.3208 144.66L52.822 144.694ZM35.8493 144.694H35.3493V144.892L35.4842 145.036L35.8493 144.694ZM35.8493 138.178H36.3493V138.085L36.3157 137.998L35.8493 138.178ZM30.3281 130.847L30.0548 130.429L29.9103 130.523L29.8547 130.686L30.3281 130.847ZM27.0562 135.734L27.0096 135.237L26.7796 135.258L26.647 135.447L27.0562 135.734ZM25.8293 142.047L26.2356 142.338L26.3681 142.154L26.316 141.932L25.8293 142.047ZM24.8069 143.472L24.4006 143.181L24.3576 143.241L24.3338 143.311L24.8069 143.472ZM83.9044 149.989H83.4044V150.481L83.8972 150.489L83.9044 149.989ZM83.9044 146.934L83.5007 146.639L83.4044 146.771V146.934H83.9044ZM92.0841 135.734L91.7759 135.341L91.7212 135.383L91.6803 135.44L92.0841 135.734ZM94.7424 128.811L94.4782 128.387L94.2301 128.541L94.2429 128.833L94.7424 128.811ZM96.3783 127.793L96.6425 128.217L96.8783 128.071V127.793H96.3783ZM96.3783 123.924L96.2352 123.445L95.8783 123.551V123.924H96.3783ZM98.4232 123.313L98.5664 123.792L98.9232 123.685V123.313H98.4232ZM98.4232 119.851V119.351H97.9232V119.851H98.4232ZM100.059 119.851V120.351H100.559V119.851H100.059ZM100.059 116.186L99.9773 115.693L99.5592 115.762V116.186H100.059ZM102.513 115.779L102.595 116.272L103.013 116.202V115.779H102.513ZM102.513 112.724L102.054 112.527L102.013 112.621V112.724H102.513ZM104.353 108.448L104.027 108.069L103.94 108.144L103.894 108.25L104.353 108.448ZM109.738 102.135L109.289 101.915L109.738 102.135ZM110.693 89.7139L110.195 89.6638L110.189 89.7256L110.198 89.7871L110.693 89.7139ZM96.1739 52.653L96.3564 52.1875L95.982 52.0407L95.7584 52.3749L96.1739 52.653ZM46.2783 82.7904L46.7705 82.7022L46.6085 81.798L45.9371 82.425L46.2783 82.7904ZM35.8492 65.6854L35.5323 65.2986L35.5094 65.3174L35.4889 65.3388L35.8492 65.6854ZM8.03859 94.601L7.67822 94.2544L7.65887 94.2745L7.64189 94.2967L8.03859 94.601ZM9.47002 108.041L9.12936 108.407L9.13132 108.408L9.47002 108.041ZM27.4654 122.906L27.1753 123.313L27.221 123.346L27.2729 123.367L27.4654 122.906ZM113.76 85.4376L114.259 85.467L113.3 85.2417L113.76 85.4376ZM120.713 117.204L121.035 117.586L121.307 117.357L121.18 117.025L120.713 117.204ZM89.4259 154.061L89.9069 153.925L89.8164 153.606L89.4877 153.565L89.4259 154.061ZM92.6977 155.894L92.9402 155.457L92.6658 155.305L92.4095 155.485L92.6977 155.894ZM96.992 156.301L97.3582 156.642L97.492 156.498V156.301H96.992ZM96.992 154.672L96.5943 154.369L96.492 154.503V154.672H96.992ZM102.922 142.454L102.702 142.006L102.514 142.098L102.448 142.297L102.922 142.454ZM133.391 124.942L133.677 125.353L133.739 125.309L133.785 125.25L133.391 124.942ZM134.414 114.964L134.906 114.876L134.904 114.867L134.902 114.858L134.414 114.964ZM125.825 75.2561L125.335 75.357L125.336 75.3618L125.825 75.2561ZM21.1263 196.213L21.6045 196.067L21.5922 196.027L21.5733 195.989L21.1263 196.213ZM27.4654 254.451L27.0174 254.229L26.985 254.295L26.9727 254.367L27.4654 254.451ZM26.3123 220.649L25.8138 220.687L25.8164 220.72L25.8231 220.752L26.3123 220.649ZM27.4654 299.047L26.9697 299.112L26.9702 299.115L27.4654 299.047ZM29.1014 319.613L28.8537 320.048L28.8819 320.064L28.9119 320.076L29.1014 319.613ZM41.9842 314.319L41.5357 314.098L41.4645 314.243L41.4911 314.402L41.9842 314.319ZM42.3932 308.821L41.95 308.589L41.8411 308.798L41.9324 309.015L42.3932 308.821ZM43.0067 302.508L42.5273 302.366L42.4982 302.464L42.51 302.566L43.0067 302.508ZM49.3459 263.818L48.8527 263.736L48.8479 263.765L48.8465 263.793L49.3459 263.818ZM55.8895 225.129L56.3842 225.202L56.3862 225.188L56.3875 225.174L55.8895 225.129ZM53.6221 247.935L54.0887 248.115L54.0922 248.106L54.0953 248.097L53.6221 247.935ZM55.3785 239.994L55.8746 240.056L55.8858 239.966L55.8651 239.879L55.3785 239.994ZM59.7749 204.969L59.2915 204.841L59.2909 204.843L59.7749 204.969ZM61.0018 193.973L60.6262 193.643L60.5065 193.779L60.502 193.961L61.0018 193.973ZM62.4332 192.344L62.7252 191.938L62.357 191.673L62.0576 192.014L62.4332 192.344ZM69.7949 197.638L70.1811 197.321L70.1397 197.27L70.0868 197.232L69.7949 197.638ZM100.059 231.848L100.476 231.572L100.452 231.536L100.422 231.505L100.059 231.848ZM109.875 260.357L109.376 260.389L109.377 260.412L109.381 260.436L109.875 260.357ZM119.895 297.621L120.395 297.605L120.391 297.503L120.348 297.41L119.895 297.621ZM122.144 305.563L122.644 305.542L122.634 305.309L122.45 305.167L122.144 305.563ZM136.05 314.523L136.505 314.729L136.537 314.657L136.546 314.58L136.05 314.523ZM135.436 311.672L134.936 311.666L134.934 311.831L135.03 311.964L135.436 311.672ZM132.778 257.71L133.275 257.653L133.271 257.625L133.265 257.598L132.778 257.71ZM128.892 233.274L129.391 233.24L129.388 233.187L129.373 233.136L128.892 233.274ZM92.6977 159.356H92.1977V159.527L92.3023 159.662L92.6977 159.356ZM41.9842 324.093H41.4842V324.384L41.7369 324.528L41.9842 324.093ZM45.8695 341.198L46.1479 341.614L46.2752 341.528L46.3328 341.386L45.8695 341.198ZM40.9618 347.714L41.4594 347.763L41.4758 347.595L41.3866 347.451L40.9618 347.714ZM19.0814 351.176L18.6423 351.415L18.7699 351.65L19.0356 351.674L19.0814 351.176ZM25.0116 336.311L25.3167 336.707L25.4982 336.567L25.5108 336.339L25.0116 336.311ZM27.261 330.609L27.5944 330.982L27.8788 330.727L27.7082 330.386L27.261 330.609ZM30.5328 323.686L30.8167 324.098L31.4445 323.665L30.797 323.262L30.5328 323.686ZM27.261 321.65L26.7769 321.775L26.827 321.969L26.9968 322.074L27.261 321.65ZM130.119 323.279V322.779H130.065L130.011 322.791L130.119 323.279ZM132.573 323.279V323.779H132.985L133.064 323.375L132.573 323.279ZM137.89 321.853L137.604 322.264L137.637 322.287L137.674 322.304L137.89 321.853ZM135.586 315.337L135.18 315.046L135.586 315.337ZM143.411 324.501L143.579 324.972L144.711 324.569L143.627 324.05L143.411 324.501ZM141.571 327.759L142.052 327.624L142.02 327.508L141.939 327.42L141.571 327.759ZM151.166 348.416L151.577 348.131L151.166 348.416ZM152 355.86L152.5 355.853L152.499 355.828L152.497 355.804L152 355.86ZM136.05 357.489L135.915 357.97L135.96 357.983L136.006 357.987L136.05 357.489ZM122.293 316.763L122.786 316.844L122.293 316.763ZM116.214 329.999L115.789 329.735L115.744 329.807L115.726 329.891L116.214 329.999ZM121.122 339.162L121.356 338.72L121.35 338.717L121.122 339.162ZM127.461 350.362L126.981 350.221L126.92 350.429L127.03 350.615L127.461 350.362ZM124.598 337.126L124.973 336.795L124.929 336.745L124.874 336.708L124.598 337.126ZM130.119 348.733L129.625 348.809L129.648 348.955L129.747 349.066L130.119 348.733ZM142.798 353.62L142.893 354.111L142.915 354.106L142.936 354.1L142.798 353.62ZM150.159 355.249L149.772 355.565L149.923 355.75L150.163 355.749L150.159 355.249ZM17.658 344.864L17.1683 344.762L17.658 344.864ZM24.3981 346.493V345.993H24.2186L24.0801 346.107L24.3981 346.493ZM30.5328 346.493L30.8828 346.136L30.737 345.993H30.5328V346.493ZM39.5304 347.714L39.8557 348.094L39.9598 348.005L40.0039 347.875L39.5304 347.714ZM40.9618 339.977L40.8926 339.481L40.4665 339.541L40.4618 339.971L40.9618 339.977ZM101.234 28.4878L101.629 28.7948V28.7948L101.234 28.4878ZM63.0002 7.98706L62.7961 7.5306L63.0002 7.98706ZM41.1037 339.957L41.0349 339.461L41.1037 339.957ZM93.6244 33.7366L93.8167 34.1981L93.817 34.198L93.6244 33.7366ZM93.494 33.7896L93.3096 33.3249L93.3096 33.3249L93.494 33.7896ZM93.5394 33.7715L93.3522 33.3078L93.3522 33.3078L93.5394 33.7715ZM65.1877 11.8041C67.9539 12.4163 69.6903 12.6065 70.9458 12.4522C72.2498 12.2921 73.0046 11.764 73.7999 11.0854L73.1508 10.3247C72.423 10.9456 71.8487 11.3338 70.8239 11.4597C69.7508 11.5915 68.1588 11.4374 65.4038 10.8277L65.1877 11.8041ZM64.98 10.9283C63.0086 12.5344 61.8756 14.2394 61.4932 16.6314C61.1179 18.9785 61.4724 21.9515 62.3529 26.0816L63.3309 25.8731C62.4519 21.75 62.1372 18.9372 62.4806 16.7893C62.8169 14.6864 63.7905 13.1872 65.6116 11.7036L64.98 10.9283ZM62.3834 26.1768C63.0292 27.6616 63.4269 30.1238 62.7682 32.5671L63.7338 32.8273C64.4567 30.1455 64.0281 27.4512 63.3004 25.778L62.3834 26.1768ZM66.52 41.3297C67.3426 42.5243 68.6048 44.2706 69.6962 45.7379C70.242 46.4716 70.7471 47.1384 71.1347 47.6333C71.3281 47.8802 71.4949 48.0877 71.6241 48.2405C71.6883 48.3164 71.747 48.3833 71.7971 48.4362C71.822 48.4625 71.8487 48.4895 71.8755 48.5141C71.896 48.5328 71.941 48.5731 71.9995 48.6067L72.4976 47.7396C72.5384 47.763 72.5596 47.7845 72.5505 47.7762C72.5478 47.7737 72.5391 47.7654 72.5232 47.7486C72.4916 47.7153 72.4466 47.6645 72.3876 47.5947C72.2704 47.4561 72.1125 47.2599 71.922 47.0167C71.5417 46.5311 71.0421 45.8717 70.4986 45.141C69.4114 43.6794 68.157 41.9436 67.3436 40.7625L66.52 41.3297ZM90.5616 31.8827C90.5616 32.1786 90.4291 33.7392 90.257 35.6195C90.0867 37.4797 89.8823 39.6065 89.7461 40.9973L90.7413 41.0948C90.8777 39.7027 91.0823 37.5736 91.2528 35.7107C91.4215 33.868 91.5616 32.2383 91.5616 31.8827H90.5616ZM89.8354 40.7575L85.95 46.2556L86.7667 46.8327L90.652 41.3346L89.8354 40.7575ZM90.5767 32.0044L91.1902 34.448L92.1601 34.2045L91.5466 31.7609L90.5767 32.0044ZM93.5507 24.3743C94.1254 23.2628 95.0122 22.7512 95.6868 22.7654C96.0135 22.7723 96.3148 22.8985 96.56 23.1692C96.8111 23.4465 97.0282 23.9051 97.1086 24.6087L98.1021 24.4952C98.005 23.6455 97.7292 22.9707 97.3012 22.498C96.8673 22.0187 96.3033 21.7782 95.7079 21.7657C94.5382 21.741 93.3531 22.579 92.6624 23.9151L93.5507 24.3743ZM93.1066 24.6447C92.9797 24.6447 92.8911 24.5901 92.8488 24.5553C92.8279 24.5381 92.8146 24.523 92.8077 24.5145C92.8041 24.51 92.8015 24.5066 92.8 24.5044C92.7984 24.5021 92.7977 24.5009 92.7976 24.5008C92.7976 24.5008 92.7995 24.5039 92.8031 24.5111C92.8065 24.5183 92.811 24.5281 92.8164 24.5411C92.8272 24.5674 92.8397 24.6021 92.8533 24.6462C92.91 24.8286 92.9657 25.0992 93.0166 25.4196C93.1175 26.0536 93.1878 26.8019 93.2215 27.2377L94.2185 27.1607C94.184 26.714 94.1112 25.9351 94.0042 25.2625C93.9512 24.9295 93.8867 24.602 93.8083 24.3496C93.7703 24.227 93.7201 24.0924 93.6505 23.9787C93.6041 23.9029 93.4352 23.6447 93.1066 23.6447V24.6447ZM93.4621 26.7708C92.4371 27.3881 91.8265 27.5736 91.3674 27.493C90.9288 27.416 90.4701 27.0636 89.8436 26.1101L89.0079 26.6592C89.6591 27.6503 90.3195 28.3243 91.1945 28.478C92.0491 28.628 92.9467 28.2486 93.978 27.6275L93.4621 26.7708ZM73.1379 11.074C78.1217 15.6325 81.4505 18.1125 88.5569 22.3346L89.0676 21.4749C82.0129 17.2835 78.7405 14.8432 73.8128 10.3361L73.1379 11.074ZM88.3165 21.8397C88.1631 23.0098 88.0414 23.9838 88.1067 24.7692C88.175 25.5925 88.4527 26.2641 89.1198 26.7801L89.7316 25.9891C89.3393 25.6857 89.1546 25.3046 89.1032 24.6864C89.0487 24.0303 89.1501 23.1741 89.308 21.9698L88.3165 21.8397ZM69.2336 2.24252C73.4291 1.80058 76.4341 1.17833 79.9378 1.69441C83.4158 2.20669 87.4077 3.854 93.4338 8.06057L94.0062 7.24059C87.9175 2.99035 83.7775 1.24917 80.0836 0.705083C76.4154 0.16479 73.2084 0.818285 69.1288 1.24802L69.2336 2.24252ZM101.761 21.1379C99.9381 15.5826 98.4039 12.5177 94.105 7.33149L93.3351 7.96967C97.549 13.0533 99.0245 16.0059 100.811 21.4497L101.761 21.1379ZM100.786 21.2938V28.4209H101.786V21.2938H100.786ZM99.7755 31.3799C100.36 34.0173 100.582 35.8832 100.251 37.4368C99.9277 38.9575 99.0579 40.2435 97.2905 41.6757L97.9201 42.4526C99.7982 40.9308 100.843 39.4616 101.229 37.6451C101.609 35.8615 101.338 33.8082 100.752 31.1636L99.7755 31.3799ZM97.3766 41.6196C96.2494 42.1995 95.4149 42.767 94.6854 43.5039C93.96 44.2367 93.3587 45.1169 92.6744 46.2926L93.5387 46.7956C94.2074 45.6468 94.7587 44.8513 95.3961 44.2074C96.0295 43.5676 96.7679 43.0573 97.8341 42.5088L97.3766 41.6196ZM93.22 33.696V43.4896H94.22V33.696H93.22ZM93.2298 43.3911L92.6163 46.4457L93.5968 46.6426L94.2102 43.5881L93.2298 43.3911ZM92.6155 46.6382C93.3315 50.375 93.9134 52.0407 95.4024 53.6082L96.1274 52.9195C94.8512 51.576 94.3091 50.1633 93.5976 46.45L92.6155 46.6382ZM95.476 53.672C96.5531 54.4346 97.2747 54.9969 97.7299 55.5984C98.1606 56.1677 98.366 56.7924 98.3326 57.7259L99.3319 57.7617C99.3726 56.6282 99.1139 55.7703 98.5273 54.995C97.9651 54.252 97.116 53.6078 96.0538 52.8558L95.476 53.672ZM88.4771 77.7077C91.63 75.5951 93.8733 73.493 95.5635 70.4553C97.2449 67.4334 98.3587 63.5213 99.3252 57.8275L98.3393 57.6601C97.3784 63.3207 96.2872 67.0979 94.6897 69.9691C93.1009 72.8245 90.9911 74.8195 87.9205 76.877L88.4771 77.7077ZM73.026 55.3155L76.2978 62.0353L77.1969 61.5975L73.9251 54.8777L73.026 55.3155ZM76.2594 61.7075L75.8504 63.5402L76.8264 63.758L77.2354 61.9253L76.2594 61.7075ZM75.9167 63.9178C79.8568 70.1001 82.2216 73.4716 87.9005 77.6936L88.4971 76.8911C82.965 72.7782 80.6786 69.5289 76.76 63.3804L75.9167 63.9178ZM71.9995 48.6067C72.2816 48.7688 72.5609 48.9211 72.8376 49.0636L73.2954 48.1745C73.0331 48.0394 72.7673 47.8945 72.4976 47.7396L71.9995 48.6067ZM72.8376 49.0636C75.3681 50.3665 77.6855 50.8488 79.9681 50.4739C82.2425 50.1004 84.417 48.8866 86.6857 46.9221L86.0311 46.1661C83.8405 48.063 81.8316 49.1545 79.806 49.4871C77.7888 49.8184 75.6898 49.4074 73.2954 48.1745L72.8376 49.0636ZM62.3939 7.83585C60.2263 12.2104 58.9688 15.4626 58.5783 18.3426C58.1843 21.2487 58.677 23.7412 59.9306 26.5862L60.8457 26.183C59.6488 23.4667 59.2053 21.1613 59.5693 18.477C59.9367 15.7667 61.1314 12.6362 63.2899 8.27983L62.3939 7.83585ZM59.9329 26.5913C61.2449 29.4818 62.0599 31.8552 62.4439 34.5388C62.8286 37.2278 62.7845 40.2548 62.3446 44.4557L63.3392 44.5598C63.783 40.322 63.8352 37.2026 63.4338 34.3972C63.0316 31.5865 62.1778 29.1177 60.8434 26.178L59.9329 26.5913ZM62.7534 32.7464C62.9516 34.7484 63.1412 36.1066 63.5168 37.2098C63.9007 38.3372 64.47 39.1745 65.3726 40.1617L66.1106 39.4868C65.2664 38.5636 64.7888 37.8431 64.4634 36.8874C64.1297 35.9075 63.9475 34.6574 63.7486 32.648L62.7534 32.7464ZM65.3726 40.1617C65.7214 40.543 66.1217 40.9487 66.5805 41.4018L67.2832 40.6903C66.8281 40.2409 66.4421 39.8493 66.1106 39.4868L65.3726 40.1617ZM72.5701 48.5592C72.2766 50.9921 72.3179 52.451 72.888 54.8069L73.86 54.5717C73.3216 52.3473 73.2817 51.0101 73.5629 48.6789L72.5701 48.5592ZM72.888 54.8069C72.9207 54.9419 72.9551 55.0796 72.9911 55.2206L73.9599 54.9726C73.9248 54.8355 73.8915 54.702 73.86 54.5717L72.888 54.8069ZM65.242 39.843C65.3251 42.0614 65.374 44.0398 65.6186 45.7924L66.609 45.6542C66.3733 43.9651 66.3254 42.0519 66.2413 39.8055L65.242 39.843ZM65.9617 46.1996C66.7677 46.4571 67.3107 46.731 67.7723 47.1194C68.2396 47.5127 68.6537 48.0486 69.164 48.8805L70.0164 48.3576C69.4856 47.4924 69.0051 46.8499 68.4162 46.3543C67.8216 45.8539 67.147 45.5284 66.266 45.247L65.9617 46.1996ZM65.6186 45.7924C65.9845 48.4138 66.7956 50.5938 68.8445 52.4601L69.5179 51.7208C67.6967 50.062 66.9547 48.1309 66.609 45.6542L65.6186 45.7924ZM68.8445 52.4601C69.9257 53.445 71.3354 54.3276 73.1703 55.146L73.5777 54.2327C71.8103 53.4444 70.4993 52.6147 69.5179 51.7208L68.8445 52.4601ZM69.1215 48.7931C69.4806 49.7601 69.6427 50.3601 69.6145 50.7819C69.6018 50.9716 69.5502 51.113 69.4603 51.2366C69.3657 51.3669 69.2079 51.5055 68.9407 51.6521L69.4216 52.5289C69.771 52.3372 70.0611 52.111 70.2692 51.8245C70.4822 51.5315 70.5884 51.2044 70.6122 50.8488C70.657 50.1801 70.4071 49.3826 70.0589 48.445L69.1215 48.7931ZM62.3717 44.6778C63.3826 47.4723 64.2604 49.8203 65.3106 51.6066L66.1726 51.0997C65.178 49.4081 64.3304 47.1525 63.3121 44.3377L62.3717 44.6778ZM65.3106 51.6066C66.18 53.0852 67.1901 54.2196 68.5341 54.9129C69.8793 55.6068 71.4996 55.8283 73.5329 55.5933L73.4181 54.5999C71.515 54.8199 70.1096 54.6004 68.9926 54.0242C67.8743 53.4473 66.9857 52.4825 66.1726 51.0997L65.3106 51.6066ZM58.553 53.1069C59.7484 52.5543 60.6268 52.1835 61.6522 51.9755C62.6769 51.7676 63.8767 51.7173 65.7049 51.8518L65.7783 50.8545C63.904 50.7166 62.603 50.7622 61.4534 50.9954C60.3045 51.2285 59.3349 51.6438 58.1335 52.1991L58.553 53.1069ZM58.1757 53.1241C60.0301 53.7836 61.1344 55.9354 61.4822 59.1842C61.8255 62.3916 61.4022 66.467 60.4131 70.6091C59.4249 74.747 57.8804 78.9161 56.0076 82.3069C54.1234 85.7184 51.9526 88.2584 49.7522 89.2587L50.1661 90.169C52.669 89.0312 54.9714 86.2514 56.883 82.7903C58.8061 79.3085 60.3801 75.0524 61.3857 70.8414C62.3903 66.6346 62.8361 62.4376 62.4765 59.0778C62.1213 55.7595 60.9506 53.0496 58.5108 52.1819L58.1757 53.1241ZM45.5258 88.8554C46.231 89.5221 46.8622 90.0308 47.5916 90.2757C48.3418 90.5277 49.1269 90.4801 50.1004 90.1935L49.8179 89.2342C48.9561 89.4879 48.3959 89.491 47.9099 89.3278C47.4031 89.1575 46.9071 88.7851 46.2129 88.1288L45.5258 88.8554ZM45.4236 88.7187C46.0654 89.9811 46.5025 90.8964 46.6676 91.8285C46.828 92.7348 46.7355 93.6949 46.2207 95.0323L47.1539 95.3915C47.7168 93.9291 47.8519 92.7817 47.6522 91.6541C47.4572 90.5524 46.9465 89.5076 46.3151 88.2655L45.4236 88.7187ZM46.3036 95.5325C46.7164 96.0264 46.785 96.2533 46.7679 96.3916C46.7502 96.5349 46.6139 96.7903 45.9831 97.252L46.5736 98.059C47.2089 97.5941 47.6858 97.1167 47.7604 96.5144C47.8355 95.9071 47.4756 95.3754 47.071 94.8913L46.3036 95.5325ZM45.785 97.7367C46.144 99.9176 46.2681 100.857 45.4822 101.819L46.2565 102.452C47.3783 101.079 47.1116 99.6392 46.7717 97.5742L45.785 97.7367ZM45.3702 102.165C45.4359 103.286 45.4101 104.122 45.2089 104.764C45.0186 105.371 44.6657 105.823 44.0005 106.173L44.4663 107.058C45.3614 106.587 45.8925 105.926 46.1631 105.063C46.4229 104.234 46.4349 103.24 46.3685 102.106L45.3702 102.165ZM43.7349 106.653C43.7712 107.128 43.7655 107.481 43.6257 107.94C43.4799 108.42 43.1808 109.039 42.5801 110.019L43.4328 110.542C44.0455 109.542 44.3988 108.836 44.5825 108.231C44.7722 107.607 44.7733 107.117 44.732 106.577L43.7349 106.653ZM42.5681 110.521C42.7762 110.9 42.852 111.166 42.8539 111.356C42.8555 111.521 42.8033 111.666 42.6445 111.829C42.4698 112.008 42.17 112.201 41.6866 112.412C41.2086 112.62 40.5869 112.83 39.7996 113.059L40.0787 114.019C40.881 113.786 41.55 113.562 42.0857 113.329C42.6162 113.098 43.0532 112.842 43.3603 112.527C43.6835 112.196 43.8582 111.803 43.8538 111.347C43.8497 110.917 43.6866 110.481 43.4448 110.04L42.5681 110.521ZM39.4752 113.352L38.6572 115.389L39.5851 115.761L40.4031 113.725L39.4752 113.352ZM39.1212 116.075H42.1885V115.075H39.1212V116.075ZM41.7645 115.84L47.4902 125.003L48.3383 124.473L42.6126 115.31L41.7645 115.84ZM47.4255 124.844C48.232 128.589 48.8365 130.808 51.7737 135.981L52.6433 135.488C49.7622 130.413 49.1909 128.292 48.403 124.633L47.4255 124.844ZM51.7097 135.769L52.3232 144.728L53.3208 144.66L52.7074 135.7L51.7097 135.769ZM52.4171 144.401C51.8182 145.228 51.3731 145.612 50.9152 145.753C50.4613 145.893 49.8796 145.829 48.915 145.451L48.5494 146.381C49.5695 146.782 50.421 146.952 51.21 146.709C51.9949 146.466 52.6024 145.85 53.2269 144.988L52.4171 144.401ZM48.513 145.467C47.2916 146.062 46.5134 146.334 45.9439 146.345C45.6768 146.35 45.4618 146.297 45.2653 146.189C45.0626 146.078 44.8544 145.895 44.6255 145.606L43.8414 146.226C44.123 146.582 44.4283 146.87 44.7846 147.066C45.1471 147.264 45.5367 147.353 45.9625 147.345C46.7787 147.33 47.7392 146.957 48.9514 146.365L48.513 145.467ZM44.0307 145.459C43.0804 145.881 42.4767 146.055 41.9704 145.986C41.4965 145.922 41.0005 145.626 40.3291 144.789L39.5491 145.414C40.2847 146.331 40.9884 146.862 41.8362 146.977C42.6516 147.088 43.4916 146.792 44.4362 146.373L44.0307 145.459ZM39.8111 144.618C38.7123 144.909 37.9953 145.032 37.4571 144.989C36.9641 144.949 36.6029 144.768 36.2145 144.353L35.4842 145.036C36.0208 145.609 36.6055 145.923 37.3767 145.985C38.1027 146.044 38.9681 145.876 40.0672 145.585L39.8111 144.618ZM33.7135 127.174C33.6365 131.922 33.8799 134.469 35.3829 138.358L36.3157 137.998C34.8758 134.272 34.6375 131.866 34.7134 127.19L33.7135 127.174ZM35.3493 138.178V144.694H36.3493V138.178H35.3493ZM29.8547 130.686C29.364 132.128 29.0436 133.236 28.6097 134.036C28.3996 134.424 28.1802 134.703 27.9323 134.893C27.6909 135.079 27.399 135.2 27.0096 135.237L27.1029 136.232C27.6664 136.18 28.1408 135.995 28.5425 135.686C28.9378 135.381 29.2385 134.975 29.4888 134.513C29.976 133.614 30.3385 132.368 30.8014 131.008L29.8547 130.686ZM26.647 135.447C25.8549 136.576 25.3426 137.539 25.1296 138.598C24.9163 139.659 25.0133 140.764 25.3426 142.162L26.316 141.932C26.0022 140.601 25.9369 139.656 26.1099 138.795C26.2832 137.933 26.706 137.104 27.4655 136.022L26.647 135.447ZM25.423 141.756L24.4006 143.181L25.2132 143.764L26.2356 142.338L25.423 141.756ZM24.631 143.941C39.0572 149.36 50.5476 153.887 60.5766 156.093C70.6294 158.304 79.2678 158.197 87.993 154.314L87.5865 153.401C79.1143 157.17 70.7075 157.297 60.7914 155.116C50.8515 152.93 39.4492 148.439 24.9827 143.004L24.631 143.941ZM83.8972 150.489C85.3694 150.51 86.12 150.761 86.5502 151.21C86.9909 151.669 87.214 152.455 87.2905 153.884L88.2891 153.831C88.2121 152.392 87.9879 151.264 87.2721 150.518C86.5457 149.76 85.4304 149.511 83.9117 149.489L83.8972 150.489ZM84.4044 149.989V146.934H83.4044V149.989H84.4044ZM84.3082 147.229L92.4878 136.029L91.6803 135.44L83.5007 146.639L84.3082 147.229ZM92.3922 136.128L95.255 133.888L94.6388 133.101L91.7759 135.341L92.3922 136.128ZM95.4464 133.473L95.2419 128.789L94.2429 128.833L94.4474 133.516L95.4464 133.473ZM95.0066 129.236L96.6425 128.217L96.1142 127.368L94.4782 128.387L95.0066 129.236ZM96.8783 127.793V123.924H95.8783V127.793H96.8783ZM96.5215 124.403L98.5664 123.792L98.2801 122.834L96.2352 123.445L96.5215 124.403ZM98.9232 123.313V119.851H97.9232V123.313H98.9232ZM98.4232 120.351H100.059V119.351H98.4232V120.351ZM100.559 119.851V116.186H99.5592V119.851H100.559ZM100.141 116.679L102.595 116.272L102.431 115.285L99.9773 115.693L100.141 116.679ZM103.013 115.779V112.724H102.013V115.779H103.013ZM102.972 112.922L104.813 108.646L103.894 108.25L102.054 112.527L102.972 112.922ZM104.353 108.448C104.68 108.827 104.68 108.827 104.68 108.827C104.68 108.827 104.68 108.827 104.68 108.826C104.68 108.826 104.681 108.826 104.681 108.826C104.681 108.825 104.682 108.825 104.683 108.824C104.685 108.822 104.689 108.819 104.693 108.816C104.701 108.809 104.712 108.799 104.728 108.785C104.758 108.759 104.802 108.72 104.859 108.669C104.972 108.568 105.135 108.422 105.334 108.237C105.732 107.867 106.278 107.344 106.87 106.728C108.043 105.507 109.436 103.883 110.186 102.356L109.289 101.915C108.611 103.295 107.311 104.826 106.149 106.035C105.574 106.634 105.042 107.144 104.654 107.504C104.46 107.684 104.302 107.826 104.194 107.923C104.139 107.971 104.097 108.008 104.069 108.033C104.055 108.045 104.044 108.054 104.037 108.06C104.034 108.064 104.031 108.066 104.029 108.067C104.028 108.068 104.028 108.068 104.028 108.069C104.027 108.069 104.027 108.069 104.027 108.069C104.027 108.069 104.027 108.069 104.027 108.069C104.027 108.069 104.027 108.069 104.353 108.448ZM110.186 102.356C111.315 100.059 111.55 96.8505 111.52 94.2809C111.505 92.984 111.422 91.8265 111.343 90.9932C111.304 90.5763 111.265 90.2398 111.236 90.0068C111.221 89.8903 111.209 89.7997 111.201 89.7377C111.197 89.7067 111.193 89.6829 111.191 89.6666C111.19 89.6584 111.189 89.6522 111.188 89.6478C111.188 89.6457 111.188 89.644 111.188 89.6428C111.187 89.6422 111.187 89.6417 111.187 89.6413C111.187 89.6412 111.187 89.641 111.187 89.6409C111.187 89.6408 111.187 89.6407 110.693 89.7139C110.198 89.7871 110.198 89.787 110.198 89.787C110.198 89.787 110.198 89.787 110.198 89.7871C110.198 89.7872 110.198 89.7875 110.198 89.7879C110.198 89.7886 110.198 89.7899 110.199 89.7916C110.199 89.795 110.2 89.8004 110.201 89.8076C110.203 89.8221 110.206 89.844 110.21 89.8731C110.218 89.9312 110.23 90.0178 110.243 90.1301C110.271 90.3546 110.309 90.6814 110.348 91.0878C110.425 91.901 110.506 93.0299 110.52 94.2925C110.55 96.8417 110.307 99.844 109.289 101.915L110.186 102.356ZM111.19 89.7639C112.237 79.3486 112.181 72.4175 112.011 59.9769L111.011 59.9906C111.181 72.4291 111.236 79.3103 110.195 89.6638L111.19 89.7639ZM96.1804 53.542L96.5894 52.9311L95.7584 52.3749L95.3494 52.9858L96.1804 53.542ZM95.9913 53.1185C102.171 55.5412 105.624 56.8063 111.241 60.4047L111.78 59.5627C106.071 55.9048 102.532 54.6085 96.3564 52.1875L95.9913 53.1185ZM45.7862 82.8786C46.3284 85.9048 46.2884 87.0665 45.4651 88.1979L46.2736 88.7863C47.3727 87.276 47.309 85.7075 46.7705 82.7022L45.7862 82.8786ZM45.9371 82.425C36.9268 90.8393 32.1085 94.7307 24.417 97.802L24.7878 98.7307C32.6631 95.586 37.5955 91.583 46.6196 83.1558L45.9371 82.425ZM24.1049 98.3166C24.2884 100.135 25.231 102.09 27.4636 104.797C29.697 107.504 33.2664 111.016 38.7881 115.948L39.4543 115.202C33.938 110.275 30.417 106.806 28.235 104.16C26.0521 101.514 25.2542 99.745 25.0999 98.2162L24.1049 98.3166ZM14.3247 95.0982C19.5432 95.6554 22.1415 96.0199 24.2137 98.5809L24.9911 97.9519C22.6162 95.0168 19.5607 94.6516 14.4309 94.1038L14.3247 95.0982ZM58.1978 52.1746C49.1989 54.9098 44.2337 58.1688 35.5323 65.2986L36.1661 66.0721C44.8182 58.9827 49.6662 55.8129 58.4886 53.1314L58.1978 52.1746ZM35.4889 65.3388L7.67822 94.2544L8.39896 94.9476L36.2096 66.032L35.4889 65.3388ZM7.64189 94.2967C5.83106 96.657 4.47845 98.6699 4.50026 100.893C4.52229 103.138 5.93405 105.433 9.12936 108.407L9.81068 107.675C6.64863 104.732 5.51793 102.688 5.50021 100.883C5.48228 99.0555 6.59264 97.3072 8.43529 94.9053L7.64189 94.2967ZM33.8379 126.852C33.8296 126.861 33.8242 126.867 33.8211 126.871C33.8198 126.872 33.8183 126.874 33.8171 126.876C33.817 126.876 33.8158 126.877 33.8144 126.879C33.814 126.879 33.8132 126.88 33.8121 126.881C33.8116 126.882 33.8105 126.883 33.8098 126.884C33.8089 126.885 33.8066 126.888 33.8052 126.89C33.8027 126.893 33.7951 126.903 33.79 126.909C33.7717 126.937 33.8213 127.537 34.3829 127.667C34.4594 127.628 34.5373 127.568 34.5464 127.559C34.55 127.555 34.5554 127.55 34.5573 127.548C34.5584 127.546 34.5604 127.544 34.5612 127.543C34.5618 127.543 34.5628 127.542 34.5632 127.541C34.5641 127.54 34.5649 127.539 34.5653 127.539C34.5661 127.538 34.5667 127.537 34.567 127.537C34.5676 127.536 34.5682 127.536 34.5684 127.536C34.57 127.534 34.5732 127.53 34.5762 127.527C34.5796 127.523 34.5837 127.518 34.5878 127.514C34.5919 127.509 34.596 127.504 34.5994 127.5C34.6026 127.497 34.6058 127.493 34.6074 127.491C34.6077 127.491 34.608 127.49 34.6085 127.49C34.6087 127.49 34.609 127.489 34.6094 127.489C34.6097 127.489 34.6105 127.488 34.6115 127.487C34.6119 127.486 34.613 127.485 34.6142 127.483C34.6148 127.483 34.6163 127.481 34.6172 127.48C34.6185 127.478 34.6219 127.474 34.6241 127.471C34.6284 127.466 34.6451 127.442 34.657 127.424C34.7019 126.992 34.1381 126.67 33.9091 126.779C33.8957 126.791 33.8784 126.808 33.874 126.812C33.8718 126.814 33.8683 126.818 33.8669 126.819C33.8646 126.822 33.8628 126.824 33.8622 126.824C33.8614 126.825 33.8608 126.826 33.8604 126.826C33.8596 126.827 33.859 126.828 33.8588 126.828C33.8578 126.829 33.8568 126.83 33.8564 126.831C33.8559 126.832 33.8552 126.832 33.8545 126.833C33.8516 126.836 33.8464 126.842 33.8385 126.851L34.5884 127.513C34.5963 127.504 34.6011 127.498 34.6036 127.496C34.6042 127.495 34.6046 127.494 34.6048 127.494C34.6052 127.494 34.6048 127.494 34.6041 127.495C34.6039 127.495 34.6034 127.496 34.6027 127.497C34.6023 127.497 34.6017 127.498 34.6009 127.498C34.6003 127.499 34.5986 127.501 34.5962 127.504C34.5949 127.505 34.5914 127.509 34.5892 127.511C34.5848 127.515 34.5674 127.532 34.5541 127.544C34.3251 127.653 33.7613 127.331 33.8062 126.899C33.818 126.88 33.8348 126.857 33.8391 126.852C33.8412 126.849 33.8447 126.845 33.846 126.843C33.8468 126.842 33.8483 126.84 33.8489 126.84C33.8502 126.838 33.8512 126.837 33.8516 126.836C33.8526 126.835 33.8533 126.834 33.8535 126.834C33.8539 126.834 33.8541 126.834 33.8543 126.833C33.8544 126.833 33.8545 126.833 33.8546 126.833C33.8546 126.833 33.8546 126.833 33.8546 126.833C33.8547 126.833 33.8546 126.833 33.8545 126.833C33.8544 126.833 33.8543 126.833 33.8541 126.834C33.8537 126.834 33.8533 126.834 33.8527 126.835C33.8516 126.836 33.8502 126.838 33.8486 126.84C33.8453 126.844 33.8413 126.848 33.8373 126.853C33.8332 126.857 33.8293 126.862 33.8261 126.865C33.8245 126.867 33.8231 126.869 33.8221 126.87C33.8209 126.871 33.8205 126.872 33.8205 126.872C33.8205 126.872 33.8209 126.871 33.8214 126.871C33.8216 126.87 33.8222 126.87 33.823 126.869C33.8233 126.869 33.8241 126.868 33.825 126.867C33.8254 126.866 33.8264 126.865 33.827 126.865C33.8277 126.864 33.8297 126.862 33.8308 126.86C33.8327 126.858 33.8381 126.853 33.8417 126.849C33.8508 126.841 33.9287 126.78 34.0052 126.741C34.5668 126.871 34.6165 127.472 34.5981 127.499C34.593 127.505 34.5854 127.515 34.583 127.518C34.5816 127.52 34.5792 127.523 34.5783 127.524C34.5776 127.525 34.5765 127.526 34.576 127.527C34.575 127.528 34.5742 127.529 34.5738 127.529C34.573 127.53 34.5723 127.531 34.5721 127.531C34.5718 127.532 34.5716 127.532 34.5715 127.532C34.5711 127.532 34.5713 127.532 34.5729 127.53C34.5756 127.527 34.5807 127.521 34.589 127.512L33.8379 126.852ZM33.8385 126.851C32.3701 128.516 31.3535 129.581 30.0548 130.429L30.6013 131.266C32.0252 130.337 33.12 129.177 34.5884 127.513L33.8385 126.851ZM9.13132 108.408C15.9164 114.657 20.6319 118.651 27.1753 123.313L27.7555 122.499C21.2574 117.869 16.5753 113.904 9.80872 107.673L9.13132 108.408ZM27.2729 123.367C29.7454 124.399 32.2354 125.291 33.8077 127.474L34.6191 126.89C32.8449 124.427 30.0314 123.435 27.658 122.444L27.2729 123.367ZM39.4391 139.4V145.102H40.4391V139.4H39.4391ZM43.7334 139.807V145.916H44.7334V139.807H43.7334ZM48.2322 140.825V145.916H49.2322V140.825H48.2322ZM110.938 90.1497C111.531 89.8161 112.034 89.4727 112.554 88.7919C113.058 88.1326 113.565 87.1731 114.22 85.6335L113.3 85.2417C112.651 86.7651 112.184 87.6292 111.759 88.185C111.351 88.7194 110.973 88.9825 110.448 89.278L110.938 90.1497ZM113.261 85.4082C112.722 94.5497 114.156 101.462 120.246 117.383L121.18 117.025C115.107 101.151 113.733 94.3966 114.259 85.467L113.261 85.4082ZM120.39 116.822C110.072 125.527 104.513 128.734 94.7453 133.037L95.1485 133.952C105.002 129.611 110.643 126.354 121.035 117.586L120.39 116.822ZM87.728 154.354L89.3642 154.557L89.4877 153.565L87.8515 153.361L87.728 154.354ZM88.9449 154.198C89.1223 154.822 89.3003 155.365 89.5038 155.799C89.7045 156.227 89.9554 156.606 90.3095 156.842C90.6898 157.096 91.1219 157.141 91.5765 157.027C92.0091 156.918 92.4754 156.663 92.986 156.303L92.4095 155.485C91.9356 155.82 91.5883 155.992 91.3326 156.057C91.0989 156.115 90.9679 156.079 90.8642 156.01C90.7342 155.924 90.5802 155.739 90.4093 155.374C90.2412 155.016 90.0807 154.537 89.9069 153.925L88.9449 154.198ZM92.4553 156.331C93.6153 156.974 94.5244 157.39 95.2962 157.474C95.6986 157.518 96.0734 157.474 96.4287 157.325C96.7794 157.177 97.0809 156.94 97.3582 156.642L96.6259 155.961C96.4129 156.19 96.2236 156.326 96.0411 156.403C95.8632 156.478 95.6624 156.508 95.405 156.48C94.857 156.42 94.1092 156.105 92.9402 155.457L92.4553 156.331ZM96.492 154.672V156.301H97.492V154.672H96.492ZM97.3898 154.975C100.107 151.409 101.41 148.606 103.397 142.612L102.448 142.297C100.478 148.238 99.2175 150.926 96.5943 154.369L97.3898 154.975ZM103.143 142.903C115.47 136.847 122.302 133.257 133.677 125.353L133.106 124.531C121.789 132.396 115.007 135.96 102.702 142.006L103.143 142.903ZM133.921 115.052C134.368 117.559 134.595 119.363 134.481 120.844C134.368 122.296 133.926 123.444 132.997 124.634L133.785 125.25C134.834 123.906 135.35 122.571 135.478 120.921C135.603 119.299 135.352 117.382 134.906 114.876L133.921 115.052ZM111.364 60.4617C115.468 61.7205 118.403 62.8936 120.592 64.9982C122.77 67.0926 124.265 70.1676 125.335 75.357L126.315 75.1551C125.226 69.8731 123.671 66.5714 121.285 64.2773C118.909 61.9933 115.766 60.766 111.657 59.5057L111.364 60.4617ZM125.336 75.3618L133.925 115.07L134.902 114.858L126.314 75.1504L125.336 75.3618ZM24.3338 143.311C16.1704 167.189 12.5743 180.258 20.6792 196.437L21.5733 195.989C13.6782 180.229 17.1038 167.55 25.28 143.634L24.3338 143.311ZM20.648 196.359C23.5145 205.751 25.2827 213.839 25.8138 220.687L26.8108 220.61C26.2719 213.66 24.4819 205.495 21.6045 196.067L20.648 196.359ZM25.8231 220.752C27.3805 228.132 28.5891 234.68 28.9491 240.31C29.3094 245.945 28.8149 250.601 27.0174 254.229L27.9135 254.673C29.8253 250.814 30.3118 245.951 29.9471 240.246C29.582 234.538 28.3594 227.928 26.8016 220.545L25.8231 220.752ZM26.9727 254.367C24.1195 270.951 24.5676 280.91 26.9697 299.112L27.9611 298.981C25.5668 280.838 25.1278 270.988 27.9582 254.536L26.9727 254.367ZM26.9702 299.115C27.7506 304.735 28.3171 308.965 28.6095 312.239C28.9024 315.518 28.9158 317.796 28.609 319.526L29.5937 319.701C29.9246 317.835 29.9001 315.447 29.6056 312.15C29.3106 308.847 28.7403 304.592 27.9607 298.978L26.9702 299.115ZM28.9119 320.076C31.4346 321.109 33.4683 321.781 35.5268 321.847C37.6004 321.914 39.6482 321.365 42.2113 320.059L41.7572 319.168C39.2889 320.426 37.411 320.907 35.5589 320.848C33.6917 320.788 31.7996 320.178 29.2908 319.151L28.9119 320.076ZM41.4911 314.402C41.8646 316.63 42.0144 317.763 41.5051 319.47L42.4634 319.756C43.0441 317.81 42.8524 316.474 42.4774 314.236L41.4911 314.402ZM42.4327 314.54C42.9388 313.513 43.3171 312.639 43.4236 311.712C43.5321 310.767 43.3546 309.816 42.854 308.627L41.9324 309.015C42.3899 310.101 42.5131 310.875 42.4301 311.598C42.3452 312.337 42.04 313.075 41.5357 314.098L42.4327 314.54ZM42.8364 309.052C43.7699 307.265 43.8871 305.755 43.5033 302.451L42.51 302.566C42.8865 305.807 42.7428 307.071 41.95 308.589L42.8364 309.052ZM43.4861 302.65C47.1746 290.202 48.9132 282.46 49.8452 263.843L48.8465 263.793C47.9187 282.326 46.1945 289.99 42.5273 302.366L43.4861 302.65ZM49.839 263.901C50.8447 257.889 52.1583 253.133 54.0887 248.115L53.1554 247.756C51.1999 252.84 49.869 257.66 48.8527 263.736L49.839 263.901ZM54.0953 248.097C54.859 245.859 55.4682 243.304 55.8746 240.056L54.8824 239.932C54.4836 243.119 53.8885 245.606 53.1489 247.774L54.0953 248.097ZM55.8651 239.879C55.1314 236.771 55.3672 232.083 56.3842 225.202L55.3949 225.055C54.379 231.929 54.1091 236.793 54.8919 240.109L55.8651 239.879ZM59.2909 204.843C57.3288 212.405 56.1596 216.636 55.3916 225.083L56.3875 225.174C57.1475 216.815 58.2976 212.653 60.2588 205.095L59.2909 204.843ZM60.502 193.961C60.3827 198.738 60.238 201.266 59.2915 204.841L60.2582 205.097C61.2363 201.402 61.382 198.776 61.5016 193.985L60.502 193.961ZM61.3774 194.303L62.8088 192.674L62.0576 192.014L60.6262 193.643L61.3774 194.303ZM62.1413 192.75L69.5029 198.044L70.0868 197.232L62.7252 191.938L62.1413 192.75ZM69.4086 197.956C80.7666 211.772 87.4314 219.243 99.6964 232.192L100.422 231.505C88.1717 218.57 81.5227 211.117 70.1811 197.321L69.4086 197.956ZM99.6431 232.125C102.742 236.785 104.956 240.527 106.506 244.757C108.056 248.984 108.951 253.726 109.376 260.389L110.374 260.325C109.946 253.603 109.038 248.759 107.445 244.413C105.854 240.069 103.586 236.249 100.476 231.572L99.6431 232.125ZM109.381 260.436C111.924 276.265 113.484 285.079 119.442 297.833L120.348 297.41C114.453 284.792 112.91 276.096 110.369 260.277L109.381 260.436ZM119.395 297.637C119.463 299.761 119.547 301.43 119.868 302.756C120.195 304.111 120.776 305.137 121.839 305.959L122.45 305.167C121.601 304.511 121.125 303.701 120.84 302.521C120.547 301.313 120.463 299.75 120.395 297.605L119.395 297.637ZM121.645 305.584L122.054 315.358L123.053 315.316L122.644 305.542L121.645 305.584ZM135.03 311.964C135.301 312.34 135.455 312.611 135.536 312.943C135.62 313.283 135.638 313.73 135.553 314.465L136.546 314.58C136.637 313.796 136.632 313.212 136.508 312.704C136.381 312.188 136.14 311.794 135.842 311.38L135.03 311.964ZM132.281 257.766C134.568 277.99 135.172 289.769 134.936 311.666L135.936 311.677C136.172 289.741 135.566 277.92 133.275 257.653L132.281 257.766ZM128.394 233.307C128.944 241.497 129.777 246.837 132.29 257.821L133.265 257.598C130.76 246.649 129.937 241.364 129.391 233.24L128.394 233.307ZM129.373 233.136C119.838 199.767 111.97 183.443 93.0932 159.05L92.3023 159.662C111.09 183.94 118.906 200.145 128.412 233.411L129.373 233.136ZM92.1977 155.894V159.356H93.1977V155.894H92.1977ZM41.4842 319.613V324.093H42.4842V319.613H41.4842ZM41.7369 324.528C42.5318 324.98 43.1048 325.783 43.4921 327.586C43.8827 329.404 44.0625 332.137 44.1427 336.321L45.1425 336.302C45.0625 332.124 44.8833 329.3 44.4698 327.376C44.0531 325.436 43.377 324.31 42.2315 323.659L41.7369 324.528ZM46.3328 341.386C46.6672 340.563 46.8964 339.865 47.0122 339.267C47.1279 338.67 47.1365 338.142 46.9982 337.676C46.7096 336.702 45.8561 336.218 44.8125 335.841L44.4727 336.781C45.4812 337.146 45.8988 337.485 46.0395 337.96C46.1159 338.218 46.1287 338.57 46.0304 339.077C45.9323 339.584 45.7296 340.214 45.4063 341.01L46.3328 341.386ZM45.5912 340.783C43.5431 342.156 41.9077 343.273 40.9738 344.34C40.4988 344.883 40.166 345.455 40.0743 346.084C39.981 346.724 40.148 347.351 40.5369 347.978L41.3866 347.451C41.0912 346.975 41.0121 346.583 41.0639 346.228C41.1174 345.861 41.3209 345.462 41.7265 344.999C42.5538 344.053 44.0567 343.015 46.1479 341.614L45.5912 340.783ZM40.4641 347.666C40.3225 349.124 39.7696 350.06 38.8701 350.678C37.9405 351.317 36.5802 351.659 34.7453 351.772C31.0642 351.998 25.8163 351.293 19.1271 350.678L19.0356 351.674C25.6383 352.281 31.0238 353.002 34.8066 352.77C36.7037 352.653 38.2829 352.295 39.4365 351.502C40.6203 350.689 41.2944 349.461 41.4594 347.763L40.4641 347.666ZM25.5108 336.339C25.5996 334.727 25.7866 333.702 26.1079 332.929C26.4228 332.171 26.8822 331.619 27.5944 330.982L26.9275 330.237C26.1533 330.93 25.5778 331.599 25.1846 332.545C24.7977 333.475 24.6032 334.636 24.5123 336.284L25.5108 336.339ZM30.2489 323.274C28.3987 324.551 27.1189 325.629 26.522 326.809C25.8906 328.056 26.0598 329.324 26.8137 330.833L27.7082 330.386C27.0314 329.031 26.9802 328.118 27.4142 327.26C27.8827 326.334 28.9542 325.382 30.8167 324.098L30.2489 323.274ZM30.797 323.262L27.5252 321.225L26.9968 322.074L30.2686 324.111L30.797 323.262ZM27.745 321.524C27.576 320.871 27.4674 320.362 27.4287 319.983C27.4094 319.794 27.4095 319.656 27.4215 319.558C27.4337 319.458 27.4547 319.431 27.4506 319.437C27.3984 319.509 27.3506 319.423 27.6154 319.484C27.8762 319.544 28.2744 319.717 28.8537 320.048L29.349 319.179C28.7543 318.84 28.2504 318.604 27.8396 318.51C27.4329 318.416 26.9442 318.431 26.6404 318.85C26.5105 319.03 26.453 319.239 26.4289 319.436C26.4045 319.635 26.4104 319.855 26.4339 320.085C26.4807 320.543 26.6057 321.114 26.7769 321.775L27.745 321.524ZM130.119 323.779H132.573V322.779H130.119V323.779ZM133.064 323.375C133.232 322.517 133.419 321.897 133.641 321.474C133.859 321.06 134.081 320.887 134.308 320.824C134.554 320.755 134.919 320.782 135.484 321.017C136.044 321.25 136.738 321.66 137.604 322.264L138.176 321.443C137.29 320.826 136.527 320.368 135.868 320.094C135.215 319.822 134.598 319.704 134.038 319.861C133.459 320.023 133.052 320.447 132.756 321.009C132.465 321.562 132.256 322.297 132.083 323.183L133.064 323.375ZM122.43 315.822C126.116 316.76 128.976 317.405 131.148 317.486C133.336 317.569 134.953 317.083 135.993 315.628L135.18 315.046C134.42 316.109 133.216 316.564 131.185 316.487C129.138 316.41 126.381 315.796 122.677 314.853L122.43 315.822ZM135.993 315.628C136.187 315.356 136.357 315.057 136.505 314.729L135.594 314.317C135.469 314.592 135.331 314.834 135.18 315.046L135.993 315.628ZM135.087 315.318C135.026 316.877 135.014 318.158 135.342 319.27C135.68 320.418 136.364 321.347 137.593 322.255L138.187 321.451C137.094 320.643 136.565 319.884 136.301 318.988C136.027 318.056 136.024 316.937 136.086 315.357L135.087 315.318ZM137.674 322.304L143.195 324.951L143.627 324.05L138.106 321.402L137.674 322.304ZM143.244 324.029C142.544 324.278 141.963 324.517 141.512 324.765C141.069 325.009 140.697 325.29 140.481 325.651C140.245 326.047 140.233 326.473 140.389 326.896C140.534 327.291 140.826 327.688 141.203 328.097L141.939 327.42C141.59 327.042 141.404 326.76 141.327 326.55C141.26 326.369 141.28 326.264 141.34 326.164C141.419 326.031 141.606 325.855 141.994 325.641C142.374 325.432 142.896 325.215 143.579 324.972L143.244 324.029ZM141.089 327.894C143.392 336.107 145.247 340.757 150.755 348.701L151.577 348.131C146.143 340.294 144.33 335.75 142.052 327.624L141.089 327.894ZM150.755 348.701C150.828 348.806 150.902 348.912 150.976 349.019L151.796 348.447C151.723 348.341 151.65 348.236 151.577 348.131L150.755 348.701ZM151.5 355.867C151.502 356.049 151.46 356.197 151.379 356.326C151.294 356.459 151.151 356.6 150.911 356.737C150.42 357.018 149.602 357.241 148.355 357.371C145.874 357.629 141.921 357.5 136.093 356.991L136.006 357.987C141.834 358.496 145.872 358.635 148.459 358.365C149.746 358.231 150.733 357.991 151.408 357.605C151.752 357.408 152.032 357.164 152.224 356.86C152.418 356.553 152.505 356.212 152.5 355.853L151.5 355.867ZM122.063 315.241C121.964 315.742 121.876 316.222 121.8 316.681L122.786 316.844C122.861 316.397 122.947 315.927 123.044 315.433L122.063 315.241ZM121.8 316.681C121.546 318.212 121.421 319.535 121.514 320.626C121.606 321.721 121.923 322.641 122.605 323.297C123.286 323.953 124.256 324.272 125.495 324.331C126.732 324.391 128.293 324.195 130.228 323.767L130.011 322.791C128.111 323.211 126.65 323.386 125.543 323.333C124.437 323.279 123.74 323.002 123.298 322.577C122.857 322.152 122.592 321.504 122.51 320.542C122.428 319.576 122.536 318.352 122.786 316.844L121.8 316.681ZM115.726 329.891C115.197 332.287 115.19 334.108 116.031 335.661C116.863 337.197 118.471 338.367 120.894 339.607L121.35 338.717C118.954 337.49 117.588 336.436 116.91 335.185C116.242 333.952 116.191 332.425 116.702 330.106L115.726 329.891ZM120.888 339.604C123.763 341.127 125.657 342.453 126.654 344.038C127.625 345.581 127.795 347.455 126.981 350.221L127.941 350.503C128.801 347.578 128.679 345.377 127.5 343.505C126.349 341.675 124.236 340.246 121.356 338.72L120.888 339.604ZM127.03 350.615C128.163 352.539 129.136 354.044 130.46 355.233C131.794 356.432 133.452 357.282 135.915 357.97L136.184 357.007C133.82 356.347 132.315 355.556 131.128 354.49C129.93 353.414 129.023 352.03 127.892 350.108L127.03 350.615ZM124.223 337.456C125.802 339.248 126.927 340.684 127.772 342.364C128.615 344.04 129.191 345.987 129.625 348.809L130.614 348.657C130.169 345.772 129.57 343.715 128.665 341.915C127.762 340.117 126.566 338.603 124.973 336.795L124.223 337.456ZM129.747 349.066C131.819 351.385 133.581 352.965 135.61 353.798C137.653 354.637 139.901 354.691 142.893 354.111L142.703 353.129C139.812 353.69 137.783 353.609 135.989 352.872C134.181 352.13 132.545 350.696 130.492 348.399L129.747 349.066ZM142.936 354.1C144.609 353.618 145.893 353.479 146.958 353.699C148.004 353.916 148.898 354.492 149.772 355.565L150.547 354.933C149.562 353.724 148.48 352.993 147.161 352.72C145.862 352.451 144.394 352.639 142.659 353.139L142.936 354.1ZM150.669 348.472L151.252 353.675L152.246 353.564L151.663 348.36L150.669 348.472ZM151.252 353.675L151.503 355.915L152.497 355.804L152.246 353.564L151.252 353.675ZM150.163 355.749C150.608 355.746 151.06 355.679 151.444 355.315C151.794 354.983 152.021 354.463 152.228 353.762L151.27 353.478C151.067 354.162 150.899 354.454 150.756 354.589C150.647 354.692 150.51 354.747 150.156 354.749L150.163 355.749ZM24.7064 335.915C22.566 337.564 20.842 339.026 19.5777 340.439C18.3109 341.854 17.4815 343.248 17.1683 344.762L18.1476 344.965C18.4127 343.682 19.125 342.444 20.3229 341.106C21.5233 339.764 23.187 338.348 25.3167 336.707L24.7064 335.915ZM17.1683 344.762C16.7527 346.773 17.2674 348.892 18.6423 351.415L19.5204 350.937C18.2024 348.517 17.7993 346.65 18.1476 344.965L17.1683 344.762ZM17.2843 345.196C18.7223 346.813 19.9034 347.828 21.0983 348.116C22.3592 348.42 23.4873 347.891 24.716 346.879L24.0801 346.107C22.9263 347.057 22.1255 347.335 21.3326 347.144C20.4737 346.937 19.4761 346.156 18.0317 344.531L17.2843 345.196ZM23.9891 346.993H30.5328V345.993H23.9891V346.993ZM30.1828 346.85C30.9675 347.619 31.6891 348.318 32.3879 348.869C33.0879 349.421 33.7959 349.849 34.5636 350.051C36.151 350.468 37.7815 349.871 39.8557 348.094L39.205 347.335C37.2177 349.037 35.9256 349.375 34.8177 349.084C34.2377 348.931 33.6549 348.594 33.0069 348.084C32.3577 347.572 31.6743 346.911 30.8828 346.136L30.1828 346.85ZM40.4618 339.971C40.4351 342.439 40.2829 343.938 39.0568 347.554L40.0039 347.875C41.2634 344.161 41.4339 342.557 41.4618 339.982L40.4618 339.971ZM100.76 31.2151C100.691 30.6089 100.754 30.2304 100.887 29.9121C101.029 29.5711 101.264 29.2643 101.629 28.7948L100.839 28.1808C100.495 28.6238 100.168 29.039 99.964 29.5269C99.7509 30.0375 99.6832 30.5947 99.7669 31.3284L100.76 31.2151ZM101.629 28.7947L101.681 28.7278L100.891 28.114L100.839 28.1809L101.629 28.7947ZM68.6955 1.86398C68.87 2.5779 68.8477 3.13598 68.6874 3.60317C68.5265 4.07215 68.2099 4.49832 67.7127 4.91921C66.6914 5.78374 65.0349 6.52961 62.7961 7.5306L63.2043 8.44351C65.3859 7.46809 67.203 6.66084 68.3588 5.68246C68.9501 5.1819 69.3978 4.61417 69.6333 3.92768C69.8694 3.23939 69.8756 2.48041 69.6669 1.62656L68.6955 1.86398ZM62.7961 7.53061L62.6378 7.60139L63.046 8.51428L63.2043 8.4435L62.7961 7.53061ZM63.046 8.51427C63.099 8.49057 63.1518 8.46698 63.2043 8.44351L62.7961 7.5306C62.7436 7.55407 62.6908 7.57768 62.6378 7.6014L63.046 8.51427ZM100.891 28.1141C100.874 28.1366 100.857 28.1588 100.839 28.1808L101.629 28.7948C101.646 28.7727 101.663 28.7503 101.681 28.7277L100.891 28.1141ZM24.3981 346.993H30.5328V345.993H24.3981V346.993ZM41.0308 340.472L41.1727 340.452L41.0347 339.461L40.8928 339.481L41.0308 340.472ZM41.1725 340.452C42.1641 340.314 43.1423 340.193 43.8651 339.612C44.6221 339.004 45.0065 337.988 45.1409 336.352L44.1443 336.27C44.0165 337.825 43.6675 338.488 43.2386 338.833C42.7756 339.205 42.1154 339.311 41.0349 339.461L41.1725 340.452ZM41.031 340.472C41.0786 340.465 41.1258 340.458 41.1725 340.452L41.0349 339.461C40.9879 339.468 40.9405 339.475 40.8926 339.481L41.031 340.472ZM93.5216 33.2371C93.5016 33.2457 93.4815 33.2543 93.4613 33.2628L93.8499 34.1842C93.8729 34.1745 93.8957 34.1648 93.9184 34.155L93.5216 33.2371ZM93.4612 33.2629C93.4525 33.2666 93.4436 33.2703 93.4345 33.2741L93.8196 34.197C93.8295 34.1928 93.8397 34.1885 93.8501 34.1842L93.4612 33.2629ZM93.8195 34.197C93.8527 34.1831 93.8857 34.1691 93.9184 34.155L93.5216 33.2371C93.4928 33.2495 93.4638 33.2618 93.4345 33.2741L93.8195 34.197ZM93.432 33.2751C93.4224 33.2791 93.4128 33.2831 93.4032 33.2871L93.784 34.2117C93.7949 34.2072 93.8058 34.2027 93.8167 34.1981L93.432 33.2751ZM91.7815 34.8148C92.4795 34.6628 93.1104 34.4798 93.6785 34.2544L93.3096 33.3249C92.804 33.5256 92.2275 33.6943 91.5687 33.8377L91.7815 34.8148ZM93.817 34.198L93.8197 34.1969L93.4343 33.2741L93.4317 33.2752L93.817 34.198ZM93.8499 34.1842C95.4561 33.5068 96.5107 32.4745 97.1616 30.8878C97.797 29.3388 98.039 27.2812 98.1052 24.5641L97.1055 24.5398C97.0397 27.241 96.7975 29.1404 96.2364 30.5083C95.6908 31.8384 94.8365 32.6828 93.4613 33.2628L93.8499 34.1842ZM93.432 33.2751C93.4056 33.2861 93.379 33.297 93.3523 33.3078L93.7265 34.2351C93.7568 34.2229 93.7868 34.2106 93.8167 34.1982L93.432 33.2751ZM93.3522 33.3078C93.3379 33.3136 93.3238 33.3193 93.3096 33.3249L93.6784 34.2544C93.6947 34.248 93.7107 34.2415 93.7266 34.2351L93.3522 33.3078ZM93.4031 33.2871C93.3863 33.294 93.3693 33.3009 93.3522 33.3078L93.7266 34.2351C93.7458 34.2274 93.7649 34.2196 93.7841 34.2117L93.4031 33.2871ZM93.785 34.2113L93.8158 34.1985L93.4329 33.2747L93.4022 33.2875L93.785 34.2113ZM93.8204 34.1966L93.849 34.1846L93.4622 33.2624L93.4336 33.2744L93.8204 34.1966ZM121.82 316.601C120.595 320.185 119.641 322.664 118.387 325.16L119.28 325.609C120.565 323.053 121.536 320.524 122.766 316.924L121.82 316.601ZM118.387 325.16C118.306 325.319 118.225 325.479 118.142 325.639L119.03 326.099C119.115 325.935 119.198 325.772 119.28 325.609L118.387 325.16ZM118.136 325.651C117.201 327.581 116.923 329.417 117.869 331.379C118.79 333.288 120.837 335.242 124.323 337.543L124.874 336.708C121.418 334.427 119.567 332.597 118.77 330.945C117.999 329.345 118.186 327.843 119.036 326.087L118.136 325.651ZM118.392 325.148C118.302 325.317 118.217 325.484 118.136 325.651L119.036 326.087C119.11 325.933 119.19 325.778 119.274 325.62L118.392 325.148ZM121.82 316.601C120.518 320.413 119.521 322.976 118.142 325.639L119.03 326.099C120.442 323.371 121.458 320.754 122.766 316.924L121.82 316.601ZM118.142 325.639C117.475 326.926 116.718 328.241 115.789 329.735L116.639 330.262C117.577 328.753 118.349 327.415 119.03 326.099L118.142 325.639ZM63.1384 107.102C71.1224 108.947 75.9104 108.284 79.2942 105.678C80.9711 104.386 82.2649 102.644 83.4294 100.587C84.5915 98.5343 85.6434 96.1318 86.8149 93.5105L85.9019 93.1025C84.7219 95.7429 83.6922 98.093 82.5591 100.095C81.4284 102.092 80.2134 103.707 78.684 104.886C75.6552 107.219 71.2411 107.948 63.3636 106.128L63.1384 107.102Z" fill="black"/>
<defs>
<filter id="filter0_d_150_177" x="0.5" y="0.50061" width="156" height="365.999" filterUnits="userSpaceOnUse" color-interpolation-filters="sRGB">
<feFlood flood-opacity="0" result="BackgroundImageFix"/>
<feColorMatrix in="SourceAlpha" type="matrix" values="0 0 0 0 0 0 0 0 0 0 0 0 0 0 0 0 0 0 127 0" result="hardAlpha"/>
<feOffset dy="4"/>
<feGaussianBlur stdDeviation="2"/>
<feComposite in2="hardAlpha" operator="out"/>
<feColorMatrix type="matrix" values="0 0 0 0 0 0 0 0 0 0 0 0 0 0 0 0 0 0 0.25 0"/>
<feBlend mode="normal" in2="BackgroundImageFix" result="effect1_dropShadow_150_177"/>
<feBlend mode="normal" in="SourceGraphic" in2="effect1_dropShadow_150_177" result="shape"/>
</filter>
</defs>
</svg>
